<?xml version="1.0" standalone="no"?>
<!DOCTYPE svg PUBLIC "-//W3C//DTD SVG 20010904//EN"
 "http://www.w3.org/TR/2001/REC-SVG-20010904/DTD/svg10.dtd">
<svg version="1.0" xmlns="http://www.w3.org/2000/svg"
 width="410.000000pt" height="439.000000pt" viewBox="0 0 410.000000 439.000000"
 preserveAspectRatio="xMidYMid meet">
<metadata>
Created by potrace 1.16, written by Peter Selinger 2001-2019
</metadata>
<g transform="translate(0.000000,439.000000) scale(0.100000,-0.100000)"
fill="currentColor" stroke="none">
<path d="M3899 4362 c-68 -44 -188 -161 -334 -327 -73 -83 -191 -205 -261
-271 -183 -169 -187 -173 -417 -441 -337 -393 -542 -620 -840 -932 -369 -385
-437 -461 -444 -493 -5 -26 -73 -115 -181 -238 -49 -55 -163 -195 -266 -325
-30 -38 -70 -88 -90 -110 -19 -22 -38 -53 -42 -69 -7 -30 -84 -108 -141 -142
-19 -12 -61 -25 -96 -28 -171 -19 -387 -102 -502 -193 -28 -22 -80 -59 -117
-82 -70 -44 -143 -118 -160 -161 -8 -20 -5 -28 12 -42 12 -10 16 -19 10 -23
-17 -10 -11 -44 9 -54 11 -6 53 -8 102 -5 l84 6 -53 -38 c-41 -29 -52 -43 -52
-65 0 -15 7 -29 15 -33 9 -3 55 6 102 19 47 14 88 24 90 22 2 -2 -35 -39 -82
-82 -50 -45 -85 -85 -85 -96 0 -10 4 -19 10 -19 5 0 59 18 120 40 l111 39 -26
-31 c-29 -35 -29 -58 0 -73 14 -7 20 -20 20 -44 0 -19 6 -38 15 -43 24 -16 92
8 165 57 l66 44 -22 -35 c-19 -32 -20 -37 -7 -51 13 -12 23 -13 54 -4 53 15
58 14 69 -12 13 -28 74 -34 136 -13 38 13 45 13 59 1 67 -61 239 64 382 277
86 129 139 223 165 296 30 81 43 97 109 128 45 21 65 41 147 152 52 70 123
163 159 208 72 90 238 330 238 345 0 6 31 42 68 82 37 40 135 162 217 272 82
110 210 277 285 370 163 203 443 574 672 890 91 127 212 289 267 360 56 72
130 180 165 240 35 61 99 160 142 220 100 139 147 239 152 322 6 88 -3 124
-44 171 -30 35 -41 42 -73 42 -24 0 -53 -10 -82 -28z m95 -94 c46 -65 2 -176
-155 -398 -37 -52 -92 -138 -122 -192 -30 -53 -113 -172 -185 -265 -71 -92
-180 -240 -242 -328 -140 -198 -555 -752 -704 -940 -62 -77 -164 -210 -227
-295 -63 -85 -143 -185 -178 -222 l-63 -67 -76 58 c-109 82 -188 134 -257 169
-33 16 -68 39 -79 51 -18 20 -18 21 10 58 15 20 80 91 143 158 169 176 440
470 576 625 66 74 189 214 275 310 86 96 221 249 300 340 133 153 212 235 675
704 158 160 265 256 285 256 5 0 16 -10 24 -22z m-2488 -2724 c30 -20 84 -63
119 -95 36 -32 84 -68 107 -80 24 -12 64 -37 91 -55 26 -19 55 -34 64 -34 12
0 4 -13 -27 -45 -24 -25 -47 -45 -50 -45 -3 0 -45 35 -92 78 -104 94 -218 178
-275 204 -24 10 -43 21 -43 25 0 8 43 83 48 83 2 0 28 -16 58 -36z m-31 -350
c102 -77 132 -101 198 -161 l38 -34 -23 -29 c-13 -16 -28 -29 -33 -29 -6 -1
-35 24 -65 54 -38 38 -72 62 -110 76 -30 11 -72 31 -92 45 -21 13 -40 24 -44
24 -3 0 -35 21 -70 47 -69 50 -69 49 -14 110 l35 39 40 -34 c22 -18 85 -67
140 -108z m-354 -186 c151 -148 259 -238 324 -270 33 -17 62 -32 64 -34 3 -2
-7 -17 -20 -32 -14 -15 -34 -47 -45 -72 -10 -25 -38 -68 -61 -96 -22 -28 -52
-69 -66 -90 -68 -109 -205 -261 -281 -314 l-43 -29 5 24 c7 41 -36 43 -101 6
-30 -17 -59 -31 -65 -31 -5 0 -9 15 -8 33 1 28 -2 32 -24 31 -14 -1 -52 -13
-84 -28 -33 -15 -55 -21 -50 -14 65 86 124 156 185 218 70 71 209 241 209 255
0 4 -58 -49 -129 -117 -119 -114 -340 -282 -438 -332 -32 -16 -33 -16 -33 3 0
11 -5 23 -12 27 -7 4 17 34 66 79 61 57 77 78 74 96 -4 29 -39 37 -71 16 -21
-13 -186 -89 -235 -108 -18 -7 -9 8 35 60 43 51 68 72 98 81 86 26 187 81 282
153 93 70 213 189 213 210 0 5 -27 -16 -60 -46 -95 -89 -286 -201 -413 -243
-59 -20 -110 -34 -113 -31 -3 2 14 19 36 37 29 23 40 39 38 54 -2 17 -9 21
-41 20 -37 -1 -36 0 44 43 86 45 177 107 264 177 28 22 52 41 54 43 2 2 2 6
-1 9 -3 3 -31 -11 -62 -31 -128 -81 -467 -233 -499 -222 -9 3 68 33 205 82 46
16 184 112 175 122 -3 3 -37 -14 -76 -37 -50 -30 -100 -49 -169 -65 -53 -13
-98 -22 -100 -20 -2 1 14 13 35 26 21 12 63 41 93 64 131 98 339 191 505 225
62 13 62 13 201 159 0 1 43 -41 95 -91z"/>
<path d="M3579 3867 c-168 -155 -362 -356 -499 -518 -171 -202 -421 -541 -408
-554 2 -3 36 30 74 73 38 42 159 176 269 297 111 121 304 342 429 490 126 149
238 280 249 292 11 13 18 25 15 29 -3 3 -61 -46 -129 -109z"/>
<path d="M2915 2878 c-210 -216 -341 -365 -454 -515 -80 -107 -147 -211 -140
-218 5 -4 306 326 482 529 155 177 314 382 304 392 -2 3 -89 -82 -192 -188z"/>
<path d="M2309 2422 c-83 -67 -149 -134 -203 -206 -44 -58 -80 -126 -67 -126
10 0 284 289 326 344 15 20 25 39 23 42 -3 3 -39 -22 -79 -54z"/>
<path d="M1308 533 c-87 -113 -286 -333 -323 -357 -46 -31 -25 -37 28 -9 63
34 230 197 279 273 57 89 110 190 101 190 -6 0 -44 -44 -85 -97z"/>
<path d="M1217 577 c-5 -26 -27 -58 -70 -104 -54 -57 -215 -199 -271 -239 -11
-7 -17 -17 -13 -20 13 -13 172 92 249 165 101 95 120 126 116 188 l-3 48 -8
-38z"/>
</g>
</svg>
