<?xml version="1.0" encoding="UTF-8" standalone="no"?>
<svg
   version="1.0"
   width="300.000000pt"
   height="284.000000pt"
   viewBox="0 0 300.000000 284.000000"
   preserveAspectRatio="xMidYMid meet"
   id="svg21"
   xmlns="http://www.w3.org/2000/svg"
   xmlns:svg="http://www.w3.org/2000/svg">
  <defs
     id="defs21" />
  <metadata
     id="metadata1">
Created by potrace 1.16, written by Peter Selinger 2001-2019
</metadata>
  <g
     transform="translate(0.000000,284.000000) scale(0.100000,-0.100000)"
     fill="currentColor"
     stroke="none"
     id="g21">
    <path
       id="path2"
       d="m 2480.1563,855.3125 c -0.034,0.25 -0.3423,-0.43648 -0.3223,-0.68848 0.093,-1.4549 0.3404,-2.89297 0.5566,-4.33593 0.014,0.0616 0.015,0.0695 0.029,0.13183 -0.086,1.6311 -0.042,3.27428 -0.2636,4.89258 z" />
    <path
       d="M1109 2158 c-73 -117 -136 -215 -140 -218 -4 -3 -117 -38 -251 -79 l-243 -74 -70 -88 c-39 -49 -71 -95 -73 -103 -2 -8 8 -22 22 -32 l26 -16 0 -240 c0 -240 0 -240 21 -235 25 7 218 -100 219 -120 0 -7 7 -13 15 -13 8 0 15 6 15 13 0 8 140 72 344 158 l343 145 358 -193 c197 -106 366 -193 374 -193 9 0 135 67 281 149 l265 148 3 205 2 205 25 11 c14 6 25 18 25 26 0 8 -59 79 -131 158 l-132 143 -576 227 c-317 125 -579 228 -583 228 -3 0 -66 -96 -139 -212z m708 -44 c301 -118 549 -217 551 -219 6 -6 -294 -545 -304 -545 -8 0 -669 312 -677 319 -4 4 -6 58 -5 119 l3 111 265 -118 c233 -105 297 -126 277 -94 -3 5 -127 62 -276 128 l-271 119 0 58 c0 31 -4 59 -8 62 -5 3 -84 -17 -176 -43 -92 -27 -166 -46 -164 -41 8 22 224 360 230 360 4 0 253 -97 555 -216z m-467 -271 l0 -178 -328 -123 c-180 -67 -331 -122 -337 -122 -5 0 -46 78 -89 172 -61 132 -76 173 -65 177 40 15 796 249 807 250 9 1 12 -40 12 -176z m154 -267 l126 -59 0 -94 0 -93 50 -25 c27 -14 54 -25 60 -25 6 0 10 35 10 89 l0 90 60 -26 60 -26 0 -98 0 -99 50 -25 c28 -14 55 -23 60 -20 6 4 10 46 10 95 l0 90 35 -17 35 -17 0 -203 c0 -112 -3 -203 -6 -203 -3 0 -163 84 -355 188 l-349 187 0 171 c0 159 3 189 20 182 4 -2 64 -30 134 -62z m-184 -21 c0 -36 -2 -65 -4 -65 -2 0 -11 -3 -20 -6 -14 -5 -16 4 -16 59 0 61 5 73 33 76 4 1 7 -28 7 -64z m-163 -92 c-2 -21 -4 -6 -4 32 0 39 2 55 4 38 2 -18 2 -50 0 -70z m1431 -94 l-3 -182 -195 -109 c-107 -60 -219 -122 -247 -139 l-53 -29 0 193 0 194 25 11 c14 7 28 12 30 12 2 0 6 -55 7 -122 4 -169 23 -158 23 12 l0 130 200 105 c110 57 203 105 208 105 4 0 6 -82 5 -181z m-1464 5 c4 -92 6 -168 4 -170 -2 -1 -41 -19 -86 -38 l-82 -35 0 99 c0 54 -4 101 -9 104 -4 3 -64 -19 -132 -48 -186 -80 -169 -81 -169 7 l0 75 68 26 c37 14 137 52 222 85 85 33 160 60 166 60 7 1 13 -55 18 -165z m-628 99 c41 -25 74 -49 74 -53 0 -3 -30 -17 -67 -30 -38 -13 -74 -25 -80 -28 -10 -3 -13 16 -13 77 0 45 3 81 6 81 4 0 40 -21 80 -47z m824 -101 c0 -85 -1 -89 -25 -100 -14 -7 -28 -12 -30 -12 -10 0 -5 49 5 55 6 3 10 35 10 70 0 52 3 64 18 68 9 3 18 5 20 6 1 0 2 -39 2 -87z m-700 -63 c0 -68 -3 -90 -12 -87 -19 6 -23 158 -6 169 7 5 14 9 16 9 1 0 2 -41 2 -91z m575 28 c31 -15 35 -21 35 -55 0 -36 -3 -40 -40 -55 l-40 -15 1 91 c1 51 4 83 6 71 2 -12 19 -28 38 -37z m-635 -22 l0 -66 -30 16 c-26 13 -30 21 -30 54 0 39 5 43 58 60 1 1 2 -28 2 -64z m-90 5 c0 -17 -3 -19 -19 -8 -21 13 -19 28 5 28 8 0 14 -9 14 -20z m-40 -121 c0 -58 -4 -88 -10 -84 -5 3 -10 47 -10 96 0 58 4 88 10 84 6 -3 10 -47 10 -96z m496 -74 c-2 -7 -18 -17 -35 -23 l-31 -11 0 89 0 90 33 13 32 14 3 -80 c2 -44 1 -86 -2 -92z m-416 29 c0 -46 -3 -84 -7 -84 -5 0 -16 7 -25 14 -15 11 -18 29 -18 100 l0 86 25 -16 c23 -15 25 -22 25 -100z m320 9 l0 -88 -40 -17 -40 -17 0 89 c0 87 1 90 28 104 49 27 52 23 52 -71z m-250 -49 c0 -74 -2 -85 -16 -80 -9 3 -18 6 -20 6 -2 0 -4 41 -4 90 0 88 1 90 20 80 18 -9 20 -21 20 -96z m136 -79 c-2 -7 -18 -17 -35 -23 l-31 -11 0 90 0 90 33 14 32 13 3 -80 c2 -45 1 -87 -2 -93z m-99 8 c-2 -27 -3 -5 -3 47 0 52 1 74 3 48 2 -27 2 -69 0 -95z"
       id="path3" />
    <path
       d="M1500 2097 c0 -13 634 -277 665 -277 51 0 -25 37 -316 157 -178 72 -330 132 -336 133 -7 0 -13 -6 -13 -13z"
       id="path4" />
    <path
       d="M1622 1944 c2 -9 66 -43 162 -85 161 -70 191 -79 184 -56 -4 11 -320 157 -341 157 -5 0 -7 -7 -5 -16z"
       id="path5" />
    <path
       d="M1481 1765 c3 -12 91 -58 289 -151 157 -74 291 -134 298 -134 49 -1 -25 42 -272 157 -341 160 -319 151 -315 128z"
       id="path6" />
    <path
       d="M796 1756 c-105 -35 -192 -68 -194 -74 -7 -21 29 -13 213 46 133 43 181 62 183 75 2 9 0 17 -5 16 -4 -1 -93 -29 -197 -63z"
       id="path7" />
    <path
       d="M998 1687 c-160 -55 -268 -97 -268 -104 0 -7 4 -13 9 -13 4 0 131 41 280 91 240 81 294 105 255 115 -5 2 -129 -39 -276 -89z"
       id="path8" />
    <path
       d="M1180 1669 c-117 -41 -140 -51 -140 -65 0 -18 -8 -19 91 15 116 40 119 41 119 57 0 17 -2 17 -70 -7z"
       id="path9" />
    <path
       d="M1457 1553 c-4 -3 -7 -55 -7 -115 0 -89 3 -108 15 -108 12 0 15 19 15 115 0 105 -5 127 -23 108z"
       id="path10" />
    <path
       d="M1550 1375 c0 -113 2 -135 15 -135 13 0 15 22 15 135 0 113 -2 135 -15 135 -13 0 -15 -22 -15 -135z"
       id="path11" />
    <path
       d="M1810 1270 c0 -82 3 -100 15 -100 12 0 15 18 15 100 0 82 -3 100 -15 100 -12 0 -15 -18 -15 -100z"
       id="path12" />
    <path
       d="M1644 1286 c-9 -25 1 -109 14 -114 9 -3 12 14 12 62 0 61 -13 87 -26 52z"
       id="path13" />
    <path
       d="M1726 1263 c-3 -3 -6 -39 -6 -80 0 -58 3 -73 15 -73 12 0 15 15 15 74 0 69 -8 95 -24 79z"
       id="path14" />
    <path
       d="M1920 1080 c0 -53 3 -71 13 -67 8 2 12 25 12 67 0 42 -4 65 -12 68 -10 3 -13 -15 -13 -68z"
       id="path15" />
    <path
       d="M2010 1050 c0 -82 3 -100 15 -100 12 0 15 18 15 100 0 82 -3 100 -15 100 -12 0 -15 -18 -15 -100z"
       id="path16" />
    <path
       d="M2556 1513 c-3 -3 -6 -71 -6 -150 0 -120 2 -143 15 -143 13 0 15 23 15 144 0 132 -6 167 -24 149z"
       id="path17" />
    <path
       d="M2480 1395 c0 -43 4 -75 10 -75 6 0 10 32 10 75 0 43 -4 75 -10 75 -6 0 -10 -32 -10 -75z"
       id="path18" />
    <path
       d="M2380 1320 c0 -73 3 -90 15 -90 12 0 15 17 15 90 0 73 -3 90 -15 90 -12 0 -15 -17 -15 -90z"
       id="path19" />
    <path
       d="M2217 1343 c-4 -3 -7 -71 -7 -150 0 -120 2 -143 15 -143 13 0 15 23 15 150 0 137 -4 163 -23 143z"
       id="path20" />
    <path
       d="M2305 1258 c-9 -24 -1 -188 10 -191 14 -3 19 183 6 196 -7 7 -12 5 -16 -5z"
       id="path21" />
  </g>
</svg>
