<?xml version="1.0" standalone="no"?>
<!DOCTYPE svg PUBLIC "-//W3C//DTD SVG 20010904//EN"
 "http://www.w3.org/TR/2001/REC-SVG-20010904/DTD/svg10.dtd">
<svg version="1.0" xmlns="http://www.w3.org/2000/svg"
 width="441.000000pt" height="618.000000pt" viewBox="0 0 441.000000 618.000000"
 preserveAspectRatio="xMidYMid meet">
<metadata>
Created by potrace 1.16, written by Peter Selinger 2001-2019
</metadata>
<g transform="translate(0.000000,618.000000) scale(0.100000,-0.100000)"
fill="currentColor" stroke="none">
<path d="M1840 6158 c0 -13 9 -36 20 -53 36 -54 31 -71 -56 -192 -78 -109 -90
-135 -120 -270 -33 -151 -29 -245 15 -339 l29 -62 -52 18 c-85 29 -118 49
-178 107 -49 48 -63 72 -109 180 -41 97 -63 135 -97 170 -137 136 -419 174
-610 81 -33 -16 -42 -25 -40 -42 2 -16 13 -23 43 -29 143 -30 212 -63 279
-138 53 -59 58 -80 40 -179 -16 -91 -6 -176 26 -240 20 -39 20 -42 3 -35 -36
15 -113 17 -143 5 -59 -24 -70 -51 -70 -164 0 -101 -12 -170 -31 -182 -14 -8
-71 -8 -98 1 -17 5 -21 2 -21 -18 0 -51 73 -87 179 -87 84 0 125 23 140 77 6
21 11 47 11 58 0 31 28 65 55 65 16 0 43 -22 89 -72 l67 -71 -58 -32 c-139
-75 -204 -123 -312 -228 -248 -245 -327 -383 -365 -640 -22 -148 -8 -350 39
-553 38 -160 99 -333 202 -562 126 -282 167 -432 168 -607 0 -117 -1 -121 -33
-181 -39 -71 -71 -98 -128 -107 -78 -13 -402 -134 -504 -189 -80 -43 -123 -87
-164 -169 -41 -81 -61 -204 -53 -323 29 -451 29 -450 92 -701 3 -11 19 -83 35
-160 29 -136 68 -267 69 -233 1 14 5 13 25 -7 13 -13 37 -27 53 -31 46 -12
465 23 633 52 131 24 183 28 340 28 157 0 198 -3 273 -22 49 -12 103 -22 120
-22 18 0 68 -9 112 -20 130 -32 342 -43 525 -25 85 8 178 19 207 24 29 6 121
15 205 21 84 6 207 17 273 25 66 8 161 19 210 25 50 6 176 13 280 16 159 5
199 3 245 -11 161 -49 220 -44 220 18 0 54 -38 186 -73 257 -18 36 -79 135
-135 220 -78 120 -104 168 -113 210 -15 75 -77 201 -137 280 -96 127 -291 280
-357 280 -9 0 -26 8 -39 17 l-23 17 107 161 c59 88 153 234 209 325 160 256
215 333 307 425 47 47 109 123 140 170 53 82 55 84 102 90 95 13 259 46 325
66 50 15 79 31 111 62 77 74 82 156 15 290 -72 144 -279 376 -450 505 -52 39
-60 51 -97 140 -114 273 -167 383 -236 486 -72 110 -161 222 -238 302 -38 39
-40 46 -42 105 -1 35 -8 92 -16 127 -12 53 -12 71 -1 125 8 34 17 80 21 102 4
22 11 49 15 60 l8 20 -21 -20 c-20 -19 -65 -126 -80 -189 -7 -28 -8 -27 -24
20 -23 67 -41 235 -33 310 9 88 -18 98 -66 24 l-26 -39 -25 27 c-14 15 -30 41
-35 57 -15 46 -44 40 -65 -15 -9 -25 -17 -60 -17 -79 -1 -27 -4 -32 -18 -26
-63 25 -128 44 -188 54 -39 6 -110 18 -159 25 -95 16 -219 68 -303 128 -62 45
-153 184 -189 289 -27 79 -29 94 -29 244 l0 160 -40 75 c-22 41 -58 94 -81
117 -46 48 -84 57 -84 21z m126 -180 c26 -51 27 -60 29 -218 1 -158 2 -169 31
-247 39 -104 85 -181 153 -255 43 -47 75 -69 165 -114 91 -45 128 -58 206 -70
194 -30 257 -45 325 -78 124 -59 202 -145 299 -331 26 -49 54 -95 63 -102 11
-9 14 -21 9 -48 l-7 -36 -70 75 c-38 41 -93 90 -122 110 -105 69 -263 144
-369 175 -70 20 -128 44 -169 71 -34 22 -67 40 -73 40 -6 0 18 -29 54 -64 63
-61 71 -66 182 -101 164 -51 429 -205 517 -298 32 -35 22 -59 -21 -51 -107 19
-213 65 -398 174 -63 37 -135 79 -160 94 -25 14 -41 26 -35 26 8 0 81 -33 313
-141 46 -21 86 -39 90 -39 11 0 -34 43 -73 70 -72 49 -255 138 -349 169 -205
68 -318 91 -459 93 l-132 1 125 7 c69 4 145 13 170 20 l45 14 -110 8 c-200 16
-485 -5 -596 -43 -82 -28 -115 -27 -188 11 -86 43 -132 73 -213 138 -57 45
-74 67 -108 134 -45 90 -50 144 -28 264 14 80 3 123 -49 184 -46 53 -136 113
-197 130 -25 7 -46 16 -46 20 0 11 105 30 164 30 64 0 186 -33 250 -68 70 -38
105 -85 161 -218 79 -187 169 -267 352 -313 63 -15 95 -30 133 -60 30 -23 66
-43 88 -46 121 -20 175 -38 218 -76 25 -22 54 -39 66 -39 l20 0 -20 33 c-43
70 -124 110 -264 132 -55 8 -149 99 -187 178 -44 92 -47 157 -16 301 27 127
50 174 140 294 24 32 47 70 50 85 4 15 9 27 11 27 2 0 16 -24 30 -52z m-924
-902 c29 -14 64 -34 78 -46 22 -19 22 -20 3 -11 -12 6 -51 11 -87 11 -56 0
-69 -4 -93 -26 l-28 -25 25 8 c53 17 127 8 172 -22 45 -30 178 -159 178 -173
0 -12 -49 -34 -60 -27 -5 3 -17 22 -26 41 -9 19 -35 55 -58 80 -34 36 -49 45
-86 50 -67 9 -94 -16 -110 -102 -11 -57 -17 -68 -44 -85 -30 -18 -96 -26 -109
-12 -4 3 3 11 16 17 41 21 52 61 52 189 0 113 1 120 24 138 32 26 89 24 153
-5z m2048 -83 c15 4 20 -5 29 -57 6 -35 11 -65 11 -68 0 -3 -38 31 -85 77 -47
46 -85 88 -85 94 0 5 5 22 10 36 l10 27 46 -57 c33 -40 52 -55 64 -52z m-1785
-94 c34 -17 84 -36 110 -43 l48 -12 -78 -24 c-53 -17 -80 -21 -82 -13 -2 6
-19 36 -38 67 -18 31 -31 56 -28 56 3 0 34 -14 68 -31z m705 -69 c168 -18 476
-119 635 -210 55 -31 118 -68 141 -82 122 -78 284 -142 384 -154 55 -6 61 -5
79 17 l19 24 23 -20 c44 -40 171 -198 240 -301 68 -101 145 -262 176 -369 22
-71 75 -174 151 -289 71 -107 111 -194 112 -240 0 -40 -62 -98 -137 -127 -47
-19 -77 -23 -163 -23 -90 0 -131 6 -280 43 -96 23 -251 54 -345 68 -158 23
-178 24 -285 13 -63 -6 -119 -15 -123 -20 -5 -4 45 -11 110 -14 174 -10 425
-49 623 -97 262 -62 390 -64 516 -5 28 13 67 38 87 55 59 53 60 137 1 255
l-25 49 53 -45 c29 -24 101 -102 161 -173 213 -254 242 -391 98 -464 -146 -74
-624 -124 -911 -96 -254 26 -550 79 -855 154 -156 39 -445 106 -516 121 -53
10 -60 15 -129 95 -88 101 -133 138 -206 171 -61 27 -64 28 -64 15 0 -4 17
-20 38 -34 40 -27 49 -36 162 -152 l75 -78 -72 7 c-102 10 -206 41 -290 86
-40 22 -73 35 -73 30 0 -13 91 -90 130 -110 20 -10 62 -26 93 -35 66 -19 65
-25 -10 -76 -37 -26 -43 -35 -43 -66 0 -25 8 -45 24 -62 23 -25 24 -30 16
-111 -12 -121 17 -225 71 -264 21 -14 21 -15 -25 -37 -55 -25 -68 -43 -102
-136 -24 -65 -28 -120 -10 -163 4 -11 -7 -22 -40 -39 -25 -14 -63 -44 -83 -68
-39 -43 -51 -77 -51 -140 l0 -34 -56 65 c-94 111 -208 193 -294 211 -73 15
-80 25 -80 123 -1 191 -43 334 -205 682 -251 541 -304 1014 -149 1324 52 103
86 148 222 290 170 179 349 296 574 375 l87 30 21 -37 c28 -49 72 -78 167
-109 66 -21 91 -24 158 -20 44 3 107 15 139 26 80 29 255 29 336 1 59 -20 75
-18 44 5 -46 35 -114 58 -194 68 -89 10 -83 11 -260 -38 -78 -22 -118 -19
-224 15 -64 21 -105 40 -128 62 l-33 31 25 10 c56 23 321 32 470 17z m540 -90
c8 -5 11 -10 5 -10 -5 0 -17 5 -25 10 -8 5 -10 10 -5 10 6 0 17 -5 25 -10z
m-670 -1913 l20 -41 -35 34 c-30 29 -38 33 -54 23 -14 -9 -21 -8 -33 3 -8 8
-22 12 -31 9 -12 -5 -14 -12 -6 -31 7 -19 6 -23 -4 -18 -34 20 -37 25 -22 47
12 20 21 22 80 19 l65 -4 20 -41z m102 -8 c3 -16 4 -29 3 -29 0 0 -16 15 -33
33 l-33 34 30 -5 c23 -3 30 -10 33 -33z m140 -4 c39 -7 42 -12 54 -80 l7 -40
-23 30 c-37 48 -43 52 -37 26 3 -13 2 -20 -2 -15 -84 94 -87 97 -61 91 14 -3
42 -9 62 -12z m-402 -77 c0 -5 -8 -8 -17 -9 -12 0 -7 -5 12 -14 17 -7 33 -11
37 -9 4 2 23 -7 44 -21 38 -26 59 -31 68 -17 11 18 75 -1 102 -29 32 -33 84
-41 84 -12 0 13 7 10 30 -12 17 -17 27 -31 22 -33 -11 -3 -201 39 -302 67 -81
23 -153 66 -158 95 -2 9 4 26 14 37 17 19 18 19 40 -8 13 -15 23 -31 24 -35z
m565 37 c44 -9 103 -24 132 -31 49 -14 52 -17 58 -57 11 -65 41 -113 90 -147
25 -17 45 -33 45 -36 0 -3 -16 -38 -35 -77 -39 -82 -66 -217 -58 -289 3 -26 0
-69 -6 -95 -15 -61 -67 -148 -99 -165 -23 -12 -27 -10 -54 22 l-30 35 7 -30
c25 -108 138 -79 202 52 24 50 28 71 33 192 5 110 10 145 27 181 12 25 31 67
42 94 15 35 25 47 36 42 32 -12 45 4 45 59 0 30 -6 66 -12 82 -12 28 -13 27
-16 -19 -3 -40 -6 -48 -23 -48 -25 0 -106 66 -125 102 -8 15 -14 37 -14 48 0
20 4 21 43 15 23 -4 74 -20 113 -35 38 -16 97 -34 130 -40 l61 -12 -9 -56 c-5
-32 -8 -140 -6 -242 3 -176 4 -187 28 -230 20 -36 31 -46 56 -48 28 -3 35 3
63 45 70 105 170 333 206 469 2 7 21 8 62 3 32 -5 95 -12 140 -16 l82 -8 -50
-60 c-27 -33 -74 -96 -104 -140 -31 -44 -85 -118 -121 -165 -64 -83 -110 -158
-101 -166 2 -3 49 42 104 100 95 99 183 220 269 368 38 66 40 68 81 68 23 0
88 9 144 20 57 11 104 19 105 17 1 -1 -23 -29 -52 -62 -30 -33 -52 -52 -48
-42 13 37 -14 13 -81 -70 -70 -85 -145 -144 -290 -225 -48 -26 -49 -28 -20
-28 17 0 57 12 90 25 33 14 61 25 62 25 1 0 -36 -57 -83 -127 -47 -69 -104
-158 -126 -197 -98 -170 -290 -444 -362 -517 -41 -41 -90 -101 -110 -131 -19
-31 -65 -98 -102 -149 -169 -239 -226 -502 -146 -678 9 -20 41 -69 70 -108 55
-74 78 -129 67 -162 -4 -15 -20 -19 -88 -25 -45 -4 -122 -13 -172 -21 -147
-23 -321 -32 -470 -25 -152 8 -196 15 -385 63 -120 30 -133 31 -330 31 -179 0
-225 -3 -360 -27 -137 -24 -466 -58 -588 -61 -75 -2 -99 42 -122 219 -6 50
-20 126 -30 170 -10 44 -30 127 -44 185 -13 58 -27 152 -30 210 -4 58 -12 164
-18 235 -11 130 -11 131 14 185 33 72 168 225 216 246 43 19 202 13 288 -10
93 -25 235 -102 207 -113 -24 -9 -13 -59 41 -204 30 -79 58 -153 61 -164 4
-11 -23 34 -60 100 -109 194 -191 315 -215 315 -14 0 -20 -7 -20 -22 0 -19 -4
-16 -23 16 -28 50 -50 64 -71 47 -34 -29 -11 -181 52 -344 16 -42 26 -75 22
-72 -4 3 -48 88 -98 189 -51 101 -96 187 -101 190 -5 3 -17 3 -26 0 -14 -6
-16 -16 -10 -68 4 -33 13 -83 20 -111 8 -27 12 -51 11 -52 -1 -2 -22 31 -46
73 -58 101 -76 99 -73 -11 l2 -79 -30 47 c-34 52 -63 67 -86 44 -13 -12 -13
-23 -3 -68 6 -30 20 -70 31 -89 l20 -35 -6 50 c-3 28 -8 59 -11 70 -3 11 12
-9 34 -45 70 -114 91 -140 111 -140 30 0 33 14 16 79 -24 94 -18 92 39 -10 77
-141 92 -159 127 -159 25 0 29 4 29 29 0 16 -4 40 -9 53 -5 13 -17 41 -25 63
-20 49 -4 28 44 -56 46 -81 108 -149 140 -152 40 -3 36 29 -16 144 -48 108
-108 278 -118 339 l-7 35 17 -35 c9 -19 52 -120 95 -225 87 -207 135 -291 173
-301 39 -9 49 3 43 55 -3 25 -8 55 -12 66 -3 11 4 3 17 -19 44 -75 84 -121
106 -124 12 -2 29 -16 37 -31 16 -32 37 -43 61 -34 17 6 16 42 -1 143 -4 25 1
17 17 -25 20 -52 27 -60 52 -63 l29 -4 -6 62 c-7 84 -111 301 -137 285 -4 -2
-24 22 -45 55 -35 55 -67 77 -77 51 -1 -5 -20 22 -40 60 -20 38 -34 69 -29 69
4 0 54 -40 111 -89 106 -92 114 -102 210 -255 30 -48 70 -111 89 -139 31 -46
103 -165 228 -376 80 -136 199 -226 373 -283 70 -24 109 -32 278 -59 37 -6
100 -17 141 -25 59 -12 93 -13 169 -4 53 6 98 12 100 15 5 5 -43 12 -124 19
-33 3 -119 16 -190 30 -71 13 -162 30 -203 36 -90 15 -222 58 -293 97 -74 40
-165 135 -222 233 -76 131 -126 212 -191 314 -33 51 -87 138 -120 192 -96 159
-288 334 -463 423 -122 62 -362 92 -456 56 -53 -20 -128 -96 -178 -180 l-29
-50 6 45 c9 59 66 160 108 193 37 28 129 42 342 52 114 5 124 3 204 -25 45
-16 104 -41 130 -56 72 -42 202 -179 251 -264 58 -101 120 -187 169 -234 47
-46 64 -42 29 6 -14 18 -63 100 -109 183 -69 124 -98 164 -164 230 -95 97
-150 133 -258 175 -100 39 -160 45 -302 32 -60 -6 -111 -10 -112 -8 -9 9 233
89 287 96 36 4 83 12 105 18 39 11 91 56 113 96 8 16 11 11 21 -34 13 -62 63
-171 88 -191 15 -13 16 -12 9 6 -28 73 -69 295 -54 295 3 0 52 -22 109 -49
189 -88 272 -167 443 -416 60 -88 133 -189 162 -225 80 -98 222 -240 288 -289
32 -24 95 -77 140 -118 69 -64 268 -195 414 -272 42 -22 36 -2 -11 39 -33 29
-44 45 -40 60 8 31 -41 119 -99 180 -29 30 -92 90 -140 133 -48 43 -114 112
-145 153 -32 41 -59 70 -61 65 -2 -6 14 -43 35 -83 39 -76 94 -136 241 -267
83 -73 170 -176 159 -187 -3 -4 -23 7 -44 24 -21 16 -74 51 -117 78 -44 26
-109 75 -145 109 -36 34 -102 89 -146 123 -106 83 -299 292 -387 420 -38 57
-68 104 -66 105 1 1 29 14 60 29 48 23 62 36 92 88 59 100 68 224 22 285 -22
29 -20 32 25 39 47 8 114 39 147 69 33 30 29 90 -10 179 -30 67 -31 72 -14 82
57 34 98 70 107 94 6 14 8 56 6 93 l-5 66 92 -19 c96 -20 149 -17 179 9 26 24
23 123 -7 196 -14 34 -19 57 -12 54 6 -3 47 -12 91 -22z m-507 -176 c85 -22
108 -33 122 -59 13 -25 12 -89 -3 -121 -12 -25 -87 -99 -101 -99 -19 0 -80 58
-97 92 -41 81 -49 228 -11 213 10 -4 50 -16 90 -26z m1270 -9 c92 -10 142 -19
142 -26 0 -20 -230 -464 -241 -464 -21 0 -32 73 -40 255 -5 110 -11 213 -15
229 -6 28 -6 29 27 22 19 -4 76 -11 127 -16z m-1261 -353 c36 -54 46 -83 39
-120 -8 -45 -31 -64 -111 -93 l-66 -24 -10 26 c-26 70 -27 101 -5 140 21 38
97 104 119 104 7 0 22 -15 34 -33z m-167 -369 c25 -54 25 -131 1 -183 -17 -37
-104 -135 -119 -135 -4 0 -20 21 -36 46 -27 42 -28 50 -23 115 4 46 13 82 27
104 22 36 95 94 118 95 7 0 22 -19 32 -42z m1505 -613 c83 -172 121 -347 113
-519 -5 -116 -26 -162 -119 -273 -78 -93 -147 -152 -223 -190 -67 -34 -129
-73 -124 -79 3 -2 48 10 100 26 119 37 184 84 287 205 107 127 125 171 129
321 2 67 -1 154 -7 195 -23 150 -91 329 -150 393 -26 29 -26 29 22 -4 73 -52
269 -258 309 -325 42 -72 88 -185 88 -215 0 -29 15 -56 126 -226 123 -187 214
-367 214 -421 0 -22 -3 -23 -37 -17 -21 4 -60 16 -88 27 -99 41 -389 34 -825
-18 -63 -7 -140 -16 -170 -19 l-55 -6 3 68 c3 67 3 67 -58 162 -71 111 -84
150 -84 250 1 134 59 293 159 435 31 44 77 112 102 150 25 39 80 105 122 148
l76 78 23 -28 c13 -15 43 -68 67 -118z m-2399 -148 c42 -100 64 -157 59 -157
-2 0 -12 14 -21 32 -17 32 -141 330 -150 358 -7 22 84 -166 112 -233z"/>
<path d="M1910 5864 c0 -66 -5 -87 -35 -154 -19 -43 -35 -88 -36 -101 0 -13
-4 -33 -9 -44 -6 -13 -9 19 -10 90 -1 125 -11 124 -33 -3 -9 -54 -11 -99 -6
-132 11 -73 85 -200 108 -186 5 3 17 -6 27 -21 25 -39 105 -123 117 -123 5 0
1 12 -9 28 -128 194 -161 329 -110 450 13 31 27 76 31 100 8 47 -11 172 -26
172 -5 0 -9 -34 -9 -76z m-73 -366 c-3 -7 -5 -2 -5 12 0 14 2 19 5 13 2 -7 2
-19 0 -25z"/>
<path d="M925 5740 c-3 -6 4 -10 18 -10 13 0 46 -7 73 -15 75 -22 144 -89 205
-198 70 -126 178 -267 242 -314 91 -69 139 -91 267 -123 69 -17 149 -40 178
-51 76 -28 84 -24 28 16 -55 39 -123 67 -224 91 -82 21 -119 39 -200 98 -70
52 -182 195 -247 316 -72 135 -161 200 -273 200 -33 0 -64 -4 -67 -10z"/>
<path d="M1057 5598 c61 -77 91 -123 116 -178 42 -93 77 -139 143 -191 104
-81 111 -75 29 21 -30 36 -78 107 -107 159 -50 88 -151 201 -180 201 -7 0 -7
-4 -1 -12z"/>
<path d="M1155 5320 c12 -69 66 -163 129 -225 67 -66 108 -87 206 -105 36 -6
92 -24 125 -40 33 -16 62 -26 65 -23 7 7 -58 61 -103 84 -21 11 -70 27 -109
36 -67 15 -76 21 -147 88 -42 40 -92 98 -111 130 -56 90 -62 96 -55 55z"/>
<path d="M2070 5319 c0 -16 50 -99 87 -146 82 -102 269 -202 428 -228 278 -46
380 -98 509 -259 50 -62 58 -44 17 39 -72 146 -212 221 -503 269 -165 28 -316
111 -455 252 -46 46 -83 79 -83 73z"/>
<path d="M1690 4593 c0 -5 20 -14 45 -21 33 -9 64 -30 117 -81 86 -81 146
-120 330 -217 284 -150 438 -294 539 -507 16 -34 29 -78 29 -97 0 -64 17 -67
24 -4 14 120 -54 256 -198 400 -89 89 -253 203 -372 259 -113 54 -220 120
-294 183 -36 30 -78 61 -95 67 -40 17 -125 28 -125 18z"/>
<path d="M2077 4540 c-62 -12 -52 -17 45 -25 129 -10 363 -50 439 -75 123 -42
358 -171 469 -259 72 -57 297 -284 275 -278 -11 3 -30 8 -41 12 -14 3 -28 0
-38 -10 -13 -14 -14 -20 -3 -41 11 -21 102 -94 163 -130 14 -9 3 -9 -44 -2
-75 11 -95 6 -90 -24 2 -18 26 -34 107 -75 98 -48 102 -52 70 -55 -32 -3 -34
-5 -34 -38 0 -31 6 -39 53 -70 l52 -34 -25 -13 c-48 -25 -27 -63 65 -117 25
-15 60 -38 78 -53 17 -14 32 -21 32 -16 0 17 -54 82 -89 108 l-35 25 32 6 c73
15 63 55 -25 106 l-58 33 50 5 c48 5 50 6 50 34 0 27 -8 34 -80 73 -59 31 -73
43 -55 43 67 1 67 51 0 95 -105 69 -101 65 -48 58 39 -5 49 -3 54 12 5 13 -37
60 -177 197 -148 146 -207 196 -304 260 -129 85 -283 164 -381 197 -147 49
-392 74 -507 51z"/>
<path d="M1540 4409 c-40 -86 -46 -148 -25 -285 9 -63 21 -116 25 -119 4 -3
10 79 12 183 4 131 10 201 21 235 22 67 2 58 -33 -14z"/>
<path d="M1250 4403 c-79 -20 -160 -59 -199 -96 -40 -38 -131 -173 -131 -195
0 -8 39 27 87 77 67 72 108 105 186 151 55 33 105 61 111 63 6 2 9 7 6 9 -3 3
-30 -1 -60 -9z"/>
<path d="M747 3973 c-9 -27 -27 -88 -39 -138 -25 -107 -30 -300 -10 -410 7
-38 18 -97 23 -130 11 -61 67 -210 76 -201 3 3 0 36 -7 73 -7 37 -18 113 -25
168 -8 55 -19 139 -26 187 -10 73 -9 109 5 220 20 168 30 278 24 278 -2 0 -12
-21 -21 -47z"/>
<path d="M943 3911 c-58 -89 -113 -255 -113 -347 0 -44 33 -183 50 -212 7 -12
8 19 4 103 -6 114 -5 128 26 250 18 72 43 158 56 193 13 34 20 62 16 62 -4 0
-22 -22 -39 -49z"/>
<path d="M1180 3920 c0 -5 -18 -51 -41 -101 -24 -54 -47 -124 -55 -173 -8 -44
-16 -88 -19 -96 -13 -43 -35 -282 -35 -377 0 -109 19 -295 40 -388 6 -27 49
-145 95 -261 75 -187 85 -218 85 -274 0 -51 3 -61 13 -52 8 9 12 45 12 110 -1
97 -1 97 -68 259 -79 190 -92 238 -112 398 -31 245 -12 456 71 800 37 154 39
165 24 165 -5 0 -10 -4 -10 -10z"/>
<path d="M2149 3832 c11 -8 8 -11 -15 -14 -46 -5 -43 -37 6 -68 l40 -26 -53 1
c-48 0 -52 -2 -54 -25 -3 -31 9 -47 66 -88 l44 -32 -36 0 c-66 0 -61 -36 13
-95 27 -21 48 -40 46 -42 -1 -2 -24 4 -50 13 -37 13 -50 14 -61 4 -21 -17 -19
-43 5 -73 23 -29 26 -47 7 -47 -26 0 -47 -36 -46 -76 l1 -39 12 34 c9 24 21
38 42 44 16 5 35 14 42 20 15 12 16 49 0 65 -15 15 -4 15 43 2 44 -12 89 1 89
27 0 9 -17 35 -37 57 -21 21 -31 36 -22 33 9 -3 36 -8 61 -12 47 -7 76 10 65
39 -3 8 -49 40 -102 71 -53 31 -94 59 -91 62 2 3 52 -9 109 -26 58 -17 114
-31 125 -31 27 0 34 23 16 49 -18 25 -17 25 31 5 73 -30 91 10 23 50 -67 39
-254 117 -295 122 -27 4 -34 3 -24 -4z"/>
<path d="M1537 3772 c-36 -39 -6 -114 49 -125 59 -11 114 35 99 82 -16 51
-115 79 -148 43z m99 -25 c25 -22 25 -24 10 -40 -22 -22 -38 -21 -67 2 -23 19
-24 19 -5 40 24 26 29 26 62 -2z"/>
<path d="M1780 3673 c-66 -12 -83 -91 -31 -144 50 -49 111 -31 131 39 14 52
13 60 -15 87 -24 25 -35 27 -85 18z m70 -49 c0 -22 -22 -63 -36 -68 -17 -6
-54 31 -54 55 0 28 25 42 51 29 19 -11 21 -10 15 5 -5 15 -4 16 9 5 8 -7 15
-18 15 -26z"/>
<path d="M1443 3605 c-74 -32 -87 -113 -33 -213 38 -71 74 -102 129 -109 129
-17 191 156 93 261 -28 29 -115 76 -142 76 -8 -1 -29 -7 -47 -15z m103 -64
c55 -34 97 -128 75 -169 -6 -11 -23 -25 -40 -31 -24 -10 -34 -10 -60 3 -37 19
-91 108 -91 150 0 61 56 84 116 47z"/>
<path d="M1480 3455 c-7 -9 -10 -25 -6 -41 8 -31 45 -30 61 2 6 11 16 19 23
16 15 -5 16 10 0 26 -17 17 -63 15 -78 -3z m45 -25 c-3 -5 -11 -10 -16 -10 -6
0 -7 5 -4 10 3 6 11 10 16 10 6 0 7 -4 4 -10z"/>
<path d="M2042 2393 c2 -5 20 -40 40 -80 53 -101 75 -164 89 -248 11 -68 9
-81 -20 -208 -42 -185 -42 -314 1 -467 12 -41 13 -29 18 150 5 169 9 211 35
318 27 117 28 129 18 213 -8 60 -21 108 -42 153 -32 67 -114 176 -132 176 -6
0 -9 -3 -7 -7z"/>
<path d="M2782 1995 c-90 -82 -101 -104 -178 -350 -20 -62 -32 -92 -29 -69 3
30 1 45 -10 54 -40 33 -63 -67 -71 -305 -5 -154 -22 -297 -41 -354 -5 -14 -4
-14 10 -1 8 8 27 44 42 80 22 53 29 92 38 208 9 125 13 142 28 142 14 0 23 17
39 73 11 39 43 143 71 229 43 136 58 170 111 248 33 50 59 93 56 95 -3 3 -32
-20 -66 -50z"/>
<path d="M1928 1764 c-4 -7 -17 -49 -28 -95 -20 -86 -29 -299 -12 -299 11 0
29 101 43 234 11 109 9 179 -3 160z"/>
<path d="M1987 1733 c-21 -34 -33 -210 -18 -263 l7 -25 8 25 c9 31 21 270 13
270 -3 0 -8 -3 -10 -7z"/>
<path d="M2036 1642 c-7 -89 1 -169 16 -154 5 5 12 52 15 103 4 73 2 98 -9
113 -14 17 -16 11 -22 -62z"/>
<path d="M1215 1538 c-70 -39 -85 -92 -36 -127 16 -12 35 -21 42 -21 8 0 5 -6
-7 -16 -18 -15 -17 -15 15 -10 18 3 37 6 42 6 5 0 9 9 9 19 0 12 -14 26 -37
38 -48 23 -51 38 -14 57 60 32 145 11 200 -48 25 -26 41 -33 41 -17 0 18 -86
104 -117 117 -39 17 -110 18 -138 2z"/>
<path d="M1460 1214 c0 -3 34 -43 76 -87 42 -45 93 -111 114 -147 46 -78 140
-198 206 -262 96 -93 327 -201 497 -233 88 -16 144 -17 102 0 -11 4 -94 36
-185 72 -179 70 -266 113 -346 173 -54 41 -164 174 -221 268 -42 71 -101 132
-175 183 -57 39 -68 44 -68 33z"/>
<path d="M196 990 c3 -19 18 -61 34 -93 24 -51 25 -59 11 -64 -84 -25 -82 -49
14 -179 15 -20 14 -22 -10 -28 -37 -9 -34 -60 6 -116 27 -38 29 -44 15 -52
-26 -14 -19 -69 19 -149 29 -64 34 -70 35 -43 0 17 -7 53 -15 80 -20 67 -19
72 13 76 42 5 40 38 -7 100 l-40 53 33 3 c61 6 56 36 -21 130 -23 30 -43 57
-43 62 0 4 11 11 25 14 39 10 52 48 29 84 -11 16 -32 50 -49 76 -52 82 -55 86
-49 46z"/>
<path d="M1374 951 c3 -29 15 -73 26 -97 22 -44 77 -111 85 -102 5 4 -27 76
-83 188 l-32 65 4 -54z"/>
<path d="M424 800 c9 -143 43 -406 56 -428 15 -27 12 241 -4 334 -17 96 -42
193 -52 202 -4 4 -4 -45 0 -108z"/>
<path d="M585 695 c5 -89 39 -257 57 -285 17 -28 0 183 -22 265 -32 119 -42
125 -35 20z"/>
<path d="M740 674 c0 -92 30 -327 43 -340 11 -11 20 110 13 185 -7 76 -39 237
-50 248 -3 4 -6 -38 -6 -93z"/>
<path d="M920 649 c0 -62 33 -339 41 -339 13 0 18 123 9 193 -11 76 -35 175
-44 185 -3 3 -6 -15 -6 -39z"/>
<path d="M1601 649 c26 -37 163 -141 229 -174 70 -35 262 -109 403 -155 142
-46 310 -126 363 -172 42 -37 50 -33 24 9 -48 80 -175 151 -393 222 -207 68
-355 132 -500 219 -76 45 -140 82 -143 82 -3 0 5 -14 17 -31z"/>
<path d="M1096 608 c3 -24 15 -85 25 -137 10 -52 19 -99 19 -105 0 -6 6 -3 12
8 14 25 3 131 -24 212 -24 73 -41 85 -32 22z"/>
<path d="M1240 643 c0 -17 54 -182 70 -213 42 -81 313 -291 405 -314 17 -4 26
-4 20 1 -79 70 -160 136 -200 165 -80 57 -182 170 -213 234 -45 93 -82 151
-82 127z"/>
<path d="M3005 1196 c24 -64 58 -234 71 -351 6 -53 8 -57 16 -35 6 14 11 75
11 135 0 88 -4 122 -21 167 -22 60 -77 148 -92 148 -5 0 2 -29 15 -64z"/>
<path d="M2895 1215 c-5 -16 -9 -61 -9 -98 0 -65 -1 -67 -16 -47 -12 15 -25
21 -44 18 -25 -3 -31 -11 -53 -73 -33 -92 -53 -164 -53 -190 0 -13 -7 -7 -19
20 l-19 40 -1 -31 c-1 -40 26 -129 45 -148 29 -30 41 -9 47 83 4 62 13 106 31
149 14 34 26 68 26 76 0 9 10 4 29 -15 18 -18 40 -29 57 -29 27 0 27 0 20 53
-3 28 -12 90 -20 137 -11 74 -14 81 -21 55z"/>
<path d="M3270 1156 c0 -8 107 -307 134 -374 14 -35 39 -85 56 -113 25 -41 27
-48 11 -39 -49 26 -63 3 -37 -61 32 -78 32 -81 -7 -74 -29 6 -37 3 -46 -12 -5
-11 -7 -29 -4 -41 4 -17 1 -22 -13 -22 -16 0 -16 -2 4 -16 31 -22 54 -12 46
21 -7 29 2 32 34 9 12 -8 32 -14 45 -12 20 3 22 8 20 58 l-1 54 28 -33 c30
-38 60 -38 60 0 0 22 -52 131 -96 201 -24 38 -66 132 -99 220 -28 77 -135 262
-135 234z"/>
<path d="M2962 794 c-29 -109 -120 -264 -192 -329 -23 -21 -50 -66 -50 -84 0
-12 51 32 145 124 70 69 99 130 115 248 12 82 0 109 -18 41z"/>
<path d="M3122 762 c-2 -40 -13 -79 -39 -132 -19 -41 -47 -100 -61 -130 -14
-30 -43 -74 -66 -97 -22 -24 -37 -46 -33 -49 13 -14 99 55 132 105 55 83 95
193 95 259 0 105 -23 141 -28 44z"/>
</g>
</svg>
