<?xml version="1.0" standalone="no"?>
<!DOCTYPE svg PUBLIC "-//W3C//DTD SVG 20010904//EN"
 "http://www.w3.org/TR/2001/REC-SVG-20010904/DTD/svg10.dtd">
<svg version="1.0" xmlns="http://www.w3.org/2000/svg"
 width="422.000000pt" height="272.000000pt" viewBox="0 0 422.000000 272.000000"
 preserveAspectRatio="xMidYMid meet">
<metadata>
Created by potrace 1.16, written by Peter Selinger 2001-2019
</metadata>
<g transform="translate(0.000000,272.000000) scale(0.100000,-0.100000)"
fill="currentColor" stroke="none">
<path d="M2015 2706 c-16 -7 -38 -22 -47 -32 -48 -54 -66 -171 -35 -229 14
-27 14 -33 -4 -67 -10 -20 -29 -53 -43 -72 -40 -60 -151 -329 -287 -703 -24
-65 -43 -95 -89 -146 -76 -83 -128 -106 -271 -120 -136 -13 -150 -8 -255 100
-82 83 -100 107 -229 313 -38 61 -78 120 -88 132 -20 25 -21 16 3 63 37 72 17
159 -44 196 -49 30 -126 26 -167 -8 -83 -70 -78 -214 9 -251 l39 -16 1 -252
c2 -256 -7 -385 -30 -431 -7 -14 -25 -32 -40 -41 -26 -15 -28 -15 -41 2 -23
31 -116 220 -152 306 l-33 83 19 31 c11 19 19 49 19 77 0 42 -4 51 -40 83 -33
30 -48 36 -83 36 -53 0 -84 -21 -108 -74 -33 -73 -20 -131 38 -167 28 -18 33
-26 33 -60 0 -78 53 -380 85 -479 24 -78 47 -211 49 -285 0 -38 -5 -163 -13
-276 -13 -191 -12 -210 4 -258 19 -59 63 -108 121 -136 88 -44 555 -24 806 34
100 24 292 38 693 51 346 12 469 21 725 55 102 14 262 32 355 40 94 9 249 25
345 36 140 16 233 20 465 19 418 -2 410 -3 434 18 14 12 27 46 42 116 21 102
20 122 -11 192 -20 43 -41 199 -45 334 -1 41 -10 107 -20 145 -15 59 -17 98
-12 255 3 102 3 235 -1 297 -6 99 -5 112 9 116 24 6 47 46 54 92 6 37 4 44
-26 73 -65 64 -169 31 -169 -53 0 -20 4 -44 10 -54 7 -14 1 -41 -21 -102 -17
-46 -37 -111 -44 -144 l-12 -60 -17 55 c-9 30 -23 100 -31 155 -8 55 -31 156
-50 224 -19 69 -35 130 -35 137 0 6 11 14 24 18 13 3 42 26 65 51 33 36 41 52
41 83 0 20 -7 48 -16 61 -24 33 -110 71 -165 71 -54 0 -90 -29 -121 -97 -16
-35 -17 -50 -8 -82 5 -21 16 -44 24 -50 11 -10 5 -24 -34 -84 -52 -77 -196
-360 -251 -492 -18 -44 -38 -86 -43 -93 -8 -11 -38 -12 -145 -7 -75 4 -171 6
-213 6 -73 -1 -78 1 -96 27 -23 32 -146 235 -187 307 -15 28 -54 88 -85 135
-31 47 -89 152 -128 234 -40 81 -96 185 -126 230 l-55 82 15 45 c19 52 13 112
-13 141 -10 12 -38 34 -62 50 -36 22 -56 28 -100 28 -31 -1 -69 -7 -86 -14z
m252 -389 c24 -46 86 -155 139 -243 53 -87 111 -183 128 -212 17 -29 68 -110
114 -179 46 -68 93 -148 106 -176 13 -29 37 -67 54 -85 30 -32 32 -33 114 -31
46 0 138 -2 206 -6 162 -10 205 1 231 59 10 22 38 75 62 117 l44 76 40 -17 40
-17 -32 -7 c-18 -4 -33 -12 -33 -17 0 -6 8 -8 18 -6 9 3 38 8 64 12 58 8 69
22 37 46 l-24 19 65 0 c36 1 74 5 85 9 26 10 -52 21 -155 21 l-77 0 101 192
c96 181 126 225 126 180 0 -21 51 -225 80 -317 10 -33 21 -82 25 -110 4 -27
23 -99 42 -160 19 -60 36 -116 38 -122 6 -17 40 -17 52 -1 6 7 14 47 17 88 7
71 34 196 54 249 6 18 12 -17 20 -130 7 -85 12 -182 12 -216 0 -74 8 -72 -142
-43 -139 26 -254 38 -499 50 -209 10 -384 4 -356 -11 8 -5 93 -13 188 -19 451
-27 497 -31 603 -55 61 -14 131 -28 158 -31 47 -6 48 -7 48 -41 0 -34 0 -34
-37 -27 -21 3 -69 15 -108 25 -127 34 -274 50 -460 51 -317 2 -1011 -19 -1350
-42 -82 -5 -251 -14 -375 -20 -124 -6 -274 -18 -334 -26 -60 -8 -186 -21 -280
-29 -337 -30 -630 -101 -805 -196 -30 -16 -56 -27 -58 -26 -15 15 -68 279 -78
387 -3 36 -13 96 -22 133 -11 51 -13 71 -4 80 19 19 18 20 133 -266 18 -43 48
-97 68 -119 32 -37 39 -40 69 -33 53 11 99 59 118 124 15 48 17 102 18 362 l0
306 32 10 c30 9 32 8 49 -29 10 -22 49 -88 88 -148 39 -61 83 -129 98 -152 42
-67 175 -205 224 -234 44 -26 48 -26 177 -21 170 7 229 27 305 104 76 78 191
312 242 491 17 59 25 72 41 72 12 0 17 -4 13 -11 -4 -7 11 -9 52 -4 71 9 76
12 69 34 -5 16 6 19 97 30 57 6 136 14 176 18 70 6 98 21 77 41 -3 4 -105 9
-225 12 l-218 5 54 95 c30 52 63 118 73 145 15 38 24 49 38 47 78 -13 120 -11
158 7 22 11 42 20 45 20 3 1 24 -36 47 -82z m-309 -269 c53 0 81 -3 62 -5 -19
-2 -71 -10 -116 -18 -101 -19 -96 -20 -82 10 7 16 17 24 26 20 7 -3 57 -6 110
-7z m1757 -878 c44 -7 141 -26 217 -43 135 -31 136 -31 141 -62 3 -16 8 -37
11 -45 5 -13 -5 -14 -81 -8 -49 4 -353 11 -678 14 -484 5 -637 3 -850 -11
-143 -9 -368 -23 -500 -31 -132 -8 -294 -21 -360 -29 -66 -8 -181 -21 -255
-30 -74 -8 -187 -22 -250 -30 -63 -8 -167 -20 -230 -26 -215 -20 -502 -62
-545 -79 -24 -9 -28 -9 -18 1 16 16 17 46 3 51 -6 2 -1 9 10 16 18 11 20 10
20 -18 0 -16 4 -30 10 -30 15 0 32 39 25 59 -3 12 0 21 10 25 12 4 14 0 9 -18
-8 -32 15 -45 33 -20 8 10 12 29 10 41 -3 15 3 24 20 32 23 11 23 11 8 -19
-18 -34 -13 -50 15 -50 24 0 38 45 22 71 -13 21 -6 24 158 63 161 39 262 55
441 71 179 16 327 33 347 40 7 3 120 9 250 15 130 6 300 15 377 21 77 6 176
13 220 15 295 13 601 22 790 23 120 1 222 5 225 8 8 9 305 -4 395 -17z m257
-211 l126 -13 -5 -31 c-2 -16 5 -73 17 -125 12 -52 25 -126 29 -163 7 -65 6
-68 -14 -63 -11 3 -71 12 -134 21 -96 14 -171 16 -475 12 -199 -3 -408 -10
-466 -16 -58 -6 -265 -13 -460 -15 -205 -3 -420 -11 -510 -20 -85 -8 -227 -22
-315 -31 -88 -9 -178 -20 -200 -25 -22 -5 -110 -14 -195 -20 -85 -6 -213 -18
-285 -26 -71 -9 -188 -20 -260 -24 -74 -5 -178 -20 -240 -35 -60 -14 -154 -28
-207 -32 l-98 -6 0 176 c0 96 -3 182 -6 190 -4 10 5 18 28 26 42 14 351 59
488 71 58 6 179 19 270 30 91 11 185 22 210 25 l45 4 -37 -19 c-20 -11 -46
-32 -58 -47 -20 -25 -22 -37 -18 -108 7 -143 54 -200 161 -200 79 1 141 33
175 90 19 33 22 51 20 106 -4 78 -31 127 -92 164 -47 28 -47 28 134 50 153 17
321 30 625 45 116 6 248 15 295 20 140 14 1304 5 1452 -11z m-3688 -144 c-4
-8 -1 -21 5 -29 9 -10 8 -15 -3 -19 -17 -7 -28 37 -13 52 15 15 17 14 11 -4z
m3756 -281 c118 -17 148 -28 114 -40 -30 -11 -54 -35 -54 -56 0 -21 -22 -22
-208 -11 -106 6 -111 7 -96 24 21 23 15 63 -11 67 -31 4 -48 -13 -48 -47 0
-27 -4 -31 -28 -31 l-28 0 17 30 c16 28 16 30 0 46 -14 15 -22 16 -43 6 -23
-11 -29 -27 -28 -69 1 -7 -11 -13 -26 -13 -18 0 -22 3 -13 9 8 5 12 21 10 37
-2 21 -9 30 -26 32 -31 5 -55 -17 -49 -45 4 -19 0 -23 -22 -23 -23 0 -26 4
-26 33 0 29 -3 32 -30 32 -27 0 -30 -4 -33 -32 -3 -29 -7 -33 -33 -33 -26 0
-29 3 -24 20 8 26 -11 50 -40 50 -27 0 -42 -16 -47 -50 -2 -20 -10 -26 -34
-28 -30 -3 -31 -2 -30 35 1 33 -2 38 -22 41 -34 5 -65 -26 -60 -60 4 -27 -10
-38 -56 -38 -16 0 -17 3 -8 12 17 17 15 55 -4 62 -40 16 -79 -12 -70 -49 5
-21 2 -23 -62 -28 -37 -4 -95 -7 -129 -7 -63 0 -63 0 -43 20 23 23 25 41 8 58
-33 33 -92 -4 -86 -55 3 -27 1 -28 -44 -31 l-47 -3 12 30 c22 60 -44 86 -82
32 -21 -28 -19 -61 2 -61 39 0 -24 -14 -179 -39 -158 -26 -213 -30 -469 -36
-351 -7 -514 -18 -790 -50 -260 -31 -413 -45 -485 -45 l-56 0 4 34 c2 19 -1
37 -7 41 -20 12 -43 -16 -39 -46 3 -21 0 -29 -15 -33 -14 -3 -17 -1 -12 12 17
40 17 52 -1 59 -32 12 222 63 361 73 72 4 184 15 250 23 66 9 193 21 283 27
89 6 197 17 240 25 42 8 181 24 307 35 127 11 239 23 250 26 11 3 193 7 405
10 212 3 453 11 535 18 234 20 803 20 945 0z m120 -99 c0 -8 -7 -15 -16 -15
-14 0 -14 3 -4 15 7 8 14 15 16 15 2 0 4 -7 4 -15z m-237 -51 l227 -7 0 -27
c0 -14 -5 -31 -10 -36 -7 -7 -119 -9 -338 -6 -196 3 -367 0 -427 -6 -55 -6
-190 -20 -300 -31 -110 -11 -249 -26 -310 -32 -60 -6 -172 -19 -247 -30 -198
-27 -336 -37 -673 -49 -311 -11 -647 -34 -725 -49 -69 -14 -208 -15 -275 -1
-65 13 -223 6 -239 -10 -7 -7 42 -10 140 -11 196 -1 140 -15 -101 -24 -205 -8
-230 -3 -310 68 l-40 35 45 6 c25 3 135 7 245 9 l200 5 -94 -19 c-184 -36
-119 -47 107 -18 105 13 245 12 260 -3 9 -9 12 -9 12 -1 0 19 -42 43 -75 43
-16 0 -48 3 -70 7 -33 6 -15 10 105 24 302 37 501 49 790 52 218 1 300 -1 315
-10 16 -10 -44 -12 -300 -13 -305 0 -507 -11 -571 -30 -26 -7 -23 -9 26 -11
151 -6 803 3 930 13 139 10 213 28 120 28 -25 0 -51 4 -58 9 -21 13 130 21
399 21 204 0 268 4 370 21 68 11 126 23 128 25 15 14 -28 15 -176 5 -93 -7
-258 -11 -368 -9 -195 3 -198 3 -133 16 37 7 199 19 360 27 161 9 311 20 333
25 39 9 271 7 728 -6z m-3564 -95 c-6 -12 -9 -32 -6 -45 2 -13 1 -24 -3 -24
-4 0 -22 -3 -39 -6 -24 -5 -31 -3 -31 9 0 10 6 13 21 10 24 -7 39 10 39 45 0
29 -40 31 -47 2 -7 -25 -23 -26 -23 -2 0 27 9 32 57 32 41 0 43 -1 32 -21z
m75 8 c-3 -8 -6 -27 -7 -43 -2 -19 -9 -30 -21 -32 -15 -3 -17 0 -10 20 4 12 8
33 9 46 0 14 6 22 17 22 10 0 15 -5 12 -13z m419 -104 c-7 -2 -21 -2 -30 0
-10 3 -4 5 12 5 17 0 24 -2 18 -5z"/>
<path d="M2070 1848 c-54 -28 -85 -72 -94 -131 -7 -48 6 -122 30 -171 64 -124
220 -162 319 -75 42 37 59 85 58 169 0 131 -80 216 -212 227 -45 4 -65 0 -101
-19z"/>
<path d="M1710 1466 c-47 -8 -66 -16 -68 -28 -2 -13 8 -20 40 -28 74 -19 80
-22 72 -30 -5 -4 -54 -13 -108 -20 -118 -14 -126 -17 -126 -41 0 -15 8 -19 33
-20 l32 -1 -35 -9 c-19 -4 -95 -13 -169 -19 -156 -12 -342 -37 -374 -50 -32
-13 121 -13 273 1 193 17 423 48 435 60 7 7 2 16 -14 28 l-23 18 57 7 c64 7
95 20 95 40 0 18 -30 43 -62 51 -34 9 -28 21 12 30 16 4 32 11 35 16 8 11 -22
10 -105 -5z"/>
<path d="M2380 1379 c-255 -30 -403 -60 -386 -76 11 -12 628 60 671 78 27 10
-188 9 -285 -2z"/>
<path d="M698 1235 c-42 -7 -81 -16 -87 -20 -21 -12 -11 -25 22 -26 32 0 32 0
-12 -17 -58 -22 -65 -42 -14 -41 46 1 100 16 68 19 -14 1 -10 5 17 16 20 9 38
24 41 34 3 12 18 20 43 24 22 4 46 11 54 16 21 13 -36 11 -132 -5z"/>
<path d="M3090 1133 c-27 -34 -22 -65 12 -77 37 -13 78 14 78 52 0 56 -54 71
-90 25z"/>
<path d="M3232 1148 c-7 -7 -12 -27 -12 -45 0 -27 5 -34 27 -39 50 -13 86 29
60 70 -19 28 -55 34 -75 14z"/>
<path d="M2642 1134 c-34 -23 -26 -65 13 -76 24 -7 33 -4 48 13 21 26 22 43 1
63 -20 20 -34 20 -62 0z"/>
<path d="M2795 1130 c-15 -16 -17 -26 -9 -48 8 -22 15 -27 44 -27 32 0 35 3
41 37 3 21 1 42 -5 48 -16 16 -51 12 -71 -10z"/>
<path d="M2938 1136 c-25 -18 -23 -63 3 -76 26 -15 76 4 84 31 15 47 -44 78
-87 45z"/>
<path d="M3368 1139 c-26 -15 -24 -66 2 -74 33 -10 72 21 68 53 -2 20 -9 28
-28 29 -14 2 -33 -2 -42 -8z"/>
<path d="M3469 1124 c-14 -38 -3 -64 27 -64 28 0 49 39 39 71 -10 30 -53 25
-66 -7z"/>
<path d="M3582 1138 c-7 -7 -12 -27 -12 -45 0 -26 5 -34 24 -39 33 -8 46 2 46
32 0 52 -31 79 -58 52z"/>
<path d="M2306 1121 c-10 -11 -16 -31 -14 -48 3 -26 6 -28 43 -28 39 0 40 1
43 39 5 56 -36 77 -72 37z"/>
<path d="M2466 1125 c-9 -9 -16 -23 -16 -30 0 -21 29 -45 54 -45 31 0 48 22
44 57 -2 23 -8 29 -34 31 -19 2 -38 -3 -48 -13z"/>
<path d="M3682 1128 c-17 -17 -15 -53 3 -68 38 -31 96 27 65 65 -15 18 -51 20
-68 3z"/>
<path d="M3796 1118 c-22 -32 -20 -65 4 -71 25 -6 43 22 38 60 -4 35 -22 40
-42 11z"/>
<path d="M2131 1111 c-20 -36 -13 -71 15 -81 48 -19 84 24 60 72 -15 31 -61
36 -75 9z"/>
<path d="M3866 1098 c-24 -34 -20 -58 8 -58 14 0 28 5 32 11 5 8 10 6 16 -5
13 -24 48 -3 48 29 0 18 -5 25 -20 25 -11 0 -20 -6 -21 -12 0 -7 -4 -3 -9 10
-12 28 -34 28 -54 0z"/>
<path d="M1812 1098 c-17 -17 -15 -54 4 -72 18 -19 28 -20 55 -6 24 13 27 75
3 84 -25 9 -49 7 -62 -6z"/>
<path d="M1980 1095 c-7 -8 -10 -25 -6 -40 5 -21 12 -25 41 -25 29 0 36 4 41
25 4 15 1 32 -6 40 -16 19 -54 19 -70 0z"/>
<path d="M1661 1086 c-7 -8 -11 -30 -9 -48 3 -30 6 -33 38 -33 31 0 35 3 38
27 6 54 -38 89 -67 54z"/>
<path d="M1508 1073 c-28 -33 -30 -44 -12 -64 19 -21 45 -24 75 -9 26 14 24
55 -3 74 -29 20 -41 20 -60 -1z"/>
<path d="M1355 1064 c-10 -11 -15 -29 -13 -53 3 -31 7 -36 31 -39 23 -3 30 2
43 33 8 20 12 45 9 56 -8 24 -47 25 -70 3z"/>
<path d="M3980 1050 c0 -13 7 -20 20 -20 13 0 20 7 20 20 0 13 -7 20 -20 20
-13 0 -20 -7 -20 -20z"/>
<path d="M1191 1026 c-21 -25 -10 -70 17 -74 27 -4 62 23 62 48 0 37 -55 55
-79 26z"/>
<path d="M1057 1004 c-15 -15 -6 -54 14 -64 28 -16 72 12 67 43 -2 17 -11 23
-38 25 -20 2 -39 0 -43 -4z"/>
<path d="M948 976 c-14 -31 -4 -56 21 -56 25 0 44 34 36 60 -9 28 -43 25 -57
-4z"/>
<path d="M752 968 c-18 -18 -15 -68 4 -75 37 -14 70 41 44 73 -15 17 -32 18
-48 2z"/>
<path d="M842 968 c-20 -20 -14 -48 12 -60 38 -17 58 -4 54 34 -2 27 -8 34
-28 36 -14 2 -31 -3 -38 -10z"/>
<path d="M635 950 c-15 -16 -17 -26 -9 -48 13 -37 48 -41 70 -7 34 52 -19 101
-61 55z"/>
<path d="M548 929 c-37 -21 -10 -77 30 -64 21 6 34 38 25 61 -6 16 -31 18 -55
3z"/>
<path d="M2954 911 c-50 -23 -74 -69 -74 -143 0 -103 71 -161 197 -162 54 -1
65 2 91 27 53 51 49 160 -10 232 -54 65 -126 81 -204 46z"/>
<path d="M3984 884 c-17 -8 -36 -26 -43 -40 -12 -26 -15 -95 -5 -130 13 -47
115 -73 146 -36 27 30 30 59 13 129 -23 93 -46 109 -111 77z"/>
<path d="M3585 857 c-43 -43 -59 -98 -40 -143 17 -42 41 -54 110 -54 74 0 105
28 105 95 0 55 -21 110 -48 124 -41 22 -92 13 -127 -22z"/>
<path d="M1733 873 c-7 -2 -13 -13 -13 -23 0 -14 12 -19 58 -25 48 -7 53 -9
30 -15 -14 -4 -54 -11 -88 -15 -59 -7 -61 -8 -58 -34 3 -25 6 -26 68 -29 85
-4 332 16 344 28 7 7 -36 10 -114 11 -115 1 -122 2 -80 12 36 10 45 16 44 33
0 20 6 22 86 28 47 4 91 11 98 15 25 15 -339 29 -375 14z"/>
<path d="M3348 853 c-61 -5 -62 -18 -3 -26 52 -8 195 2 195 13 0 8 -92 21
-125 18 -11 -1 -41 -3 -67 -5z"/>
<path d="M2160 818 c-49 -40 -66 -121 -35 -164 37 -54 130 -51 187 7 25 25 29
35 26 75 -2 37 -9 51 -30 67 -33 25 -125 34 -148 15z"/>
<path d="M2480 791 c-25 -4 -31 -9 -22 -15 18 -11 280 -12 312 -1 24 8 23 9
-15 16 -47 9 -225 9 -275 0z"/>
<path d="M767 759 c-43 -4 -120 -15 -170 -24 -51 -9 -121 -21 -157 -27 -73
-12 -112 -32 -103 -55 5 -13 21 -14 92 -10 88 6 87 4 -6 -14 -41 -8 -53 -15
-53 -29 0 -10 8 -21 19 -25 10 -3 18 -13 17 -23 -1 -15 12 -18 94 -23 52 -3
79 -6 60 -7 -47 -3 -219 -37 -226 -45 -12 -12 5 -37 25 -37 11 0 21 -4 23 -8
3 -10 113 0 124 11 4 3 2 13 -5 20 -13 16 -2 18 199 37 146 14 160 17 160 34
0 15 -30 26 -72 26 -17 0 -28 5 -28 14 0 13 -89 24 -220 27 l-55 1 40 9 c22 5
94 11 160 13 66 2 123 5 128 5 4 1 7 7 7 15 0 20 -29 25 -170 33 -69 3 -120 8
-115 9 32 10 246 36 358 44 73 6 146 13 162 17 27 6 24 8 -25 14 -72 9 -166 8
-263 -2z"/>
<path d="M3363 751 c-24 -4 -46 -10 -49 -14 -11 -11 169 -8 186 3 12 8 12 10
-5 10 -11 0 -36 2 -55 4 -19 3 -54 1 -77 -3z"/>
<path d="M2533 703 c-29 -11 -13 -41 30 -56 l42 -14 -32 -7 c-18 -4 -36 -12
-39 -18 -6 -10 28 -7 109 8 33 7 36 33 5 42 -23 6 -23 6 2 13 14 4 48 7 77 8
28 1 54 5 57 10 10 15 -216 29 -251 14z"/>
<path d="M1723 621 c-24 -4 -45 -10 -49 -13 -12 -13 146 -19 231 -9 50 6 97
11 105 11 13 0 13 1 0 10 -17 11 -222 11 -287 1z"/>
<path d="M3842 508 c-17 -17 -15 -58 3 -64 23 -9 45 15 45 47 0 31 -25 40 -48
17z"/>
<path d="M3982 508 c-19 -19 -15 -68 6 -68 10 0 23 5 30 12 9 9 13 7 18 -5 14
-37 74 1 74 48 0 20 -38 19 -62 -2 -17 -15 -18 -15 -18 5 0 24 -28 30 -48 10z"/>
<path d="M2853 495 c-32 -23 -31 -63 3 -71 14 -4 37 -1 50 5 21 9 25 17 22 44
-2 26 -8 33 -28 35 -14 1 -35 -4 -47 -13z"/>
<path d="M3911 491 c-15 -27 -3 -53 23 -49 16 2 21 10 21 33 0 36 -28 46 -44
16z"/>
<path d="M2350 451 c-25 -48 2 -81 50 -61 55 23 47 80 -11 80 -18 0 -32 -7
-39 -19z"/>
<path d="M2178 443 c-26 -31 -29 -42 -18 -63 19 -35 87 -22 110 20 26 49 -55
86 -92 43z"/>
<path d="M2020 430 c-15 -15 -20 -31 -18 -53 2 -26 8 -33 30 -35 15 -2 36 2
48 8 17 9 21 19 18 53 -3 37 -6 42 -30 45 -17 2 -34 -4 -48 -18z"/>
<path d="M1692 418 c-7 -7 -12 -27 -12 -45 0 -34 16 -42 55 -27 20 8 37 48 29
69 -7 18 -55 20 -72 3z"/>
<path d="M1850 416 c-6 -8 -10 -25 -8 -37 8 -54 90 -50 96 5 2 16 -2 32 -10
37 -21 14 -64 10 -78 -5z"/>
<path d="M1530 399 c-6 -11 -10 -30 -8 -42 5 -33 55 -30 81 5 17 22 18 30 7
43 -18 22 -67 19 -80 -6z"/>
<path d="M1402 394 c-28 -19 -29 -60 -2 -69 44 -14 80 41 48 73 -15 15 -19 15
-46 -4z"/>
<path d="M1116 368 c-20 -29 -20 -64 0 -72 26 -10 33 -7 50 19 35 53 -14 105
-50 53z"/>
<path d="M1240 375 c-20 -24 -8 -50 24 -50 32 0 53 23 43 49 -8 20 -50 21 -67
1z"/>
<path d="M958 344 c-8 -18 -9 -30 -1 -42 26 -43 92 -7 79 43 -9 36 -61 36 -78
-1z"/>
<path d="M840 339 c-7 -11 -9 -32 -6 -45 5 -19 13 -24 36 -24 39 0 67 39 50
69 -15 29 -65 28 -80 0z"/>
<path d="M736 328 c-25 -35 -21 -68 8 -68 31 0 48 22 44 57 -4 35 -31 41 -52
11z"/>
<path d="M640 311 c-15 -28 -12 -51 6 -58 21 -8 44 21 44 54 0 29 -35 32 -50
4z"/>
<path d="M566 304 c-18 -17 -19 -24 -10 -48 12 -32 64 -11 64 26 0 27 -35 42
-54 22z"/>
</g>
</svg>
