<?xml version="1.0" standalone="no"?>
<!DOCTYPE svg PUBLIC "-//W3C//DTD SVG 20010904//EN"
 "http://www.w3.org/TR/2001/REC-SVG-20010904/DTD/svg10.dtd">
<svg version="1.0" xmlns="http://www.w3.org/2000/svg"
 width="314.000000pt" height="560.000000pt" viewBox="0 0 314.000000 560.000000"
 preserveAspectRatio="xMidYMid meet">
<metadata>
Created by potrace 1.16, written by Peter Selinger 2001-2019
</metadata>
<g transform="translate(0.000000,560.000000) scale(0.100000,-0.100000)"
fill="currentColor" stroke="none">
<path d="M2045 5535 l-60 -65 -137 29 c-75 16 -161 36 -192 45 -66 20 -89 16
-293 -51 -117 -39 -143 -51 -147 -69 -3 -12 -23 -60 -45 -107 -33 -73 -43 -86
-68 -90 -43 -9 -179 -18 -264 -19 l-77 -1 -88 -69 c-49 -38 -104 -78 -121 -90
-29 -17 -33 -25 -33 -63 0 -40 -2 -43 -32 -48 -18 -4 -86 -9 -152 -13 l-119
-7 -86 -72 c-145 -122 -133 -95 -121 -286 12 -182 30 -250 144 -552 l56 -147
-12 -75 c-9 -56 -9 -90 0 -137 6 -35 21 -160 32 -278 12 -118 27 -273 34 -345
l13 -130 97 -229 96 -230 20 -315 c11 -174 27 -410 35 -526 20 -294 24 -265
-33 -265 -112 0 -255 -116 -307 -249 -13 -35 -42 -91 -64 -125 -48 -76 -65
-127 -58 -178 4 -29 -3 -69 -24 -136 -40 -129 -40 -204 0 -258 53 -73 118
-116 327 -215 156 -74 174 -80 389 -125 163 -35 181 -37 418 -42 354 -7 700
21 992 79 212 42 239 52 429 146 190 95 272 159 302 239 24 63 15 173 -19 241
-15 29 -29 77 -32 110 -10 95 -14 105 -66 155 -44 42 -49 52 -49 90 0 46 -7
60 -76 146 -35 43 -133 92 -199 99 l-52 6 -7 216 c-3 119 -8 367 -12 551 l-6
335 77 155 c75 153 77 156 190 270 113 113 116 118 250 354 197 346 207 367
200 424 -4 26 5 259 19 517 21 395 24 520 19 787 l-6 318 -76 73 c-69 67 -95
83 -281 178 l-205 104 -230 2 -230 2 -60 -64z m472 -1 c26 -5 33 -16 74 -120
25 -63 45 -114 44 -114 -2 0 -54 25 -116 55 l-114 55 -152 2 -151 3 20 50 c11
28 22 56 25 63 4 9 48 12 173 12 92 0 181 -3 197 -6z m224 -100 c71 -36 129
-69 129 -74 0 -5 -26 -14 -57 -20 -31 -7 -73 -18 -93 -25 l-36 -13 -27 62
c-47 109 -57 136 -51 136 3 0 64 -30 135 -66z m-1138 49 c-7 -2 -21 -2 -30 0
-10 3 -4 5 12 5 17 0 24 -2 18 -5z m-56 -9 c-3 -3 -12 -4 -19 -1 -8 3 -5 6 6
6 11 1 17 -2 13 -5z m120 -60 c-21 -45 -22 -45 -62 -40 -22 3 -74 8 -115 11
-156 13 -156 13 192 74 4 0 -2 -20 -15 -45z m129 -6 l55 -43 -41 -3 c-22 -2
-58 -2 -80 0 l-39 3 19 43 c10 23 22 42 25 42 4 0 31 -19 61 -42z m146 3 c4
-3 -1 -16 -10 -28 l-17 -22 -44 39 -43 38 53 -11 c30 -5 57 -12 61 -16z m-589
-88 c-3 -10 -112 -47 -119 -40 -2 2 5 25 16 52 l20 47 43 -25 c23 -14 41 -29
40 -34z m778 34 c15 -12 41 -54 59 -94 l32 -72 -45 -83 c-25 -46 -56 -94 -69
-108 l-23 -25 -6 70 c-15 167 -5 335 20 335 3 0 18 -10 32 -23z m235 9 c1 0
-1 -30 -5 -64 l-6 -64 -30 23 c-16 13 -57 45 -89 72 l-60 49 95 -7 c51 -4 95
-8 95 -9z m-856 -22 c90 -8 130 -31 130 -74 0 -26 -8 -32 -95 -74 -92 -45 -96
-46 -190 -46 l-95 0 0 44 c0 43 1 45 43 59 23 8 63 23 90 32 52 18 59 34 25
59 -21 15 -21 16 -3 12 11 -3 54 -8 95 -12z m496 -41 c-10 -26 -32 -77 -51
-113 l-33 -65 5 100 c3 55 8 102 10 105 6 7 77 27 82 24 1 -2 -4 -24 -13 -51z
m480 27 c2 0 4 -4 4 -9 0 -8 -74 -61 -85 -61 -7 0 -6 85 1 93 4 3 22 0 41 -8
20 -8 37 -15 39 -15z m454 -212 l0 -213 -37 55 c-20 30 -65 92 -100 137 -55
71 -100 149 -91 158 6 6 175 63 199 68 13 2 25 5 27 6 1 0 2 -95 2 -211z
m-1060 92 c0 -60 -2 -110 -4 -110 -2 0 -27 34 -56 77 -30 42 -67 91 -83 110
l-29 33 86 0 86 0 0 -110z m703 69 c23 -12 43 -23 45 -24 5 -5 -27 -64 -60
-109 -34 -47 -82 -65 -98 -37 -5 10 -27 23 -49 31 -43 14 -44 15 -32 43 5 14
131 112 149 116 1 1 22 -9 45 -20z m-243 -81 c7 -2 9 -13 4 -32 l-7 -28 -39
39 c-22 21 -49 55 -59 76 l-20 38 54 -44 c30 -25 60 -46 67 -49z m730 -7 c0
-12 -78 -231 -86 -240 -2 -2 -4 73 -4 167 l0 172 45 -42 c25 -23 45 -49 45
-57z m-1342 6 l41 -42 -57 -67 c-31 -36 -58 -65 -59 -64 -2 1 -8 37 -13 79
-11 74 -10 79 12 107 13 16 25 29 28 29 3 1 25 -18 48 -42z m306 -99 l6 -138
-60 -30 c-33 -16 -62 -30 -66 -30 -3 0 -3 30 0 68 6 53 18 88 59 169 28 56 52
101 53 100 1 -1 4 -64 8 -139z m-794 -48 c5 -52 12 -111 15 -130 3 -19 2 -28
-1 -20 -65 155 -66 162 -54 235 17 94 24 109 28 55 1 -25 6 -88 12 -140z
m1454 50 l25 -95 -34 -135 c-18 -74 -40 -162 -48 -195 l-15 -60 5 90 c2 50 8
143 14 207 5 64 9 147 9 185 0 65 10 129 17 108 1 -6 14 -53 27 -105z m-1536
28 c-5 -23 -10 -43 -11 -44 -1 -1 -53 -4 -115 -6 l-113 -5 -21 30 c-26 37 -15
46 62 48 30 1 82 5 115 9 102 12 94 15 83 -32z m445 -37 l6 -55 -44 44 c-25
24 -45 47 -45 50 0 4 15 13 33 22 38 19 42 14 50 -61z m793 -78 c-1 -1 -43
-18 -93 -36 l-91 -34 -27 21 -27 22 48 84 49 85 72 -69 c40 -39 71 -71 69 -73z
m-1558 43 c-13 -5 -76 -33 -140 -62 -114 -50 -118 -51 -118 -29 0 14 11 30 28
41 15 10 60 44 101 76 l75 59 38 -38 c38 -38 39 -38 16 -47z m1777 67 c-3 -16
-12 -154 -31 -506 l-6 -109 -107 104 c-58 56 -105 108 -105 115 1 6 46 80 99
165 54 84 110 174 123 201 27 51 32 57 27 30z m-805 -22 c8 -15 0 -43 -36
-129 -27 -66 -52 -112 -62 -115 -10 -3 -25 -8 -34 -12 -16 -6 -18 0 -18 55 l0
62 68 79 c37 43 68 79 69 79 1 0 7 -9 13 -19z m-420 2 c0 -5 -6 -30 -13 -58
-13 -49 -14 -50 -55 -53 -38 -3 -42 -1 -42 20 0 13 -3 40 -6 61 l-7 37 62 0
c33 0 61 -3 61 -7z m149 -57 l64 -64 -112 -56 c-61 -31 -111 -53 -111 -49 0 5
12 59 27 121 33 138 40 140 132 48z m875 51 c10 -7 17 -22 14 -33 -3 -16 -6
-14 -26 14 -24 33 -19 42 12 19z m404 -102 c39 -55 83 -115 97 -133 l27 -32
-141 -142 c-77 -78 -143 -140 -145 -137 -3 2 14 81 36 174 72 300 69 284 53
340 -18 59 -16 57 73 -70z m-341 13 c-18 -29 -64 -99 -102 -156 l-69 -103 -43
43 c-23 23 -40 44 -37 47 2 3 33 17 67 31 51 22 63 32 67 54 4 21 16 33 50 49
34 17 46 29 52 55 6 23 14 32 29 32 18 0 17 -4 -14 -52z m-1435 -29 c-34 -34
-62 -65 -62 -69 0 -4 13 -46 29 -94 l29 -87 -46 43 c-26 23 -50 52 -54 63 -12
39 -9 193 5 198 6 3 46 6 86 6 l75 1 -62 -61z m828 46 c8 -10 10 -30 6 -60 -6
-40 -11 -47 -43 -60 -20 -9 -38 -14 -40 -12 -5 6 51 147 58 147 4 0 12 -7 19
-15z m-974 -69 l-1 -74 -55 5 c-30 3 -56 7 -58 8 -1 1 2 25 8 53 11 47 14 52
53 66 23 8 45 15 48 15 3 1 5 -32 5 -73z m2177 -103 l5 -162 -36 -27 c-19 -15
-65 -36 -101 -46 -36 -10 -97 -28 -136 -38 l-70 -20 75 73 c115 110 163 173
209 273 22 50 41 97 41 104 0 7 2 11 4 9 2 -2 6 -77 9 -166z m-1972 18 l-26
-129 -21 56 c-39 103 -40 95 18 151 28 28 52 51 53 51 1 0 -10 -58 -24 -129z
m-362 41 l-21 -62 -57 0 c-47 0 -58 4 -70 22 -8 12 -10 24 -5 25 5 2 45 21 89
42 44 21 81 37 82 36 2 -1 -7 -29 -18 -63z m501 -123 c11 -41 27 -93 35 -114
18 -42 19 -40 -46 -75 -19 -10 -59 -37 -88 -60 -29 -23 -55 -40 -57 -37 -9 8
48 333 77 442 l11 40 24 -60 c14 -33 33 -94 44 -136z m963 118 c10 -4 40 2 67
12 66 25 64 16 -2 -13 -43 -19 -76 -24 -178 -28 l-125 -5 80 42 80 41 30 -22
c17 -11 38 -24 48 -27z m-858 11 c-4 -18 -12 -44 -17 -58 -12 -31 -22 -15 -32
48 -6 42 -6 42 25 42 29 0 30 -1 24 -32z m274 -25 l0 -48 -137 -82 c-91 -54
-139 -77 -144 -70 -3 7 -9 33 -13 60 -7 47 -7 47 26 59 19 6 84 37 144 68 61
31 113 58 118 58 4 1 7 -19 6 -45z m-1102 -94 c-3 -39 -8 -74 -11 -77 -3 -2
-26 12 -51 33 -27 22 -52 35 -61 31 -8 -3 1 14 22 39 31 38 42 45 72 45 l35 0
-6 -71z m-154 28 c-15 -19 -28 -33 -28 -33 0 1 -13 16 -29 34 l-30 32 58 0 58
0 -29 -33z m-100 -15 l27 -28 -34 -12 c-37 -14 -46 -37 -46 -117 0 -23 -3 -45
-7 -48 -3 -4 -20 4 -37 17 -17 13 -48 35 -69 49 l-37 25 82 71 c46 39 86 70
89 71 3 0 17 -13 32 -28z m323 1 c21 -33 21 -52 -2 -111 -19 -51 -34 -41 -34
23 0 39 10 115 15 115 2 0 11 -12 21 -27z m348 -449 c9 -65 22 -149 29 -186
11 -54 11 -68 1 -68 -7 0 -19 -3 -27 -6 -12 -4 -21 20 -42 113 -15 65 -42 171
-61 235 -46 163 -46 167 12 288 l49 103 12 -179 c7 -99 19 -234 27 -300z
m1206 473 c0 -1 -5 -18 -10 -37 -8 -26 -6 -72 6 -177 10 -79 15 -146 11 -149
-3 -4 -20 -1 -38 5 -18 6 -44 11 -59 11 -25 0 -28 4 -39 63 -7 34 -24 103 -38
152 -33 119 -33 118 2 126 29 6 165 12 165 6z m-1478 -29 c-9 -9 -15 -9 -24 0
-9 9 -7 12 12 12 19 0 21 -3 12 -12z m1198 -2 c-8 -7 -82 -64 -163 -125 -135
-101 -148 -109 -143 -84 3 15 8 55 11 88 6 60 7 61 53 85 40 22 96 33 242 48
13 2 13 0 0 -12z m-1057 -56 c-15 -33 -29 -60 -33 -60 -3 0 -23 17 -44 39 -42
43 -41 46 33 66 72 20 72 20 44 -45z m1501 -104 c22 -28 77 -94 121 -146 87
-103 130 -160 120 -160 -8 0 -290 88 -327 102 -24 9 -26 15 -33 91 -3 45 -11
111 -16 146 -6 35 -7 77 -4 93 l7 28 46 -51 c25 -28 64 -74 86 -103z m-348
-36 c13 -58 24 -108 24 -111 0 -3 -10 -4 -23 -2 -39 8 -139 -15 -202 -47 -98
-48 -263 -150 -364 -225 -51 -38 -96 -70 -99 -70 -8 0 -32 166 -26 176 2 4 69
44 149 89 138 77 232 146 415 304 l75 64 13 -36 c8 -20 24 -84 38 -142z m-896
43 c0 -6 -9 -48 -19 -92 -11 -44 -25 -140 -32 -213 -10 -102 -15 -124 -20 -98
-9 43 -36 293 -45 419 l-7 94 62 -49 c33 -27 61 -54 61 -61z m-690 81 c0 -3
-27 -49 -60 -101 -66 -106 -65 -106 -60 22 1 42 6 64 18 73 16 12 102 17 102
6z m330 -41 l43 -46 -44 -38 c-24 -21 -47 -39 -51 -39 -10 0 -21 124 -13 149
9 30 17 27 65 -26z m-180 -41 c0 -2 -29 -43 -64 -91 -35 -47 -71 -99 -82 -116
-10 -16 -19 -32 -20 -33 -2 -2 -23 10 -48 27 l-45 31 46 78 c26 42 60 95 75
116 15 21 28 45 28 53 0 8 20 0 55 -23 30 -20 55 -39 55 -42z m1006 31 c-2
-16 -8 -54 -11 -85 l-6 -57 -67 -37 c-119 -67 -293 -174 -340 -210 -25 -19
-47 -32 -50 -30 -2 3 -1 39 3 80 l7 75 51 31 c29 17 131 82 227 145 96 63 179
115 183 115 5 0 6 -12 3 -27z m-1366 -113 c0 -12 -76 -80 -83 -74 -4 4 -7 38
-7 76 l0 69 45 -32 c25 -18 45 -35 45 -39z m371 -15 c-12 -26 -21 -65 -21 -86
0 -32 -4 -40 -24 -45 -13 -3 -36 -4 -50 -2 -27 3 -26 4 40 95 37 51 69 91 72
89 2 -2 -6 -26 -17 -51z m43 -54 c-15 -14 -24 -19 -22 -11 3 8 14 39 24 68
l19 54 3 -43 c3 -35 -1 -47 -24 -68z m1956 -19 c-15 -5 -40 19 -80 76 l-33 47
62 -60 c34 -33 57 -61 51 -63z m-1784 -99 c-8 -262 -11 -283 -41 -283 -22 0
-23 5 -30 93 -3 50 -10 128 -16 172 -16 143 -15 148 39 189 26 19 49 36 51 36
2 0 1 -93 -3 -207z m2228 140 c-27 -44 -122 -177 -150 -212 -4 -5 -104 71
-104 80 0 3 28 23 62 44 33 21 95 62 137 91 42 29 80 53 84 54 4 0 -9 -26 -29
-57z m-154 -14 c-41 -27 -91 -58 -110 -69 -35 -18 -36 -18 -60 0 l-25 19 22
22 c18 18 171 68 238 78 6 0 -24 -22 -65 -50z m244 20 c10 -50 7 -86 -6 -92
-7 -3 -36 -14 -65 -25 l-51 -21 51 84 c29 46 55 84 58 85 4 0 9 -14 13 -31z
m-2824 -109 c7 -14 44 -72 83 -129 l69 -103 -104 78 c-56 43 -126 97 -154 120
l-52 41 61 62 61 61 11 -53 c6 -28 17 -63 25 -77z m381 -107 c5 -82 10 -166
13 -188 5 -36 4 -37 -4 -10 -5 17 -26 90 -46 163 l-36 134 28 29 c15 16 30 27
32 24 3 -3 9 -71 13 -152z m1310 33 l-56 -114 -100 -6 c-55 -3 -152 -8 -215
-11 l-115 -6 25 21 c38 31 188 124 277 170 87 46 125 57 194 59 l45 1 -55
-114z m-1076 -146 c8 -47 15 -88 15 -92 0 -5 -23 -8 -51 -8 l-52 0 7 53 c4 28
9 108 13 177 l6 124 24 -84 c12 -47 30 -123 38 -170z m1399 96 c11 -141 7
-187 -23 -281 -16 -51 -31 -83 -34 -75 -3 8 -22 69 -41 135 -20 66 -54 174
-76 240 -22 65 -40 120 -40 120 0 1 47 -12 104 -28 l103 -30 7 -81z m345 123
c41 -25 283 -213 298 -231 20 -25 115 -208 107 -208 -24 0 -390 340 -430 399
-19 28 -34 53 -34 56 0 11 26 4 59 -16z m-534 -190 c31 -94 54 -173 52 -176
-3 -2 -24 22 -48 53 -65 86 -104 124 -128 124 -19 0 -18 6 21 85 23 47 43 85
45 85 1 0 27 -77 58 -171z m-1540 124 c4 -21 20 -87 37 -146 16 -60 28 -110
26 -111 -1 -2 -22 -1 -44 2 -41 4 -44 7 -122 122 -96 138 -95 144 13 158 39 5
73 10 76 11 4 0 10 -16 14 -36z m2541 13 c-3 -13 -15 -46 -26 -72 l-21 -47
-44 43 c-25 24 -42 47 -37 51 10 10 104 48 121 48 9 1 11 -6 7 -23z m-586 -53
c52 -15 98 -30 101 -35 7 -11 25 -169 44 -384 7 -88 17 -173 20 -187 4 -15 5
-27 3 -27 -8 0 -172 211 -218 280 -24 36 -63 85 -86 110 l-41 45 -7 127 -6
127 47 -15 c27 -8 91 -26 143 -41z m-2147 -133 l128 -95 -108 -52 c-59 -29
-111 -53 -114 -53 -8 0 -139 356 -139 377 0 2 24 -16 53 -39 29 -24 110 -86
180 -138z m2640 18 c-16 -18 -17 -18 -30 7 -8 14 -17 25 -21 25 -4 1 -20 11
-36 24 -25 21 -27 26 -16 46 12 22 13 22 66 -31 51 -50 53 -54 37 -71z m-1726
-44 c-3 -3 -39 11 -80 32 l-75 37 66 43 67 43 14 -75 c8 -41 12 -77 8 -80z
m1661 -153 c42 -35 90 -74 105 -87 l29 -24 -7 -105 -7 -105 -52 75 c-28 42
-96 141 -151 222 -55 80 -122 176 -149 212 l-50 66 103 -95 c56 -52 137 -124
179 -159z m149 192 c-3 -10 -5 -4 -5 12 0 17 2 24 5 18 2 -7 2 -21 0 -30z
m-1211 -18 c-14 -11 -48 -15 -120 -15 -101 -1 -274 -13 -344 -26 l-37 -6 20
20 c18 18 39 21 215 30 301 14 288 14 266 -3z m77 -30 c-17 -51 -33 -59 -33
-16 0 42 9 61 30 61 18 0 18 -2 3 -45z m-743 -85 c61 -47 48 -47 -62 3 -68 30
-68 30 -68 70 l0 41 38 -35 c20 -20 62 -55 92 -79z m1849 32 c7 -35 11 -66 8
-68 -2 -2 -16 23 -32 56 -24 50 -26 62 -15 75 18 22 25 10 39 -63z m-982 -30
l33 -40 -49 -41 c-27 -23 -53 -41 -58 -41 -5 0 -17 24 -27 53 -14 41 -15 58
-7 80 6 15 16 39 22 55 l11 27 21 -27 c12 -14 37 -44 54 -66z m679 -22 c37
-52 101 -147 142 -210 41 -63 94 -145 119 -182 l44 -67 -22 -43 c-12 -24 -52
-79 -88 -123 -37 -44 -105 -129 -153 -190 -47 -60 -95 -119 -107 -129 l-21
-19 0 40 c0 21 14 122 30 224 32 193 37 277 20 344 -5 22 -17 114 -25 205 -8
91 -18 188 -21 215 -7 59 -8 60 82 -65z m-1523 77 c20 -10 37 -24 37 -33 0
-14 -2 -15 -17 -3 -44 34 -77 62 -68 58 6 -3 27 -13 48 -22z m561 -39 c-22
-24 -52 -60 -68 -80 -18 -25 -37 -38 -51 -38 -13 0 -67 20 -120 45 -116 54
-149 60 -153 28 -3 -21 -9 -23 -58 -23 l-56 0 8 32 c10 47 30 57 114 59 41 1
104 5 140 9 36 4 114 8 174 8 l109 2 -39 -42z m100 -44 l6 -41 -76 -15 -75
-15 23 26 c105 120 110 122 122 45z m641 -248 c35 -45 75 -95 89 -112 l25 -31
-117 34 c-64 18 -146 40 -181 48 -35 7 -67 17 -71 22 -4 4 -12 26 -17 49 -9
35 -5 59 25 167 l36 126 73 -111 c41 -61 103 -147 138 -192z m-1493 186 l3
-99 -40 18 c-22 9 -77 27 -122 39 -79 21 -83 24 -113 69 -16 26 -30 51 -30 54
0 4 53 8 118 10 64 1 131 4 149 5 l32 2 3 -98z m-492 11 l0 -54 -62 7 c-35 4
-85 10 -113 14 l-50 6 100 50 c65 32 104 46 113 40 7 -5 12 -31 12 -63z m147
50 c-2 -1 -14 1 -27 4 -22 6 -22 7 -4 13 15 6 40 -8 31 -17z m464 -90 c-36
-23 -69 -43 -73 -43 -5 0 -8 33 -8 74 l0 74 74 -32 73 -31 -66 -42z m-508 60
c26 -9 47 -20 47 -25 0 -12 -73 -58 -92 -58 -15 0 -18 9 -18 50 0 28 3 50 8
50 4 0 28 -8 55 -17z m817 -9 c0 -2 -7 -4 -15 -4 -8 0 -15 4 -15 10 0 5 7 7
15 4 8 -4 15 -8 15 -10z m733 -129 l34 -130 -86 3 -87 3 -26 73 -26 74 76 61
c42 34 78 59 79 54 1 -4 18 -66 36 -138z m-908 95 c-62 -25 -63 -25 -34 0 13
10 38 19 54 19 27 0 24 -2 -20 -19z m-549 -106 c-4 -11 -48 -14 -226 -14 -210
0 -220 1 -220 19 0 11 -3 26 -6 35 -8 21 37 21 208 1 139 -16 152 -14 208 33
l35 30 3 -45 c2 -25 1 -52 -2 -59z m748 88 c3 -5 -15 -14 -40 -20 -55 -15 -56
-29 -7 -100 21 -32 32 -56 27 -60 -6 -4 -49 -40 -97 -81 -53 -45 -100 -76
-122 -81 l-35 -8 -40 71 c-23 39 -42 74 -43 78 -1 4 45 38 103 76 58 39 122
84 144 102 37 30 98 43 110 23z m424 -34 c6 -24 8 -46 4 -50 -8 -7 -477 -198
-487 -198 -14 0 11 23 123 116 64 53 124 105 133 115 9 10 52 27 95 37 118 29
120 29 132 -20z m-261 8 c1 -1 -30 -27 -70 -59 l-72 -56 -25 32 c-14 17 -25
35 -25 40 0 14 138 56 165 50 14 -3 26 -6 27 -7z m-352 -4 c-6 -5 -89 -61
-185 -125 -96 -64 -196 -132 -221 -152 l-46 -35 -24 103 -24 102 141 5 c85 3
147 10 155 17 16 13 189 91 204 92 6 1 6 -2 0 -7z m-412 -28 c51 -14 94 -28
96 -30 2 -2 -41 -4 -97 -4 l-102 0 0 30 c0 17 2 30 6 30 3 0 46 -12 97 -26z
m-124 -111 c6 -21 19 -73 28 -117 l17 -79 -39 -35 -38 -35 -24 29 c-13 16 -59
82 -103 146 l-79 117 92 4 c51 1 102 4 114 5 18 2 24 -6 32 -35z m-255 -10
c26 -56 160 -254 190 -283 22 -20 30 -22 45 -13 17 11 19 7 25 -40 13 -126 18
-247 9 -247 -6 0 -90 -9 -189 -20 -98 -11 -181 -20 -184 -20 -3 0 -4 100 -2
223 l4 222 -61 100 c-34 55 -61 103 -61 108 0 4 46 7 103 7 l103 0 18 -37z
m1435 -70 c-41 -37 -215 -162 -294 -211 l-40 -24 45 48 c25 27 99 104 165 171
l119 122 23 -34 23 -35 -41 -37z m-199 -30 c-139 -145 -379 -373 -392 -373 -9
0 -158 109 -158 116 0 2 27 41 59 87 58 81 62 83 128 105 37 12 160 60 273
106 113 46 207 84 209 85 2 1 -52 -56 -119 -126z m-612 -12 l40 -69 -147 -22
c-80 -12 -152 -24 -158 -26 -22 -6 -14 -31 15 -50 15 -9 66 -54 114 -98 l87
-81 -26 -45 c-14 -25 -28 -48 -32 -52 -3 -3 -49 -9 -103 -13 l-96 -7 -6 88
c-4 49 -11 123 -17 164 -10 67 -9 76 6 85 10 5 74 51 144 102 69 51 129 92
133 93 3 0 24 -31 46 -69z m-768 -311 c0 -129 -4 -241 -9 -249 -10 -16 -13 3
-36 254 -16 162 -32 300 -41 345 -4 15 13 -3 40 -45 l45 -70 1 -235z m1932
255 c39 -74 87 -178 114 -249 3 -7 -36 -41 -93 -81 -54 -38 -120 -87 -148
-110 -109 -90 -361 -265 -381 -265 -6 0 -60 55 -120 123 -60 67 -139 154 -176
193 l-68 70 63 44 c34 24 121 83 192 131 203 136 272 185 306 213 30 26 35 27
147 24 l116 -3 48 -90z m158 56 c92 -28 190 -65 190 -71 0 -3 -45 -53 -100
-113 -55 -59 -100 -101 -100 -95 0 7 -33 81 -74 164 l-73 151 46 -8 c25 -4 75
-17 111 -28z m-1216 -103 c-4 -7 -36 -55 -72 -106 l-64 -92 -36 29 c-47 38
-127 119 -121 124 2 2 69 15 149 29 80 14 146 26 148 27 2 0 0 -5 -4 -11z
m1442 -15 c-6 -18 -41 -278 -55 -403 l-7 -65 -18 35 c-10 19 -45 76 -77 126
-33 50 -59 93 -59 96 0 6 212 227 218 228 2 0 1 -8 -2 -17z m-1394 -261 c-4
-1 -52 -13 -105 -26 l-97 -23 25 41 c14 22 33 55 42 72 l16 32 63 -47 c36 -25
61 -47 56 -49z m1227 -112 c45 -71 81 -133 81 -137 0 -4 -48 -21 -107 -37 -66
-18 -156 -53 -236 -93 -80 -39 -127 -58 -124 -48 9 21 95 149 155 227 27 36
69 99 92 142 24 42 47 76 51 76 4 0 43 -58 88 -130z m369 98 c-8 -13 -41 -69
-72 -126 -32 -56 -62 -105 -68 -108 -5 -3 -20 -3 -34 0 l-25 7 36 37 c19 20
65 76 102 125 63 82 92 114 61 65z m-1297 -218 c76 -85 137 -155 136 -156 -1
-1 -58 -7 -127 -14 -69 -6 -170 -20 -225 -31 -55 -10 -103 -19 -108 -19 -4 0
-5 37 -2 83 5 70 13 98 54 187 27 58 54 118 60 134 l12 29 31 -29 c17 -16 93
-99 169 -184z m-261 176 c0 -7 -22 -58 -50 -112 -40 -80 -50 -109 -50 -150 0
-28 -3 -72 -6 -98 -6 -39 -10 -46 -29 -46 -20 0 -24 10 -45 98 -12 53 -32 136
-45 184 l-22 86 41 11 c152 41 206 48 206 27z m959 -68 c-33 -46 -96 -136
-140 -200 -78 -116 -80 -118 -117 -117 -35 0 -210 36 -186 38 14 1 287 196
359 256 43 35 135 103 142 105 2 0 -24 -37 -58 -82z m-1244 0 c26 -115 27
-107 -15 -144 -86 -78 -111 -94 -131 -84 -10 6 -21 26 -25 48 -3 20 -12 62
-20 93 -22 89 -25 85 79 96 50 6 95 11 99 11 4 1 10 -8 13 -20z m-232 -89 c10
-44 17 -83 14 -85 -2 -2 -48 17 -103 42 -54 25 -126 57 -159 70 -33 12 -53 24
-45 24 8 1 60 7 115 14 174 22 157 29 178 -65z m-153 -61 c41 -18 107 -51 147
-72 65 -34 71 -40 60 -57 -10 -16 -8 -26 11 -59 17 -30 20 -41 10 -45 -7 -3
-89 -18 -182 -35 l-169 -31 -23 28 c-12 15 -50 73 -84 127 l-63 99 19 73 18
72 90 -33 c50 -18 125 -48 166 -67z m2047 -16 c9 -6 -6 -26 -49 -67 -34 -33
-55 -49 -46 -35 8 14 25 44 37 68 21 41 34 49 58 34z m-1607 -77 c11 -38 18
-70 17 -72 -5 -4 -130 46 -140 57 -5 4 15 26 44 49 29 23 54 40 56 38 2 -3 12
-35 23 -72z m1508 53 c-23 -36 -90 -155 -142 -250 -54 -100 -43 -96 -237 -100
l-106 -3 36 24 c72 49 339 250 346 261 8 13 104 90 112 90 3 0 -1 -10 -9 -22z
m-98 -12 c0 -7 -294 -226 -387 -289 -46 -30 -83 -50 -83 -44 1 7 9 45 19 86
19 81 25 87 116 117 28 9 77 30 110 47 33 17 96 43 140 58 92 32 85 30 85 25z
m-1499 -119 l74 -34 -65 -7 c-62 -7 -66 -6 -87 19 -26 29 -30 55 -9 55 7 0 47
-15 87 -33z m735 -19 c-8 -18 -51 -118 -96 -223 -45 -104 -83 -191 -85 -193
-1 -1 -22 6 -46 16 -24 10 -123 40 -219 67 -298 82 -665 186 -669 191 -2 2 -2
6 0 8 7 6 410 75 558 96 79 11 181 27 226 35 94 18 215 32 293 34 l52 1 -14
-32z m163 -152 l63 -78 -7 -98 -7 -97 -111 -6 c-156 -9 -237 -9 -237 2 0 5 32
83 70 173 39 90 81 186 92 214 l22 51 26 -41 c15 -22 55 -76 89 -120z m58 142
l72 -11 -6 -31 c-4 -17 -14 -55 -23 -85 l-16 -55 -72 93 c-40 51 -72 98 -72
103 0 6 10 8 23 4 12 -3 54 -11 94 -18z m-1493 -88 c15 -23 26 -53 26 -72 -1
-29 -4 -26 -30 35 -17 38 -30 71 -30 73 0 11 10 1 34 -36z m148 -79 c40 -17
159 -55 263 -85 l190 -55 -190 -3 -190 -3 -77 79 c-69 71 -88 96 -74 96 3 0
38 -13 78 -29z m43 -190 c11 -17 17 -1301 6 -1301 -26 1 -31 27 -41 211 -5
107 -17 289 -25 404 -8 116 -22 322 -30 459 -9 137 -20 257 -25 267 -6 10 -10
36 -10 59 l0 41 58 -62 c31 -34 62 -69 67 -78z m1745 130 c0 -5 -13 -38 -30
-73 -21 -45 -30 -78 -30 -115 0 -61 15 -54 -165 -78 -66 -8 -135 -18 -152 -21
-31 -5 -33 -3 -33 23 0 23 10 37 48 65 93 71 322 207 350 208 6 0 12 -4 12 -9z
m-224 -56 c-49 -31 -108 -69 -132 -86 l-44 -30 0 64 c0 40 5 69 13 75 17 14
110 29 186 31 l65 1 -88 -55z m-686 -143 c21 -8 13 -11 -55 -26 -44 -10 -116
-26 -159 -36 -92 -21 -104 -19 -344 65 -224 78 -223 74 -17 75 99 1 198 4 220
8 32 6 70 -1 185 -35 80 -23 156 -46 170 -51z m-523 -52 l171 -57 -106 -85
c-59 -46 -141 -110 -182 -141 -97 -73 -125 -113 -116 -168 4 -23 15 -66 26
-97 11 -31 18 -57 16 -59 -1 -2 -17 0 -34 3 -37 8 -33 -30 -36 349 -1 127 -6
258 -10 293 l-9 63 54 -22 c30 -12 131 -47 226 -79z m609 -28 l13 -32 -167 1
-167 1 145 33 c80 18 149 32 153 31 5 -1 15 -16 23 -34z m364 3 l0 -35 -153 0
-153 0 -16 35 -16 35 169 0 169 0 0 -35z m399 -127 c-1 -93 -3 -112 -9 -78 -4
25 -24 75 -44 111 -20 36 -36 68 -36 72 0 3 17 8 38 10 20 2 40 4 45 5 4 1 6
-53 6 -120z m-90 12 l45 -85 7 -175 c4 -96 8 -228 8 -294 l1 -118 -85 169 -84
169 7 200 c4 109 11 205 16 212 17 28 43 4 85 -78z m-138 58 c2 -71 -4 -293
-11 -377 -6 -58 -13 -188 -16 -288 l-7 -183 -56 6 c-31 4 -57 7 -58 8 -1 1 5
62 13 136 7 74 18 260 23 412 5 153 12 282 16 288 9 15 95 13 96 -2z m-929
-230 c-1 -128 -5 -243 -7 -255 -5 -21 -6 -21 -61 12 -53 32 -103 54 -271 120
-62 24 -71 30 -61 43 12 14 395 312 402 312 1 0 0 -105 -2 -232z m338 213 l75
-1 -9 -247 -9 -248 -181 0 -181 0 0 251 0 251 115 -2 c63 -1 149 -3 190 -4z
m410 -5 c0 -2 -10 -25 -22 -52 -12 -27 -36 -86 -53 -132 l-31 -82 -97 62 -96
63 -1 73 0 72 150 0 c83 0 150 -2 150 -4z m28 -271 c0 -88 -4 -173 -8 -190 -4
-16 -8 -24 -9 -18 0 7 -19 53 -41 102 l-40 90 36 93 c19 51 38 102 42 113 13
42 20 -29 20 -190z m-226 14 c106 -69 119 -85 62 -76 -22 3 -69 2 -106 -2
l-68 -7 0 66 c0 58 5 80 16 80 2 0 45 -27 96 -61z m615 -136 c-2 -38 -3 -7 -3
67 0 74 1 105 3 68 2 -38 2 -98 0 -135z m-1349 -44 c24 -10 70 -34 101 -54
l58 -34 -19 -128 c-10 -69 -20 -128 -22 -130 -2 -2 -40 -4 -85 -6 l-83 -2 -77
185 c-43 102 -85 199 -94 217 -9 18 -17 34 -17 37 0 5 176 -57 238 -85z m881
10 c11 -29 21 -54 21 -58 0 -3 -63 2 -140 13 l-140 19 0 39 0 38 119 0 118 0
22 -51z m392 -304 c47 -104 49 -113 49 -198 l0 -89 -42 7 c-24 4 -72 16 -107
27 l-63 20 6 156 c3 86 9 205 12 264 l6 107 45 -92 c25 -51 67 -141 94 -202z
m-476 214 c73 -12 137 -24 143 -28 11 -6 -4 -229 -17 -249 -6 -8 -176 9 -184
19 -2 2 -16 42 -30 89 -15 47 -38 107 -52 133 -14 27 -25 50 -25 53 0 7 30 4
165 -17z m-964 -99 c34 -83 34 -103 2 -82 -6 4 -11 16 -10 27 1 11 -8 24 -21
31 -14 7 -19 13 -11 16 21 7 21 47 -1 60 -22 14 -27 38 -7 38 6 0 28 -41 48
-90z m812 -11 c20 -52 39 -108 42 -122 l7 -27 -266 0 -266 0 5 38 c4 20 12 73
18 117 l12 80 45 6 c25 4 118 6 206 6 l162 -2 35 -96z m-893 -82 c8 -3 0 -6
-17 -6 -23 -1 -33 4 -33 14 0 12 5 13 18 7 9 -5 24 -12 32 -15z m1607 -69 c-2
-18 -4 -6 -4 27 0 33 2 48 4 33 2 -15 2 -42 0 -60z m-1464 18 c5 -11 -1 -12
-26 -6 -18 5 -41 11 -52 13 -11 3 1 5 26 6 32 1 49 -4 52 -13z m34 -83 l20
-41 -22 10 c-12 5 -22 17 -21 26 1 10 -12 21 -34 28 l-35 12 35 4 c19 2 36 3
36 3 1 0 11 -19 21 -42z m786 7 c6 -22 -18 -29 -25 -7 -4 9 -67 12 -271 12
-147 0 -267 3 -267 8 0 4 125 7 279 7 270 0 279 -1 284 -20z m183 -6 c20 -5
24 -11 20 -28 -2 -11 -13 -97 -22 -189 l-17 -168 -19 48 c-10 26 -36 111 -59
188 -22 77 -42 146 -45 154 -4 11 7 13 56 8 33 -4 72 -10 86 -13z m-886 -9 c0
-8 -6 -15 -14 -15 -8 0 -16 7 -20 15 -4 10 1 15 14 15 11 0 20 -7 20 -15z
m-297 -29 c-4 -17 0 -26 14 -30 25 -8 27 -103 2 -109 -13 -4 -18 5 -23 41 -9
65 -7 134 3 128 4 -3 6 -16 4 -30z m394 -13 c-3 -10 -5 -4 -5 12 0 17 2 24 5
18 2 -7 2 -21 0 -30z m903 33 c0 -2 -13 -6 -29 -8 -17 -2 -28 -1 -25 4 5 8 54
12 54 4z m62 -31 c-2 -14 -6 -25 -8 -25 -2 0 -4 11 -4 25 0 14 4 25 9 25 4 0
6 -11 3 -25z m-817 -4 c-1 -11 -7 -26 -14 -35 -7 -8 -10 -19 -7 -25 3 -5 -7
-12 -24 -16 -21 -5 -30 -13 -30 -26 0 -17 8 -19 93 -20 73 -1 84 -3 52 -9 -22
-4 -73 -10 -112 -12 l-73 -5 0 52 c0 29 3 67 6 84 6 30 8 31 59 31 45 0 51 -3
50 -19z m-287 -27 c11 -21 11 -22 -31 -11 -29 8 -36 12 -22 15 11 2 24 8 29
13 11 10 10 11 24 -17z m759 20 c-3 -3 -12 -4 -19 -1 -8 3 -5 6 6 6 11 1 17
-2 13 -5z m242 -36 c1 -5 -3 -8 -9 -8 -5 0 -10 12 -9 28 0 24 1 25 9 7 5 -11
9 -23 9 -27z m-964 -56 c4 -10 -3 -12 -28 -6 -63 13 -72 21 -24 20 29 -1 49
-6 52 -14z m755 -2 c0 -5 -11 -10 -24 -10 -14 0 -28 5 -31 10 -4 6 7 10 24 10
17 0 31 -4 31 -10z m205 4 c13 -5 14 -8 3 -15 -19 -13 -28 -11 -28 6 0 17 2
18 25 9z m240 -47 l80 -26 -76 0 c-60 -1 -78 2 -83 14 -3 8 -12 15 -21 15 -8
0 -15 7 -15 16 0 11 6 15 18 11 9 -3 53 -17 97 -30z m-425 -33 c17 -44 13 -54
-22 -54 -30 1 -31 2 -15 14 39 30 15 45 -71 47 -73 1 -34 17 46 18 48 1 53 -1
62 -25z m-728 -29 c18 -48 16 -54 -10 -28 -15 15 -24 73 -12 73 3 0 13 -20 22
-45z m48 23 c0 -18 -2 -20 -9 -8 -6 8 -7 18 -5 22 9 14 14 9 14 -14z m850 2
c0 -5 -4 -10 -10 -10 -5 0 -10 5 -10 10 0 6 5 10 10 10 6 0 10 -4 10 -10z
m-762 -57 c-10 -2 -26 -2 -35 0 -10 3 -2 5 17 5 19 0 27 -2 18 -5z m1528 -73
c3 -13 26 -44 52 -67 42 -38 46 -48 52 -100 l7 -58 -61 -61 c-114 -114 -219
-149 -650 -219 -267 -43 -381 -54 -636 -62 -223 -6 -522 9 -655 33 -208 39
-436 114 -520 171 -78 54 -185 147 -185 163 1 23 34 92 69 140 17 24 31 48 31
54 0 6 4 17 9 25 8 12 15 8 36 -18 36 -42 99 -73 222 -110 476 -141 1090 -180
1593 -100 151 24 246 49 365 96 119 47 188 93 228 149 32 46 32 46 35 18 1
-16 5 -40 8 -54z m-772 28 c8 -6 8 -10 0 -15 -6 -5 -14 -15 -17 -23 -3 -8 -5
8 -5 35 0 28 3 41 5 30 3 -11 10 -23 17 -27z m-124 -6 c0 -5 -13 -7 -30 -4
-16 2 -30 6 -30 8 0 2 14 4 30 4 17 0 30 -4 30 -8z m24 -67 c3 -8 4 -15 2 -15
-3 0 -11 -3 -19 -6 -12 -4 -14 0 -10 15 6 25 18 27 27 6z m-1549 -555 c192
-92 484 -173 775 -215 143 -20 534 -35 655 -25 131 12 517 68 611 90 209 49
375 118 496 207 l59 43 -20 -38 c-37 -72 -107 -124 -282 -209 -189 -93 -220
-103 -389 -137 -306 -62 -524 -81 -925 -81 l-320 0 -155 34 c-202 43 -253 60
-392 125 -297 140 -372 218 -332 344 3 9 24 -4 61 -38 36 -32 96 -70 158 -100z"/>
</g>
</svg>
