<?xml version="1.0" standalone="no"?>
<!DOCTYPE svg PUBLIC "-//W3C//DTD SVG 20010904//EN"
 "http://www.w3.org/TR/2001/REC-SVG-20010904/DTD/svg10.dtd">
<svg version="1.0" xmlns="http://www.w3.org/2000/svg"
 width="2243.000000pt" height="2699.000000pt" viewBox="0 0 2243.000000 2699.000000"
 preserveAspectRatio="xMidYMid meet">
<metadata>
Created by potrace 1.16, written by Peter Selinger 2001-2019
</metadata>
<g transform="translate(0.000000,2699.000000) scale(0.100000,-0.100000)"
fill="currentColor" stroke="none">
<path d="M7595 26975 c-83 -18 -184 -60 -255 -106 -73 -47 -123 -120 -175
-252 -64 -167 -81 -316 -51 -458 15 -70 63 -176 90 -198 21 -17 20 -39 -2 -81
-11 -19 -47 -89 -81 -155 -35 -66 -87 -151 -116 -190 -56 -74 -138 -229 -215
-410 -26 -60 -59 -137 -73 -170 -41 -95 -155 -388 -209 -535 -27 -74 -69 -181
-94 -237 -24 -57 -71 -178 -103 -270 -32 -93 -100 -274 -151 -403 -50 -129
-110 -287 -132 -350 -62 -176 -153 -386 -184 -428 -71 -94 -228 -274 -295
-337 -145 -138 -443 -254 -649 -255 -78 0 -244 -21 -340 -43 -83 -19 -289 1
-356 35 -93 47 -189 122 -323 253 -184 179 -480 527 -542 635 -133 235 -249
425 -294 485 -29 39 -81 117 -115 175 -74 126 -142 222 -173 247 -25 19 -94
132 -121 196 l-16 39 34 41 c166 205 151 502 -34 687 -147 146 -362 181 -557
89 -113 -53 -238 -222 -278 -375 -41 -156 12 -371 116 -475 46 -46 138 -93
215 -110 49 -11 52 -13 44 -34 -9 -23 -12 -120 -8 -225 2 -30 1 -185 0 -345
-2 -159 0 -483 4 -720 5 -386 4 -454 -14 -665 -28 -310 -67 -465 -134 -527
-30 -28 -188 -123 -204 -123 -24 0 -85 85 -136 190 -28 58 -85 165 -125 239
-96 173 -142 266 -186 371 -19 47 -69 157 -110 245 -41 88 -91 212 -112 275
l-38 115 61 125 c89 182 101 287 47 405 -43 95 -158 198 -275 246 -84 34 -206
33 -283 -3 -75 -35 -146 -110 -195 -206 -61 -119 -76 -174 -76 -277 0 -78 3
-98 27 -147 34 -69 130 -161 210 -202 32 -16 60 -33 63 -37 3 -5 11 -102 19
-217 19 -283 99 -801 180 -1162 14 -63 34 -158 45 -210 10 -52 26 -109 34
-126 36 -71 136 -508 176 -764 37 -246 43 -353 32 -585 -6 -126 -18 -295 -26
-375 -8 -80 -22 -269 -31 -420 -8 -151 -20 -315 -26 -365 -13 -105 -5 -303 16
-390 19 -84 92 -246 148 -333 37 -56 60 -81 109 -112 35 -22 88 -58 118 -80
30 -22 85 -50 122 -62 38 -12 68 -24 68 -27 -1 -4 -41 -25 -90 -49 -103 -50
-239 -150 -259 -192 -19 -38 -7 -77 31 -100 31 -18 64 -28 183 -51 l60 -11
-60 -30 c-85 -43 -490 -284 -550 -327 -94 -67 -224 -192 -288 -274 -35 -45
-109 -149 -164 -232 -253 -380 -286 -462 -396 -975 -86 -398 -116 -618 -124
-900 -11 -412 25 -744 127 -1150 21 -85 57 -243 79 -350 67 -323 113 -457 265
-774 127 -263 249 -438 504 -721 365 -406 557 -571 1037 -893 411 -275 478
-299 980 -363 368 -46 527 -33 706 57 190 95 605 420 747 584 39 44 303 436
375 557 111 184 166 356 174 548 4 98 0 150 -22 290 -32 206 -61 297 -132 418
-29 51 -68 120 -85 155 -18 34 -36 62 -40 62 -11 0 -5 -23 50 -210 l46 -155 4
-230 c6 -318 -18 -433 -136 -660 -73 -138 -368 -584 -430 -649 -161 -167 -499
-428 -659 -510 -125 -63 -275 -71 -589 -31 -251 32 -250 32 -363 62 -147 38
-236 88 -581 322 -370 251 -524 381 -774 651 -240 259 -316 348 -404 473 -113
159 -131 191 -233 408 -111 236 -155 365 -209 619 -23 107 -63 287 -90 400
-98 413 -109 496 -117 880 -8 411 8 554 122 1091 99 464 117 506 388 913 95
143 141 201 216 275 123 120 115 114 390 281 407 246 527 296 926 385 110 25
132 27 265 21 81 -3 185 -14 235 -24 140 -30 361 -108 506 -178 72 -36 134
-62 137 -59 7 6 6 7 -83 77 -163 128 -341 231 -509 293 -221 82 -416 102 -629
66 -154 -27 -306 -68 -443 -122 l-101 -39 -80 40 c-44 22 -86 40 -92 40 -6 0
-11 4 -11 10 0 16 69 46 210 89 74 23 207 65 295 94 132 43 173 52 235 53 459
4 952 31 1175 64 72 11 191 24 265 30 74 6 170 15 212 21 54 7 84 7 97 -1 11
-5 49 -17 84 -25 93 -22 729 -127 734 -122 5 6 -213 92 -364 144 -62 21 -113
40 -113 43 0 3 74 20 163 38 171 34 328 52 892 102 187 17 419 39 515 49 270
30 896 61 1220 61 113 0 257 5 321 10 63 5 241 14 395 20 153 5 349 17 434 25
l156 15 269 -114 c149 -62 337 -143 419 -180 81 -37 153 -65 158 -64 17 6
-270 215 -457 332 l-84 53 112 12 c62 6 270 34 462 61 193 27 431 59 530 70
363 41 532 59 625 65 118 8 696 63 730 70 14 2 132 14 262 25 l237 21 78 -59
c43 -33 179 -144 303 -246 283 -235 429 -350 437 -343 11 12 -348 471 -481
613 l-66 72 33 6 c67 12 220 26 452 43 352 24 1767 23 1835 -2 39 -14 74 -15
260 -10 l215 6 45 -36 c25 -21 124 -97 220 -170 182 -138 285 -225 337 -285
54 -62 408 -614 469 -730 29 -56 29 -12 -1 77 -22 64 -101 233 -338 722 -17
35 -135 153 -257 256 -58 49 -135 118 -172 154 l-68 64 25 25 c30 29 53 103
95 302 18 80 41 183 53 230 16 63 22 114 22 200 0 100 -4 125 -28 189 -15 41
-40 97 -56 126 -43 75 -77 276 -101 580 -5 72 -14 144 -19 161 -5 17 -12 60
-16 95 -8 69 -30 173 -45 213 -6 17 -4 51 7 108 11 61 14 113 9 198 -6 127 -8
134 -59 302 -34 108 -38 135 -53 365 -15 216 -16 278 -6 478 7 127 20 262 28
300 18 80 20 194 5 328 -6 50 -15 196 -21 322 -6 127 -15 282 -20 345 -6 63
-10 148 -10 188 0 68 1 72 23 72 41 1 91 35 139 94 59 74 77 126 85 247 5 87
4 101 -16 143 -28 57 -106 127 -188 168 -222 109 -446 -28 -461 -282 -5 -85 8
-126 58 -189 l32 -39 -57 -138 c-32 -75 -92 -243 -135 -373 -63 -191 -82 -263
-100 -381 -12 -80 -24 -152 -27 -160 -8 -27 -85 175 -120 315 -19 78 -54 278
-78 450 -45 314 -73 447 -145 677 -22 70 -58 196 -80 280 -22 84 -51 191 -65
237 -35 116 -34 127 13 135 86 14 216 99 314 205 130 140 167 285 108 419 -44
98 -205 204 -425 278 -239 80 -343 53 -488 -127 -81 -100 -133 -200 -149 -287
-23 -122 20 -258 111 -351 l47 -48 -65 -84 c-150 -197 -267 -400 -599 -1039
-90 -175 -411 -881 -491 -1080 -23 -58 -45 -110 -49 -116 -4 -6 -46 -20 -93
-32 -84 -21 -96 -21 -410 -12 -292 8 -336 12 -444 36 -114 25 -129 26 -290 19
-252 -11 -296 -10 -331 8 -35 18 -139 179 -364 562 -68 116 -152 251 -186 300
-33 50 -130 214 -214 365 -83 151 -162 286 -174 300 -31 35 -130 175 -216 305
-76 116 -161 277 -209 398 -44 109 -266 561 -365 742 -95 173 -260 426 -338
516 -26 31 -48 60 -48 65 0 4 16 44 35 89 81 190 96 363 40 478 -66 135 -306
312 -477 352 -77 18 -202 18 -283 0z m633 -1172 c33 -60 107 -202 166 -316
115 -224 186 -350 276 -492 31 -49 67 -110 80 -135 12 -25 67 -114 121 -197
54 -84 110 -176 125 -205 40 -81 91 -163 174 -283 42 -60 107 -168 145 -240
37 -71 96 -175 130 -230 34 -55 76 -125 95 -155 18 -30 76 -116 130 -190 53
-74 130 -184 170 -245 40 -60 86 -127 102 -147 16 -21 45 -77 65 -125 98 -244
216 -425 308 -473 49 -25 51 -25 370 -30 176 -3 325 -8 330 -12 25 -16 192
-28 472 -34 l301 -6 104 35 c57 19 120 38 140 41 41 7 85 51 93 94 8 37 101
224 181 362 36 63 97 169 133 236 88 157 121 206 121 178 0 -11 10 -30 23 -41
19 -18 182 -78 271 -99 25 -6 6 -14 -125 -58 -85 -28 -146 -52 -136 -54 28 -6
418 48 447 61 31 15 38 57 13 79 -10 8 -69 32 -131 53 -62 20 -112 39 -110 41
2 1 71 8 153 13 278 20 535 45 528 51 -12 11 -184 28 -404 41 -191 11 -445 8
-483 -7 -19 -7 -19 -6 1 27 36 59 213 390 400 749 99 190 215 411 258 492 l77
147 32 -6 c44 -8 51 -19 65 -103 6 -41 27 -120 46 -175 18 -55 39 -127 45
-160 26 -133 153 -616 201 -763 38 -120 56 -196 75 -324 38 -264 78 -415 158
-604 14 -33 47 -139 74 -236 26 -97 55 -187 64 -200 9 -13 31 -32 51 -43 l35
-19 36 24 c48 34 57 58 67 185 35 445 111 794 251 1163 l24 63 13 -348 c7
-191 19 -413 27 -493 8 -80 21 -208 29 -285 23 -224 16 -541 -12 -531 -7 3
-64 10 -126 16 -61 6 -224 33 -362 60 -302 59 -393 75 -550 94 -299 38 -1019
86 -1294 86 -79 0 -237 7 -350 16 -175 14 -242 14 -446 5 -132 -6 -278 -17
-325 -23 -80 -11 -83 -12 -45 -19 87 -17 288 -39 440 -49 88 -6 251 -17 363
-25 111 -8 267 -15 345 -15 240 0 746 -31 1162 -71 115 -11 331 -54 594 -118
139 -34 437 -90 562 -106 l46 -6 6 -132 c3 -72 5 -132 4 -133 -9 -8 -323 57
-442 92 -227 65 -347 93 -485 109 -69 9 -190 26 -270 40 -318 54 -945 85
-1315 65 -189 -11 -885 -27 -1555 -35 -217 -3 -492 -10 -610 -16 -118 -6 -388
-14 -600 -19 -212 -5 -452 -16 -535 -24 -84 -9 -251 -16 -379 -16 -155 0 -287
-6 -410 -19 -100 -11 -251 -25 -336 -31 -85 -6 -229 -17 -320 -25 -91 -8 -253
-15 -360 -15 -107 0 -249 -7 -315 -15 -66 -8 -289 -19 -495 -25 -451 -12 -563
-20 -875 -65 -132 -19 -307 -41 -390 -50 -82 -9 -188 -22 -235 -30 -47 -8
-161 -19 -255 -25 -438 -26 -815 -68 -1070 -120 -83 -17 -196 -35 -252 -40
-56 -6 -148 -24 -205 -40 -56 -17 -132 -35 -168 -41 -36 -5 -97 -21 -137 -34
-39 -14 -102 -29 -140 -35 -95 -15 -251 -61 -401 -119 -70 -27 -145 -54 -167
-61 -209 -67 -509 -212 -643 -312 -36 -26 -54 -35 -57 -26 -2 7 -15 72 -29
143 -14 72 -48 211 -76 309 -27 99 -50 191 -50 204 0 24 -60 377 -79 466 -5
22 -12 68 -15 101 -42 444 -48 482 -110 738 l-53 217 42 0 c24 0 59 7 79 15
34 14 37 14 43 -2 3 -10 33 -85 66 -168 32 -82 70 -181 84 -220 14 -38 53
-128 85 -200 33 -71 79 -177 103 -235 24 -58 67 -164 97 -237 65 -156 103
-221 184 -315 130 -151 207 -156 399 -26 150 101 180 138 224 281 64 210 82
457 83 1187 0 322 1 662 2 755 0 94 -3 238 -8 320 l-9 150 71 17 c39 9 93 27
120 41 l49 25 47 -97 c74 -149 240 -422 346 -571 87 -122 184 -279 283 -461
33 -60 141 -199 312 -401 38 -46 144 -158 235 -249 171 -171 279 -254 390
-300 62 -26 145 -27 630 -15 283 8 345 18 517 82 245 91 343 166 555 419 68
82 94 126 251 442 305 609 375 776 452 1083 14 58 42 154 62 214 l36 108 51
-6 c28 -3 89 -6 136 -7 l85 -1 -65 -20 c-85 -26 -100 -41 -35 -34 233 25 342
40 353 48 16 14 16 53 -1 66 -7 6 -47 17 -88 24 l-74 12 115 23 c141 27 292
49 470 67 74 8 218 24 320 35 102 11 248 24 324 30 152 12 186 24 186 66 0 41
-35 54 -201 72 -176 19 -459 22 -1012 9 l-358 -8 3 -27 c4 -37 46 -53 142 -55
45 0 286 2 536 6 419 7 445 6 335 -7 -66 -7 -181 -19 -255 -25 -296 -24 -490
-52 -729 -106 -85 -19 -161 -34 -168 -32 -25 5 154 351 286 552 89 136 325
620 351 719 14 53 28 86 34 83 133 -56 255 -86 350 -86 130 1 309 64 396 139
19 17 36 30 37 31 0 0 28 -48 61 -107z m4542 -4193 c318 -11 449 -22 638 -56
78 -13 206 -31 285 -39 132 -13 405 -73 551 -121 27 -9 130 -33 229 -53 203
-41 183 -26 206 -146 6 -33 24 -100 40 -150 16 -49 28 -91 27 -92 -1 -2 -85 4
-187 12 -101 9 -303 20 -449 25 -146 5 -434 17 -640 27 -375 18 -960 22 -2375
16 -280 -1 -703 -2 -940 -2 -448 1 -681 -8 -1038 -41 -190 -18 -551 -38 -1247
-70 -129 -6 -309 -17 -400 -25 -91 -8 -286 -22 -435 -30 -421 -23 -552 -34
-805 -65 -129 -16 -308 -36 -396 -45 -89 -8 -229 -26 -312 -40 -82 -13 -225
-31 -318 -40 -93 -8 -234 -24 -314 -35 -80 -10 -190 -22 -245 -25 -55 -3 -176
-17 -270 -30 -532 -75 -1001 -127 -1400 -155 -82 -6 -249 -26 -370 -46 -397
-63 -468 -73 -660 -99 -227 -31 -301 -49 -498 -121 -83 -30 -152 -52 -154 -50
-4 4 -33 172 -33 193 0 6 35 30 78 53 42 24 89 51 103 61 14 10 120 67 235
127 115 60 252 132 304 160 161 85 398 168 555 192 39 6 102 22 140 35 39 13
99 29 135 34 36 6 111 24 167 40 56 16 137 32 180 36 43 4 169 24 280 46 111
21 244 43 295 49 51 6 104 12 118 15 37 7 492 45 667 55 84 5 192 16 240 24
49 8 158 22 243 31 85 9 243 29 350 45 281 43 364 49 770 60 201 5 442 16 535
25 94 8 274 17 400 19 127 3 304 12 395 21 91 9 255 22 365 30 110 8 261 22
335 30 78 9 229 15 360 15 124 0 295 6 380 14 85 8 301 17 480 21 179 3 386
11 460 16 74 6 394 14 710 20 954 15 1559 29 1675 38 61 5 151 7 200 4 50 -2
209 -8 355 -13z m385 -725 c22 -3 189 -9 370 -15 182 -6 398 -17 480 -25 191
-19 593 -45 692 -45 l76 0 -7 -57 c-4 -32 -13 -89 -20 -128 -11 -58 -10 -78 1
-115 15 -50 26 -100 47 -210 8 -41 21 -93 29 -115 8 -22 18 -60 22 -85 3 -25
13 -70 21 -100 7 -31 21 -152 29 -269 12 -160 21 -226 36 -264 11 -27 18 -51
16 -54 -13 -12 -275 22 -547 73 -283 53 -436 58 -1490 58 -899 -1 -979 -3
-1175 -22 -115 -11 -300 -28 -410 -36 -110 -9 -290 -23 -400 -32 -111 -9 -394
-20 -635 -25 -239 -4 -464 -12 -500 -18 -95 -15 -389 -13 -517 4 -179 23 -309
28 -423 15 -58 -6 -220 -16 -360 -20 -248 -9 -548 -30 -700 -50 -127 -16 -476
-49 -650 -60 -153 -10 -401 -34 -460 -45 -14 -3 -115 -12 -225 -20 -111 -8
-282 -28 -380 -45 -446 -77 -653 -101 -1125 -130 -415 -26 -984 -82 -1215
-120 -190 -31 -247 -36 -630 -50 -253 -9 -330 -20 -565 -75 -366 -87 -508
-115 -678 -136 -164 -20 -191 -21 -263 -9 -80 13 -185 8 -250 -10 l-32 -9 9
127 c15 217 10 1021 -7 1139 l-15 101 31 15 c79 38 264 78 470 102 275 32 397
49 720 100 187 30 387 57 445 60 284 18 802 73 1225 130 187 25 419 53 515 61
96 8 200 19 230 24 30 6 148 19 262 30 113 11 275 31 360 45 84 13 225 31 313
40 88 9 248 27 355 40 190 25 600 57 870 70 74 4 241 15 370 25 129 11 343 24
475 30 560 23 898 42 1170 66 468 40 707 47 1375 41 338 -2 802 -1 1030 3 429
7 1564 4 1635 -5z m480 -1495 c577 -18 750 -29 875 -56 162 -35 301 -54 402
-54 l87 0 6 -33 c4 -17 -1 -76 -9 -129 -9 -54 -16 -124 -16 -156 l0 -58 -67 3
c-38 1 -243 5 -458 8 -214 3 -421 9 -460 15 -38 5 -153 12 -255 15 -102 3
-284 9 -405 15 -574 26 -1564 18 -1745 -15 -213 -38 -405 -56 -685 -65 -159
-5 -303 -11 -320 -15 -16 -3 -106 -9 -200 -15 -301 -16 -1027 -90 -1435 -145
-140 -19 -383 -51 -540 -70 -157 -20 -292 -38 -300 -41 -8 -3 -166 -10 -350
-15 -580 -15 -909 -27 -919 -34 -6 -3 -230 -10 -498 -15 -450 -9 -647 -18
-1078 -50 -299 -21 -609 -51 -800 -75 -104 -14 -278 -34 -385 -45 -107 -12
-262 -30 -345 -40 -82 -10 -186 -21 -230 -25 -44 -3 -132 -12 -195 -20 -63 -8
-185 -19 -270 -25 -85 -6 -195 -15 -245 -21 -121 -13 -696 -39 -870 -39 -152
0 -246 -9 -458 -42 -75 -12 -139 -19 -142 -17 -2 3 -7 90 -11 195 l-7 190 104
13 c66 8 145 10 214 6 61 -4 187 -2 281 4 151 9 201 17 440 71 148 34 316 72
374 85 135 31 277 45 454 45 194 0 393 16 571 45 233 38 686 93 830 100 205
10 624 34 685 40 253 24 552 62 740 95 254 44 347 56 505 65 61 4 178 15 260
25 83 11 249 26 370 35 225 16 393 31 710 65 293 30 446 42 710 51 138 5 313
12 390 15 110 5 179 1 325 -16 193 -23 376 -24 565 -1 44 5 253 12 465 16 212
3 459 13 550 21 91 8 237 18 325 24 158 9 234 15 555 46 295 27 1369 41 1905
24z m-525 -561 c520 -13 832 -25 970 -39 86 -8 151 -8 255 1 77 6 151 12 165
11 14 0 125 -3 248 -8 l222 -7 0 -89 c0 -174 -52 -231 -209 -229 -43 0 -152 8
-242 16 -208 20 -718 34 -1239 34 -640 0 -1037 -20 -1385 -70 -115 -16 -329
-41 -475 -54 -146 -14 -323 -32 -395 -40 -71 -8 -238 -24 -370 -35 -566 -49
-966 -94 -1350 -150 -328 -47 -734 -97 -870 -105 -55 -3 -167 -13 -250 -20
-82 -8 -235 -17 -340 -20 -104 -4 -296 -12 -425 -20 -129 -7 -327 -14 -440
-15 -237 -1 -653 -16 -820 -30 -63 -5 -225 -14 -360 -20 -135 -6 -328 -17
-430 -25 -102 -8 -286 -19 -410 -25 -180 -9 -272 -19 -460 -51 -129 -22 -298
-44 -375 -50 -249 -18 -528 -49 -625 -70 -93 -20 -141 -28 -290 -49 -41 -6
-268 -15 -505 -20 -236 -5 -487 -11 -556 -14 -116 -5 -135 -4 -215 19 -106 31
-210 77 -244 110 -14 13 -48 38 -76 57 -28 18 -92 71 -142 118 l-92 86 118 17
c87 13 185 17 382 17 584 0 1054 35 2155 160 149 17 358 41 465 55 250 31 469
52 695 65 99 6 191 13 205 15 72 14 591 37 1001 44 257 5 472 12 478 15 6 4
136 11 289 16 152 5 322 16 377 24 55 8 213 20 350 25 155 7 318 20 430 35
926 128 1671 206 1964 206 103 0 231 5 286 11 55 5 226 14 380 19 268 9 417
23 670 65 108 19 767 37 985 28 63 -2 288 -9 500 -14z"/>
<path d="M7850 23983 c-274 -36 -450 -182 -516 -428 -27 -99 -30 -302 -6 -415
60 -288 215 -502 445 -615 364 -178 786 -25 908 329 72 207 59 527 -27 698
-128 254 -386 419 -678 432 -50 2 -107 2 -126 -1z"/>
<path d="M6500 22594 c-226 -33 -334 -56 -357 -76 -19 -15 -16 -62 5 -81 9 -8
68 -25 130 -37 140 -26 229 -53 307 -93 l60 -31 -60 -12 c-33 -7 -170 -27
-305 -44 -268 -34 -484 -66 -543 -81 -58 -15 -73 -78 -26 -108 12 -6 84 -19
162 -27 258 -27 261 -28 107 -43 -74 -7 -227 -25 -340 -41 -113 -15 -279 -31
-370 -34 -443 -18 -1420 -150 -1420 -193 0 -11 606 6 735 21 308 36 527 57
707 66 110 5 260 20 348 34 85 14 232 35 325 46 212 25 342 48 378 67 24 12
28 19 25 51 -4 46 -17 53 -167 84 l-115 24 115 13 c193 21 446 61 491 77 60
21 88 50 88 92 0 42 -38 81 -119 122 -59 29 -239 90 -268 90 -36 0 8 19 163
69 89 28 170 58 180 66 25 19 31 19 -236 -21z"/>
<path d="M9175 22309 c-60 -5 -180 -18 -265 -29 -85 -11 -227 -27 -315 -36
-323 -30 -693 -76 -800 -99 -147 -31 -446 -128 -433 -140 3 -3 74 4 159 15 85
11 249 29 364 40 116 10 293 28 395 39 102 12 295 32 429 47 357 38 1041 140
1041 155 0 17 -385 22 -575 8z"/>
<path d="M3040 21794 c-212 -27 -469 -76 -529 -100 -34 -13 -41 -21 -41 -44 0
-36 12 -39 167 -34 148 5 152 8 -87 -77 -91 -32 -175 -64 -187 -71 -27 -13
-31 -56 -7 -65 22 -8 424 49 418 59 -3 4 -46 8 -96 8 -50 0 -89 2 -86 5 3 3
79 32 170 64 181 64 253 98 253 121 0 12 -23 16 -120 20 -66 4 -110 7 -98 8
99 9 493 111 493 127 0 8 -60 3 -250 -21z"/>
<path d="M11764 21481 c-109 -66 -124 -235 -25 -286 117 -60 257 9 255 126 -1
57 -37 125 -83 156 -42 28 -104 30 -147 4z"/>
<path d="M11283 21471 c-32 -20 -83 -86 -83 -108 0 -7 -4 -13 -9 -13 -21 0
-41 -34 -41 -70 0 -96 124 -162 242 -130 98 28 162 189 109 276 -37 61 -152
85 -218 45z"/>
<path d="M10255 21460 c-86 -36 -133 -177 -85 -256 24 -38 92 -74 139 -74 46
0 99 28 116 59 7 15 17 70 20 122 l7 95 -36 32 c-32 28 -44 32 -89 31 -29 0
-61 -4 -72 -9z"/>
<path d="M10759 21447 c-19 -12 -49 -29 -67 -36 -48 -20 -72 -56 -72 -108 0
-94 60 -153 155 -153 72 0 159 51 191 112 31 60 6 155 -50 189 -44 27 -114 25
-157 -4z"/>
<path d="M12228 21435 c-103 -64 -128 -147 -64 -211 29 -29 41 -34 83 -34 65
0 146 39 173 82 16 25 20 43 16 76 -7 56 -20 79 -59 102 -47 29 -85 25 -149
-15z"/>
<path d="M12602 21436 c-49 -42 -76 -158 -52 -222 15 -39 39 -53 91 -54 78 0
113 45 125 163 10 96 -18 136 -93 137 -30 0 -50 -7 -71 -24z"/>
<path d="M13000 21453 c-52 -19 -100 -100 -100 -170 0 -102 92 -167 183 -130
69 29 87 120 42 205 -14 26 -25 52 -25 59 0 29 -60 51 -100 36z"/>
<path d="M9685 21441 c-11 -5 -41 -31 -67 -59 -39 -42 -48 -58 -48 -88 0 -54
32 -98 89 -123 107 -46 193 -12 226 90 33 98 -23 179 -128 186 -29 1 -61 -1
-72 -6z"/>
<path d="M9127 21426 c-57 -17 -115 -58 -128 -93 -37 -97 40 -193 156 -193
112 0 189 108 153 214 -24 71 -90 97 -181 72z"/>
<path d="M13320 21392 c-42 -42 -64 -102 -54 -151 7 -34 61 -87 98 -97 40 -10
108 15 148 56 34 34 38 43 38 90 0 49 -3 56 -44 96 -40 41 -47 44 -96 44 -47
0 -56 -4 -90 -38z"/>
<path d="M8527 21406 c-20 -8 -44 -19 -52 -26 -25 -21 -65 -113 -65 -149 0
-85 84 -147 187 -139 85 7 115 46 128 168 5 45 2 61 -14 87 -38 60 -113 84
-184 59z"/>
<path d="M13717 21382 c-37 -39 -69 -136 -61 -187 9 -61 29 -85 68 -85 55 0
67 9 97 77 33 74 38 146 14 193 -22 42 -79 43 -118 2z"/>
<path d="M7925 21386 c-44 -19 -82 -69 -100 -131 -38 -128 35 -215 167 -203
27 3 62 14 76 25 104 76 66 277 -59 313 -42 12 -47 12 -84 -4z"/>
<path d="M13984 21335 c-36 -36 -74 -123 -74 -170 0 -66 33 -98 78 -77 114 54
136 83 129 171 -3 44 -9 59 -31 78 -35 30 -71 29 -102 -2z"/>
<path d="M7393 21329 c-74 -22 -115 -136 -75 -209 35 -65 111 -86 188 -51 48
22 74 68 74 134 0 88 -96 153 -187 126z"/>
<path d="M6787 21316 c-50 -18 -74 -41 -88 -83 -24 -74 14 -169 82 -203 43
-22 75 -25 116 -9 65 24 105 87 107 166 0 46 -3 57 -33 87 -20 21 -50 38 -77
45 -53 14 -60 13 -107 -3z"/>
<path d="M14185 21255 c-60 -63 -71 -138 -23 -164 43 -24 97 -5 125 44 64 114
-18 210 -102 120z"/>
<path d="M6221 21249 c-17 -16 -35 -49 -41 -72 -6 -23 -15 -54 -20 -69 -11
-34 -3 -65 26 -105 46 -61 155 -69 207 -15 69 72 62 173 -18 258 -28 29 -39
34 -78 34 -37 0 -51 -5 -76 -31z"/>
<path d="M5705 21225 c-16 -8 -48 -32 -70 -55 -38 -38 -40 -44 -40 -101 0 -56
3 -63 32 -89 59 -53 151 -64 223 -27 134 67 112 225 -39 276 -44 14 -69 13
-106 -4z"/>
<path d="M5179 21197 c-24 -13 -57 -43 -74 -66 -25 -36 -30 -54 -33 -115 -6
-116 37 -174 119 -163 80 11 136 81 160 200 28 137 -54 206 -172 144z"/>
<path d="M14404 21190 c-30 -12 -64 -58 -64 -86 0 -28 27 -44 74 -44 45 0 66
22 66 70 0 58 -28 80 -76 60z"/>
<path d="M4615 21065 c-22 -8 -50 -27 -63 -42 -30 -37 -55 -125 -47 -163 10
-46 58 -80 111 -80 62 0 102 19 152 73 37 42 42 52 42 95 0 50 -22 92 -58 111
-34 18 -97 21 -137 6z"/>
<path d="M4171 20981 c-34 -6 -53 -18 -84 -50 -36 -39 -39 -47 -34 -83 9 -64
72 -118 138 -118 45 0 124 46 144 85 13 23 16 44 12 75 -10 80 -68 109 -176
91z"/>
<path d="M3775 20933 c-43 -11 -105 -101 -105 -154 0 -48 49 -99 95 -99 31 0
81 30 97 58 32 56 30 152 -5 180 -16 14 -57 21 -82 15z"/>
<path d="M3385 20869 c-41 -22 -95 -92 -95 -121 0 -71 68 -127 153 -128 74 0
117 42 117 116 0 102 -97 175 -175 133z"/>
<path d="M3027 20849 c-25 -15 -67 -106 -67 -146 0 -43 28 -111 51 -123 48
-26 123 4 159 62 50 82 -6 218 -89 218 -20 0 -44 -5 -54 -11z"/>
<path d="M2659 20801 c-99 -63 -125 -137 -77 -222 37 -67 109 -86 169 -46 53
35 82 99 76 170 -6 65 -23 92 -74 113 -42 18 -40 18 -94 -15z"/>
<path d="M2345 20723 c-31 -6 -103 -75 -110 -106 -16 -62 37 -137 95 -137 83
0 140 58 140 143 0 40 -5 54 -29 78 -28 28 -47 32 -96 22z"/>
<path d="M2087 20699 c-9 -6 -31 -37 -47 -69 -62 -123 -24 -213 69 -165 33 17
49 55 57 135 10 93 -22 132 -79 99z"/>
<path d="M1834 20598 c-53 -61 -73 -177 -35 -198 55 -29 125 70 119 167 -3 45
-5 48 -33 51 -22 2 -36 -4 -51 -20z"/>
<path d="M1637 20496 c-21 -21 -49 -116 -45 -152 4 -34 39 -45 67 -20 29 26
57 121 45 153 -11 32 -44 42 -67 19z"/>
<path d="M1429 20368 c-40 -38 -59 -71 -59 -104 0 -49 9 -64 40 -64 50 0 108
95 98 160 -4 35 -46 38 -79 8z"/>
<path d="M10900 20680 c-265 -42 -424 -248 -423 -550 0 -161 46 -274 151 -372
63 -59 123 -93 235 -133 222 -79 387 -84 532 -16 81 37 125 78 163 148 41 79
56 163 49 281 -7 121 -26 195 -77 297 -84 171 -230 295 -390 333 -68 16 -179
22 -240 12z"/>
<path d="M14400 20550 c-68 -25 -115 -62 -158 -124 -50 -74 -66 -144 -58 -246
22 -268 20 -258 57 -296 19 -20 75 -56 124 -80 144 -72 234 -71 317 4 62 56
81 103 86 207 3 81 -1 107 -41 265 -55 215 -67 244 -109 270 -44 27 -143 27
-218 0z"/>
<path d="M13107 20540 c-145 -56 -281 -234 -310 -406 -28 -163 69 -315 226
-356 78 -19 279 -17 350 5 67 21 129 71 159 131 40 78 39 289 -2 397 -73 198
-254 295 -423 229z"/>
<path d="M5053 20490 c-89 -24 -251 -105 -317 -160 -151 -125 -187 -277 -137
-572 47 -270 131 -440 256 -514 102 -60 297 -80 453 -48 300 62 513 296 529
584 17 301 -171 606 -432 702 -86 31 -253 35 -352 8z"/>
<path d="M6488 20496 c-38 -7 -73 -17 -79 -23 -6 -6 -9 -26 -7 -44 4 -45 24
-54 190 -79 75 -11 173 -29 219 -38 l82 -18 -184 -32 c-101 -17 -249 -41 -329
-52 -97 -14 -153 -27 -170 -39 -32 -23 -38 -71 -11 -95 20 -18 27 -19 386 -46
243 -18 797 -24 995 -11 102 7 189 16 193 20 21 20 -373 49 -811 61 -196 6
-370 13 -387 17 -22 5 18 15 160 40 302 53 385 84 385 142 0 42 -25 57 -145
84 l-110 24 325 6 c214 3 363 11 435 21 124 18 168 26 163 32 -2 2 -139 13
-304 24 -344 23 -882 26 -996 6z"/>
<path d="M12240 20423 c-112 -11 -239 -25 -264 -30 -28 -6 -28 -7 -8 -14 58
-22 301 -40 442 -34 150 7 378 30 387 39 26 25 -397 55 -557 39z"/>
<path d="M8060 20341 c-136 -42 -242 -169 -271 -326 -29 -158 44 -316 177
-381 45 -22 67 -26 132 -26 291 3 521 220 482 456 -11 68 -27 100 -77 150 -89
90 -333 160 -443 127z"/>
<path d="M9275 20224 c-11 -1 -82 -10 -157 -20 -76 -9 -138 -20 -138 -24 0 -9
178 -27 415 -42 172 -10 215 -9 455 11 266 23 324 33 259 44 -153 28 -289 37
-542 36 -150 -1 -281 -3 -292 -5z"/>
<path d="M3255 20079 c-71 -5 -206 -20 -300 -33 -93 -14 -208 -30 -255 -36
-47 -6 -209 -34 -360 -61 -151 -28 -335 -59 -408 -70 -169 -24 -203 -33 -279
-75 -67 -37 -88 -63 -78 -95 10 -31 41 -37 165 -28 117 8 646 10 600 2 -14 -2
-122 -20 -240 -39 -391 -64 -403 -68 -398 -133 4 -53 49 -71 191 -80 l112 -6
-74 -18 c-89 -21 -101 -29 -101 -73 0 -63 -8 -63 685 -52 457 7 474 4 135 -26
-374 -34 -585 -64 -787 -111 -59 -14 -147 -32 -196 -40 -101 -16 -117 -25
-117 -66 0 -49 30 -59 197 -66 l148 -6 -72 -21 c-137 -39 -88 -42 176 -10 141
17 161 25 161 59 0 31 -19 41 -106 56 -38 7 -64 14 -59 15 54 17 348 62 595
90 295 33 373 41 640 64 136 12 170 25 170 65 0 41 -34 53 -199 70 -85 8 -159
15 -165 16 -6 0 -1 4 12 9 26 11 30 51 7 70 -18 15 -147 25 -580 45 -181 8
-368 18 -415 22 -99 8 -104 6 165 53 235 40 368 49 721 50 319 0 328 2 322 55
-4 41 -36 50 -256 74 -251 29 -462 41 -722 42 -145 1 -211 4 -185 9 148 31
583 103 750 125 283 37 344 43 575 55 301 16 740 63 740 80 0 11 -417 30 -610
29 -96 -1 -233 -6 -305 -10z"/>
<path d="M12242 20069 c-96 -11 -252 -48 -252 -60 0 -18 405 -10 549 11 187
27 189 33 20 49 -129 12 -210 12 -317 0z"/>
<path d="M9315 19904 c-11 -3 -30 -7 -42 -10 -32 -6 -56 -56 -43 -88 13 -35
38 -48 170 -91 63 -20 122 -39 130 -42 8 -2 -43 -24 -115 -47 -121 -39 -184
-65 -160 -66 6 0 108 13 229 30 231 31 256 39 256 86 0 29 -18 38 -169 90
l-114 39 139 7 c144 7 474 34 533 44 18 3 31 8 28 10 -22 22 -771 56 -842 38z"/>
<path d="M6815 19640 c-191 -12 -563 -57 -578 -70 -17 -15 236 -34 448 -34
168 0 280 7 474 27 139 15 263 27 274 27 13 0 17 4 11 9 -29 29 -412 54 -629
41z"/>
<path d="M13202 19254 c-56 -29 -92 -99 -95 -190 -2 -37 2 -49 22 -65 41 -34
130 -22 180 24 57 53 82 185 41 222 -28 25 -107 30 -148 9z"/>
<path d="M12413 19240 c-44 -26 -66 -73 -65 -138 0 -67 28 -101 89 -109 59 -8
99 17 129 80 34 74 32 111 -10 153 -40 40 -92 46 -143 14z"/>
<path d="M11445 19232 c-106 -65 -138 -194 -64 -256 87 -73 249 29 249 157 0
42 -5 54 -34 83 -28 28 -41 34 -77 34 -25 0 -57 -8 -74 -18z"/>
<path d="M11942 19229 c-89 -45 -116 -149 -54 -211 42 -43 89 -47 158 -13 65
32 94 72 94 130 0 97 -98 143 -198 94z"/>
<path d="M12795 19219 c-37 -33 -61 -95 -51 -135 3 -12 18 -37 33 -54 26 -31
29 -32 90 -28 76 5 112 28 131 83 17 50 2 94 -44 135 -49 43 -109 42 -159 -1z"/>
<path d="M13592 19243 c-42 -8 -88 -64 -101 -121 -16 -79 -14 -98 15 -121 32
-25 101 -28 143 -6 64 32 110 123 96 187 -12 51 -73 76 -153 61z"/>
<path d="M13892 19215 c-81 -72 -102 -155 -49 -190 64 -41 133 -18 167 58 60
130 -21 220 -118 132z"/>
<path d="M14420 19243 c-38 -14 -74 -50 -91 -89 -17 -37 -18 -48 -7 -91 16
-63 24 -73 63 -73 95 0 175 171 110 235 -23 24 -45 29 -75 18z"/>
<path d="M14675 19218 c-40 -14 -104 -75 -121 -115 -24 -55 -18 -95 17 -126
59 -52 110 -29 168 77 42 77 53 134 28 154 -20 17 -60 22 -92 10z"/>
<path d="M14174 19213 c-12 -2 -34 -17 -49 -33 -22 -23 -29 -41 -32 -82 -7
-92 34 -128 108 -97 49 20 69 54 69 119 0 73 -33 105 -96 93z"/>
<path d="M10440 19199 c-98 -39 -158 -157 -114 -224 33 -50 167 -63 239 -22
103 58 123 189 36 240 -32 19 -120 22 -161 6z"/>
<path d="M9833 19143 c-50 -32 -79 -82 -88 -149 -7 -48 -6 -52 25 -77 80 -68
275 9 295 116 9 45 -15 97 -54 120 -46 27 -128 23 -178 -10z"/>
<path d="M10955 19161 c-72 -18 -105 -61 -105 -138 1 -67 64 -120 131 -109 59
10 95 31 129 78 77 106 -12 203 -155 169z"/>
<path d="M9259 19117 c-18 -12 -44 -38 -56 -57 -12 -19 -31 -47 -42 -62 -12
-14 -21 -38 -21 -53 0 -39 35 -90 72 -106 73 -30 183 -2 226 58 27 38 44 106
36 140 -21 88 -139 132 -215 80z"/>
<path d="M14848 19108 c-42 -45 -70 -104 -66 -141 3 -29 7 -32 40 -35 53 -4
112 50 128 118 15 62 2 90 -41 90 -22 0 -40 -9 -61 -32z"/>
<path d="M8695 19066 c-57 -25 -95 -93 -95 -168 0 -54 20 -83 66 -98 46 -15
86 -7 152 31 61 34 92 79 92 130 0 90 -118 148 -215 105z"/>
<path d="M8080 19032 c-86 -60 -140 -130 -140 -184 0 -36 38 -102 69 -121 75
-44 200 -8 285 83 38 41 46 56 46 87 0 53 -30 104 -76 130 -50 29 -147 32
-184 5z"/>
<path d="M7513 18975 c-62 -31 -82 -57 -113 -146 -22 -62 -23 -69 -9 -105 28
-74 109 -102 212 -73 47 13 106 63 123 106 29 69 12 175 -35 217 -36 32 -116
33 -178 1z"/>
<path d="M6370 18937 c-66 -23 -120 -142 -103 -227 8 -42 49 -73 88 -67 140
23 179 59 192 177 6 65 -1 81 -46 104 -41 21 -93 26 -131 13z"/>
<path d="M6943 18939 c-18 -5 -45 -27 -64 -50 -62 -79 -47 -194 31 -234 63
-33 164 -9 227 53 76 77 35 193 -81 227 -56 17 -67 17 -113 4z"/>
<path d="M5813 18891 c-46 -21 -90 -80 -106 -142 -18 -72 40 -139 120 -139 43
1 105 33 141 75 39 43 52 74 52 118 0 88 -107 133 -207 88z"/>
<path d="M5331 18838 c-14 -7 -44 -37 -68 -66 -40 -49 -44 -59 -41 -99 2 -37
9 -50 31 -67 56 -41 179 -10 212 54 25 48 20 115 -12 150 -32 35 -85 47 -122
28z"/>
<path d="M4727 18750 c-47 -48 -49 -52 -44 -92 8 -60 42 -88 108 -88 50 0 114
25 138 53 19 24 25 84 11 117 -16 39 -56 60 -116 60 -43 0 -51 -4 -97 -50z"/>
<path d="M4321 18753 c-17 -21 -40 -47 -51 -58 -24 -26 -50 -87 -50 -120 0
-34 25 -82 49 -95 60 -31 147 3 189 75 19 34 22 51 20 118 -3 69 -6 81 -27 98
-14 11 -39 19 -61 19 -32 0 -43 -6 -69 -37z"/>
<path d="M3801 18712 c-48 -24 -73 -62 -79 -121 -12 -130 88 -193 192 -121 71
48 95 131 61 205 -27 55 -106 72 -174 37z"/>
<path d="M3415 18698 c-122 -42 -157 -220 -59 -297 15 -12 38 -21 51 -21 50 0
120 47 171 114 71 92 -49 242 -163 204z"/>
<path d="M2998 18640 c-14 -11 -33 -37 -42 -57 -9 -21 -28 -53 -41 -72 -35
-47 -33 -94 4 -132 23 -23 38 -29 71 -29 75 0 130 79 130 186 0 106 -58 155
-122 104z"/>
<path d="M2649 18569 c-11 -11 -27 -36 -35 -55 -16 -39 -19 -147 -4 -175 13
-24 66 -26 99 -3 65 46 83 209 27 246 -21 15 -66 8 -87 -13z"/>
<path d="M2371 18514 c-45 -32 -62 -109 -41 -186 13 -44 35 -53 90 -37 69 21
113 96 96 164 -7 27 -73 75 -104 75 -9 0 -28 -7 -41 -16z"/>
<path d="M1657 18492 c-32 -33 -62 -156 -52 -209 6 -33 37 -63 65 -63 69 0
134 226 80 280 -28 28 -62 25 -93 -8z"/>
<path d="M1915 18488 c-34 -27 -55 -75 -55 -127 0 -120 84 -145 138 -41 19 36
22 55 18 99 -3 30 -11 60 -18 67 -26 24 -54 25 -83 2z"/>
<path d="M1431 18477 c-23 -25 -61 -118 -61 -150 0 -10 10 -31 22 -47 17 -24
29 -30 58 -30 23 0 43 7 53 18 26 29 47 88 47 135 0 85 -68 127 -119 74z"/>
<path d="M2144 18486 c-29 -21 -54 -76 -54 -120 0 -105 94 -140 145 -53 23 38
25 141 4 162 -22 23 -71 28 -95 11z"/>
<path d="M12340 18698 c-58 -5 -197 -22 -310 -39 -180 -26 -248 -31 -560 -39
-195 -6 -476 -16 -625 -24 -148 -8 -364 -18 -480 -21 -252 -7 -388 -18 -640
-50 -104 -14 -293 -32 -420 -40 -315 -21 -606 -56 -628 -75 -14 -13 288 -25
583 -25 251 1 297 4 520 33 179 24 316 35 510 42 146 6 402 17 570 26 168 8
456 19 640 24 359 10 479 22 761 80 191 39 491 109 497 115 8 8 -304 3 -418
-7z"/>
<path d="M7885 18314 c-61 -9 -164 -13 -265 -12 -820 12 -1938 -3 -2295 -32
-246 -20 -530 -64 -575 -91 -12 -6 536 -17 620 -11 340 21 1685 35 2245 23
120 -3 206 1 290 12 66 9 188 21 270 27 270 19 500 42 508 49 8 8 -103 23
-313 41 -148 13 -367 10 -485 -6z"/>
<path d="M3485 18110 c-99 -4 -247 -17 -330 -29 -166 -24 -653 -124 -712 -146
-37 -13 -36 -14 52 -14 152 -1 369 17 656 53 214 28 337 37 564 45 219 8 347
18 524 41 129 17 236 32 238 34 3 3 -124 7 -652 20 -88 2 -241 0 -340 -4z"/>
<path d="M2780 17830 c-99 -10 -292 -39 -299 -46 -2 -2 -1 -7 3 -11 10 -11
1067 -13 1061 -3 -25 41 -537 81 -765 60z"/>
<path d="M8485 17169 c-437 -38 -742 -166 -889 -372 -93 -131 -128 -246 -132
-442 l-2 -130 -54 -2 c-29 -1 -174 -7 -323 -13 -148 -6 -598 -26 -1000 -45
-781 -37 -1304 -60 -1610 -70 l-190 -7 -42 64 c-140 215 -571 480 -774 477
-41 0 -42 -1 -19 -11 112 -49 166 -84 274 -174 236 -197 352 -347 397 -514 13
-47 42 -122 65 -168 l42 -84 -31 6 c-108 22 -182 28 -267 22 -52 -4 -183 -10
-290 -14 -107 -4 -201 -11 -207 -15 -21 -13 -15 -36 10 -42 106 -25 338 -65
407 -70 95 -7 315 -62 430 -107 110 -43 271 -129 416 -222 l127 -81 24 -65
c14 -36 41 -119 60 -185 30 -103 36 -142 44 -280 5 -100 16 -187 27 -232 l20
-73 -27 6 c-67 15 -213 56 -278 78 -141 48 -291 171 -395 324 -40 59 -104 139
-143 179 -79 81 -116 96 -178 70 -49 -21 -70 -57 -70 -122 0 -90 38 -151 175
-286 l118 -116 94 -197 c136 -281 191 -347 389 -459 61 -34 135 -84 165 -111
50 -46 143 -162 170 -213 11 -20 11 -20 -46 -7 -31 8 -93 14 -137 14 -99 0
-365 -21 -365 -30 0 -3 66 -17 148 -29 254 -41 337 -68 400 -132 34 -35 75
-129 87 -198 16 -96 105 -133 167 -70 l31 30 -6 157 c-8 253 -41 345 -191 534
-89 112 -163 173 -306 253 -86 48 -180 129 -205 175 l-13 26 150 -43 c190 -55
292 -73 443 -80 126 -6 247 7 294 31 52 27 67 105 31 163 -23 39 -53 48 -132
39 -43 -4 -67 -2 -89 9 -59 31 -94 145 -109 357 -6 78 -16 169 -24 201 -10 43
-11 59 -2 62 30 10 1016 96 1533 135 441 33 479 29 578 -62 64 -58 99 -124
121 -228 22 -103 14 -402 -22 -795 -23 -247 -28 -353 -28 -600 0 -265 3 -314
22 -416 58 -315 172 -541 377 -744 205 -204 464 -353 819 -470 l130 -43 -80
-7 c-116 -10 -185 -29 -287 -82 -145 -75 -322 -256 -466 -477 -68 -105 -100
-174 -154 -331 -62 -183 -80 -270 -75 -365 5 -87 21 -121 65 -140 l28 -12 -52
-107 c-67 -135 -133 -337 -169 -516 -24 -118 -29 -162 -28 -285 1 -221 42
-389 110 -457 27 -28 39 -33 82 -33 34 0 57 6 74 20 l25 19 7 -112 c3 -62 15
-168 25 -237 10 -69 22 -156 26 -195 3 -38 15 -106 25 -150 44 -191 35 -294
-40 -498 -27 -75 -50 -153 -50 -173 0 -69 56 -124 127 -124 45 0 117 54 238
177 l110 112 -3 -131 c-5 -214 33 -346 186 -648 70 -138 74 -149 82 -236 7
-82 2 -222 -16 -401 -5 -50 -3 -68 11 -89 36 -56 130 -66 174 -20 12 12 29 47
39 77 l19 54 7 -57 c9 -67 32 -166 70 -293 15 -49 34 -142 42 -205 9 -63 24
-134 34 -157 30 -69 112 -94 174 -54 48 32 151 158 254 310 l97 143 7 -123 c8
-140 -2 -268 -32 -413 -25 -125 -25 -166 0 -199 25 -31 80 -51 119 -42 53 11
147 127 216 265 83 166 315 540 334 540 3 0 14 -20 24 -44 25 -61 94 -110 156
-110 70 0 91 21 167 164 38 70 72 126 76 124 4 -3 30 -43 58 -89 28 -47 61
-91 73 -100 45 -31 80 -22 507 132 69 25 198 79 286 120 158 73 365 142 844
285 208 61 207 61 484 108 411 69 531 80 897 80 345 1 393 -3 674 -56 184 -34
196 -38 223 -80 29 -44 192 -223 331 -362 158 -159 294 -237 462 -266 182 -31
283 -39 430 -33 l148 6 11 -57 c7 -31 34 -127 62 -212 27 -85 63 -216 79 -290
55 -251 169 -997 169 -1105 0 -28 9 -124 21 -215 28 -225 24 -473 -9 -537 -12
-24 -26 -43 -30 -43 -4 0 -32 16 -62 35 -75 48 -128 49 -176 1 -40 -40 -42
-66 -19 -224 14 -91 14 -109 0 -167 -8 -36 -26 -87 -39 -113 -42 -79 -40 -77
-74 -52 -37 27 -97 30 -134 6 -29 -19 -63 -96 -132 -301 -59 -178 -143 -374
-200 -470 -69 -115 -137 -208 -146 -198 -4 4 -13 24 -19 44 -18 58 -54 84
-113 84 -43 0 -53 -4 -79 -33 -38 -42 -38 -77 2 -229 34 -131 34 -192 1 -225
-19 -20 -151 -57 -203 -58 -14 0 -52 9 -84 20 -71 25 -137 26 -176 3 -43 -26
-67 -84 -79 -198 -12 -107 -54 -311 -75 -360 -7 -16 -34 -56 -61 -88 -37 -45
-66 -67 -121 -93 -40 -20 -77 -33 -82 -29 -6 3 -25 33 -42 66 -48 89 -100 118
-175 98 -58 -17 -92 -45 -139 -118 -59 -90 -85 -113 -189 -160 -100 -46 -96
-45 -96 -29 0 27 -81 177 -120 221 -68 77 -154 107 -246 87 -94 -21 -137 -66
-234 -239 -28 -52 -101 -169 -161 -260 -95 -146 -114 -169 -154 -188 -25 -13
-47 -23 -49 -23 -2 0 -16 48 -30 108 -33 139 -70 240 -99 270 -13 13 -41 27
-62 32 -51 11 -178 -4 -241 -28 -99 -39 -341 -161 -426 -215 l-87 -55 -7 67
c-10 98 -28 138 -92 206 -31 34 -69 77 -84 97 -30 40 -82 68 -127 68 -49 0
-105 -34 -158 -96 -26 -32 -69 -80 -94 -108 l-47 -50 -68 34 c-98 50 -126 81
-153 175 -56 195 -143 282 -290 293 -70 4 -245 -31 -344 -69 -31 -13 -73 -19
-123 -19 l-75 0 -16 38 c-20 48 -20 62 1 209 12 84 17 165 14 261 -3 134 -4
142 -28 168 -54 58 -159 80 -252 52 -22 -6 -68 -37 -104 -69 -45 -39 -90 -68
-142 -89 -42 -18 -93 -42 -113 -55 l-36 -24 -36 37 c-26 28 -40 56 -55 112
-36 133 -99 291 -129 323 -15 16 -48 43 -72 58 -59 38 -133 40 -209 4 -30 -14
-61 -25 -70 -25 -24 0 -174 50 -191 64 -27 21 -110 211 -135 308 -14 53 -30
142 -35 198 -20 186 -58 303 -113 344 -24 17 -32 18 -67 7 -56 -16 -92 -66
-132 -179 l-33 -97 -12 96 c-19 151 -60 303 -118 439 -30 69 -73 179 -97 245
-85 239 -138 342 -240 462 -60 72 -162 150 -236 184 -135 61 -293 184 -555
436 -109 104 -209 189 -290 246 -68 47 -135 96 -150 107 -39 30 -191 262 -227
347 -17 39 -55 144 -85 232 -30 88 -77 213 -105 279 -98 233 -126 349 -137
554 l-7 137 51 56 c28 30 85 110 128 178 42 67 99 150 126 183 26 34 48 69 48
78 0 21 -61 -29 -204 -165 -103 -98 -206 -173 -313 -229 -146 -77 -304 -39
-428 103 -140 160 -392 583 -515 867 -18 41 -71 156 -117 255 -110 233 -147
325 -286 706 -63 174 -150 399 -192 500 -99 234 -137 341 -176 487 -27 98 -32
135 -31 227 0 61 5 145 12 188 6 43 10 81 7 83 -9 9 -59 -112 -87 -214 -26
-90 -30 -123 -30 -225 0 -271 54 -486 282 -1122 121 -338 159 -433 246 -620
40 -88 103 -224 138 -302 92 -206 190 -396 296 -576 225 -381 367 -526 559
-572 132 -31 281 -8 410 62 3 2 -2 -38 -12 -89 -23 -116 -24 -285 -4 -404 9
-49 38 -170 66 -269 109 -393 154 -503 282 -693 112 -165 142 -198 238 -263
120 -80 196 -144 320 -268 231 -233 453 -410 609 -488 74 -37 111 -63 166
-119 94 -94 140 -176 218 -387 35 -96 85 -221 110 -278 53 -124 89 -259 115
-440 24 -157 31 -186 66 -245 63 -107 119 -141 186 -113 44 18 108 111 144
208 17 44 33 81 36 81 3 0 17 -57 32 -127 29 -138 104 -389 136 -450 30 -58
67 -87 184 -144 96 -46 116 -53 170 -52 34 0 79 7 99 16 34 14 38 14 52 -2 19
-21 38 -73 82 -230 20 -69 42 -138 50 -154 9 -16 55 -68 103 -117 134 -134
183 -140 301 -34 33 30 65 54 71 54 28 0 163 73 203 110 l46 43 0 -49 c0 -27
-9 -110 -20 -184 -26 -174 -25 -215 4 -295 36 -99 66 -139 131 -170 48 -24 71
-28 168 -32 97 -4 120 -2 172 17 33 12 109 35 169 50 154 40 161 36 216 -130
17 -52 40 -109 51 -127 33 -54 113 -117 205 -164 84 -43 89 -44 179 -44 88 0
96 2 137 30 23 17 67 60 97 95 l54 65 42 -41 c40 -40 42 -46 48 -116 14 -167
94 -278 200 -278 50 0 78 13 142 64 30 25 97 70 147 100 92 53 332 168 375
179 26 6 27 3 71 -179 51 -210 105 -294 190 -294 38 0 57 9 120 57 25 19 66
45 92 58 78 40 108 73 215 235 97 148 117 180 216 349 24 41 49 76 56 78 16 6
59 -65 100 -161 60 -146 103 -186 196 -186 36 0 74 14 189 72 156 78 207 113
247 169 l27 37 32 -38 c38 -46 105 -80 156 -80 25 0 80 19 155 52 105 47 123
60 191 129 41 42 90 101 108 131 37 62 85 239 103 381 9 70 15 87 26 83 8 -4
38 -9 66 -12 62 -7 262 33 324 65 103 52 152 123 160 233 6 73 6 73 43 91 75
35 282 337 351 510 18 45 52 126 75 179 24 53 49 117 55 142 8 34 16 46 30 46
10 0 43 9 73 21 69 25 118 79 192 209 67 117 94 199 101 312 l6 87 51 6 c187
26 265 201 253 565 -4 91 -11 192 -17 225 -5 33 -15 125 -20 205 -11 154 -38
362 -96 730 -59 379 -105 588 -174 790 -21 63 -41 129 -44 145 l-6 30 697 -2
c512 -2 749 -7 890 -18 106 -8 295 -15 420 -15 126 0 329 -7 453 -15 124 -8
290 -15 370 -15 90 0 230 -10 371 -26 l225 -26 305 26 c666 57 705 65 856 173
74 52 110 92 157 172 101 172 148 337 151 526 l1 130 60 44 c163 122 252 201
327 289 108 127 134 153 301 291 218 182 272 246 467 546 234 362 291 529 275
815 -9 167 -75 440 -137 562 -34 67 -118 169 -235 285 -100 98 -197 151 -336
183 l-94 22 -22 56 c-29 75 -42 148 -42 241 0 111 -74 754 -115 1003 -20 117
-40 281 -45 363 -17 261 -30 387 -50 485 -29 143 -60 227 -88 246 l-25 16 8
-33 c29 -132 28 -147 -27 -429 -54 -272 -54 -347 -5 -645 57 -346 103 -735
117 -990 10 -182 30 -285 76 -384 46 -102 104 -142 249 -171 117 -23 173 -59
295 -188 131 -139 154 -181 207 -377 37 -136 38 -145 37 -310 0 -159 -2 -175
-27 -244 -36 -99 -87 -192 -209 -380 -159 -244 -198 -293 -407 -501 -184 -183
-201 -203 -281 -333 -93 -151 -299 -405 -312 -384 -4 7 -17 41 -29 77 -51 152
-158 327 -280 456 l-80 86 59 41 c161 115 229 183 307 312 47 78 228 436 272
540 40 93 83 251 83 304 -1 50 -29 109 -76 154 -46 46 -196 121 -275 138 -102
21 -252 7 -439 -41 l-164 -43 -141 6 c-246 10 -551 69 -670 130 -60 30 -190
161 -250 252 -67 101 -137 242 -171 342 -23 69 -26 89 -21 173 12 225 142 542
395 966 160 267 164 276 221 471 34 114 67 203 105 278 31 61 56 111 56 113 0
1 -8 2 -17 2 -9 0 -38 -22 -64 -50 -27 -27 -63 -57 -81 -66 -98 -50 -114 -70
-202 -243 -46 -91 -145 -271 -220 -399 -210 -358 -297 -543 -370 -786 -87
-287 -70 -470 71 -744 69 -133 122 -215 208 -315 166 -195 320 -264 714 -324
130 -19 218 -26 336 -27 159 -1 161 -1 325 43 208 56 282 60 385 18 39 -16 81
-36 93 -46 23 -17 23 -17 8 -79 -9 -34 -45 -130 -80 -214 -35 -84 -91 -227
-124 -318 -76 -208 -87 -232 -127 -294 -38 -60 -181 -225 -200 -233 -8 -2 -40
13 -72 35 -77 52 -147 87 -213 106 -74 21 -300 46 -418 46 -54 0 -137 7 -187
15 -49 8 -191 29 -315 47 l-225 31 -765 2 c-479 2 -804 7 -870 14 -72 7 -172
8 -320 2 -118 -5 -328 -6 -467 -3 -250 5 -473 -5 -693 -32 -76 -9 -107 -10
-112 -2 -4 6 -8 52 -8 101 0 50 -10 178 -21 285 -23 224 -35 701 -34 1340 1
426 21 814 50 941 8 36 21 125 30 198 8 73 24 168 35 210 11 42 28 148 39 236
19 147 37 226 116 502 l18 61 81 12 c402 56 804 258 1142 573 345 321 580 811
688 1437 29 167 122 796 131 885 17 176 33 213 104 242 83 34 131 93 145 179
4 22 0 139 -9 260 -8 120 -19 278 -24 350 -4 71 -14 140 -20 153 -15 27 -102
67 -248 114 -287 93 -512 118 -1228 137 -209 6 -414 13 -456 17 l-76 6 -7 110
c-20 325 -118 493 -327 558 -91 28 -230 25 -464 -11 -399 -62 -826 -110 -1280
-142 -282 -20 -1257 -17 -1555 5 -728 55 -1150 117 -2360 347 -669 127 -925
166 -1245 190 -162 12 -446 11 -590 -1z m670 -215 c307 -29 584 -75 1365 -225
917 -176 1529 -260 2260 -311 247 -17 1225 -17 1455 0 491 37 953 88 1273 143
97 17 220 31 272 32 86 2 100 -1 153 -26 63 -31 104 -81 130 -157 21 -62 39
-194 35 -255 l-3 -50 -50 -2 c-546 -25 -1354 -157 -1885 -308 -204 -58 -267
-80 -451 -158 -292 -124 -423 -127 -858 -17 -67 17 -264 59 -439 95 -174 35
-402 82 -506 105 -270 59 -429 88 -604 110 -84 11 -300 47 -480 80 -698 127
-1122 189 -1527 225 -192 17 -737 19 -1280 6 -243 -6 -332 -6 -337 3 -4 6 -8
47 -8 91 0 442 390 659 1150 639 102 -3 253 -12 335 -20z m-25 -914 c442 -31
907 -97 1625 -231 176 -33 390 -68 477 -79 205 -26 360 -55 773 -145 409 -90
818 -178 974 -210 234 -49 436 -53 598 -11 35 9 145 50 246 90 264 107 488
173 844 251 295 64 751 134 1068 165 163 15 541 31 610 24 33 -2 281 -9 550
-14 270 -5 535 -14 590 -20 215 -23 449 -74 581 -127 l62 -24 6 -57 c3 -31 8
-102 11 -157 3 -55 10 -159 16 -231 13 -153 9 -166 -55 -194 -62 -26 -110 -73
-134 -128 -14 -33 -38 -168 -77 -432 -104 -716 -141 -905 -231 -1181 -115
-350 -279 -618 -521 -850 -214 -204 -460 -355 -728 -444 -219 -73 -383 -88
-685 -61 -474 42 -754 121 -1028 287 -206 126 -415 337 -551 556 -201 325
-330 779 -371 1308 -20 254 -59 356 -191 487 -122 122 -267 182 -439 182 -108
0 -174 -16 -277 -66 -96 -46 -203 -140 -264 -230 -99 -145 -142 -282 -189
-594 -34 -226 -72 -390 -125 -544 -163 -472 -492 -865 -936 -1120 -369 -212
-901 -367 -1444 -421 -171 -17 -542 -15 -701 5 -575 69 -1058 263 -1334 537
-202 199 -304 430 -341 771 -17 149 -5 510 27 868 35 386 40 766 11 870 -45
169 -158 310 -305 383 -80 39 -91 42 -187 45 -133 5 -763 -42 -1649 -123 -209
-19 -385 -35 -392 -35 -7 0 -33 31 -57 68 -43 66 -102 119 -175 156 l-33 17
21 26 c11 14 20 41 20 60 0 61 -23 89 -113 133 -137 68 -246 147 -291 212 -22
32 -37 60 -35 63 3 2 142 9 310 15 366 12 643 24 1129 50 1367 74 1248 69
2310 99 411 12 837 12 1000 1z m4090 -1460 c150 -28 274 -135 325 -280 20 -58
32 -143 45 -322 23 -339 121 -739 249 -1023 l41 -90 -42 50 c-74 88 -172 180
-210 198 -102 48 -228 -13 -259 -126 -13 -48 -6 -112 21 -199 16 -53 18 -74
10 -162 -20 -223 0 -563 41 -671 29 -77 95 -163 224 -290 61 -60 144 -154 185
-209 110 -148 178 -182 275 -137 66 30 109 91 141 199 2 8 24 -16 47 -51 41
-61 100 -130 254 -298 108 -117 152 -195 324 -567 102 -222 114 -255 173 -487
137 -541 235 -1025 257 -1279 6 -67 13 -137 16 -156 l6 -35 8 30 c29 98 50
320 51 520 2 349 -38 679 -123 1005 -58 225 -72 264 -176 490 -135 291 -207
428 -266 502 -48 60 -227 230 -340 322 -76 62 -149 184 -253 421 -88 202 -95
222 -109 328 -8 62 -24 148 -34 192 -11 44 -18 81 -17 83 2 1 22 -22 46 -53
118 -153 364 -356 560 -462 284 -154 724 -253 1200 -270 l175 -6 -96 -191
c-69 -138 -113 -241 -156 -371 -33 -99 -73 -211 -88 -250 -14 -38 -35 -112
-46 -163 -10 -51 -30 -132 -44 -180 -16 -53 -29 -133 -35 -207 -28 -368 -32
-450 -34 -660 -3 -499 12 -1228 29 -1380 14 -132 36 -506 31 -512 -6 -7 -132
-26 -316 -48 -113 -13 -258 -36 -324 -50 -65 -14 -182 -35 -260 -46 -178 -26
-281 -49 -426 -94 -137 -44 -217 -50 -490 -38 -313 14 -425 -1 -699 -94 -221
-74 -321 -115 -546 -223 -218 -105 -270 -138 -462 -292 -78 -62 -188 -142
-244 -178 -169 -105 -646 -341 -859 -425 -107 -43 -200 -79 -207 -82 -7 -3 21
52 62 122 41 70 89 162 107 204 l33 76 3 235 c2 150 0 231 -6 225 -6 -5 -23
-97 -40 -203 -27 -174 -34 -201 -72 -280 -50 -106 -174 -293 -227 -345 l-39
-37 -29 61 c-41 85 -92 129 -149 129 -56 0 -87 -25 -163 -131 l-57 -80 -39 46
c-48 55 -83 75 -137 75 -61 0 -93 -22 -160 -109 -65 -86 -212 -304 -246 -367
l-22 -39 -7 100 c-9 108 5 315 30 458 17 99 10 133 -30 143 -60 15 -109 -31
-152 -145 -9 -25 -52 -86 -94 -136 -42 -49 -139 -170 -216 -267 l-140 -176
-11 106 c-6 59 -23 170 -38 247 -22 118 -27 181 -32 405 -5 170 -11 272 -19
285 -35 62 -104 80 -172 45 -24 -12 -44 -20 -45 -18 -250 503 -267 558 -246
809 18 201 55 350 120 479 41 81 40 122 -4 166 -28 28 -42 34 -75 34 -54 0
-82 -20 -123 -83 -51 -82 -128 -185 -205 -274 l-70 -81 -5 136 c-3 85 -13 173
-26 232 -32 145 -72 473 -72 585 1 55 7 162 14 238 8 81 10 153 6 174 -11 47
-47 82 -93 90 -44 7 -120 -27 -186 -83 l-43 -38 4 135 c4 97 12 167 32 254 59
260 117 393 314 724 63 107 120 207 125 222 16 42 -6 105 -46 129 -47 29 -84
25 -159 -19 l-67 -39 30 87 c75 213 318 593 451 702 105 87 160 112 366 164
l133 33 106 -19 c223 -40 391 -51 688 -46 163 3 337 12 415 21 587 71 1082
233 1490 488 l95 60 30 -38 c16 -21 51 -62 76 -91 33 -38 50 -69 63 -115 52
-188 313 -603 464 -738 116 -103 228 -130 294 -71 l33 29 6 124 5 123 112 225
c138 279 178 387 193 515 15 140 2 214 -64 346 -51 104 -52 106 -40 155 18 80
15 183 -7 232 -28 62 -112 146 -172 172 -38 16 -162 38 -229 40 -4 0 15 56 42
123 61 155 112 339 138 499 11 68 29 184 41 258 59 366 184 553 413 615 64 17
99 18 167 5z m3376 -6897 l351 -6 -81 -60 c-204 -151 -302 -284 -385 -520 -43
-124 -56 -212 -41 -295 13 -75 83 -248 198 -486 l77 -158 -25 -20 c-23 -18
-34 -19 -185 -13 -88 4 -322 8 -520 9 -352 3 -364 4 -534 34 -272 48 -328 82
-549 323 -173 190 -232 264 -303 384 -88 147 -88 158 -10 248 28 32 79 101
115 155 110 167 281 306 414 336 134 30 356 56 602 69 115 7 538 7 876 0z
m979 -12 c22 -5 35 -9 29 -10 -21 -2 -115 -93 -164 -158 -91 -120 -132 -285
-145 -583 -6 -133 -4 -156 20 -275 33 -162 74 -288 126 -383 21 -41 37 -77 35
-80 -2 -4 -98 -7 -213 -7 -193 0 -408 17 -443 34 -28 15 -49 66 -85 211 -19
80 -49 197 -66 260 -40 149 -40 196 5 350 65 220 161 395 262 474 100 78 261
145 399 165 78 11 190 12 240 2z m1525 -10 c47 -7 199 -28 337 -47 151 -20
294 -34 355 -34 56 0 154 -5 217 -12 l115 -11 -52 -18 c-93 -32 -195 -92 -254
-151 -49 -49 -70 -84 -148 -245 -50 -103 -100 -213 -110 -243 -62 -185 -48
-355 45 -545 58 -116 115 -188 215 -269 l80 -65 -57 -7 c-78 -9 -402 3 -538
21 -60 8 -193 15 -295 15 -102 0 -239 5 -305 11 -66 5 -307 14 -535 20 -228 5
-448 13 -489 17 l-73 7 -18 65 c-10 36 -29 108 -43 160 -37 141 -57 368 -57
653 0 299 11 372 76 497 24 47 63 108 88 135 l44 50 193 3 c107 2 195 4 196 5
8 8 945 -3 1013 -12z m-4550 -257 c0 -3 -39 -47 -87 -97 -115 -121 -164 -193
-170 -250 -6 -47 13 -119 49 -189 10 -21 16 -38 13 -38 -3 0 -64 18 -136 40
-264 81 -291 84 -679 84 -323 0 -356 -2 -524 -27 -327 -49 -581 -126 -834
-252 -100 -50 -179 -88 -175 -85 5 4 40 28 78 55 39 27 107 79 152 117 146
121 230 175 421 268 206 102 335 154 549 224 253 82 407 101 585 72 123 -20
320 -21 429 -1 46 8 136 31 199 49 125 37 130 39 130 30z m5955 -68 c75 -32
158 -131 210 -251 l25 -60 -37 41 c-192 210 -254 284 -238 284 3 0 21 -6 40
-14z m-3 -239 c151 -120 270 -221 272 -232 3 -11 8 -33 11 -49 l6 -29 -48 43
c-26 23 -124 108 -218 188 -180 153 -310 275 -327 306 -10 18 -9 18 13 2 13
-9 144 -112 291 -229z m-469 102 c57 -30 172 -108 430 -292 119 -86 244 -171
277 -189 59 -32 60 -34 54 -68 -4 -19 -8 -37 -10 -39 -2 -2 -745 558 -803 606
-13 10 15 0 52 -18z m-85 -230 c43 -16 174 -81 292 -144 250 -132 465 -238
500 -248 l25 -7 -25 -15 c-90 -52 -268 24 -673 287 -92 60 -179 114 -192 120
-25 11 -35 38 -14 38 6 0 45 -14 87 -31z m257 -346 c231 -161 348 -253 386
-306 31 -43 32 -55 7 -71 -12 -7 -24 -3 -50 17 -18 15 -172 134 -343 266 -170
132 -334 262 -363 289 -47 44 -52 52 -43 70 10 20 17 16 113 -56 57 -43 189
-137 293 -209z m143 -291 c105 -64 192 -120 192 -123 0 -8 -59 -44 -88 -53
-14 -5 -35 6 -78 42 -33 27 -151 117 -264 200 -377 277 -436 343 -153 171 109
-66 285 -173 391 -237z m-220 -101 c213 -114 220 -121 116 -121 -70 0 -230 98
-334 205 -43 44 -44 45 -15 35 17 -6 121 -59 233 -119z"/>
<path d="M15690 15753 c-544 -38 -1012 -166 -1307 -358 -180 -117 -285 -230
-364 -390 -86 -176 -115 -345 -106 -609 7 -186 24 -309 74 -526 110 -482 279
-860 505 -1130 218 -261 572 -431 1043 -502 59 -8 178 -13 345 -12 214 1 273
4 370 22 232 43 419 115 574 222 91 63 243 218 317 325 273 390 454 989 476
1575 13 350 -41 593 -184 834 -55 91 -189 232 -274 289 -226 148 -512 224
-964 257 -128 9 -396 11 -505 3z m396 -228 c14 -22 15 -34 6 -80 -31 -153
-192 -482 -601 -1230 -452 -826 -628 -1198 -673 -1423 l-13 -63 -77 71 c-180
166 -316 403 -434 755 -117 349 -164 588 -171 855 -5 200 10 319 56 441 84
223 319 409 668 529 325 112 649 163 1065 168 l158 2 16 -25z m1321 -1117
c-18 -661 -246 -1318 -571 -1644 -185 -185 -395 -277 -726 -319 -167 -22 -452
-16 -609 11 l-104 18 69 18 c105 28 296 128 414 216 375 280 734 717 1246
1515 206 320 259 397 276 397 8 0 9 -60 5 -212z"/>
<path d="M9620 15733 c-202 -16 -488 -68 -659 -119 -247 -75 -414 -162 -543
-283 -162 -152 -256 -345 -310 -640 -20 -104 -22 -151 -22 -461 0 -266 4 -383
17 -510 45 -409 123 -724 243 -979 89 -189 186 -293 349 -371 437 -210 1172
-269 1769 -144 553 116 985 406 1295 869 206 307 315 636 328 991 17 447 -131
849 -416 1135 -110 109 -224 188 -373 258 -369 175 -846 263 -1392 259 -133
-1 -261 -3 -286 -5z m444 -225 c7 -12 7 -34 -3 -79 -35 -169 -177 -456 -666
-1339 -279 -504 -368 -672 -483 -910 -139 -286 -202 -454 -202 -539 0 -17 -4
-31 -9 -31 -22 0 -112 116 -155 199 -212 410 -323 1352 -220 1871 55 276 155
452 317 561 180 120 465 213 787 258 190 27 202 28 429 27 171 -1 195 -3 205
-18z m1701 -800 c80 -175 117 -353 116 -563 0 -255 -55 -475 -181 -725 -102
-202 -216 -356 -386 -520 -299 -289 -605 -432 -1067 -501 -163 -24 -436 -34
-622 -24 l-140 8 80 12 c521 80 979 443 1439 1142 137 208 261 426 446 784 84
162 168 319 187 349 32 50 81 110 91 110 2 0 18 -33 37 -72z"/>
<path d="M14866 11854 c4 -14 20 -60 36 -102 16 -42 53 -163 83 -268 96 -338
122 -399 265 -619 39 -60 101 -170 137 -242 36 -73 68 -133 70 -133 10 0 -7
152 -28 249 -10 52 -39 142 -63 200 -128 310 -230 541 -276 630 -48 91 -205
310 -223 311 -4 0 -4 -12 -1 -26z"/>
<path d="M11550 11527 c-74 -73 -218 -202 -320 -287 -102 -85 -251 -220 -331
-300 -179 -179 -251 -284 -387 -560 -53 -107 -120 -227 -148 -266 -86 -117
-183 -269 -209 -329 -43 -97 -232 -668 -249 -751 -38 -189 -100 -645 -116
-854 -12 -153 -9 -225 17 -355 21 -110 32 -125 33 -43 0 112 36 280 123 588
47 162 103 376 126 475 48 205 244 811 296 914 62 125 271 475 399 669 121
185 192 275 514 652 163 190 206 249 299 405 42 72 83 140 91 153 30 47 -8 17
-138 -111z"/>
<path d="M10079 11119 c-268 -184 -533 -427 -658 -604 -67 -95 -155 -268 -216
-425 -64 -164 -173 -497 -205 -624 -37 -152 -65 -426 -42 -426 4 0 23 51 42
113 26 85 77 197 210 462 97 193 218 439 270 549 135 284 265 476 569 840 78
93 144 173 147 177 13 22 -20 4 -117 -62z"/>
<path d="M8963 10777 c-91 -74 -190 -192 -252 -302 -43 -75 -121 -280 -121
-319 0 -18 1 -18 20 -1 48 43 358 512 440 665 19 35 -6 23 -87 -43z"/>
<path d="M14057 10263 c-12 -513 -9 -667 18 -908 19 -172 25 -271 25 -453 0
-281 11 -449 50 -767 33 -264 39 -309 45 -303 18 17 125 1122 125 1280 0 75
-9 160 -25 253 -14 77 -34 199 -46 270 -11 72 -34 213 -50 315 -24 150 -120
585 -133 597 -1 2 -6 -126 -9 -284z"/>
<path d="M9449 9663 c-262 -397 -382 -786 -383 -1243 0 -91 6 -194 12 -230 20
-105 44 -204 52 -213 4 -5 11 34 14 85 11 141 41 299 102 548 30 124 77 322
104 440 37 166 137 534 196 723 14 44 -20 6 -97 -110z"/>
<path d="M14831 9403 c-68 -368 -74 -656 -20 -998 20 -124 64 -354 75 -384 9
-26 14 -5 29 120 21 166 30 638 16 804 -16 192 -64 575 -71 575 -4 0 -17 -53
-29 -117z"/>
<path d="M12736 9295 c-76 -248 -163 -632 -191 -848 -17 -130 -22 -791 -6
-815 9 -15 89 301 115 453 55 327 114 1000 104 1200 l-3 70 -19 -60z"/>
<path d="M13587 8912 c-73 -234 -104 -447 -93 -642 7 -125 44 -380 56 -380 6
0 39 201 59 365 27 218 43 756 23 769 -5 3 -25 -47 -45 -112z"/>
<path d="M11717 8791 c-137 -351 -160 -618 -86 -1019 12 -62 25 -115 30 -118
5 -3 9 -1 9 3 0 5 7 60 15 123 22 171 52 496 69 745 9 121 18 257 22 303 3 45
2 82 -3 82 -5 0 -30 -53 -56 -119z"/>
<path d="M5225 17134 c-204 -22 -349 -51 -490 -98 -135 -45 -251 -93 -244
-100 2 -3 47 2 99 9 275 40 552 38 1030 -10 135 -13 335 -29 445 -35 110 -5
223 -13 250 -16 157 -19 819 -183 969 -240 9 -3 16 -2 16 3 0 15 -246 158
-390 226 -169 81 -406 172 -524 202 -245 61 -852 92 -1161 59z"/>
<path d="M2264 15486 c-117 -22 -186 -59 -261 -140 -59 -64 -79 -99 -202 -346
-188 -380 -235 -527 -260 -816 -18 -205 12 -553 85 -989 19 -115 40 -228 45
-250 25 -92 203 -586 236 -654 72 -145 165 -220 465 -372 238 -120 331 -151
473 -157 132 -5 189 7 344 74 150 65 268 130 319 178 87 80 174 239 208 381
18 78 37 351 26 372 -7 12 -13 2 -22 -38 -72 -302 -210 -525 -374 -604 -40
-19 -142 -58 -227 -87 -139 -47 -162 -52 -239 -52 -111 1 -195 29 -405 138
-282 146 -335 189 -385 316 -63 159 -200 568 -214 636 -67 338 -110 704 -110
944 0 309 36 460 184 766 45 93 106 219 135 279 59 122 108 186 165 215 129
66 343 84 660 55 108 -9 205 -15 215 -13 25 5 -320 121 -440 148 -118 26 -326
34 -421 16z"/>
<path d="M6910 14243 c-291 -233 -551 -522 -707 -786 -105 -176 -143 -294
-183 -567 -11 -80 -30 -181 -42 -225 -38 -145 -121 -288 -255 -440 -101 -113
-113 -132 -113 -181 0 -53 28 -90 80 -105 37 -11 44 -10 102 21 66 34 279 159
411 241 43 27 80 49 82 49 2 0 -17 -44 -42 -97 -60 -131 -131 -235 -254 -373
-245 -275 -333 -396 -399 -548 -74 -172 -128 -370 -150 -551 -11 -98 -8 -123
10 -75 65 169 141 326 233 479 83 139 95 153 327 391 253 259 339 369 426 553
36 75 97 190 134 256 86 152 135 279 126 328 -8 44 -48 85 -91 93 -48 9 -95
-16 -287 -150 -92 -64 -170 -116 -172 -116 -3 0 4 21 15 47 30 71 56 183 79
340 34 234 69 358 149 518 115 231 334 580 526 838 48 65 85 120 83 122 -2 3
-42 -25 -88 -62z"/>
<path d="M20814 12265 c-4 -11 -19 -51 -34 -90 -23 -58 -29 -91 -34 -195 -3
-69 -23 -312 -43 -540 -35 -399 -36 -435 -40 -944 -3 -291 -2 -539 1 -552 3
-12 32 -49 64 -81 111 -113 356 -385 400 -445 24 -34 115 -132 202 -219 115
-115 165 -173 184 -211 31 -65 51 -197 43 -292 -6 -79 -5 -76 -194 -551 -66
-165 -132 -333 -148 -373 -15 -40 -54 -114 -86 -163 -79 -120 -183 -299 -177
-304 3 -3 85 77 184 178 l179 182 116 205 c302 530 370 707 356 919 -8 121
-32 225 -71 307 -26 56 -58 97 -142 185 -60 63 -129 132 -154 153 -25 21 -72
75 -106 120 -34 45 -144 171 -246 281 l-185 200 2 500 c2 734 -11 1420 -31
1585 -18 144 -27 180 -40 145z"/>
<path d="M20243 11419 c-6 -8 -25 -48 -43 -89 -35 -82 -63 -115 -188 -223 -61
-53 -100 -98 -149 -172 -36 -55 -91 -134 -123 -175 -67 -88 -85 -121 -144
-256 -66 -150 -70 -169 -70 -364 -1 -184 9 -247 54 -342 58 -123 229 -264 386
-317 33 -11 114 -29 179 -41 66 -11 138 -24 160 -30 88 -20 42 8 -140 89 -169
74 -255 136 -341 244 -85 107 -99 160 -91 334 3 71 11 153 17 182 17 75 113
284 154 334 89 111 199 292 291 479 52 104 53 109 60 221 8 125 6 147 -12 126z"/>
<path d="M6760 11097 c-256 -146 -538 -378 -711 -586 -196 -233 -374 -551
-468 -836 -61 -186 -92 -311 -130 -535 -53 -303 -121 -563 -202 -768 -34 -85
-36 -116 -9 -159 24 -40 83 -61 132 -47 32 10 79 61 216 240 l47 60 1 -150 c0
-122 4 -167 22 -233 43 -161 66 -193 136 -193 56 0 89 39 145 167 47 109 132
264 233 427 27 43 47 83 46 88 -6 18 -304 -290 -360 -372 -17 -25 -17 -24 -17
51 -1 141 34 298 128 559 56 159 53 216 -15 261 -69 46 -142 7 -256 -136 -65
-82 -71 -87 -64 -55 3 19 20 112 37 205 68 385 142 613 286 880 219 408 431
697 747 1022 76 79 137 145 135 148 -3 2 -38 -15 -79 -38z"/>
<path d="M7224 8331 c-232 -274 -379 -525 -421 -721 -22 -104 -24 -360 -5
-652 12 -187 12 -203 -7 -280 -21 -88 -78 -247 -166 -466 -72 -175 -73 -232
-5 -267 40 -21 92 -19 123 5 14 11 38 44 55 72 26 45 300 354 307 346 1 -2 -6
-43 -16 -93 -56 -282 -73 -425 -73 -640 0 -233 5 -276 36 -305 49 -45 106 -13
169 96 175 298 229 391 235 409 3 11 -55 -42 -131 -117 l-137 -137 6 62 c4 34
18 114 32 177 13 63 45 212 69 330 30 143 63 269 100 375 30 88 55 171 55 183
0 65 -56 122 -119 122 -45 0 -53 -5 -189 -120 -70 -60 -128 -107 -130 -106 -1
2 3 27 9 57 14 66 7 341 -17 614 -9 109 -14 228 -10 280 9 155 81 362 232 674
46 96 83 179 81 185 -2 5 -39 -32 -83 -83z"/>
<path d="M8452 5648 c-127 -161 -290 -442 -343 -593 -11 -33 -23 -98 -26 -145
-5 -82 -4 -90 45 -235 64 -189 69 -221 83 -473 11 -216 9 -246 -22 -377 -27
-115 -25 -150 10 -186 25 -24 38 -29 78 -29 27 0 58 7 69 15 12 8 49 61 82
117 33 57 90 139 126 183 36 44 101 126 144 182 l79 101 7 -171 c5 -139 19
-275 25 -246 0 4 14 80 31 170 63 350 89 447 156 581 43 85 44 120 5 159 -52
51 -109 37 -161 -41 -13 -19 -80 -107 -150 -195 -69 -88 -153 -195 -187 -237
l-60 -77 -7 112 c-15 242 -36 326 -132 532 -30 65 -37 91 -36 140 0 103 82
377 187 630 31 75 55 138 52 141 -2 3 -27 -23 -55 -58z"/>
<path d="M13500 5336 c-100 -24 -363 -96 -480 -133 -145 -45 -205 -72 -367
-166 -186 -109 -255 -141 -371 -176 -130 -39 -336 -79 -447 -87 -47 -4 -82
-11 -78 -15 18 -18 230 -31 393 -26 252 9 341 30 605 147 172 76 238 97 569
180 l279 70 216 0 c237 -1 244 -1 447 -66 129 -40 159 -55 345 -166 145 -86
224 -141 274 -188 83 -78 165 -137 323 -234 146 -89 155 -95 176 -128 10 -15
37 -105 60 -200 l43 -173 8 120 c11 171 2 267 -32 335 -23 43 -56 78 -168 175
-77 66 -169 151 -205 190 -135 144 -191 192 -321 275 -190 120 -291 168 -474
225 l-160 50 -290 2 c-208 1 -306 -2 -345 -11z"/>
<path d="M10765 4606 c-216 -43 -288 -97 -470 -354 -120 -170 -185 -281 -225
-383 -37 -96 -49 -169 -56 -339 -7 -161 6 -239 62 -362 32 -71 36 -88 31 -137
-6 -64 -39 -142 -122 -286 -31 -55 -59 -116 -62 -136 -10 -66 45 -129 112
-129 52 0 307 70 436 120 72 28 137 49 143 47 6 -3 20 -31 30 -63 26 -84 80
-188 138 -267 68 -92 90 -107 151 -107 51 0 51 0 136 89 48 49 135 128 195
175 l109 87 28 -33 c15 -18 28 -30 29 -26 1 19 -33 87 -46 92 -17 6 -70 -12
-149 -52 -33 -17 -76 -37 -95 -45 -19 -8 -70 -40 -113 -70 l-77 -56 -14 22
c-34 52 -69 145 -93 245 -14 59 -30 126 -35 150 -13 52 -62 97 -115 106 -26 5
-58 0 -102 -14 -35 -11 -68 -20 -73 -20 -5 0 -60 -20 -122 -45 -63 -25 -119
-45 -124 -45 -5 0 6 40 24 88 59 157 54 277 -18 415 l-33 62 0 170 c0 217 10
251 152 520 164 311 195 359 261 404 75 50 112 69 196 98 57 19 259 61 309 64
7 0 1 5 -13 10 -42 17 -306 20 -385 5z"/>
<path d="M15380 3663 c-54 -80 -171 -210 -231 -258 -35 -27 -121 -102 -191
-167 -145 -132 -170 -145 -262 -132 -34 4 -99 8 -146 8 -136 0 -181 -26 -385
-224 -166 -160 -236 -220 -261 -220 -7 0 -38 39 -69 88 -96 146 -139 182 -220
182 -56 0 -93 -18 -168 -83 -110 -95 -213 -230 -280 -367 -33 -69 -62 -127
-64 -129 -2 -3 -24 18 -49 47 -82 94 -344 277 -494 345 -136 62 -144 56 -37
-26 88 -68 307 -290 371 -377 25 -34 60 -88 77 -120 40 -75 68 -100 118 -107
31 -4 49 0 83 20 51 30 88 80 153 205 26 52 67 119 90 150 60 81 164 192 180
192 7 0 28 -24 45 -52 102 -167 202 -222 333 -184 76 22 158 85 327 251 204
199 184 189 365 196 138 5 154 7 203 32 76 40 120 84 232 231 55 72 120 158
145 190 63 81 90 129 136 241 21 53 39 99 39 101 0 14 -19 -1 -40 -33z"/>
<path d="M9463 3372 c-196 -196 -339 -411 -379 -572 -12 -48 -15 -91 -11 -164
6 -117 23 -149 79 -154 46 -4 71 26 99 122 24 79 57 149 100 213 16 23 29 44
29 48 0 10 -42 -15 -89 -53 -41 -33 -43 -34 -37 -11 4 13 80 169 168 347 88
177 158 325 155 328 -3 3 -54 -44 -114 -104z"/>
<path d="M14097 2152 c-10 -11 -21 -61 -32 -141 -25 -191 -48 -301 -64 -301
-5 0 -30 29 -57 64 -27 36 -61 72 -76 80 -37 22 -100 20 -131 -4 -32 -25 -41
-55 -62 -195 -9 -60 -20 -116 -25 -124 -7 -13 -52 46 -163 214 -36 53 -34 30
8 -109 65 -215 92 -256 171 -256 67 0 113 53 157 183 6 15 13 11 48 -24 84
-84 177 -92 252 -21 60 56 97 174 97 310 l0 73 22 -15 c29 -20 77 -20 106 0
24 16 55 72 66 117 9 37 -4 34 -34 -9 -28 -42 -64 -69 -80 -59 -14 9 -49 78
-71 144 -11 30 -27 63 -36 73 -21 23 -75 23 -96 0z"/>
<path d="M10901 1989 c-5 -13 -23 -54 -39 -91 -79 -173 -125 -381 -125 -568
-1 -172 22 -220 108 -220 51 0 66 15 125 125 48 90 110 184 133 204 14 11 17
7 22 -26 21 -132 61 -253 112 -336 50 -80 144 -102 206 -47 34 29 50 59 88
163 12 33 24 55 29 50 4 -4 22 -46 40 -93 64 -163 90 -200 145 -200 77 0 130
130 141 345 l5 110 -34 -95 c-42 -118 -86 -214 -94 -207 -3 3 -14 46 -23 94
-25 122 -57 202 -96 241 -28 28 -38 32 -87 32 -65 0 -106 -24 -157 -93 l-34
-46 -13 41 c-6 22 -17 82 -23 132 -21 160 -53 206 -142 206 -30 0 -65 -8 -90
-21 -59 -30 -155 -124 -190 -186 -17 -29 -32 -53 -35 -53 -13 0 7 323 27 434
20 114 21 155 1 105z"/>
</g>
</svg>
