<?xml version="1.0" standalone="no"?>
<!DOCTYPE svg PUBLIC "-//W3C//DTD SVG 20010904//EN"
 "http://www.w3.org/TR/2001/REC-SVG-20010904/DTD/svg10.dtd">
<svg version="1.0" xmlns="http://www.w3.org/2000/svg"
 width="393.000000pt" height="539.000000pt" viewBox="0 0 393.000000 539.000000"
 preserveAspectRatio="xMidYMid meet">
<metadata>
Created by potrace 1.16, written by Peter Selinger 2001-2019
</metadata>
<g transform="translate(0.000000,539.000000) scale(0.100000,-0.100000)"
fill="currentColor" stroke="none">
<path d="M1910 5381 c-36 -3 -75 -12 -87 -19 -12 -6 -47 -50 -77 -96 -30 -46
-83 -114 -118 -152 -95 -104 -125 -145 -159 -219 -29 -61 -31 -73 -26 -138 4
-50 15 -89 36 -131 28 -55 141 -205 210 -279 l26 -28 -3 -152 c-2 -84 -10
-208 -18 -277 -9 -85 -14 -233 -14 -461 1 -186 -4 -416 -11 -512 -14 -209 -9
-367 10 -391 13 -16 -10 -17 -335 -14 -192 2 -473 1 -624 -1 -183 -2 -284 0
-302 7 -36 15 -71 85 -91 182 -18 89 -42 149 -62 157 -68 25 -186 -148 -240
-353 -22 -84 -30 -235 -16 -323 23 -149 109 -297 234 -404 53 -45 87 -57 113
-39 26 16 37 99 37 274 -1 207 -4 201 113 212 68 7 721 -17 814 -30 24 -3 86
-6 136 -5 l91 0 5 -182 c3 -100 1 -245 -3 -322 -28 -475 -23 -896 17 -1395 20
-250 20 -255 50 -269 30 -13 757 -22 770 -8 18 18 27 370 29 1143 2 866 3 872
24 937 l22 66 62 5 c34 3 125 8 202 10 77 3 237 14 355 25 341 32 444 36 456
20 23 -28 44 -118 58 -247 17 -145 25 -169 60 -178 25 -6 66 10 66 26 0 6 16
27 35 49 19 21 46 64 60 95 14 31 36 74 50 96 57 90 83 314 50 439 -14 56
-106 305 -125 341 -7 13 -21 20 -40 20 -34 0 -61 -35 -82 -103 -6 -21 -33 -62
-59 -92 -45 -52 -69 -103 -69 -150 0 -20 -7 -20 -585 -20 -554 0 -585 1 -579
17 3 10 1 18 -5 18 -6 0 -3 16 6 38 25 57 24 464 -1 722 -16 159 -20 270 -20
601 l1 405 69 86 c38 47 100 137 137 199 l69 114 -4 66 c-2 47 -11 81 -31 119
-32 62 -174 252 -247 330 -28 30 -66 71 -85 91 -61 67 -193 97 -355 80z m205
-108 c55 -17 90 -50 222 -208 123 -147 193 -259 193 -311 0 -33 -107 -214
-176 -298 -49 -60 -55 -63 -105 -69 -125 -15 -369 -29 -401 -23 -40 7 -83 49
-192 186 -96 120 -120 168 -120 240 0 44 7 69 37 126 21 40 59 96 84 125 26
30 77 93 115 141 38 49 78 94 88 101 25 18 187 11 255 -10z m-47 -1018 l192 0
0 -85 c0 -131 0 -130 -80 -130 -56 0 -85 -7 -164 -39 -52 -21 -129 -60 -171
-85 -42 -25 -78 -46 -82 -46 -11 0 28 367 42 390 3 5 20 6 38 2 18 -4 119 -7
225 -7z m182 -350 l0 -105 -37 0 c-57 0 -168 -26 -227 -53 -28 -13 -88 -53
-132 -90 l-81 -65 -7 90 c-12 170 -26 147 132 208 75 29 158 63 184 76 40 20
75 30 161 43 4 0 7 -46 7 -104z m0 -445 c-6 -4 -66 -19 -132 -34 -134 -30
-205 -59 -277 -116 l-49 -39 -6 67 c-3 37 -6 104 -7 150 l-2 83 117 65 c130
71 178 93 281 127 l70 24 9 -160 c6 -121 6 -161 -4 -167z m26 -182 l7 -106
-44 -12 c-155 -40 -259 -87 -389 -176 l-83 -57 6 54 c4 30 7 100 7 156 l0 103
78 39 c42 21 132 57 198 81 67 23 139 52 160 65 l39 24 7 -32 c4 -18 10 -80
14 -139z m19 -401 c0 -289 0 -289 -81 -321 -66 -26 -298 -34 -364 -13 -38 12
-42 16 -25 22 121 47 333 153 364 181 31 29 -139 -25 -239 -76 -36 -18 -88
-47 -115 -65 -28 -17 -56 -30 -63 -27 -13 4 -16 210 -4 291 l7 44 82 34 c45
19 158 72 250 118 106 52 172 79 178 73 6 -5 10 -106 10 -261z m-107 -713
c100 -4 182 -10 182 -14 0 -4 -24 -24 -54 -46 -64 -45 -80 -77 -80 -153 0 -96
22 -429 29 -441 4 -6 16 -52 26 -103 17 -77 22 -167 33 -558 8 -256 11 -539 8
-629 l-5 -163 -155 6 c-85 4 -157 9 -160 11 -2 3 3 157 12 343 27 553 19 935
-25 1268 -5 44 -13 134 -17 200 l-8 120 -14 -75 c-10 -54 -14 -164 -14 -390
-1 -385 20 -1446 29 -1460 4 -6 -20 -10 -68 -10 -41 0 -89 -3 -106 -6 l-31 -6
0 98 c0 55 7 189 15 298 16 206 22 709 10 832 -4 38 -10 220 -14 404 -7 310
-9 338 -28 382 -25 54 -54 76 -106 80 -24 1 -37 7 -37 16 0 15 -4 15 578 -4z
m161 -144 c-4 -36 -5 -117 -2 -180 3 -63 3 -112 -1 -108 -13 11 -57 252 -51
277 5 18 52 78 61 76 1 0 -2 -29 -7 -65z m-686 43 c34 -39 37 -93 37 -701 1
-676 12 -1051 35 -1192 8 -52 15 -98 15 -102 0 -7 -107 -12 -112 -5 -1 1 -5
434 -9 962 -4 528 -11 981 -14 1008 -6 42 -5 47 12 47 11 0 27 -8 36 -17z"/>
<path d="M1901 5068 c-55 -30 -66 -61 -64 -174 1 -57 7 -114 14 -126 17 -33
70 -87 101 -104 38 -20 135 -17 184 5 76 35 117 129 95 218 -32 125 -102 184
-230 190 -50 3 -84 0 -100 -9z"/>
<path d="M2137 1970 c-21 -54 -39 -604 -27 -854 9 -189 45 -604 54 -613 9 -10
14 997 5 1157 -12 220 -23 331 -32 310z"/>
</g>
</svg>
