<?xml version="1.0" standalone="no"?>
<!DOCTYPE svg PUBLIC "-//W3C//DTD SVG 20010904//EN"
 "http://www.w3.org/TR/2001/REC-SVG-20010904/DTD/svg10.dtd">
<svg version="1.0" xmlns="http://www.w3.org/2000/svg"
 width="1009.000000pt" height="631.000000pt" viewBox="0 0 1009.000000 631.000000"
 preserveAspectRatio="xMidYMid meet">
<metadata>
Created by potrace 1.16, written by Peter Selinger 2001-2019
</metadata>
<g transform="translate(0.000000,631.000000) scale(0.100000,-0.100000)"
fill="currentColor" stroke="none">
<path d="M4970 6294 c-33 -21 -25 -7 -328 -530 -144 -249 -262 -461 -262 -472
0 -27 23 -44 55 -40 23 3 57 57 296 468 149 256 279 474 290 485 15 15 23 17
37 9 9 -6 130 -204 267 -440 138 -237 260 -447 272 -467 33 -55 93 -48 93 11
0 34 -513 918 -556 960 -29 28 -40 32 -86 32 -30 0 -64 -7 -78 -16z"/>
<path d="M4952 5507 c-6 -7 -56 -94 -110 -193 -99 -181 -210 -364 -247 -409
-17 -21 -32 -26 -91 -31 l-70 -7 -145 172 c-123 146 -148 171 -169 169 -31 -4
-37 -27 -40 -163 -1 -55 -5 -122 -8 -148 l-7 -49 -79 81 c-43 45 -82 81 -85
81 -4 0 -15 -6 -25 -13 -17 -13 -16 -23 14 -228 17 -118 36 -218 41 -224 15
-15 2179 100 2195 117 9 9 13 75 16 233 l3 220 -25 3 c-21 2 -35 -10 -89 -83
-35 -47 -66 -83 -70 -80 -3 4 -17 82 -31 173 l-25 167 -30 3 c-29 2 -36 -7
-155 -183 l-124 -185 -78 0 -78 0 -73 93 c-79 99 -191 254 -276 380 -29 44
-61 87 -72 98 -22 22 -52 25 -67 6z m106 -459 l49 -81 -40 -89 c-22 -48 -43
-88 -46 -88 -7 0 -101 154 -101 167 0 16 73 173 81 173 4 0 30 -37 57 -82z"/>
<path d="M4965 4494 c-539 -29 -993 -53 -1009 -53 l-29 -1 8 -162 c4 -90 10
-166 13 -170 9 -8 2185 106 2200 116 6 4 9 27 6 59 -2 28 -7 100 -10 160 l-6
107 -96 -1 c-54 -1 -538 -25 -1077 -55z m634 -90 c12 -15 21 -37 21 -49 0 -12
-9 -34 -21 -49 -41 -52 -129 -19 -129 48 0 69 87 103 129 50z m-1004 -49 c54
-53 12 -132 -67 -126 -57 4 -78 93 -32 130 35 28 69 26 99 -4z m479 6 c22 -24
18 -49 -9 -67 -18 -12 -24 -11 -43 2 -26 18 -29 59 -4 73 25 15 37 13 56 -8z"/>
<path d="M6258 4259 c-32 -18 -19 -60 62 -200 44 -76 80 -142 80 -147 0 -5 -8
-16 -18 -25 -17 -16 -124 -17 -1340 -17 -1187 0 -1322 2 -1336 16 -9 8 -16 21
-16 27 0 7 32 67 71 135 71 123 80 155 48 175 -38 24 -62 0 -138 -130 -65
-112 -74 -134 -75 -178 0 -61 27 -105 76 -126 28 -12 256 -14 1378 -14 1300 0
1346 1 1376 19 43 26 64 66 64 122 0 41 -11 66 -81 188 -97 168 -109 180 -151
155z"/>
<path d="M5246 3451 c-35 -68 -76 -113 -131 -142 -48 -25 -51 -32 -35 -75 9
-23 -10 -86 -149 -473 -265 -741 -269 -749 -414 -774 -42 -7 -67 -16 -67 -24
0 -10 55 -13 265 -13 208 0 265 3 265 13 0 8 -29 17 -87 24 -179 25 -182 51
-41 445 l60 168 191 -2 191 -3 77 -235 c94 -288 98 -308 67 -344 -19 -22 -35
-28 -87 -34 -37 -4 -66 -12 -69 -19 -3 -10 77 -13 377 -13 332 0 381 2 381 15
0 11 -11 15 -42 15 -103 0 -147 32 -199 143 -17 38 -132 362 -254 720 -214
628 -223 652 -248 655 -22 3 -30 -4 -51 -47z m-51 -553 c43 -134 80 -249 82
-255 4 -10 -34 -13 -171 -13 -97 0 -176 3 -176 8 -1 14 175 502 180 502 4 0
42 -109 85 -242z"/>
<path d="M6070 3446 c0 -9 22 -15 78 -20 42 -3 91 -10 107 -14 l30 -8 3 -692
2 -691 -22 -12 c-12 -7 -62 -17 -112 -23 -54 -7 -91 -16 -94 -23 -3 -10 80
-13 393 -13 313 0 396 3 393 13 -3 7 -43 16 -109 23 -58 6 -111 14 -117 18 -9
5 -12 94 -12 342 l0 334 143 0 c314 0 529 94 614 267 22 46 27 71 28 132 0
103 -19 162 -70 219 -52 58 -117 94 -215 121 -120 33 -241 41 -652 41 -320 0
-388 -2 -388 -14z m818 -55 c65 -29 125 -95 149 -164 25 -73 25 -233 0 -305
-25 -70 -101 -153 -169 -182 -56 -25 -173 -33 -230 -17 l-28 7 0 346 0 346
113 -4 c90 -3 123 -9 165 -27z"/>
<path d="M7490 3446 c0 -10 22 -16 77 -21 43 -4 88 -11 100 -16 l23 -9 0 -693
0 -694 -37 -11 c-21 -6 -66 -14 -100 -18 -43 -4 -63 -11 -63 -20 0 -20 1280
-21 1280 -1 0 6 15 121 33 255 28 202 31 242 19 240 -8 -2 -29 -38 -47 -80
-86 -205 -221 -331 -396 -373 -65 -15 -278 -21 -338 -9 l-31 7 0 354 0 355 68
-7 c189 -17 259 -42 295 -103 10 -18 24 -64 31 -104 7 -39 17 -73 24 -76 7 -2
12 2 12 10 0 7 14 136 30 286 35 319 33 292 17 292 -7 0 -20 -21 -29 -47 -29
-83 -70 -135 -127 -166 -57 -31 -173 -56 -263 -57 l-58 0 0 340 0 340 140 0
c216 0 308 -28 397 -123 64 -67 97 -125 138 -239 48 -135 60 -129 52 26 -4 69
-10 182 -13 251 l-7 125 -613 0 c-516 0 -614 -2 -614 -14z"/>
<path d="M2590 3136 c-69 -18 -137 -36 -152 -39 -40 -10 -35 -20 22 -40 35
-13 51 -24 55 -40 3 -12 4 -249 3 -527 l-3 -505 -25 -3 c-47 -5 -70 -12 -70
-22 0 -6 81 -10 215 -10 118 0 215 4 215 9 0 10 -35 21 -71 21 -48 0 -49 5
-49 302 l0 278 32 20 c18 11 56 25 84 31 65 15 127 -3 158 -44 20 -27 21 -40
21 -305 l0 -277 -25 -3 c-47 -5 -70 -12 -70 -22 0 -6 81 -10 215 -10 195 0
246 6 199 24 -9 3 -27 6 -40 6 -14 0 -34 5 -45 10 -18 10 -19 24 -19 304 0
195 -4 304 -12 327 -29 87 -90 129 -187 129 -79 0 -149 -27 -231 -89 l-65 -49
-3 279 c-2 214 -5 279 -15 278 -6 0 -68 -15 -137 -33z"/>
<path d="M1281 2933 c-12 -82 -25 -158 -28 -170 -9 -41 21 -25 47 24 86 161
231 273 357 273 l33 0 0 -524 c0 -444 -2 -525 -14 -536 -8 -6 -45 -15 -82 -18
-40 -4 -69 -12 -72 -19 -3 -10 59 -13 287 -13 264 0 324 5 275 24 -9 3 -30 6
-47 6 -18 0 -49 3 -69 6 l-38 7 0 535 0 535 55 -6 c111 -11 206 -78 285 -199
20 -31 43 -70 50 -87 7 -17 16 -31 21 -31 13 0 11 55 -6 205 -8 72 -15 131
-15 133 0 1 -229 2 -508 2 l-508 0 -23 -147z"/>
<path d="M3710 2749 c-117 -23 -229 -112 -281 -223 -102 -217 -25 -473 169
-564 51 -24 69 -27 167 -27 101 0 114 2 163 28 67 35 129 96 170 168 36 63 37
69 19 69 -7 0 -27 -20 -44 -43 -55 -78 -164 -113 -264 -83 -73 21 -122 64
-160 141 -27 56 -33 79 -37 161 l-5 97 252 -5 251 -5 0 49 c0 172 -182 280
-400 237z m126 -44 c31 -20 57 -82 62 -147 l4 -58 -141 0 c-77 0 -141 4 -141
8 0 29 35 115 60 151 48 66 100 81 156 46z"/>
<path d="M455 1569 c-217 -32 -369 -169 -405 -368 -24 -135 16 -258 112 -346
66 -61 142 -103 285 -156 171 -64 232 -97 298 -164 68 -67 85 -107 85 -202 0
-88 -25 -149 -85 -209 -65 -65 -128 -88 -240 -87 -136 1 -245 54 -324 157 -21
28 -67 104 -101 169 -34 64 -67 117 -72 117 -11 0 -7 -125 9 -322 l6 -76 67
-21 c108 -34 206 -50 345 -57 217 -10 347 32 476 153 121 115 175 264 151 421
-31 197 -127 287 -432 407 -197 77 -278 126 -319 190 -74 117 -34 261 91 331
48 26 62 29 148 29 86 0 101 -3 155 -30 l60 -30 100 -174 c55 -96 106 -176
114 -179 12 -4 13 29 9 207 -3 117 -8 214 -10 217 -3 2 -25 -3 -50 -12 -42
-14 -51 -14 -125 5 -72 19 -237 42 -273 40 -8 -1 -42 -5 -75 -10z"/>
<path d="M2010 1570 c-212 -26 -387 -115 -535 -272 -163 -173 -233 -377 -207
-604 41 -367 277 -616 644 -680 120 -21 291 -14 398 16 237 67 433 226 535
435 53 109 75 205 75 324 0 336 -183 611 -486 730 -110 43 -302 66 -424 51z
m164 -45 c193 -41 316 -197 378 -480 21 -96 17 -458 -5 -565 -66 -309 -218
-449 -471 -438 -80 3 -102 8 -158 36 -191 94 -290 304 -305 642 -19 473 121
764 389 809 77 13 95 12 172 -4z"/>
<path d="M3785 1569 c-156 -21 -329 -87 -437 -165 -87 -64 -176 -171 -223
-269 -61 -124 -78 -203 -79 -355 0 -149 17 -229 74 -345 73 -150 181 -255 345
-335 125 -62 236 -89 390 -97 139 -6 295 13 428 53 45 13 107 30 138 36 l55
12 38 200 c21 111 40 209 42 219 4 10 0 17 -9 17 -8 0 -33 -36 -57 -82 -163
-317 -318 -428 -581 -416 -83 3 -103 8 -170 41 -60 29 -92 53 -145 110 -146
156 -213 376 -201 651 22 484 287 753 673 683 157 -29 152 -24 292 -271 68
-119 128 -216 134 -216 8 0 9 71 5 247 -4 135 -8 248 -10 250 -2 1 -37 -9 -79
-22 l-75 -26 -49 21 c-125 54 -345 80 -499 59z"/>
<path d="M4696 1530 c6 -6 50 -15 99 -21 49 -5 95 -15 102 -21 20 -16 19
-1380 -1 -1397 -12 -10 -65 -22 -173 -37 -18 -3 -33 -9 -33 -14 0 -6 144 -10
375 -10 231 0 375 4 375 10 0 9 -20 14 -115 25 -27 4 -60 9 -72 12 l-23 5 0
699 c0 686 0 698 20 709 16 9 135 29 178 30 6 0 12 5 12 10 0 6 -132 10 -377
10 -257 0 -374 -3 -367 -10z"/>
<path d="M5540 1530 c0 -5 3 -10 8 -10 39 0 179 -24 189 -32 10 -8 13 -151 13
-698 0 -588 -2 -689 -15 -700 -7 -6 -45 -16 -82 -22 -104 -16 -113 -18 -113
-28 0 -7 230 -10 645 -10 355 0 645 3 645 6 0 13 61 461 65 481 8 37 -24 28
-37 -9 -34 -98 -106 -216 -173 -284 -126 -127 -252 -168 -487 -157 l-128 6 0
359 0 359 83 -6 c102 -8 190 -29 233 -56 42 -25 71 -87 80 -166 4 -38 11 -63
18 -63 9 0 21 81 40 258 15 141 30 274 33 295 4 29 2 37 -9 37 -10 0 -24 -24
-38 -62 -29 -79 -96 -148 -166 -171 -56 -19 -168 -37 -231 -37 l-43 0 0 345 0
345 128 0 c210 0 316 -33 407 -125 58 -58 106 -143 144 -257 15 -45 33 -84 41
-86 13 -5 13 38 -7 386 l-6 112 -618 0 c-406 0 -619 -3 -619 -10z"/>
<path d="M7105 1528 c-4 -16 -65 -411 -65 -427 0 -28 29 -6 55 42 78 146 204
279 313 330 47 22 85 31 138 35 l74 5 0 -710 0 -710 -25 -11 c-14 -7 -51 -14
-83 -17 -94 -10 -122 -15 -122 -25 0 -6 150 -10 393 -10 327 1 389 3 375 14
-10 7 -54 16 -98 19 -135 11 -120 -82 -120 739 l0 711 83 -5 c62 -3 96 -11
140 -32 106 -51 224 -180 296 -323 57 -114 61 -91 31 187 -11 102 -20 188 -20
193 0 4 -306 7 -680 7 -536 0 -681 -3 -685 -12z"/>
<path d="M8546 1531 c5 -4 35 -13 67 -19 69 -14 106 -38 146 -96 16 -23 113
-190 215 -370 l186 -328 0 -312 0 -313 -27 -12 c-16 -7 -61 -15 -101 -18 -39
-3 -80 -12 -90 -19 -14 -11 47 -13 371 -14 246 0 387 4 387 10 0 12 -24 17
-114 25 -116 10 -106 -25 -106 366 l0 339 136 253 c227 420 267 469 402 489
40 6 72 14 72 19 0 5 -126 9 -282 9 -288 0 -336 -8 -188 -31 126 -19 151 -42
130 -121 -15 -55 -277 -568 -291 -568 -8 0 -326 568 -342 610 -17 45 11 68 99
82 38 6 73 15 79 19 5 5 -161 9 -375 9 -215 0 -380 -4 -374 -9z"/>
</g>
</svg>
