<?xml version="1.0" encoding="UTF-8" standalone="no"?>
<svg
   version="1.0"
   width="478.000000pt"
   height="650.000000pt"
   viewBox="0 0 478.000000 650.000000"
   preserveAspectRatio="xMidYMid meet"
   id="svg54"
   xmlns="http://www.w3.org/2000/svg"
   xmlns:svg="http://www.w3.org/2000/svg">
  <defs
     id="defs54" />
  <metadata
     id="metadata1">
Created by potrace 1.16, written by Peter Selinger 2001-2019
</metadata>
  <path
     style="fill:currentColor;stroke-width:1.00381"
     d="m 308.16961,817.44554 c -2.48443,-0.16979 -11.74458,-0.78741 -20.57811,-1.37249 -8.83352,-0.58508 -17.58409,-1.33129 -19.44571,-1.65823 l -3.38476,-0.59442 0.62209,-5.29303 c 2.25164,-19.158 2.7327,-27.8126 2.79329,-50.25421 0.0543,-20.11252 -0.25103,-26.29797 -1.51236,-30.63677 -3.09186,-10.6356 -10.17509,-14.6154 -27.75732,-15.59573 -11.74567,-0.65491 -16.14302,0.64115 -20.48088,6.03645 l -3.10865,3.86644 0.098,14.20214 c 0.10735,15.54965 5.12599,62.56371 7.98932,74.84309 l 0.5643,2.41999 -26.91155,-0.68132 c -26.53207,-0.67171 -55.14002,-2.07384 -65.17404,-3.19431 l -5.13676,-0.57361 -0.62642,-5.21442 c -0.34453,-2.86794 -0.65354,-17.18485 -0.68669,-31.81538 -0.0773,-34.10478 -0.6505,-39.62743 -4.45263,-42.89789 -2.66841,-2.29526 -3.47528,-2.43385 -12.308,-2.11397 -9.43646,0.34175 -9.458083,0.34854 -12.826921,4.02595 -6.07487,6.63131 -7.907421,18.79216 -7.967585,52.87305 l -0.04491,25.43858 -22.371976,-0.34333 C 47.616937,808.63827 42.913296,808.28364 42.219196,807.1598 40.423084,804.25164 40.115329,794.86918 41.113,773.43544 c 0.565362,-12.1461 1.032223,-70.20206 1.037471,-129.01324 l 0.0095,-106.92944 30.034342,0.39077 c 32.704797,0.42551 53.857527,-0.59207 90.924737,-4.37407 80.15762,-8.17855 188.54574,-16.78682 192.45881,-15.28524 1.7374,0.66671 1.91412,-2.53558 -2.36776,42.90545 -3.89608,41.34674 -4.49578,66.98818 -2.96985,126.98194 1.29577,50.945 0.24495,119.51829 -1.92511,125.62662 -0.65155,1.83399 -2.04526,3.40906 -3.3187,3.75057 -2.17299,0.58274 -28.1125,0.55227 -36.82687,-0.0433 z M 161.33917,764.81036 c -0.26882,-17.63858 -0.87303,-30.45614 -1.48743,-31.55401 -0.79584,-1.42209 -1.19788,0.33729 -1.74153,7.62128 -0.96063,12.87058 -0.24262,58.29508 0.9508,60.1525 2.06521,3.21426 2.7204,-7.20249 2.27816,-36.21977 z m 141.36366,7.06489 c 0.39021,-10.25041 0.33931,-25.38557 -0.11312,-33.6337 l -0.82259,-14.9966 -1.38274,10.0381 c -1.58162,11.48193 -2.23805,59.13435 -0.85732,62.23621 0.78806,1.77041 0.98656,1.59322 1.67997,-1.49963 0.43247,-1.92899 1.10559,-11.89396 1.4958,-22.14438 z m -236.468527,8.0756 c 2.430993,-23.96255 2.443072,-143.90287 0.01404,-139.43987 -3.716459,6.82848 -5.610551,154.49868 -1.934527,150.82266 0.468684,-0.46868 1.332901,-5.59094 1.920482,-11.38279 z m 10.617311,-69.80106 c 0.732268,-10.23684 -1.054553,-8.01822 -2.057861,2.55516 -0.516978,5.44819 -0.410272,7.23857 0.38615,6.47913 0.605294,-0.5772 1.357564,-4.64263 1.671711,-9.03429 z m 76.787766,-8.59264 c 2.84589,-0.61032 6.09415,-2.0295 7.21835,-3.1537 1.89285,-1.89285 1.99491,-2.83147 1.38011,-12.69268 -0.65031,-10.43052 -3.1122,-30.00302 -4.20826,-33.4564 -0.5811,-1.83091 -7.75825,-4.41937 -15.1367,-5.45913 -3.60271,-0.50767 -4.32691,-0.28491 -5.36214,1.64944 -0.67756,1.26604 -1.58143,9.92126 -2.08317,19.94785 -0.48745,9.7413 -1.08714,19.1301 -1.33264,20.864 -0.61884,4.37072 0.94168,10.59304 3.04179,12.12868 2.15555,1.57617 9.57411,1.65356 16.48266,0.17194 z m -41.822,-1.55159 2.90401,-0.5727 -0.62526,-16.70253 c -0.60695,-16.21344 -1.83099,-25.798 -3.50896,-27.47596 -0.78868,-0.78869 -12.32007,-3.00635 -12.854328,-2.4721 -0.144226,0.14423 -0.977152,10.12911 -1.850946,22.18862 -1.463114,20.19289 -1.45988,22.12301 0.04091,24.41351 1.515518,2.31297 2.027375,2.44184 7.310094,1.84049 3.12425,-0.35565 6.98727,-0.90434 8.58448,-1.21933 z m 83.42362,-0.53823 c 8.51859,-1.56967 9.54297,-2.72922 9.50437,-10.75844 -0.0175,-3.64107 -0.6863,-11.13728 -1.4862,-16.65824 -0.7999,-5.52095 -1.46315,-12.32326 -1.47389,-15.11624 -0.0302,-7.86398 -1.18686,-8.77063 -11.83877,-9.27991 -8.70476,-0.41618 -9.11582,-0.33921 -10.37891,1.94331 -1.48533,2.68411 -1.99545,42.37309 -0.60847,47.34059 1.27481,4.56577 3.41986,4.89894 16.28187,2.52893 z m 46.85649,-0.20506 c 9.36411,-1.60033 14.26299,-3.58344 15.25808,-6.17658 0.34295,-0.89372 0.62355,-4.14646 0.62355,-7.22831 0,-7.8164 -3.99123,-38.68586 -5.15958,-39.90578 -1.08312,-1.13094 -17.75752,-2.0181 -21.28598,-1.13251 -2.47572,0.62137 -2.43987,0.12254 -3.03857,42.28871 -0.15508,10.92372 0.73055,14.88179 3.16756,14.15631 0.94777,-0.28215 5.64349,-1.18298 10.43494,-2.00184 z m 46.72576,-3.63365 c 7.86666,-4.84118 8.15734,-5.15304 7.71941,-8.28143 -0.25029,-1.78796 -1.36881,-11.55881 -2.48559,-21.71302 -1.11677,-10.15421 -2.45421,-19.25391 -2.97208,-20.22157 -1.26494,-2.36355 -6.23341,-3.97814 -12.24165,-3.97814 -9.08957,0 -8.82614,-0.64218 -8.76438,21.36627 0.0607,21.63355 1.06941,34.07802 2.94548,36.33854 2.35893,2.84234 7.23684,1.75843 15.79881,-3.51065 z m 39.36765,1.04338 c 2.1342,-1.08879 4.8699,-3.23444 6.07932,-4.7681 2.10538,-2.66982 2.17105,-3.38652 1.54313,-16.84182 -0.75066,-16.08559 -2.21581,-32.59644 -3.09614,-34.89054 -0.33023,-0.86058 -1.98706,-2.13907 -3.68183,-2.84106 -3.25307,-1.34746 -12.21488,-1.86652 -13.3126,-0.77105 -1.67964,1.67621 -4.68916,50.46303 -3.45145,55.95088 0.44384,1.96791 1.59571,4.15476 2.55972,4.85966 2.58543,1.89051 8.93639,1.55872 13.35985,-0.69797 z M 110.45193,611.80508 c 4.53096,-2.34305 6.39499,-6.85251 6.17997,-14.95056 -0.19363,-7.29239 -2.62594,-23.03868 -4.19708,-27.17111 -1.71655,-4.51486 -13.921637,-5.86026 -15.573343,-1.71668 -2.259566,5.66849 -1.043342,40.77648 1.519575,43.86461 1.616836,1.94816 8.280798,1.93367 12.070878,-0.0263 z m 41.53193,-7.89291 c 3.81333,-0.8338 7.33251,-2.10546 7.82037,-2.82591 1.92598,-2.84415 -1.83531,-33.38287 -4.82322,-39.16086 -1.60992,-3.11323 -6.649,-5.81478 -10.84609,-5.81478 -1.36718,0 -3.646,1.01636 -5.06402,2.25858 -2.34115,2.05088 -2.61342,3.08933 -2.96079,11.29286 -0.2104,4.96885 -0.72294,14.09378 -1.13898,20.27761 -0.66138,9.83049 -0.53596,11.5798 0.99807,13.92102 1.95329,2.9811 2.60662,2.9832 16.01466,0.0515 z m 45.76967,-3.29933 5.83051,-3.77518 -0.46989,-5.55732 c -1.47292,-17.41997 -5.88376,-43.15883 -7.85899,-45.86013 -0.78543,-1.07413 -3.14697,-1.82439 -6.63944,-2.10934 -4.87117,-0.39743 -5.67473,-0.17022 -7.92996,2.24226 -2.49497,2.66893 -2.51138,2.81152 -2.82952,24.57685 -0.34829,23.82805 0.31964,28.73346 4.47874,32.89256 3.32229,3.32229 7.5979,2.65407 15.41855,-2.4097 z m -126.769067,1.07002 c 7.224496,-2.41684 9.32032,-4.80503 9.32032,-10.62048 0,-8.86292 -2.918646,-25.3105 -4.732687,-26.67033 -2.960159,-2.21896 -8.846741,-1.52391 -12.397445,1.46381 l -3.230831,2.71856 0.691678,15.50455 c 0.380424,8.52751 1.137961,16.33844 1.683417,17.35763 1.213647,2.26773 2.512569,2.30464 8.665548,0.24626 z M 245.5766,598.6604 c 6.6221,-3.13275 9.38199,-7.05295 9.38733,-13.3339 0.003,-3.75835 -4.11943,-33.95365 -5.61107,-41.09709 -0.26933,-1.28976 -1.62734,-3.48269 -3.01782,-4.87316 -2.24228,-2.24228 -3.06054,-2.45136 -7.23679,-1.84913 -10.23979,1.47661 -9.23062,-0.82623 -9.19,20.9709 0.04,21.45686 1.18277,37.44644 2.90649,40.66725 1.56936,2.93236 5.88502,2.7684 12.76186,-0.48487 z m 41.2247,-0.89168 c 4.00289,-1.80861 5.40144,-3.03007 5.95088,-5.19735 0.73018,-2.88023 -3.05677,-45.92055 -4.66955,-53.07139 -1.27719,-5.66288 -3.25174,-6.76193 -11.03113,-6.14 -11.20878,0.89611 -10.18737,-2.52999 -9.84,33.00633 l 0.30381,31.08033 2.47116,1.99981 c 3.05188,2.46976 8.93447,1.88281 16.81483,-1.67773 z m 49.47498,-5.87562 c 7.113,-3.63076 7.24473,-4.19957 6.54354,-28.2539 -0.74347,-25.50502 -1.56995,-32.4519 -4.07919,-34.28669 -2.74529,-2.00741 -11.42624,-1.69126 -15.10164,0.54998 l -3.10111,1.89103 -0.65952,14.41713 c -0.36272,7.92941 -0.66116,21.04712 -0.66317,29.15046 -0.004,14.72294 -0.002,14.7348 2.64122,16.81381 3.47245,2.73143 8.71748,2.62892 14.41987,-0.28182 z"
     id="path55"
     transform="scale(0.75)" />
  <path
     style="fill:currentColor;stroke-width:0.501905"
     d="m 233.92485,692.92449 c -1.08001,-1.30133 -1.1395,-4.00547 -0.29922,-13.60247 0.45892,-5.24146 0.82961,-14.12084 0.82376,-19.73194 l -0.0106,-10.20201 6.72748,0.16391 c 4.11483,0.10025 6.94701,0.384 7.29276,0.73063 0.99065,0.99317 1.41734,4.16199 2.22151,16.49804 0.43189,6.62515 1.0161,14.04613 1.29824,16.49106 0.28215,2.44494 0.38789,4.83953 0.23498,5.32131 -0.96928,3.05392 -16.32991,6.69188 -18.28887,4.33147 z"
     id="path56"
     transform="scale(0.75)" />
  <path
     style="fill:currentColor;stroke-width:0.501905"
     d="m 182.99869,696.23005 c -1.22252,-1.97809 -1.67052,-29.32487 -0.63456,-38.73464 l 0.5802,-5.27 6.85707,-0.13935 6.85707,-0.13935 0.30428,3.65268 c 0.16735,2.00898 0.86896,10.42841 1.55915,18.70984 0.69018,8.28143 1.30715,15.83769 1.37104,16.7917 l 0.11616,1.73455 -6.02286,1.64222 c -7.14904,1.94929 -10.53234,2.48888 -10.98755,1.75235 z"
     id="path57"
     transform="scale(0.75)" />
  <path
     style="fill:currentColor;stroke-width:0.501905"
     d="m 139.22902,695.21139 c -0.41315,-3.73231 0.55942,-31.43957 1.30221,-37.09811 0.64404,-4.9063 1.08968,-5.64118 3.40766,-5.61941 2.47313,0.0232 9.679,1.32127 10.18727,1.8351 0.56826,0.57449 1.92306,18.14052 2.30494,29.88531 l 0.32207,9.90504 -1.96157,0.82042 c -2.33963,0.97855 -10.14408,2.97078 -13.0946,3.34263 l -2.09876,0.26451 z"
     id="path58"
     transform="scale(0.75)" />
  <path
     style="fill:currentColor;stroke-width:0.501905"
     d="m 99.377169,689.68454 c 0,-12.80054 1.800861,-30.42964 3.214031,-31.46298 1.35635,-0.99179 3.34688,-0.26032 4.08247,1.5002 0.36761,0.87981 1.25015,8.50702 1.9811,17.12133 0.725,8.54409 1.43314,16.00346 1.57366,16.57637 0.22759,0.92795 -0.17269,1.15619 -3.6667,2.09079 -2.1572,0.57701 -4.65621,1.19903 -5.55337,1.38226 l -1.631191,0.33315 z"
     id="path59"
     transform="scale(0.75)" />
  <path
     style="fill:currentColor;stroke-width:0.501905"
     d="m 65.296839,598.651 c -1.267529,-3.33385 -2.554315,-24.74196 -1.628313,-27.09004 0.586651,-1.48758 4.079246,-4.26098 5.960556,-4.73316 1.599651,-0.40148 2.916889,0.8865 3.571877,3.49255 0.755745,3.00694 3.155617,18.66739 3.255275,21.24241 0.110941,2.86658 -1.409945,4.39533 -5.399616,5.42755 -1.635895,0.42325 -3.492307,1.25613 -4.12536,1.85085 l -1.151005,1.08132 z"
     id="path60"
     transform="scale(0.75)" />
  <path
     style="fill:currentColor;stroke-width:0.501905"
     d="m 100.38098,590.0429 v -19.37703 h 2.18368 c 3.03806,0 5.29905,0.88115 5.6021,2.18325 0.72678,3.12267 2.34216,18.01445 2.59426,23.9158 0.23625,5.5301 0.14332,7.12302 -0.50548,8.66492 -0.87059,2.06895 -0.73599,1.99621 -5.25409,2.8396 -1.73748,0.32434 -3.48787,0.71588 -3.88976,0.8701 -0.6319,0.24248 -0.73071,-2.33983 -0.73071,-19.09664 z"
     id="path61"
     transform="scale(0.75)" />
  <path
     style="fill:currentColor;stroke-width:0.501905"
     d="m 139.72279,600.36138 c -0.60611,-1.32101 -0.83965,-29.09856 -0.28333,-33.70021 0.29415,-2.43312 0.81496,-4.46384 1.25859,-4.90747 1.02489,-1.02489 5.77367,-0.94939 8.04387,0.12788 2.0195,0.95832 2.50553,2.04507 3.28655,7.34868 1.86826,12.68643 3.57731,26.26904 3.3725,26.80276 -0.24524,0.63908 -5.25382,2.43124 -11.69325,4.18405 -3.33258,0.90713 -3.62999,0.9179 -3.98493,0.14431 z"
     id="path62"
     transform="scale(0.75)" />
  <path
     style="fill:currentColor;stroke-width:0.501905"
     d="m 184.77072,598.41757 c -0.90228,-0.90228 -1.87627,-2.75724 -2.48845,-4.73922 -1.30363,-4.22068 -1.91973,-8.21434 -1.19844,-7.76856 1.04247,0.64428 1.18688,-1.89898 0.8314,-14.64167 -0.40624,-14.56206 0.0377,-19.25972 2.03999,-21.58755 1.00056,-1.16321 1.54531,-1.34947 3.94678,-1.34947 1.8074,0 3.05049,0.26448 3.53896,0.75295 1.25133,1.25133 4.48687,23.76461 5.55416,38.64658 0.25413,3.54345 0.15272,4.55888 -0.5986,5.99387 -1.09124,2.08421 -5.94586,5.49449 -8.38501,5.89031 -1.48252,0.24058 -1.9907,0.0528 -3.24079,-1.19724 z"
     id="path63"
     transform="scale(0.75)" />
  <path
     style="fill:currentColor;stroke-width:0.501905"
     d="m 235.70218,595.85468 c -0.94881,-1.53521 -2.59771,-35.19297 -2.21453,-45.20355 0.28286,-7.3898 0.5621,-7.69361 6.87764,-7.48296 l 4.31335,0.14388 0.61924,6.27381 c 0.34058,3.4506 1.41341,11.98392 2.38405,18.96294 2.5625,18.42463 2.40901,20.9362 -1.4598,23.88709 -3.73204,2.84656 -9.67914,4.77925 -10.51995,3.41879 z"
     id="path64"
     transform="scale(0.75)" />
  <path
     style="fill:currentColor;stroke-width:0.501905"
     d="m 272.56371,595.04362 c -0.3663,-0.44136 -0.84935,-2.54965 -1.07347,-4.68511 -0.42246,-4.02545 -0.63687,-50.30884 -0.23305,-50.30884 0.1257,0 2.27721,-0.58766 4.78114,-1.3059 5.36424,-1.53872 6.74435,-1.36732 7.48214,0.92924 0.92885,2.89132 3.55996,34.21135 3.72272,44.31425 0.12484,7.74951 -0.14993,8.24229 -5.54562,9.94553 -5.64584,1.78221 -8.30797,2.10596 -9.13386,1.11083 z"
     id="path65"
     transform="scale(0.75)" />
  <path
     style="fill:currentColor;stroke-width:0.501905"
     d="m 325.30556,588.06737 c -2.14627,-2.58611 -2.05705,-46.00406 0.10518,-51.179 1.09037,-2.60961 2.52722,-3.36347 6.41079,-3.36347 h 3.35238 l 0.28802,2.88596 c 0.59092,5.92108 1.44348,40.17868 1.093,43.91888 -0.34478,3.67925 -0.4614,3.96539 -2.20349,5.40634 -1.72551,1.42724 -5.72934,2.99836 -7.64099,2.99836 -0.4682,0 -1.10039,-0.30018 -1.40489,-0.66707 z"
     id="path66"
     transform="scale(0.75)" />
  <path
     style="fill:currentColor;stroke-width:0.501905"
     d="m 276.10094,693.50709 c -0.92817,-3.41884 -1.53152,-13.06368 -1.84461,-29.48691 -0.19484,-10.22082 -0.11883,-15.5583 0.22872,-16.06096 0.39563,-0.5722 1.83857,-0.79332 6.01313,-0.92148 4.97771,-0.15281 5.51821,-0.0822 5.76598,0.75286 0.34093,1.14905 1.68019,17.32076 2.50101,30.19998 l 0.61848,9.70421 -1.2725,0.88739 c -2.04255,1.4244 -11.00408,7.058 -11.22736,7.058 -0.11206,0 -0.46434,-0.95989 -0.78285,-2.13309 z"
     id="path67"
     transform="scale(0.75)" />
  <path
     style="fill:currentColor;stroke-width:0.501905"
     d="m 319.32463,692.75486 c -1.66602,-0.29064 -2.46567,-1.94484 -2.79628,-5.78459 -0.36758,-4.26895 0.40521,-19.84388 1.69537,-34.16878 0.54329,-6.03225 0.98779,-11.09033 0.98779,-11.24018 0,-0.57579 7.22999,0.36327 7.89174,1.02502 1.33389,1.33389 1.51289,3.86938 2.83312,40.1313 l 0.1965,5.39698 -2.32377,1.6865 c -3.67623,2.66805 -5.82805,3.41718 -8.48447,2.95375 z"
     id="path68"
     transform="scale(0.75)" />
  <path
     style="fill:currentColor;stroke-width:0.501905"
     d="m 453.97298,856.22229 c -5.43711,-1.12103 -14.46624,-2.08734 -34.88239,-3.73316 -12.28412,-0.99028 -30.80442,-2.57272 -41.1562,-3.51655 -10.35179,-0.94383 -22.92794,-2.07949 -27.947,-2.5237 -12.11794,-1.07249 -11.9214,-1.01096 -12.08855,-3.78418 -0.0738,-1.22372 0.15924,-4.3706 0.51776,-6.99305 l 0.65187,-4.7681 14.53938,-0.32028 c 14.29851,-0.31498 16.04279,-0.47846 26.0832,-2.44458 7.28314,-1.42618 21.88636,-3.30021 35.13335,-4.50865 15.92004,-1.45228 29.22496,-2.94531 31.62,-3.54828 1.1042,-0.27798 5.20896,-0.64316 9.1217,-0.81149 l 7.11409,-0.30607 -0.21638,1.95444 c -0.11901,1.07494 -0.55645,7.03622 -0.9721,13.2473 -0.81882,12.23566 -1.4983,18.39865 -2.31027,20.95453 -0.56629,1.78253 -1.22801,1.92251 -5.20846,1.10182 z"
     id="path69"
     transform="scale(0.75)" />
  <path
     style="fill:currentColor;stroke-width:0.501905"
     d="m 482.1087,847.94664 c -0.19375,-1.03276 -0.21104,-3.59602 -0.0384,-5.69613 0.59949,-7.29371 1.76495,-19.89249 2.05286,-22.19163 l 0.28955,-2.31229 12.88682,-0.34087 c 24.39978,-0.64539 32.52326,-1.46415 50.58441,-5.09838 6.10313,-1.22806 11.86249,-2.22782 12.79857,-2.22168 l 1.70196,0.0112 -1.25477,0.98994 c -1.87097,1.4761 -75.28278,38.06173 -77.10269,38.42502 -1.4897,0.29738 -1.58318,0.22111 -1.91828,-1.56514 z"
     id="path70"
     transform="scale(0.75)" />
  <path
     style="fill:currentColor;stroke-width:0.501905"
     d="m 358.58504,813.46236 c 0.82986,-3.83974 3.48105,-29.01274 4.34773,-41.28168 0.83609,-11.83575 0.82959,-51.22834 -0.0174,-105.65098 -0.90254,-57.9898 -0.51002,-75.94852 2.44629,-111.92479 2.4523,-29.84284 2.98532,-34.87236 3.81557,-36.00344 0.5234,-0.71304 1.29654,-0.86615 3.95003,-0.78226 5.99447,0.18951 25.68661,3.80962 27.62947,5.07927 0.28394,0.18556 2.09725,0.36711 4.02959,0.40345 4.02283,0.0757 10.59127,1.16908 40.40334,6.72574 34.25548,6.38486 36.93245,6.75779 75.53669,10.52313 14.07843,1.37317 33.95387,3.51152 44.16763,4.75189 10.21376,1.24038 23.35949,2.80465 29.21273,3.47617 5.85323,0.67152 10.83934,1.34276 11.08024,1.49164 0.2409,0.14889 0.71221,16.14808 1.04736,35.55376 1.12826,65.32881 1.67512,79.32827 3.63294,93.00211 1.04631,7.30767 0.97804,9.70914 -0.39958,14.05334 -1.36233,4.29599 -3.14033,7.29533 -6.0154,10.14751 -3.42398,3.39673 -5.43219,7.53364 -6.69462,13.79096 -2.12647,10.5399 -2.59761,33.31115 -1.15845,55.98934 0.93778,14.77728 0.67707,19.44222 -1.18703,21.23996 -1.52276,1.46855 -23.90559,5.59924 -43.06962,7.94838 -8.02516,0.98373 -26.22799,2.34511 -26.58484,1.98826 -0.59771,-0.59771 -1.31193,-31.0063 -1.17727,-50.12297 0.15293,-21.70835 0.12868,-22.38354 -0.86423,-24.07367 -0.56187,-0.9564 -1.7262,-2.15043 -2.5874,-2.65341 -3.32617,-1.94258 -22.35997,-3.31622 -27.1116,-1.95659 -3.78957,1.08434 -6.18363,3.39001 -8.6933,8.37233 -4.46114,8.85647 -5.13097,14.05839 -5.20059,40.38754 -0.0495,18.73896 -0.15367,21.26542 -1.03764,25.17772 l -0.98257,4.34867 -5.5422,0.30159 c -43.21611,2.35168 -64.78983,4.32054 -96.88889,8.84228 -16.78644,2.36467 -16.40896,2.34461 -16.08696,0.85475 z m 42.13467,-20.5781 c 0.6861,-4.66718 1.29254,-19.90372 1.30346,-32.7493 0.0112,-13.1689 -0.84867,-30.86715 -1.49968,-30.86715 -0.59787,0 -2.07585,21.23877 -2.35757,33.87858 -0.25663,11.514 0.35731,27.89347 1.15226,30.74168 0.48804,1.74857 1.05679,1.34122 1.40153,-1.00381 z m 27.33461,-6.14834 c 0,-1.10419 -0.1941,-2.45933 -0.43135,-3.01143 -0.28824,-0.67076 -0.43135,0.32838 -0.43135,3.01143 0,2.68306 0.14311,3.6822 0.43135,3.01143 0.23725,-0.55209 0.43135,-1.90724 0.43135,-3.01143 z m 127.93793,-25.76046 c 0.16374,-16.31285 0.0739,-24.42427 -0.27426,-24.77247 -0.3557,-0.3557 -0.75949,-0.1475 -1.29024,0.66522 -0.60458,0.92578 -0.84437,3.52879 -1.10305,11.97389 -0.32615,10.64732 0.4394,37.19037 1.10363,38.26512 1.01292,1.63894 1.34004,-3.82683 1.56392,-26.13176 z M 427.45857,707.93918 c 3.1919,-0.94789 6.84016,-4.11131 8.4851,-7.35744 1.79788,-3.54794 2.20608,-7.72595 2.54234,-26.02156 0.30405,-16.54234 -0.20489,-27.62934 -1.35267,-29.46724 -1.58528,-2.53842 -6.94254,-4.64584 -12.77275,-5.02448 -4.74008,-0.30785 -6.00498,0.36311 -6.83312,3.62457 -0.30177,1.18847 -0.62656,14.85798 -0.79601,33.50215 l -0.28623,31.49453 h 4.24301 c 2.33366,0 5.38031,-0.33774 6.77033,-0.75053 z m 28.46925,-3.25313 c 5.56126,-0.91073 8.44169,-2.00859 10.39514,-3.96204 1.56785,-1.56784 1.91262,-2.31686 2.22787,-4.84004 0.37458,-2.99806 -0.87481,-30.06009 -1.83025,-39.64332 -0.87222,-8.74857 -1.26785,-9.41541 -6.69372,-11.28218 -2.7747,-0.95464 -3.08611,-0.966 -5.99601,-0.21873 -6.81861,1.75104 -7.67824,4.48111 -8.82929,28.04064 -0.97844,20.02669 -0.5438,30.39308 1.33201,31.76862 1.01887,0.74715 5.28839,0.80943 9.39425,0.13705 z m 77.73698,-2.47888 c 2.28107,-0.86726 2.63067,-2.86125 2.50853,-14.30799 -0.0631,-5.91834 0.0773,-10.29925 0.32171,-10.0381 1.52556,1.62974 5.54609,8.32157 7.81717,13.01101 3.53911,7.30772 4.65693,8.27631 11.85277,10.27037 6.33321,1.75503 11.06226,1.1468 12.57788,-1.61771 0.36955,-0.67405 0.68005,-3.73632 0.77556,-7.64885 0.0876,-3.58862 0.51623,-16.42198 0.9525,-28.51858 0.43626,-12.09659 0.65972,-22.12729 0.49658,-22.29044 -0.16315,-0.16315 -3.43552,0.30453 -7.27193,1.03928 -3.83642,0.73475 -7.36199,1.33592 -7.83462,1.33592 -2.39406,0 -11.5384,-6.06553 -17.78079,-11.79417 -1.92315,-1.76487 -4.22397,-3.58498 -5.11293,-4.04468 -2.35931,-1.22004 -5.27653,-0.71428 -9.02935,1.56543 -5.055,3.07075 -27.05203,25.55878 -27.05203,27.65587 0,1.06836 1.91706,-0.38922 11.0419,-8.39535 9.45308,-8.29413 14.18111,-11.97664 18.42177,-14.34815 3.2189,-1.80011 3.21937,-1.8002 4.31898,-0.815 8.89519,7.96972 16.1227,13.7274 20.05175,15.9739 2.58533,1.47821 4.88073,1.53952 9.80027,0.26176 l 3.65703,-0.94985 -0.27673,7.6087 c -0.15221,4.18477 -0.50792,14.04561 -0.79048,21.91297 -0.28257,7.86736 -0.64773,15.06305 -0.81147,15.99042 -0.28506,1.61445 -0.37365,1.6738 -2.08421,1.39621 -0.98258,-0.15945 -3.03289,-0.9182 -4.55625,-1.68612 -2.55168,-1.28629 -2.9294,-1.71234 -4.79758,-5.41146 -2.32193,-4.59759 -4.99293,-8.61214 -9.25402,-13.90899 -3.26651,-4.0605 -7.06788,-6.60198 -9.46158,-6.32571 -2.48098,0.28634 -2.73225,1.69748 -2.67372,15.01541 0.0468,10.63527 -0.0406,12.05674 -0.75801,12.33203 -0.44858,0.17214 -1.0128,-0.002 -1.26285,-0.38936 -0.2517,-0.39011 -0.39606,-8.15095 -0.32577,-17.51433 0.13685,-18.23102 0.0829,-18.65362 -2.63885,-20.66618 -0.77449,-0.57268 -4.02285,-1.44905 -8.43699,-2.27618 -6.92645,-1.29789 -7.23418,-1.3145 -8.79357,-0.47471 -0.88878,0.47863 -3.27548,2.89019 -5.3038,5.35901 -4.48187,5.45521 -8.09321,8.90125 -9.66508,9.22267 -0.64496,0.13189 -2.17858,0.37698 -3.40804,0.54464 -6.37136,0.86889 -9.35781,6.33823 -9.87118,18.07789 -0.31976,7.31231 0.24786,8.88138 3.86216,10.6761 5.16184,2.56317 15.98449,2.63402 23.19549,0.15184 6.74367,-2.3213 7.13274,-3.20056 7.13274,-16.11927 0,-13.58764 -0.10541,-13.71081 -10.23745,-11.96248 -3.14616,0.54288 -6.0823,0.90384 -6.52476,0.80211 -0.55118,-0.12671 1.24247,-2.18812 5.69687,-6.54733 3.57574,-3.49932 6.72148,-6.3624 6.99055,-6.3624 0.26905,0 3.02197,0.79066 6.11758,1.75703 l 5.62841,1.75702 0.17963,18.71774 c 0.16209,16.88817 0.26663,18.85049 1.06955,20.07584 0.72787,1.11082 1.27617,1.36336 3.01143,1.38702 1.16683,0.0159 3.02495,0.21579 4.12914,0.44418 2.81885,0.58306 3.04954,0.58678 4.40609,0.071 z m -135.93791,-2.07623 c 2.00898,-0.62051 3.91163,-1.62627 4.97666,-2.63073 1.5896,-1.49918 1.75384,-1.93901 2.10341,-5.63285 0.45804,-4.84014 -0.0837,-32.63016 -0.7728,-39.64195 -0.27129,-2.76048 -0.74526,-5.63203 -1.05326,-6.38124 -0.71301,-1.73437 -3.88044,-3.76135 -10.38241,-6.64416 -9.32048,-4.13248 -9.85399,-3.5836 -10.6999,11.00831 -0.67712,11.68019 -0.35023,43.9996 0.47031,46.4992 0.74391,2.26617 2.74765,4.32072 4.51315,4.6276 2.33812,0.4064 7.47824,-0.16433 10.84484,-1.20418 z m 193.73564,-6.76719 c 3.24775,-1.62113 3.91461,-2.97262 3.86362,-7.83022 -0.0242,-2.3087 -0.49572,-7.35964 -1.04776,-11.2243 -0.55203,-3.86467 -1.24121,-10.41453 -1.53149,-14.55525 -1.29592,-18.48509 -1.07371,-17.96602 -7.81111,-18.2464 -5.00187,-0.20816 -7.0823,0.43961 -7.62607,2.37446 -0.49217,1.75126 -0.47799,45.47961 0.0155,47.79575 0.53664,2.51868 1.73601,2.97454 7.39397,2.81031 3.52254,-0.10225 5.28409,-0.39596 6.74333,-1.12435 z m -7.7571,-80.16144 c 3.68688,-1.88366 5.00974,-4.03409 5.51087,-8.95844 0.48056,-4.72228 -0.17025,-29.7672 -0.98833,-38.03349 -0.8303,-8.38973 -3.16146,-11.86853 -7.93724,-11.84473 -3.14042,0.0157 -5.2045,1.10669 -5.67504,2.99974 -0.20584,0.82814 -0.62547,9.97536 -0.93251,20.32714 -0.30703,10.35179 -0.76057,20.6283 -1.00786,22.83668 -0.78811,7.03815 -0.66587,8.51363 0.85511,10.32121 3.02378,3.59357 6.27414,4.34486 10.175,2.35189 z m -17.0991,-3.61591 c 2.64434,-1.36744 2.77353,-2.80244 2.08658,-23.17678 -0.79817,-23.67268 -1.05486,-26.44804 -2.6013,-28.12546 -1.63696,-1.77562 -3.95689,-2.67544 -6.89783,-2.67544 -3.06023,0 -4.4753,1.04479 -5.0984,3.76429 -0.70044,3.05706 -1.60161,22.60592 -1.67951,36.43324 -0.0761,13.5019 -0.0595,13.58524 2.87954,14.50056 2.20717,0.68739 9.48492,0.22386 11.31092,-0.72041 z m -141.14557,-1.0273 c 1.39542,-0.41439 4.31609,-1.91769 6.49038,-3.34066 2.17429,-1.42297 4.89498,-3.00624 6.04597,-3.51837 1.89871,-0.84483 2.14299,-1.16558 2.635,-3.45976 0.66954,-3.12193 0.70722,-36.71615 0.0512,-45.67768 -0.54049,-7.38376 -1.65258,-11.22288 -3.68548,-12.72287 -1.23973,-0.91474 -2.27519,-1.06621 -8.31512,-1.21638 l -6.89905,-0.17153 -0.88047,7.95105 c -2.49757,22.55425 -4.39432,42.34093 -4.66812,48.69721 -0.30262,7.0253 -0.28871,7.15517 1.06257,9.91708 1.30976,2.67706 3.06742,4.23005 4.83873,4.27526 0.43298,0.011 1.92894,-0.31896 3.32436,-0.73335 z m 72.78397,-3.29762 c 1.55445,-0.53481 3.93343,-1.68284 5.28661,-2.55117 l 2.46033,-1.57879 -0.27569,-3.56354 c -0.15163,-1.95995 -0.40364,-7.96775 -0.56003,-13.35068 -1.13777,-39.16359 -2.72211,-45.21896 -10.48568,-40.07658 -1.31321,0.86984 -2.97686,2.47186 -3.69698,3.56004 -1.29699,1.95988 -1.31516,2.12103 -1.9293,17.11443 -0.34098,8.32476 -0.99517,19.20135 -1.45376,24.1702 -1.1287,12.22963 -0.59281,16.0615 2.42369,17.33063 1.41069,0.59352 4.6451,0.17912 8.23081,-1.05454 z m -104.66952,-5.22889 c 4.509,-1.57535 7.56008,-3.35265 8.67405,-5.05278 1.29557,-1.97729 1.7567,-8.61372 1.75919,-25.31775 0.002,-16.59016 -0.57064,-26.15821 -1.73359,-28.94153 -2.20444,-5.27598 -7.24449,-8.38005 -12.12114,-7.46518 -1.36706,0.25646 -1.90804,0.69434 -2.44473,1.97882 -1.00587,2.40739 -2.83606,27.08387 -3.55886,47.98435 -0.6264,18.11272 0.411,19.96341 9.42508,16.81407 z"
     id="path71"
     transform="scale(0.75)" />
  <path
     style="fill:currentColor;stroke-width:0.501905"
     d="m 487.67666,695.12281 c -3.38579,-0.42012 -5.37321,-1.68531 -5.94221,-3.78281 -0.77406,-2.85336 0.6636,-11.95226 2.4495,-15.5028 1.11489,-2.2165 3.71075,-4.79035 4.83133,-4.79035 0.76078,0 0.84544,0.14624 0.39726,0.68626 -0.43552,0.52477 -0.37292,0.84957 0.26602,1.38024 0.92627,0.7693 13.55771,1.01178 16.66856,0.31998 l 1.68175,-0.37399 -0.21342,8.40447 c -0.11738,4.62246 -0.39385,8.80934 -0.61437,9.30418 -1.25607,2.81861 -12.2117,5.2622 -19.52442,4.35482 z"
     id="path72"
     transform="scale(0.75)" />
  <path
     style="fill:currentColor;stroke-width:0.501905"
     d="m 449.43022,697.91488 c -1.71912,-4.11443 0.28393,-42.04909 2.39914,-45.43608 0.84947,-1.36022 3.41159,-2.51196 5.58798,-2.51196 1.64472,0 1.82787,0.15196 2.30104,1.90919 0.79557,2.95453 1.50765,14.50318 1.86576,30.2593 0.38105,16.76594 0.60869,15.98695 -4.95489,16.9558 -5.52248,0.9617 -6.36312,0.82435 -7.19903,-1.17625 z"
     id="path73"
     transform="scale(0.75)" />
  <path
     style="fill:currentColor;stroke-width:0.501905"
     d="m 421.5455,702.85188 c -0.57171,-0.68896 -0.69825,-4.62476 -0.69825,-21.71872 0,-17.9698 0.12906,-21.64614 0.92667,-26.39822 0.929,-5.53487 1.93486,-8.81136 2.68653,-8.75112 0.22113,0.0177 1.75051,0.31657 3.39863,0.66409 2.92409,0.61658 3.00687,0.67956 3.42121,2.60278 0.59205,2.74807 0.10715,44.65599 -0.54466,47.07291 -1.08721,4.03138 -7.48867,8.57871 -9.19013,6.52828 z"
     id="path74"
     transform="scale(0.75)" />
  <path
     style="fill:currentColor;stroke-width:0.501905"
     d="m 387.58689,695.24501 c -1.14345,-0.76929 -1.61411,-3.72113 -1.93635,-12.14423 -0.46828,-12.2407 0.88224,-37.38249 2.07196,-38.57221 0.27352,-0.27352 2.22824,0.16922 7.60279,1.72205 l 2.58471,0.74678 0.35089,6.62924 c 0.19299,3.64609 0.38502,13.52516 0.42672,21.95349 0.0696,14.0714 8.3e-4,15.43919 -0.84154,16.73026 -0.50456,0.77331 -1.63384,1.70391 -2.50953,2.06799 -2.08849,0.86834 -6.94061,1.41094 -7.74965,0.86663 z"
     id="path75"
     transform="scale(0.75)" />
  <path
     style="fill:currentColor;stroke-width:0.501905"
     d="m 390.10311,593.41167 c -0.69608,-1.69934 -0.29167,-27.17746 0.57215,-36.04628 0.74792,-7.67886 2.37893,-17.54568 3.0036,-18.17035 0.51825,-0.51825 2.28038,0.45978 3.15754,1.75253 0.83422,1.22949 0.93959,2.78812 1.09291,16.16686 0.17052,14.87854 -0.53511,31.53947 -1.43614,33.90935 -0.44455,1.16926 -1.8792,2.03726 -4.88435,2.95515 -0.83373,0.25465 -1.23023,0.10527 -1.50571,-0.56726 z"
     id="path76"
     transform="scale(0.75)" />
  <path
     style="fill:currentColor;stroke-width:0.501905"
     d="m 422.12841,600.40373 c -0.66959,-2.41106 -0.67498,-14.25299 -0.01,-21.70739 0.28324,-3.17454 1.07229,-9.61147 1.75345,-14.30429 0.68116,-4.69281 1.44421,-11.21648 1.69565,-14.49705 0.30855,-4.02549 0.67618,-6.10346 1.13079,-6.3916 1.07993,-0.68446 4.86389,-0.50734 6.42671,0.30083 1.33476,0.69023 1.46311,1.0207 1.80313,4.64262 0.3881,4.1341 -0.10684,41.0774 -0.5983,44.65819 -0.2634,1.91915 -0.64018,2.38202 -4.12581,5.06853 -6.27551,4.83677 -7.27517,5.11283 -8.07573,2.23016 z"
     id="path77"
     transform="scale(0.75)" />
  <path
     style="fill:currentColor;stroke-width:0.501905"
     d="m 492.70331,600.44555 c -0.51612,-0.51611 -0.38826,-38.5321 0.1452,-43.1712 0.63197,-5.49579 3.38937,-10.96791 5.01916,-9.96065 0.34608,0.21389 0.52666,5.80737 0.53206,16.48059 0.007,14.68462 0.18976,19.12025 1.27517,31.02109 l 0.34862,3.82237 -3.17201,1.0712 c -3.51466,1.18693 -3.67025,1.21455 -4.1482,0.7366 z"
     id="path78"
     transform="scale(0.75)" />
  <path
     style="fill:currentColor;stroke-width:0.501905"
     d="m 556.26076,589.11087 c 0.30002,-16.04685 0.86623,-23.40455 2.0683,-26.87663 0.72619,-2.09756 1.231,-2.38181 2.53567,-1.42781 1.15083,0.84151 1.57037,6.61663 2.14793,29.56696 l 0.37559,14.92482 -3.71507,-4.5e-4 -3.71506,-4.6e-4 z"
     id="path79"
     transform="scale(0.75)" />
  <path
     style="fill:currentColor;stroke-width:0.501905"
     d="m 578.35132,608.91822 c -1.8793,-1.19496 -2.38567,-8.22015 -1.69204,-23.47471 0.8974,-19.73597 1.71712,-26.32146 3.27634,-26.32146 0.36274,0 0.78397,0.50818 0.93608,1.12929 1.75105,7.15019 3.10015,41.04044 1.81758,45.65855 -0.70776,2.54838 -2.79016,3.99251 -4.33796,3.00833 z"
     id="path80"
     transform="scale(0.75)" />
  <path
     style="fill:currentColor;stroke-width:0.501905"
     d="m 580.36943,674.51443 c 0.18307,-8.94639 0.33323,-18.80705 0.33369,-21.91259 l 8.4e-4,-5.64643 h 3.43777 3.43777 l 0.30958,12.17119 c 0.17027,6.69416 0.65412,14.65563 1.07521,17.69215 1.60934,11.60504 1.02534,13.1366 -5.20616,13.65328 l -3.72155,0.30857 z"
     id="path81"
     transform="scale(0.75)" />
  <path
     style="fill:currentColor;stroke-width:0.501905"
     d="m 603.54064,515.10167 c -0.82815,-0.11235 -16.07351,-3.12002 -33.87858,-6.68372 -17.80508,-3.5637 -51.57073,-10.22673 -75.03479,-14.80675 -23.46405,-4.58002 -49.64086,-9.78933 -58.17069,-11.57626 -8.52983,-1.78692 -20.38733,-4.13967 -26.35001,-5.22833 -12.60594,-2.30158 -18.10259,-3.63437 -20.5966,-4.99415 -0.98364,-0.5363 -2.62842,-1.38171 -3.65507,-1.87871 -1.61211,-0.78041 -1.92007,-1.21159 -2.25857,-3.1622 -0.21557,-1.24221 -0.39194,-19.08493 -0.39194,-39.65048 0,-33.98138 0.0771,-37.56196 0.84526,-39.2562 0.56601,-1.24838 1.28706,-1.97517 2.18257,-2.19992 1.67799,-0.42115 13.04058,3.20143 22.45958,7.16049 16.99876,7.14503 29.85692,11.69343 52.80975,18.68072 31.18388,9.49298 57.054,16.30802 80.30478,21.15491 5.52096,1.1509 15.34575,3.40752 21.83287,5.01471 21.52971,5.334 32.08271,7.23113 44.41858,7.98524 4.14072,0.25312 8.16032,0.70078 8.93245,0.9948 l 1.40387,0.53457 -0.14911,32.86062 c -0.12904,28.4361 -0.25048,32.95398 -0.90197,33.55405 -0.41407,0.38138 -2.81117,0.95394 -5.32689,1.27235 -4.57321,0.57882 -5.65151,0.60735 -8.47549,0.22426 z m -6.53612,-23.36035 c 0.11446,-0.34506 0.57129,-6.83985 1.01519,-14.43288 0.95836,-16.393 0.85141,-17.13206 -2.74138,-18.94379 -2.61567,-1.31901 -6.11178,-1.4897 -7.24763,-0.35385 -0.4265,0.4265 -1.00224,1.61772 -1.27944,2.64715 -1.07489,3.99183 -3.58077,19.6495 -3.8713,24.18926 -0.265,4.14095 -0.19089,4.87037 0.55795,5.49185 0.60026,0.49817 1.10008,0.56746 1.6394,0.22726 0.59511,-0.37538 0.80425,-1.5964 0.89766,-5.24089 0.12843,-5.01005 1.55684,-12.37131 3.53538,-18.21937 1.35762,-4.0128 2.04046,-4.96696 2.75064,-3.84365 1.33694,2.11467 -0.38284,23.40289 -2.23663,27.68612 -0.4154,0.95981 0.49537,1.2414 4.37226,1.35182 1.52652,0.0435 2.47553,-0.15995 2.6079,-0.55903 z m -86.88421,-18.51785 c 3.36979,-0.67675 4.30217,-1.70714 5.60735,-6.19678 1.42126,-4.88895 0.43715,-17.47725 -2.36523,-30.25506 -0.70113,-3.19686 -1.10609,-3.36732 -7.9442,-3.34393 -6.0475,0.0207 -7.42012,0.3791 -8.09712,2.11429 -1.46219,3.74772 -0.89041,36.83872 0.65345,37.81742 0.97661,0.61911 8.8234,0.53129 12.14575,-0.13594 z m -39.9471,-8.73895 c 1.00801,-0.70604 1.11501,-1.20169 1.11052,-5.14452 -0.01,-8.49252 -1.57257,-26.91805 -2.54569,-30.01189 -0.65007,-2.06675 -2.24445,-2.70895 -6.72552,-2.70895 -3.77084,0 -6.20919,0.58819 -6.89236,1.66259 -0.46541,0.73196 -0.51635,23.79174 -0.0687,31.10787 l 0.32562,5.32185 1.55652,0.19686 c 0.85609,0.10827 3.93423,0.23301 6.84032,0.27718 4.06893,0.0619 5.54028,-0.0993 6.39929,-0.70099 z m -37.80308,-10.34237 c 2.11844,-0.96523 2.39483,-3.25596 2.16737,-17.96385 -0.11332,-7.32788 -0.38767,-13.72703 -0.60968,-14.22032 -0.91479,-2.0327 -7.6489,-3.74877 -11.03829,-2.81291 -2.79043,0.77047 -3.01682,1.63396 -3.20971,12.24219 -0.17902,9.8462 0.38701,17.61214 1.45446,19.95494 1.25783,2.76062 7.76383,4.3819 11.23585,2.79995 z"
     id="path82"
     transform="scale(0.75)" />
  <path
     style="fill:currentColor;stroke-width:0.501905"
     d="m 501.01465,469.87059 c -1.14699,-0.74013 -1.56175,-5.67335 -1.08245,-12.87475 0.68168,-10.24196 1.74997,-16.37548 3.03978,-17.45263 1.32411,-1.10579 2.05613,-1.10579 3.41205,0 2.29599,1.87244 5.09326,22.54326 3.73606,27.60801 -0.22688,0.84667 -0.9536,1.31298 -2.8791,1.84743 -3.9746,1.10321 -5.53031,1.32107 -6.22634,0.87194 z"
     id="path83"
     transform="scale(0.75)" />
  <path
     style="fill:currentColor;stroke-width:0.501905"
     d="m 457.74106,451.33798 c 0.004,-10.38414 0.5463,-15.65429 1.81049,-17.59365 1.63048,-2.50125 3.43087,-1.7715 4.22628,1.71302 0.35996,1.57689 1.41141,13.33582 2.13806,23.91111 l 0.12933,1.88214 h -4.15398 -4.15398 z"
     id="path84"
     transform="scale(0.75)" />
  <path
     style="fill:currentColor;stroke-width:0.501905"
     d="m 426.36821,450.29591 c -1.42863,-0.27162 -2.78978,-1.58578 -3.58261,-3.45896 -1.29376,-3.0567 -0.49835,-16.31687 1.24782,-20.80222 0.57284,-1.47142 2.04589,-2.16408 3.57211,-1.67967 1.25371,0.39791 1.40264,1.4188 1.75802,12.05125 0.15686,4.69281 0.41994,9.68869 0.58464,11.10196 0.29489,2.53048 0.27756,2.5727 -1.13836,2.77404 -0.7908,0.11244 -1.88953,0.11856 -2.44162,0.0136 z"
     id="path85"
     transform="scale(0.75)" />
  <path
     style="fill:currentColor;stroke-width:0.501905"
     d="m 429.38048,517.40945 c -7.37514,-0.35013 -19.20594,-1.66758 -19.73611,-2.19775 -0.26617,-0.26617 11.62631,-15.87323 13.27459,-17.4209 1.89785,-1.78198 4.69323,-2.91257 7.20131,-2.91257 5.25294,0 24.10366,3.15419 24.10366,4.03314 0,0.476 -5.55667,7.9663 -11.04319,14.88603 -2.2269,2.80862 -3.57944,4.09777 -4.26491,4.06503 -0.55209,-0.0264 -4.843,-0.23021 -9.53535,-0.45298 z"
     id="path86"
     transform="scale(0.75)" />
  <path
     style="fill:currentColor;stroke-width:0.501905"
     d="m 396.71712,513.888 c -0.80401,-1.30091 8.6764,-16.95398 12.0763,-19.93913 3.06532,-2.69139 7.35685,-1.92395 6.5787,1.17645 -0.75495,3.00794 -10.90065,16.6568 -13.64018,18.34992 -1.73822,1.07428 -4.46716,1.29889 -5.01482,0.41276 z"
     id="path87"
     transform="scale(0.75)" />
  <path
     style="fill:currentColor;stroke-width:0.501905"
     d="m 378.57673,511.86803 c -5.16895,-0.49192 -7.16711,-1.07485 -7.16711,-2.0909 0,-3.23971 5.30792,-17.99613 7.21245,-20.05115 1.14419,-1.2346 1.1956,-1.24129 4.62635,-0.60218 1.90812,0.35546 6.06666,0.9156 9.24121,1.24477 3.17455,0.32916 6.16715,0.80887 6.65024,1.06601 1.82855,0.97333 1.00903,3.02563 -5.72385,14.33407 l -3.97494,6.67625 -3.11835,-0.0682 c -1.71509,-0.0375 -5.20079,-0.26642 -7.746,-0.50864 z"
     id="path88"
     transform="scale(0.75)" />
  <path
     style="fill:currentColor;stroke-width:0.501905"
     d="m 339.28771,509.88507 c -5.14294,-0.294 -11.04191,-0.9059 -11.04191,-1.14538 0,-0.0658 -0.68117,-5.50417 -1.51371,-12.08525 -0.83254,-6.58109 -1.43234,-12.04699 -1.33289,-12.14644 0.5175,-0.51751 11.28978,-1.14925 19.7908,-1.16064 9.0542,-0.0121 9.72103,0.0507 10.52607,0.99086 0.47272,0.5521 1.23336,1.00381 1.6903,1.00381 1.738,0 2.16988,1.45219 2.37327,7.97997 0.24188,7.76349 -0.4431,12.78117 -1.96613,14.40236 -1.85518,1.97475 -8.40842,2.73907 -18.5258,2.16071 z"
     id="path89"
     transform="scale(0.75)" />
  <path
     style="fill:currentColor;stroke-width:0.250952"
     d="m 448.61933,519.05331 c -0.31411,-0.31411 -0.16792,-1.3572 0.32587,-2.3251 0.97859,-1.9182 8.54688,-11.18185 12.68517,-15.52675 l 2.27175,-2.38517 1.66668,0.55463 c 2.32183,0.77266 2.4731,1.01653 1.6297,2.6274 -1.3311,2.54237 -12.82047,14.85252 -15.34501,16.44123 -1.17391,0.73875 -2.80049,1.04743 -3.23416,0.61376 z"
     id="path90"
     transform="scale(0.75)" />
  <path
     style="fill:currentColor;stroke-width:0.250952"
     d="m 478.94275,523.21872 c -1.79431,-0.25278 -6.59378,-0.9254 -10.66548,-1.49472 -4.07171,-0.56932 -7.68371,-1.12024 -8.02668,-1.22426 -0.58636,-0.17784 -0.27449,-0.55059 5.22438,-6.24412 8.48616,-8.78658 12.49392,-12.60168 13.23807,-12.60168 0.74826,0 20.41049,4.20368 20.65229,4.41535 0.0525,0.046 -1.24618,1.5319 -2.88595,3.3021 -1.63976,1.7702 -5.27465,5.7268 -8.07752,8.79246 -3.83073,4.18989 -5.23276,5.56653 -5.64643,5.54418 -0.30266,-0.0163 -2.01837,-0.23654 -3.81268,-0.48931 z"
     id="path91"
     transform="scale(0.75)" />
  <path
     style="fill:currentColor;stroke-width:0.250952"
     d="m 493.54797,525.01684 c -1.55744,-0.32723 -1.63239,-0.60416 -0.52837,-1.95216 2.85615,-3.48731 8.67863,-9.43634 11.70453,-11.95892 2.57036,-2.14282 3.96957,-2.78434 6.08958,-2.79203 1.88644,-0.007 3.70018,0.64517 3.83486,1.37857 0.13251,0.72161 -1.57347,2.87579 -5.34028,6.74327 -4.53917,4.66048 -6.87766,6.70109 -8.93724,7.79884 -1.34479,0.71676 -1.83193,0.8355 -3.70869,0.90399 -1.18831,0.0434 -2.58979,-0.0113 -3.11439,-0.12156 z"
     id="path92"
     transform="scale(0.75)" />
  <path
     style="fill:currentColor;stroke-width:0.250952"
     d="m 520.72633,527.12459 c -10.01568,-1.01077 -11.29286,-1.2119 -11.29286,-1.77833 0,-1.34693 11.23861,-11.03543 15.39676,-13.27313 l 1.39033,-0.7482 7.53999,1.87748 c 4.147,1.03262 7.54087,1.93478 7.54194,2.00481 10e-4,0.07 -2.84951,2.95958 -6.33461,6.42123 l -6.33655,6.2939 z"
     id="path93"
     transform="scale(0.75)" />
  <path
     style="fill:currentColor;stroke-width:0.501905"
     d="m 539.42229,529.40793 c -1.03518,-0.27494 -1.88215,-0.68258 -1.88215,-0.90587 0,-1.25002 9.8493,-9.84182 11.86109,-10.34675 1.62161,-0.407 5.20368,0.63985 5.20368,1.52076 0,0.98709 -7.64301,8.10981 -9.98339,9.30378 -2.22343,1.13431 -2.46525,1.15422 -5.19923,0.42808 z"
     id="path94"
     transform="scale(0.75)" />
  <path
     style="fill:currentColor;stroke-width:0.501905"
     d="m 559.97725,533.29562 c -4.08443,-0.91152 -7.52621,-1.75728 -7.6484,-1.87947 -0.30426,-0.30427 8.48502,-7.4726 10.46584,-8.53569 2.63577,-1.4146 7.58222,-1.10094 16.12861,1.02271 l 7.50458,1.86478 -4.2422,3.67737 c -2.3332,2.02256 -5.08016,4.10666 -6.10434,4.63134 -2.7204,1.39363 -7.37006,1.16813 -16.10409,-0.78104 z"
     id="path95"
     transform="scale(0.75)" />
  <path
     style="fill:currentColor;stroke-width:0.501905"
     d="m 581.87948,538.26746 c -0.42091,-1.09686 1.41062,-2.88737 6.1021,-5.96547 5.03993,-3.3067 6.54731,-3.89612 9.4654,-3.70116 l 2.33454,0.15598 -3.89235,3.06975 c -6.16,4.85818 -10.09004,7.2193 -12.01639,7.2193 -1.06802,0 -1.80505,-0.28781 -1.9933,-0.7784 z"
     id="path96"
     transform="scale(0.75)" />
  <path
     style="fill:currentColor;stroke-width:0.501905"
     d="m 599.02349,544.65217 c -2.20838,-0.7738 -4.65712,-1.74787 -5.44164,-2.16459 l -1.4264,-0.75767 6.1945,-4.04314 c 6.94254,-4.53139 10.93668,-6.67139 12.45162,-6.67139 1.40744,0 1.27737,0.96316 -0.40818,3.02255 -2.00035,2.44402 -2.41128,3.34285 -3.32038,7.26281 -1.26347,5.44796 -1.63031,5.6007 -8.04952,3.35143 z"
     id="path97"
     transform="scale(0.75)" />
  <path
     style="fill:currentColor;stroke-width:0.501905"
     d="m 45.673345,503.07184 c -10.244657,-0.45645 -30.744661,-2.7201 -34.052628,-3.76015 -2.5904715,-0.81447 -3.0907417,-2.61511 -3.0748929,-11.06758 0.00739,-3.94255 0.3411336,-13.49227 0.7416468,-21.2216 0.4005133,-7.72934 0.7332511,-14.98379 0.7394161,-16.12101 l 0.01121,-2.06767 5.144525,-1.04994 c 7.999427,-1.63258 12.439203,-2.38296 30.23977,-5.11092 19.222978,-2.94595 32.736857,-5.18352 49.939537,-8.2688 6.763171,-1.21297 20.248601,-3.57672 29.967611,-5.25278 9.71902,-1.67606 28.35224,-5.06014 41.40716,-7.52018 34.00234,-6.40732 40.30619,-7.33108 68.6567,-10.06091 45.11117,-4.34369 92.96602,-12.76946 113.92099,-20.05799 5.28595,-1.83855 5.80054,-1.93251 6.24667,-1.14053 0.29211,0.51857 0.45141,7.6748 0.39908,17.92785 -0.10103,19.79498 0.48659,34.15311 1.88977,46.17525 1.03734,8.88767 1.27929,14.58676 0.63566,14.97264 -1.01307,0.60738 -55.56866,9.41468 -76.41502,12.33622 -38.24678,5.36016 -114.49086,13.76184 -161.86433,17.83656 -38.304537,3.29468 -57.795391,4.19728 -74.532875,3.45154 z m -2.76151,-31.5755 c 0.861979,-9.77147 0.947062,-13.75908 0.293576,-13.75908 -0.752658,0 -1.452135,4.34034 -1.82928,11.3509 -0.315219,5.85944 -0.01461,11.69871 0.572064,11.11204 0.118133,-0.11813 0.551771,-4.03487 0.96364,-8.70386 z m 107.434855,5.85535 c 3.63212,-1.60667 4.24072,-2.65379 4.23518,-7.28692 -0.006,-4.66506 -1.25484,-16.56526 -2.05443,-19.56989 -0.88404,-3.322 -1.60007,-3.80063 -5.67257,-3.79184 -1.95856,0.004 -3.86372,0.19955 -4.23369,0.43404 -0.79615,0.50462 -1.33841,6.7662 -1.83874,21.2326 l -0.3417,9.87957 1.92846,0.22037 c 2.80778,0.32086 5.61381,-0.0724 7.97749,-1.11793 z m 40.84821,-2.68005 c 1.23049,-0.61841 2.65693,-1.70339 3.16986,-2.41108 1.43134,-1.97485 1.99996,-7.78966 1.78832,-18.28758 -0.1749,-8.67541 -0.29542,-9.74867 -1.33519,-11.89007 -1.65219,-3.40269 -4.40779,-4.67426 -10.11689,-4.66846 -5.38871,0.005 -7.3219,0.89312 -7.8287,3.5946 -0.46912,2.50064 0.10577,21.92915 0.81428,27.51917 0.65593,5.17506 1.34249,6.54631 3.62917,7.24841 2.39455,0.73523 7.31188,0.18521 9.87915,-1.10499 z M 74.740866,469.28108 c 0.01518,-1.24222 -0.191346,-2.59736 -0.458941,-3.01143 -0.335268,-0.51879 -0.477954,0.49549 -0.458942,3.26238 0.0293,4.26397 0.865525,4.03535 0.917883,-0.25095 z m 163.228894,-0.81495 4.0327,-1.89243 -0.28943,-2.03417 c -0.15919,-1.11879 -0.86297,-7.11596 -1.56396,-13.32703 -1.76336,-15.62395 -2.48415,-17.81509 -6.45337,-19.61758 -1.53356,-0.69642 -3.26404,-0.94132 -6.70921,-0.9495 l -4.64262,-0.011 0.0232,6.90119 c 0.0394,11.68782 0.85966,29.41246 1.42916,30.88062 0.74582,1.92273 2.20636,2.40932 6.47728,2.15796 2.90259,-0.17083 4.5011,-0.60867 7.69621,-2.10804 z M 59.707224,466.80791 c 0.54546,-1.0192 0.22395,-2.54588 -0.536145,-2.54588 -0.246511,0 -0.448206,0.7905 -0.448206,1.75667 0,1.9915 0.238545,2.18276 0.984351,0.78921 z m 224.872856,-3.61999 c 1.79431,-0.26764 3.80485,-0.84071 4.46787,-1.27348 l 1.20549,-0.78685 -0.31699,-7.8435 c -0.31741,-7.85411 -1.38617,-17.96042 -2.39851,-22.68081 -0.7422,-3.46077 -1.97782,-4.22466 -6.08244,-3.76027 -6.37488,0.72123 -7.5679,2.04161 -9.32108,10.31615 -1.57548,7.43577 -2.27422,13.30825 -2.31918,19.4913 -0.0396,5.44592 0.0109,5.73127 1.18107,6.68063 1.09324,0.88693 1.70318,0.95747 5.7719,0.66759 2.50222,-0.17827 6.01756,-0.54312 7.81187,-0.81076 z"
     id="path98"
     transform="scale(0.75)" />
  <path
     style="fill:currentColor;stroke-width:0.501905"
     d="m 274.35673,458.98603 c -1.64357,-1.64357 -1.66995,-9.68342 -0.0569,-17.35144 0.99888,-4.74852 2.34499,-7.69913 4.0102,-8.79022 1.80543,-1.18296 2.84539,-0.49469 3.56609,2.36012 0.58694,2.32497 1.95123,13.04965 2.49804,19.63717 0.32107,3.86803 0.31788,3.8817 -1.02343,4.39167 -2.13319,0.81103 -8.09969,0.64698 -8.99397,-0.2473 z"
     id="path99"
     transform="scale(0.75)" />
  <path
     style="fill:currentColor;stroke-width:0.501905"
     d="m 227.1564,465.31494 c -1.41838,-1.5673 -2.05067,-9.65502 -1.42616,-18.24237 0.65594,-9.01948 1.46835,-10.91722 4.67359,-10.91722 1.87799,0 2.48102,2.04554 3.49637,11.86002 1.57787,15.25196 1.41417,16.42406 -2.47146,17.69586 -2.39287,0.78321 -3.27932,0.70098 -4.27234,-0.39629 z"
     id="path100"
     transform="scale(0.75)" />
  <path
     style="fill:currentColor;stroke-width:0.501905"
     d="m 181.44658,470.11653 c -1.30072,-1.98516 -1.44708,-6.26049 -0.54053,-15.79006 1.02283,-10.75189 1.15269,-11.14445 3.6866,-11.14445 1.05826,0 2.32513,0.29323 2.81526,0.65162 1.4934,1.09201 2.32309,6.08937 2.65241,15.97607 l 0.31145,9.35006 -1.29079,0.84576 c -0.70994,0.46517 -2.52624,0.97327 -4.03622,1.12912 -2.5489,0.26307 -2.80646,0.19019 -3.59818,-1.01812 z"
     id="path101"
     transform="scale(0.75)" />
  <path
     style="fill:currentColor;stroke-width:0.501905"
     d="m 144.00149,473.71374 c -0.73376,-1.37104 -0.34182,-16.04462 0.53064,-19.86624 0.68558,-3.00299 1.653,-3.41783 2.47456,-1.06112 0.63108,1.81033 2.73127,15.39093 2.77957,17.97376 0.0266,1.4234 -0.2699,1.93488 -1.67306,2.88595 -2.13297,1.44574 -3.36334,1.46599 -4.11171,0.0676 z"
     id="path102"
     transform="scale(0.75)" />
  <path
     style="fill:currentColor;stroke-width:0.501905"
     d="m 257.78186,394.70715 c -0.47201,-1.23004 -0.35973,-12.84271 0.19396,-20.0603 1.17851,-15.36245 1.54798,-24.60338 2.01574,-50.41629 0.27262,-15.0446 0.7234,-31.08046 1.00173,-35.63525 1.06637,-17.4509 1.17071,-22.30757 0.52149,-24.27474 -0.34361,-1.04113 -1.78788,-3.25547 -3.20949,-4.92074 -5.69778,-6.67439 -6.84696,-8.24469 -6.84891,-9.35871 -0.003,-1.64437 -0.76111,-2.91403 -3.87355,-6.4862 l -2.72834,-3.13133 0.17578,-21.71296 c 0.23464,-28.98567 -0.5692,-27.27151 13.13832,-28.01678 6.62431,-0.36017 10.31871,-0.9013 20.36923,-2.98358 17.30115,-3.58446 18.95156,-3.95867 22.5117,-5.10421 1.74293,-0.56082 3.24147,-0.93999 3.33008,-0.8426 0.0886,0.0974 -0.0275,1.53221 -0.25811,3.18849 -1.42935,10.26769 -2.5488,56.9533 -1.52168,63.4606 0.37391,2.36889 1.48772,5.76335 3.04675,9.28524 4.50406,10.17479 4.77487,11.68129 4.74226,26.38038 -0.0156,7.03922 -0.21182,24.31729 -0.436,38.39573 -0.48766,30.62449 0.26645,48.65149 2.29572,54.87931 0.81175,2.49129 1.35198,1.37822 1.91515,-3.94598 1.48826,-14.07005 2.65347,-43.58254 2.77386,-70.25667 0.0973,-21.54715 0.1947,-24.08189 1.01303,-26.35001 l 0.90543,-2.50952 -1.9243,-9.28525 -1.9243,-9.28524 -0.20276,-22.58572 c -0.25227,-28.10098 0.61057,-49.33862 2.21997,-54.64149 0.23509,-0.77457 0.64647,-0.89573 2.36502,-0.69651 2.62368,0.30413 14.55059,5.01689 23.4114,9.25071 8.50539,4.06399 13.29491,5.46566 21.34259,6.24597 l 6.36258,0.61692 -0.29506,5.80982 c -0.16229,3.1954 -0.42457,11.00453 -0.58285,17.35363 -0.36299,14.56053 -0.97201,20.9861 -2.41907,25.52267 -1.12007,3.51143 -1.98285,5.07382 -8.27432,14.98363 -1.70087,2.67908 -4.79099,8.32551 -6.86693,12.54762 -6.04924,12.30317 -6.25537,14.36192 -6.60631,65.98281 l -0.26331,38.73195 1.93825,-0.44973 c 1.06603,-0.24735 2.78521,-0.45511 3.82039,-0.4617 4.50308,-0.0287 0.66522,2.9844 -6.65024,5.22099 -5.95482,1.8206 -81.54732,16.34895 -85.06527,16.34895 -0.63524,0 -1.29207,-0.35726 -1.45963,-0.79391 z m 21.99832,-22.80043 c 1.59783,-16.31062 4.79326,-64.80672 4.7974,-72.80897 0.003,-5.66886 -0.97492,-9.012 -4.99837,-17.08855 -4.82476,-9.68505 -5.45628,-9.41739 -2.00613,0.85026 1.38471,4.12089 2.64632,8.73474 2.80358,10.253 0.18288,1.76566 -0.1758,5.92581 -0.99527,11.54381 -2.69132,18.45053 -3.08366,24.38033 -3.05517,46.17525 0.0167,12.73031 0.24715,21.88644 0.61676,24.49941 1.0916,7.71709 1.83348,6.82172 2.8372,-3.42421 z m 50.89872,-1.12448 c 1.86738,-13.38718 3.56197,-59.81583 2.12865,-58.32135 -1.19639,1.24745 -3.39312,21.37004 -3.88746,35.61015 -0.33323,9.5992 0.18676,26.85192 0.80932,26.85192 0.20454,0 0.63181,-1.86333 0.94949,-4.14072 z m -37.85335,-13.04953 c 0.90653,-4.37269 2.02476,-30.16503 1.35936,-31.35404 -0.43826,-0.78314 -0.52463,-0.74289 -0.79075,0.36851 -1.47399,6.15572 -2.79245,25.0026 -2.081,29.74693 0.37628,2.5092 1.12231,3.12017 1.51239,1.2386 z M 270.09147,219.72223 c -0.85593,-10.771 -1.13971,-12.93741 -1.69469,-12.93741 -0.7694,0 -0.2485,19.05262 0.56065,20.50651 0.47179,0.8477 0.81229,1.02937 1.20092,0.64074 0.38863,-0.38863 0.36967,-2.71638 -0.0669,-8.20984 z m 68.20834,0.23759 c 0.009,-0.20704 0.34315,-2.635 0.74311,-5.39548 0.83531,-5.76539 0.95299,-9.78714 0.28638,-9.78714 -0.69993,0 -1.5285,4.55556 -1.88333,10.35478 -0.23109,3.77689 -0.15985,5.20427 0.25975,5.20427 0.318,0 0.58534,-0.16939 0.59409,-0.37643 z m -8.61794,-9.15976 c 0.9838,-8.90679 1.1991,-13.04953 0.6782,-13.04953 -0.61996,0 -0.90935,1.1683 -1.55401,6.27381 -0.50533,4.00207 -0.7894,9.41217 -0.61931,11.79476 0.1763,2.46955 0.95772,-0.15363 1.49512,-5.01904 z"
     id="path103"
     transform="scale(0.75)" />
  <path
     style="fill:currentColor;stroke-width:0.501905"
     d="m 491.61584,402.68311 c -7.40998,-1.69839 -32.94117,-9.56961 -37.31662,-11.50464 l -2.71755,-1.20183 0.34928,-43.78947 c 0.19211,-24.08421 0.43238,-55.2483 0.53395,-69.25354 0.10157,-14.00524 0.32121,-25.68499 0.48808,-25.955 0.65592,-1.06129 4.38568,-1.52674 12.31286,-1.53654 10.23563,-0.0127 21.26797,-0.73838 25.86104,-1.70117 1.90802,-0.39995 3.62449,-0.63116 3.8144,-0.51379 1.2985,0.80252 0.97352,19.70611 -1.12535,65.45962 -0.55085,12.00807 -1.12754,30.52837 -1.28153,41.1562 -0.24342,16.80022 -0.14145,21.09882 0.78097,32.92088 0.58352,7.47865 1.06095,14.1979 1.06095,14.93167 0,1.36273 -0.43884,1.51974 -2.76048,0.98761 z m -18.825,-38.70621 c -0.008,-46.82664 -2.3349,-87.92921 -4.97786,-87.92921 -0.79405,0 -1.02291,3.23473 -1.3494,19.07239 -0.32604,15.81542 0.37294,48.23019 1.34203,62.23621 0.84329,12.18786 3.4925,28.47029 4.52807,27.83027 0.26788,-0.16556 0.45924,-9.04366 0.45716,-21.20966 z"
     id="path104"
     transform="scale(0.75)" />
  <path
     style="fill:currentColor;stroke-width:0.501905"
     d="m 536.28538,414.57552 c -6.50577,-1.54498 -25.04064,-6.44954 -30.40871,-8.04654 -2.50414,-0.74498 -3.44274,-1.28391 -3.87029,-2.22228 -1.00312,-2.20162 -1.22476,-9.78625 -0.64599,-22.10612 1.10031,-23.42152 1.51108,-38.12196 2.30007,-82.31241 0.43865,-24.56824 0.96048,-46.1376 1.15963,-47.93191 l 0.36209,-3.26238 1.58037,0.0693 c 4.08868,0.17926 35.41231,15.24404 41.7698,20.08876 0.39077,0.29778 0.0625,7.26267 -0.67569,14.33806 -2.28564,21.90606 -4.26988,73.57353 -4.28643,111.61365 -0.007,15.75573 -0.25681,21.32178 -0.95378,21.23886 -0.16952,-0.0202 -3.0185,-0.68031 -6.33107,-1.46697 z m -7.06502,-11.92232 c 0.64983,-3.06794 1.31334,-11.61427 1.89036,-24.34894 0.48226,-10.64337 0.47953,-14.18541 -0.0131,-17.05852 -0.34199,-1.9943 -0.82124,-3.82546 -1.06502,-4.06923 -0.49083,-0.49083 -0.59926,0.20313 -1.87091,11.97454 -0.91749,8.49302 -1.24375,29.54704 -0.51138,33.00025 0.47052,2.21854 1.15981,2.43888 1.5701,0.5019 z"
     id="path105"
     transform="scale(0.75)" />
  <path
     style="fill:currentColor;stroke-width:0.501905"
     d="m 545.0117,261.58574 c -5.16112,-4.54192 -12.84811,-8.99229 -25.34357,-14.67263 -11.46102,-5.21008 -14.2499,-7.14246 -14.2499,-9.87355 0,-2.6014 0.59294,-4.65759 1.34309,-4.65759 0.88984,0 7.28083,2.71116 18.82948,7.98777 7.73372,3.53356 17.21799,7.57128 17.78433,7.57128 1.78561,0 -8.46138,-6.88408 -25.85445,-17.36941 -12.16392,-7.33296 -12.10039,-7.26286 -12.10554,-13.35615 -0.002,-2.26033 -0.28918,-4.20347 -0.75286,-5.09254 -1.55836,-2.98801 -0.66537,-19.88072 1.78123,-33.69573 0.71646,-4.0456 1.18083,-9.45064 1.41451,-16.46409 0.27881,-8.36843 0.49463,-10.53593 1.08714,-10.91824 1.10194,-0.71101 7.95762,-2.80256 10.40093,-3.17315 2.59085,-0.39296 2.70669,0.0955 0.87833,3.70357 -2.16654,4.27546 -1.24586,7.02667 2.35143,7.02667 2.22652,0 6.63529,-1.89206 8.18996,-3.51478 2.40228,-2.50744 4.42221,-1.89232 4.94921,1.50716 0.14978,0.96616 0.40484,2.59698 0.56679,3.62403 0.7495,4.753 4.6405,6.25525 8.83686,3.41177 3.42749,-2.3225 5.88881,-1.87938 4.16596,0.75002 -0.46467,0.70917 -1.0132,2.21003 -1.21896,3.33524 -1.08345,5.92493 3.5864,9.55329 9.24988,7.18694 1.35833,-0.56754 2.08497,-0.62762 2.82178,-0.23329 1.16334,0.6226 1.12954,0.45432 0.47077,2.34408 -0.67162,1.9266 -0.0756,3.51071 2.31785,6.15991 1.34701,1.49099 2.36806,2.12211 3.80491,2.35187 3.71145,0.59349 3.75362,3.37065 0.15197,10.0089 -1.21067,2.23139 -2.34053,4.94168 -2.51082,6.02285 -0.27127,1.72241 3.18894,29.36806 4.09122,32.68714 0.22724,0.83593 -0.11326,1.49204 -1.38295,2.66482 -2.20319,2.03505 -8.47486,5.05114 -11.13186,5.35341 -6.13182,0.69756 -6.61351,1.68693 -6.61351,13.5837 0,5.03771 -0.11293,9.14673 -0.25095,9.13117 -0.13803,-0.0156 -1.97054,-1.54159 -4.07226,-3.39115 z m -3.46655,-64.46259 c 0.82224,-3.76892 1.27462,-11.80082 0.62899,-11.16739 -1.18281,1.16047 -2.77314,13.80239 -1.73632,13.80239 0.29286,0 0.79116,-1.18575 1.10733,-2.635 z m -16.71962,-10.88596 c 0.72226,-5.00352 0.65409,-7.71155 -0.17328,-6.88417 -0.62336,0.62336 -1.63051,7.16942 -1.63364,10.61798 -0.004,4.90741 0.79932,3.24651 1.80692,-3.73381 z"
     id="path106"
     transform="scale(0.75)" />
  <path
     style="fill:currentColor;stroke-width:0.501905"
     d="m 452.23462,247.49613 c -0.72961,-0.20333 -1.35151,-0.83196 -1.51713,-1.53354 -0.15437,-0.65392 -0.61433,-1.36175 -1.02212,-1.57295 -0.40779,-0.21119 -1.71748,-0.85846 -2.91042,-1.43838 -1.19293,-0.57992 -4.96636,-3.18212 -8.3854,-5.78267 -3.41903,-2.60056 -6.65183,-4.96131 -7.184,-5.24612 -1.56918,-0.8398 -1.64426,-2.48855 -0.5778,-12.68889 0.55711,-5.32856 1.23716,-15.89936 1.51121,-23.49067 0.27405,-7.59131 0.95453,-18.65755 1.51217,-24.59164 1.01474,-10.79819 0.96653,-12.856 -0.3482,-14.86253 -0.96339,-1.47031 -1.38006,-5.66984 -0.7291,-7.34846 0.82192,-2.11948 1.46984,-1.63965 1.18603,0.87833 -0.16847,1.49458 -0.0627,2.25857 0.3126,2.25857 0.31195,0 0.56718,-0.33084 0.56718,-0.7352 0,-1.648 4.75909,-2.53387 5.34933,-0.99573 0.16432,0.42823 -0.0688,2.63033 -0.51805,4.89357 -0.44925,2.26324 -0.81665,5.28434 -0.81643,6.71356 3.3e-4,2.20923 0.19853,2.75443 1.32284,3.63881 1.41643,1.11417 5.50542,1.39225 10.46872,0.71195 l 2.39507,-0.32828 -0.35599,-7.4788 c -0.2632,-5.52939 -0.19909,-7.66786 0.24596,-8.2041 0.69402,-0.83625 3.27618,-0.97616 3.75377,-0.20341 0.1774,0.28705 0.0619,2.06719 -0.25667,3.95587 -1.0437,6.18778 0.50895,9.16111 6.21075,11.89363 7.31137,3.50388 9.29162,2.01059 9.68045,-7.29997 0.30284,-7.25138 0.38944,-7.56571 2.08437,-7.56571 2.42306,0 2.97083,0.87964 3.22287,5.17539 0.19386,3.30415 0.4586,4.24415 1.68367,5.97816 2.66431,3.77116 7.84337,5.2017 11.63897,3.21485 2.43079,-1.27241 2.78923,-2.46924 2.19977,-7.34502 -0.78335,-6.47956 0.12464,-7.64925 4.17776,-5.38186 3.8981,2.18066 4.92494,6.29881 3.78311,15.1723 -0.6908,5.36845 -1.46772,18.107 -2.03562,33.37667 -0.58707,15.78508 -1.02341,18.95142 -2.66127,19.31159 -0.60161,0.1323 -3.6912,0.82015 -6.86575,1.52857 -14.91954,3.32937 -24.52966,5.34352 -32.31236,6.77224 -11.24986,2.06521 -15.3686,3.01933 -15.3686,3.56016 0,1.50486 26.01505,-0.499 43.39739,-3.34276 8.89694,-1.45555 11.43057,-1.54051 12.36494,-0.41466 1.0568,1.27337 0.92697,8.13995 -0.18485,9.77615 -2.12169,3.12241 -9.25396,5.35535 -23.70652,7.42197 -3.86467,0.55262 -8.94646,1.13652 -11.29286,1.29755 -2.34641,0.16104 -5.28255,0.37677 -6.52477,0.47942 -1.24221,0.10264 -2.81497,0.0316 -3.49502,-0.15796 z m -2.5445,-38.71335 c 0.63478,-8.32136 0.67388,-18.05892 0.0725,-18.05892 -0.53491,0 -0.75875,1.21213 -1.8537,10.0381 -0.79001,6.36789 -0.74881,13.77892 0.0841,15.12659 0.74698,1.20865 1.21107,-0.73449 1.69708,-7.10577 z m 19.58327,-15.42392 c 0.005,-3.1002 -0.19176,-5.14452 -0.49422,-5.14452 -0.30656,0 -0.49891,2.29527 -0.49422,5.89738 0.005,3.99305 0.1648,5.65427 0.49422,5.14452 0.2676,-0.41407 0.48999,-3.06789 0.49422,-5.89738 z"
     id="path107"
     transform="scale(0.75)" />
  <path
     style="fill:currentColor;stroke-width:0.501905"
     d="m 275.04497,175.03933 c 6e-4,-3.38158 0.1489,-11.70842 0.32956,-18.50408 l 0.32847,-12.35574 2.30544,-1.01735 c 1.268,-0.55955 6.53729,-2.97047 11.70955,-5.3576 10.6362,-4.9089 9.516,-4.84951 14.68733,-0.77869 1.65629,1.30381 7.6415,5.42292 13.30048,9.15356 5.65898,3.73064 10.7952,7.33024 11.41382,7.99911 1.65737,1.79196 3.12115,8.23674 3.48409,15.33984 0.18206,3.5632 0.1233,6.14642 -0.13974,6.14378 -0.24963,-0.003 -3.16417,-0.75846 -6.47674,-1.67989 -5.97133,-1.661 -9.43028,-3.1078 -11.73698,-4.90931 -3.19263,-2.49341 -6.70554,-0.32433 -8.57555,5.29508 -1.29337,3.88656 -2.09284,4.66101 -5.47344,5.30213 -3.15507,0.59835 -15.84118,1.4989 -21.26761,1.50973 l -3.88977,0.008 z"
     id="path108"
     transform="scale(0.75)" />
  <path
     style="fill:currentColor;stroke-width:0.501905"
     d="m 323.66247,144.66727 c -4.31515,-3.79191 -10.43172,-9.27571 -13.59239,-12.18623 -3.16067,-2.91052 -6.50685,-5.66002 -7.43596,-6.11 -2.09129,-1.01284 -1.60012,-1.24471 -14.03881,6.62758 -11.31286,7.15977 -12.55638,7.83076 -13.04557,7.03923 -0.39615,-0.64097 -2.25875,-19.52861 -1.9493,-19.76679 0.55163,-0.42459 11.72759,-6.46821 14.74392,-7.97306 4.75039,-2.36998 9.84172,-4.13832 13.94213,-4.84242 3.07095,-0.52732 3.62217,-0.48685 5.6626,0.41573 2.03234,0.899 23.08367,14.81892 24.73844,16.35797 0.55997,0.52081 0.57219,1.43997 0.0704,5.30053 -0.33386,2.56875 -0.75164,8.57676 -0.9284,13.35114 l -0.32138,8.68069 z"
     id="path109"
     transform="scale(0.75)" />
  <path
     style="fill:currentColor;stroke-width:0.501905"
     d="m 324.48947,114.41024 c -12.51411,-11.97635 -14.7741,-13.34861 -21.08796,-12.80451 -7.81485,0.67346 -10.70758,2.00664 -20.8318,9.6008 l -7.44889,5.5874 -0.56505,-3.24479 c -0.72826,-4.18197 -1.20945,-16.270714 -0.67506,-16.959086 0.94827,-1.221509 25.49593,-6.236885 30.56218,-6.244214 3.30313,-0.0048 11.7338,3.231044 22.59529,8.672425 8.38315,4.199785 13.84321,5.670125 16.25757,4.377995 1.34018,-0.71724 2.18949,-3.736194 1.81901,-6.465861 -0.21403,-1.576947 -2.80828,-7.256073 -8.0901,-17.710205 -4.27628,-8.463882 -7.76978,-15.691313 -7.76335,-16.060956 0.01,-0.563215 8.74022,16.002174 14.93621,28.340477 1.97787,3.938586 2.64093,8.411968 1.61424,10.890605 -0.75607,1.82531 -1.49779,2.27483 -4.51643,2.73713 -3.40997,0.52225 -4.01524,0.7693 -4.01524,1.63895 0,0.68981 -0.13522,0.67445 -1.00689,-0.11439 -0.55378,-0.50118 -1.14619,-0.77192 -1.31646,-0.60165 -0.17026,0.17026 -0.48572,2.86034 -0.701,5.97795 -0.43289,6.26861 -0.90366,9.31952 -1.49437,9.6846 -0.21433,0.13246 -3.93669,-3.15374 -8.2719,-7.30267 z"
     id="path110"
     transform="scale(0.75)" />
  <path
     style="fill:currentColor;stroke-width:0.501905"
     d="m 335.9657,94.868743 c -0.58489,-0.236256 -3.29517,-1.718693 -6.02286,-3.294303 -5.93791,-3.429957 -12.34056,-6.30659 -17.34827,-7.794362 -2.01966,-0.600034 -4.01089,-1.409408 -4.42496,-1.798609 -0.61377,-0.576903 -0.81263,-3.09215 -1.07638,-13.614308 -0.17793,-7.098669 -0.59953,-16.554277 -0.93688,-21.012463 -0.33735,-4.458187 -0.51886,-8.389295 -0.40336,-8.735797 0.58898,-1.766926 26.39297,41.459357 30.87031,51.713264 2.2297,5.106416 2.14803,5.669865 -0.6576,4.536578 z"
     id="path111"
     transform="scale(0.75)" />
  <path
     style="fill:currentColor;stroke-width:0.501905"
     d="m 268.51912,92.187457 c 0,-1.403316 7.86724,-21.072666 10.66842,-26.672746 2.29732,-4.592769 6.53332,-10.995636 10.63627,-16.077079 1.56024,-1.932334 4.27394,-5.618324 6.03044,-8.191089 l 3.19365,-4.677755 0.29856,3.17204 c 0.32364,3.438533 1.7968,36.334432 1.7966,40.118424 l -1.2e-4,2.314945 -2.86676,0.336931 c -4.24837,0.499313 -7.38398,1.504615 -18.3404,5.880081 -8.7487,3.493805 -11.41666,4.380952 -11.41666,3.796248 z"
     id="path112"
     transform="scale(0.75)" />
  <path
     style="fill:currentColor;stroke-width:0.501905"
     d="m 524.62648,108.70708 c -12.37192,-6.07192 -24.29672,-10.007257 -30.25016,-9.982938 -2.37574,0.0097 -4.49003,0.451607 -7.77952,1.625978 -6.48473,2.3151 -15.27066,6.61464 -17.47912,8.55369 -1.47236,1.29275 -2.03012,1.53031 -2.49737,1.06365 -0.43224,-0.4317 -0.64678,-4.70973 -0.76203,-15.195851 l -0.16041,-14.594996 8.69279,0.268543 c 7.03998,0.217483 10.08807,0.561043 16.03104,1.806906 7.92516,1.661402 34.66121,6.40572 38.96249,6.913899 l 2.635,0.311316 v 7.132792 c 0,9.282951 -0.46819,14.812821 -1.25415,14.812821 -0.33271,0 -3.09507,-1.22212 -6.13856,-2.71581 z"
     id="path113"
     transform="scale(0.75)" />
  <path
     style="fill:currentColor;stroke-width:0.501905"
     d="m 457.94625,70.97616 c 0.20865,-0.528235 0.83001,-2.151899 1.38078,-3.608142 2.28924,-6.052793 10.28825,-18.854949 18.72959,-29.976103 2.72389,-3.58862 6.19056,-8.420813 7.70372,-10.738206 3.32255,-5.088482 3.29736,-5.104403 5.5816,3.528596 3.10399,11.731152 4.79532,22.777942 5.23424,34.186998 l 0.26549,6.901192 -11.6472,0.0017 c -6.40596,9.19e-4 -15.24279,0.15079 -19.6374,0.333047 -7.73511,0.320794 -7.97809,0.30071 -7.61082,-0.629054 z"
     id="path114"
     transform="scale(0.75)" />
  <path
     style="fill:currentColor;stroke-width:0.501905"
     d="M 517.96666,74.840148 505.6708,73.01873 505.02581,71.049997 c -1.02806,-3.13805 -3.80164,-42.429903 -3.04826,-43.183277 0.14435,-0.144354 6.10396,8.376691 13.24356,18.935656 7.13961,10.558965 14.47083,21.343761 16.2916,23.966214 1.82077,2.622453 3.48342,5.050418 3.69477,5.395478 0.62059,1.013181 -3.70719,0.680851 -17.24082,-1.32392 z"
     id="path115"
     transform="scale(0.75)" />
  <path
     style="fill:currentColor;stroke-width:0.501905"
     d="m 525.24347,129.2127 c -13.33525,-6.07801 -22.19118,-8.72988 -29.21005,-8.74681 -4.36026,-0.0105 -8.17183,1.12161 -20.30481,6.03101 -4.75261,1.92306 -8.71219,3.49647 -8.79908,3.49647 -0.0869,0 -0.15763,-2.20211 -0.1572,-4.89357 10e-4,-7.46782 0.079,-7.56652 9.81135,-12.44402 13.91819,-6.97531 17.46558,-7.57845 26.59848,-4.52239 6.01056,2.01125 9.0796,3.49882 16.49172,7.99355 3.404,2.06418 6.42364,3.50172 8.18235,3.89531 2.37686,0.53191 2.88096,0.85011 3.4228,2.16054 0.54097,1.30833 2.33018,10.44952 2.08038,10.62877 -0.047,0.0337 -3.69917,-1.58576 -8.11594,-3.59886 z"
     id="path116"
     transform="scale(0.75)" />
  <path
     style="fill:currentColor;stroke-width:0.501905"
     d="m 485.07657,158.57847 c -0.21501,-0.3479 -0.55987,-2.48601 -0.76634,-4.75137 -0.62824,-6.89264 -1.78637,-8.02039 -9.5082,-9.25875 -6.54142,-1.04907 -7.61221,-1.43403 -7.43437,-2.67281 0.20077,-1.39844 4.09858,-3.7671 12.96744,-7.88016 12.6116,-5.84883 13.75264,-6.22834 18.80932,-6.25593 5.25216,-0.0287 7.95012,0.76157 17.81762,5.21882 9.98611,4.51082 16.31501,8.25454 17.08104,10.10391 0.99478,2.40161 0.17515,4.11211 -2.26,4.71641 -1.32772,0.32948 -2.70523,1.26579 -4.2138,2.86416 -1.23268,1.30606 -2.42399,2.26171 -2.64736,2.12366 -0.22336,-0.13805 -0.26897,-1.25154 -0.10136,-2.47444 0.42423,-3.09512 -0.51181,-5.06915 -3.03679,-6.4043 -1.69715,-0.8974 -2.85917,-1.08291 -6.57839,-1.05021 -5.36363,0.0472 -7.91079,0.93969 -9.17114,3.21358 -1.8337,3.30832 -1.52695,3.26154 -6.03174,0.91974 -3.28432,-1.70734 -4.77679,-2.18544 -7.32967,-2.34799 -2.7063,-0.17233 -3.36229,-0.0474 -4.21145,0.80172 -1.22554,1.22553 -2.11289,5.10908 -2.12322,9.29238 -0.008,3.31006 -0.55708,4.9815 -1.26159,3.84158 z"
     id="path117"
     transform="scale(0.75)" />
  <path
     style="fill:currentColor;stroke-width:0.501905"
     d="m 446.7932,154.33576 c 0.0102,-0.82815 0.12272,-1.10617 0.24997,-0.61783 0.12726,0.48833 0.11889,1.16591 -0.0186,1.50571 -0.13748,0.33981 -0.2416,-0.0597 -0.23137,-0.88788 z"
     id="path118"
     transform="scale(0.75)" />
  <path
     style="fill:currentColor;stroke-width:0.501905"
     d="m 202.22534,514.09021 c -0.28567,-0.75137 -1.53247,-4.62917 -2.77066,-8.61734 -2.00161,-6.4471 -2.16773,-7.33474 -1.49803,-8.00444 0.75731,-0.75731 7.06086,-2.01378 10.33388,-2.05982 1.61057,-0.0227 1.83182,0.15805 2.66031,2.17295 0.497,1.20871 2.58617,5.133 4.64262,8.72063 2.05644,3.58763 3.73898,6.77189 3.73898,7.07613 0,0.30424 -0.50818,0.66822 -1.12929,0.80884 -2.28386,0.51705 -9.71915,1.26917 -12.54687,1.26917 -2.70712,0 -2.94802,-0.0959 -3.43094,-1.36612 z"
     id="path119"
     transform="scale(0.75)" />
  <path
     style="fill:currentColor;stroke-width:0.501905"
     d="m 52.93508,530.36321 c -1.042234,-2.53981 -3.342482,-7.73541 -5.11166,-11.54578 -1.769179,-3.81037 -3.146094,-7.42408 -3.05981,-8.03047 0.120333,-0.8457 0.550737,-1.14021 1.847585,-1.26425 3.708685,-0.35474 4.971794,0.94791 10.620244,10.95267 4.208315,7.45393 7.268313,11.95709 7.778456,11.44695 0.408139,-0.40814 -1.285676,-4.44872 -5.778149,-13.78374 -2.212214,-4.59681 -4.022208,-8.43597 -4.022208,-8.53148 0,-0.0955 5.43002,-0.17364 12.06671,-0.17364 h 12.066708 l 1.504461,3.35316 c 3.81253,8.49741 7.074895,17.33675 6.580866,17.83077 -0.783074,0.78308 -4.282842,1.3107 -17.663503,2.66294 -6.763168,0.68348 -12.890233,1.34575 -13.6157,1.4717 -1.244451,0.21605 -1.426172,-0.0321 -3.214,-4.38883 z"
     id="path120"
     transform="scale(0.75)" />
  <path
     style="fill:currentColor;stroke-width:0.501905"
     d="m 44.511971,532.01087 c -2.448383,-0.73493 -2.851861,-1.39258 -2.880927,-4.69576 -0.01488,-1.69149 -0.218164,-4.8823 -0.451734,-7.09069 -0.23357,-2.20838 -0.336577,-4.10709 -0.228905,-4.21935 0.219614,-0.22897 6.942236,13.62553 7.466108,15.38674 0.294147,0.98889 0.160113,1.12392 -1.078154,1.08614 -0.777734,-0.0237 -2.049608,-0.23391 -2.826388,-0.46708 z"
     id="path121"
     transform="scale(0.75)" />
  <path
     style="fill:currentColor;stroke-width:0.501905"
     d="m 89.874288,529.15472 c -2.115327,-4.56662 -7.998263,-19.92313 -7.77238,-20.28862 0.334046,-0.5405 9.265013,-0.56765 10.110117,-0.0307 0.337909,0.21468 1.194613,2.18747 1.903785,4.38398 1.514901,4.69208 6.06487,14.2827 6.77598,14.2827 1.03147,0 0.87305,-0.52778 -4.481836,-14.93167 l -1.539381,-4.14071 h 8.984897 8.9849 l 0.27497,1.88214 c 0.15124,1.03518 0.76604,5.00578 1.36622,8.82355 0.95396,6.06812 0.99957,7.03308 0.36249,7.67016 -0.70171,0.70171 -12.54694,2.65177 -20.772004,3.41966 -3.525844,0.32917 -3.552595,0.32235 -4.197758,-1.07045 z"
     id="path122"
     transform="scale(0.75)" />
  <path
     style="fill:currentColor;stroke-width:0.501905"
     d="m 120.09668,525.63584 c -0.74447,-0.74447 -1.28869,-2.95726 -2.31704,-9.42103 -0.73923,-4.64641 -1.23185,-8.56021 -1.09473,-8.69733 0.81804,-0.81804 10.52007,-1.45393 10.9703,-0.71901 0.45418,0.74134 1.46618,15.59286 1.14871,16.85774 -0.33329,1.32794 -1.75065,1.96394 -5.90739,2.65078 -1.41142,0.23321 -2.0481,0.0806 -2.79985,-0.67115 z"
     id="path123"
     transform="scale(0.75)" />
  <path
     style="fill:currentColor;stroke-width:0.501905"
     d="m 133.5067,523.64705 c 0,-0.18791 -0.57852,-4.05428 -1.28561,-8.59192 -0.70709,-4.53765 -1.18261,-8.51869 -1.05671,-8.84677 0.25115,-0.65449 13.82472,-2.8901 17.92261,-2.95192 1.37347,-0.0207 2.76904,0.23416 3.10128,0.5664 1.154,1.154 1.87152,14.32174 0.88122,16.17212 -0.8462,1.58114 -2.19145,1.99322 -9.84608,3.01609 -7.86023,1.05034 -9.71671,1.17185 -9.71671,0.636 z"
     id="path124"
     transform="scale(0.75)" />
  <path
     style="fill:currentColor;stroke-width:0.501905"
     d="m 158.08148,519.93878 c -0.26584,-0.49672 -0.48334,-4.87048 -0.48334,-9.71946 v -8.81633 h 3.80659 3.80659 l -0.16778,8.50828 c -0.12004,6.08716 -0.35197,8.69219 -0.81506,9.15457 -0.356,0.35545 -1.77596,0.90048 -3.15547,1.21117 -2.2433,0.50524 -2.55924,0.46952 -2.99153,-0.33823 z"
     id="path125"
     transform="scale(0.75)" />
  <path
     style="fill:currentColor;stroke-width:0.501905"
     d="m 169.32265,517.17678 c -0.80085,-1.22176 -0.93356,-2.45036 -0.93356,-8.64284 0,-6.86437 0.055,-7.26319 1.12095,-8.12682 1.39957,-1.13394 7.58997,-1.85634 9.07891,-1.05948 1.11345,0.5959 2.42699,3.74509 3.99749,9.58392 1.61044,5.98737 1.68158,6.83035 0.68071,8.06638 -0.80771,0.99748 -1.47869,1.12811 -6.95247,1.35354 l -6.05848,0.24952 z"
     id="path126"
     transform="scale(0.75)" />
  <path
     style="fill:currentColor;stroke-width:0.501905"
     d="m 191.40365,516.62541 c -1.71376,-0.35226 -2.5224,-1.62325 -4.17939,-6.56904 -3.0193,-9.01201 -3.03035,-11.75511 -0.05,-12.4097 3.11668,-0.68454 5.29366,1.63653 8.63784,9.2096 1.54793,3.50535 2.14285,5.52619 2.16239,7.3453 l 0.027,2.50952 -2.76048,0.0678 c -1.51826,0.0373 -3.24507,-0.0318 -3.83735,-0.15351 z"
     id="path127"
     transform="scale(0.75)" />
  <path
     style="fill:currentColor;stroke-width:0.501905"
     d="m 223.59409,510.71499 c -2.59419,-4.05538 -6.24837,-11.7751 -6.55144,-13.84042 -0.30581,-2.08395 0.10602,-2.81085 1.83892,-3.24578 2.30934,-0.5796 4.0873,1.60232 8.5914,10.54339 2.27459,4.51527 3.99462,8.35059 3.82229,8.52292 -0.17233,0.17233 -1.56299,0.4423 -3.09036,0.59994 l -2.77703,0.28661 z"
     id="path128"
     transform="scale(0.75)" />
  <path
     style="fill:currentColor;stroke-width:0.501905"
     d="m 232.63123,504.5399 c -2.10203,-4.91272 -3.40683,-8.66495 -3.44701,-9.91263 l -0.0646,-2.00762 7.09231,-0.13889 7.0923,-0.13889 4.12882,9.32857 c 2.27085,5.13072 4.03009,9.42729 3.90944,9.54795 -0.23679,0.23679 -11.17295,1.20551 -13.75681,1.21856 -1.55325,0.008 -1.61247,-0.0865 -4.95441,-7.89705 z"
     id="path129"
     transform="scale(0.75)" />
  <path
     style="fill:currentColor;stroke-width:0.501905"
     d="m 256.62027,508.68616 c -0.77089,-0.96311 -2.90035,-5.19794 -4.73212,-9.41072 l -3.3305,-7.6596 1.57383,-0.58919 c 2.39373,-0.89615 5.06369,-0.80075 5.9547,0.21277 1.85532,2.1104 7.74567,17.10742 7.23843,18.42927 -0.21032,0.54806 -1.01337,0.76859 -2.79882,0.76859 -2.25764,0 -2.64172,-0.17221 -3.90552,-1.75112 z"
     id="path130"
     transform="scale(0.75)" />
  <path
     style="fill:currentColor;stroke-width:0.501905"
     d="m 269.54962,509.46016 c -1.55326,-1.55326 -2.50332,-3.74125 -5.10996,-11.76828 -1.6934,-5.21473 -2.27009,-7.6308 -1.87908,-7.87245 0.31028,-0.19177 3.52828,-0.73002 7.15111,-1.19611 3.62282,-0.4661 7.77982,-1.0232 9.23776,-1.23801 1.63716,-0.24121 2.76774,-0.20136 2.95658,0.1042 0.16818,0.27211 0.41793,5.16624 0.55501,10.87584 l 0.24924,10.3811 -3.84746,0.84541 c -5.21106,1.14505 -8.07698,1.10452 -9.3132,-0.1317 z"
     id="path131"
     transform="scale(0.75)" />
  <path
     style="fill:currentColor;stroke-width:0.501905"
     d="m 288.69164,508.29477 c -0.40189,-0.48424 -2.60585,-18.46758 -2.60585,-21.26253 0,-0.10147 1.91979,-0.18449 4.26619,-0.18449 h 4.26619 l -0.0289,8.90881 c -0.0159,4.89985 -0.18808,9.81224 -0.38261,10.91643 -0.34673,1.96822 -0.39875,2.01056 -2.65003,2.15727 -1.48632,0.0969 -2.49694,-0.092 -2.86497,-0.53549 z"
     id="path132"
     transform="scale(0.75)" />
  <path
     style="fill:currentColor;stroke-width:0.501905"
     d="m 301.25924,508.51216 c -0.3501,-0.22222 -0.8676,-1.17865 -1.14999,-2.12541 -0.53389,-1.78994 -1.81105,-20.3749 -1.42659,-20.75936 0.49703,-0.49703 10.10508,0.40448 10.70503,1.00443 0.37037,0.37037 0.7784,2.69478 0.97781,5.57029 0.18822,2.71408 0.688,7.27771 1.11062,10.14141 0.42261,2.8637 0.64912,5.51752 0.50336,5.89738 -0.20028,0.52191 -1.46458,0.68879 -5.17436,0.68298 -2.70013,-0.004 -5.19577,-0.1895 -5.54588,-0.41172 z"
     id="path133"
     transform="scale(0.75)" />
  <path
     style="fill:currentColor;stroke-width:0.501905"
     d="m 317.95196,507.73993 c -0.98102,-1.49722 -2.24239,-10.9225 -2.39143,-17.86933 l -0.1133,-5.28142 1.60029,-0.15498 c 1.23285,-0.11938 1.7803,0.11976 2.38425,1.04151 0.87198,1.3308 3.29047,16.62667 3.29207,20.82085 l 10e-4,2.635 h -1.99605 c -1.54708,0 -2.17167,-0.26803 -2.77684,-1.19163 z"
     id="path134"
     transform="scale(0.75)" />
</svg>
