<?xml version="1.0" standalone="no"?>
<!DOCTYPE svg PUBLIC "-//W3C//DTD SVG 20010904//EN"
 "http://www.w3.org/TR/2001/REC-SVG-20010904/DTD/svg10.dtd">
<svg version="1.0" xmlns="http://www.w3.org/2000/svg"
 width="1706.000000pt" height="148.000000pt" viewBox="0 0 1706.000000 148.000000"
 preserveAspectRatio="xMidYMid meet">
<metadata>
Created by potrace 1.16, written by Peter Selinger 2001-2019
</metadata>
<g transform="translate(0.000000,148.000000) scale(0.100000,-0.100000)"
fill="currentColor" stroke="none">
<path d="M2519 1438 c-35 -69 -66 -103 -119 -132 -55 -30 -55 -30 -40 -72 9
-26 -7 -78 -138 -444 -82 -228 -163 -451 -181 -495 -63 -161 -110 -218 -191
-231 -66 -10 -80 -14 -80 -24 0 -6 93 -10 250 -10 146 0 250 4 250 9 0 10 -25
16 -106 26 -28 4 -66 15 -84 26 -32 20 -33 22 -27 74 5 50 44 175 119 381 l30
84 181 -2 181 -3 73 -225 c91 -280 93 -323 18 -335 -19 -3 -51 -7 -70 -10 -19
-3 -35 -10 -35 -15 0 -6 269 -10 720 -10 451 0 720 4 720 10 0 10 -34 17 -134
24 -37 3 -75 11 -82 17 -11 9 -14 70 -14 323 l0 311 163 0 c137 1 174 4 241
23 161 46 264 118 312 220 22 47 28 72 28 137 1 70 -3 88 -29 140 -53 107
-173 170 -366 195 -106 13 -849 14 -849 0 0 -10 26 -15 125 -26 33 -3 66 -11
73 -16 9 -8 12 -150 12 -649 l0 -639 -23 -14 c-32 -21 -182 -37 -255 -26 -80
11 -104 29 -145 108 -26 49 -457 1284 -457 1308 0 2 -11 4 -25 4 -19 0 -30
-10 -46 -42z m1481 -49 c72 -25 117 -66 152 -136 31 -63 33 -74 33 -173 0 -99
-2 -109 -33 -172 -35 -71 -81 -116 -149 -145 -41 -17 -168 -24 -215 -10 l-28
7 0 319 0 320 23 5 c36 8 179 -2 217 -15z m-1531 -476 c40 -126 76 -234 78
-240 4 -10 -33 -13 -161 -13 -91 0 -166 3 -166 8 -1 15 163 472 169 472 4 0
39 -102 80 -227z"/>
<path d="M6773 1462 c-10 -9 -89 -137 -176 -284 -168 -283 -180 -313 -122
-313 28 0 37 13 185 262 85 145 157 263 160 263 3 0 73 -112 155 -250 82 -137
156 -252 163 -255 20 -8 52 13 52 35 0 23 -294 518 -322 543 -26 22 -73 22
-95 -1z"/>
<path d="M8240 1464 c-117 -23 -240 -94 -292 -170 -60 -86 -73 -131 -73 -244
0 -94 3 -110 27 -155 55 -105 147 -167 386 -259 146 -57 229 -110 271 -173 37
-55 45 -94 39 -177 -6 -71 -32 -128 -80 -172 -63 -60 -92 -69 -213 -69 -104 0
-114 2 -177 33 -89 43 -140 102 -218 251 -35 67 -69 121 -76 121 -9 0 -11 -15
-8 -52 3 -29 8 -111 13 -181 5 -71 13 -133 18 -138 19 -19 213 -60 335 -71
111 -10 138 -9 215 6 171 34 303 131 371 274 31 65 37 89 40 162 11 234 -96
358 -403 470 -111 41 -212 90 -254 126 -35 29 -65 81 -76 132 -19 87 51 203
143 239 67 26 170 23 247 -8 l59 -24 96 -167 c52 -92 101 -168 108 -168 14 0
17 187 6 323 l-7 76 -39 -16 c-37 -15 -46 -15 -136 7 -93 21 -268 34 -322 24z"/>
<path d="M9622 1459 c-240 -40 -466 -207 -573 -424 -54 -110 -69 -179 -69
-311 0 -214 59 -363 200 -505 97 -97 195 -153 335 -190 104 -28 307 -31 407
-6 353 87 598 380 598 714 0 378 -245 663 -620 723 -76 12 -203 11 -278 -1z
m281 -62 c118 -54 211 -185 258 -362 31 -116 38 -403 14 -547 -49 -298 -189
-448 -416 -448 -224 0 -372 149 -437 439 -21 95 -23 424 -4 516 66 308 200
439 437 432 72 -2 101 -8 148 -30z"/>
<path d="M11243 1455 c-203 -37 -384 -140 -489 -278 -57 -75 -109 -183 -129
-269 -22 -93 -20 -277 5 -372 107 -417 576 -628 1095 -490 162 43 210 56 213
59 2 1 18 83 37 181 19 99 37 189 40 202 3 14 1 22 -7 22 -7 0 -35 -42 -62
-93 -70 -130 -116 -196 -180 -255 -99 -90 -211 -128 -356 -120 -71 4 -99 11
-155 38 -136 65 -243 212 -297 405 -18 68 -22 106 -22 255 0 149 4 187 22 255
60 217 169 354 329 412 107 39 307 28 404 -22 18 -10 60 -74 140 -214 63 -111
119 -201 125 -201 8 0 10 53 7 178 -4 193 -11 282 -21 282 -4 0 -36 -9 -71
-20 l-64 -20 -61 24 c-136 54 -339 71 -503 41z"/>
<path d="M4572 1426 c10 -7 50 -16 90 -20 39 -3 77 -11 85 -17 10 -9 13 -133
13 -654 l0 -643 -27 -10 c-16 -6 -44 -13 -63 -16 -90 -13 -110 -18 -110 -26 0
-6 227 -10 603 -10 l602 0 29 218 c15 119 30 227 33 240 3 15 1 22 -9 22 -8 0
-27 -33 -46 -79 -39 -95 -115 -206 -175 -255 -107 -87 -236 -121 -423 -110
l-114 7 0 333 0 334 63 -6 c221 -19 279 -55 300 -193 6 -39 16 -71 22 -71 9 0
67 480 65 538 0 29 -22 4 -45 -53 -49 -121 -134 -171 -312 -182 l-93 -6 0 315
0 316 93 6 c98 8 205 -4 275 -28 123 -44 213 -164 279 -370 5 -17 15 -32 23
-34 10 -4 12 13 7 89 -4 52 -10 158 -13 237 l-7 142 -581 0 c-484 -1 -578 -3
-564 -14z"/>
<path d="M12122 1426 c10 -7 48 -16 85 -19 38 -3 76 -9 86 -12 16 -7 17 -47
17 -656 0 -744 12 -665 -105 -676 -36 -3 -73 -12 -83 -19 -14 -11 41 -13 336
-14 217 0 352 4 352 10 0 9 -22 14 -115 25 -27 3 -58 8 -67 11 -17 5 -18 45
-18 655 l0 649 26 10 c14 6 44 12 67 15 91 13 107 16 107 25 0 6 -135 10 -352
10 -295 -1 -350 -3 -336 -14z"/>
<path d="M12880 1430 c0 -11 21 -16 104 -25 33 -4 65 -9 73 -12 11 -4 13 -120
13 -654 l0 -649 -26 -11 c-15 -5 -53 -12 -85 -16 -33 -3 -67 -12 -77 -19 -14
-11 84 -13 589 -14 l605 0 28 213 c15 116 30 224 33 240 4 20 2 27 -10 27 -9
0 -21 -18 -31 -47 -51 -152 -165 -290 -288 -348 -95 -44 -181 -57 -324 -49
l-114 7 0 334 0 333 58 -5 c161 -16 202 -26 247 -66 37 -33 65 -104 65 -166 0
-21 5 -33 13 -33 10 0 20 61 40 248 15 136 27 259 27 275 0 30 -17 37 -26 10
-3 -10 -19 -45 -35 -79 -47 -100 -126 -140 -296 -151 l-93 -6 0 315 0 316 93
6 c182 13 317 -24 402 -109 56 -55 93 -121 131 -230 17 -49 37 -91 44 -93 13
-5 12 32 -6 361 l-7 107 -573 0 c-369 0 -574 -4 -574 -10z"/>
<path d="M14305 1418 c-3 -13 -16 -97 -30 -188 -14 -91 -28 -177 -31 -192 -10
-48 20 -33 51 25 111 207 266 333 425 345 l70 5 0 -656 0 -657 -24 -16 c-14
-8 -59 -19 -100 -23 -42 -4 -81 -12 -88 -19 -9 -9 70 -12 358 -12 308 1 366 3
352 14 -10 7 -51 16 -92 19 -130 10 -116 -74 -116 689 l0 661 73 -5 c164 -11
304 -122 408 -323 35 -68 66 -88 56 -37 -3 15 -13 109 -23 210 l-17 182 -634
0 -633 0 -5 -22z"/>
<path d="M15624 1425 c11 -8 33 -15 48 -15 45 0 92 -25 127 -66 18 -22 113
-181 212 -354 l179 -315 0 -292 c0 -333 7 -307 -91 -318 -95 -11 -119 -16
-119 -25 0 -6 138 -10 360 -10 222 0 360 4 360 10 0 10 -26 15 -124 25 -33 4
-65 9 -73 12 -10 4 -13 66 -13 324 l0 319 131 243 c201 370 245 427 342 442
78 12 97 17 97 26 0 5 -108 9 -260 9 -163 0 -260 -4 -260 -10 0 -10 18 -15 95
-25 64 -9 103 -29 110 -58 4 -13 -4 -50 -16 -83 -24 -67 -249 -494 -260 -494
-4 0 -77 126 -164 281 -172 308 -177 324 -115 346 19 6 56 15 83 18 26 3 47
10 47 16 0 5 -141 9 -357 9 -317 -1 -356 -2 -339 -15z"/>
<path d="M6710 905 c-35 -63 -81 -143 -104 -178 -38 -57 -44 -62 -82 -65 -40
-3 -41 -2 -123 93 -45 52 -88 95 -95 95 -17 0 -26 -45 -26 -133 l0 -71 -44 43
c-47 47 -77 50 -75 9 0 -13 8 -70 17 -128 l17 -105 70 3 c332 14 1168 62 1173
67 13 12 8 258 -5 262 -6 2 -29 -18 -51 -46 l-40 -50 -12 87 c-6 48 -13 93
-16 100 -9 30 -43 1 -109 -96 l-70 -102 -43 0 -42 0 -88 119 c-48 65 -102 139
-119 165 -50 70 -61 65 -133 -69z m129 -240 c-11 -25 -23 -45 -27 -45 -4 0
-18 19 -30 43 l-23 42 21 48 22 48 28 -45 29 -45 -20 -46z"/>
<path d="M771 736 c-78 -20 -119 -46 -74 -46 42 0 43 -11 43 -332 l0 -308 -30
0 c-16 0 -30 -4 -30 -10 0 -6 50 -10 130 -10 74 0 130 4 130 9 0 6 -15 11 -32
13 l-33 3 -3 167 -2 167 24 16 c37 24 103 22 130 -4 20 -20 21 -31 21 -184 l0
-162 -25 -3 c-14 -2 -29 -8 -35 -13 -5 -5 45 -9 129 -9 89 0 135 4 131 10 -3
6 -19 10 -35 10 l-28 0 -4 188 c-2 128 -8 195 -17 213 -40 79 -161 77 -258 -5
l-33 -28 0 171 c0 94 -3 171 -7 170 -5 0 -46 -11 -92 -23z"/>
<path d="M26 688 c-3 -13 -10 -53 -15 -89 -19 -117 -12 -126 34 -48 46 78 132
139 196 139 18 0 19 -15 19 -314 0 -347 4 -326 -65 -326 -19 0 -37 -4 -40 -10
-4 -7 57 -10 175 -10 118 0 179 3 175 10 -3 6 -21 10 -40 10 -69 0 -65 -21
-65 326 l0 314 28 0 c66 -1 160 -74 199 -155 23 -49 36 -43 29 13 -3 26 -8 73
-12 105 l-6 57 -304 0 -304 0 -4 -22z"/>
<path d="M1401 496 c-51 -18 -106 -70 -131 -123 -34 -70 -33 -172 1 -239 81
-160 319 -160 403 0 25 47 12 59 -19 20 -52 -67 -150 -72 -211 -13 -37 36 -68
118 -62 166 l3 28 148 -2 147 -3 0 39 c0 47 -33 97 -80 122 -40 22 -145 25
-199 5z m119 -26 c17 -17 22 -31 35 -92 3 -16 -6 -18 -81 -18 -47 0 -84 4 -84
10 0 19 25 66 49 93 29 32 54 34 81 7z"/>
<path d="M6780 446 l-575 -31 -3 -89 c-2 -49 1 -93 5 -97 5 -5 286 6 626 24
l618 31 -3 96 -3 95 -45 1 c-25 1 -304 -12 -620 -30z m352 -53 c23 -21 23 -36
-1 -57 -15 -14 -24 -15 -40 -6 -26 13 -28 55 -3 69 23 14 23 14 44 -6z m-560
-30 c24 -21 23 -38 -4 -57 -41 -29 -83 19 -48 54 24 24 28 25 52 3z m274 -4
c9 -15 -11 -33 -30 -26 -9 4 -13 13 -10 22 7 17 30 20 40 4z"/>
<path d="M7517 304 c-15 -16 -5 -51 33 -115 22 -37 40 -70 40 -73 0 -3 -344
-6 -765 -6 -421 0 -765 3 -765 6 0 4 16 33 36 65 43 72 43 104 -1 104 -27 0
-35 -8 -77 -79 -53 -88 -57 -111 -27 -150 l20 -26 813 0 813 0 21 23 c33 35
27 64 -31 162 -41 71 -58 91 -78 93 -13 2 -28 0 -32 -4z"/>
</g>
</svg>
