<?xml version="1.0" standalone="no"?>
<!DOCTYPE svg PUBLIC "-//W3C//DTD SVG 20010904//EN"
 "http://www.w3.org/TR/2001/REC-SVG-20010904/DTD/svg10.dtd">
<svg version="1.0" xmlns="http://www.w3.org/2000/svg"
 width="499.000000pt" height="492.000000pt" viewBox="0 0 499.000000 492.000000"
 preserveAspectRatio="xMidYMid meet">
<metadata>
Created by potrace 1.16, written by Peter Selinger 2001-2019
</metadata>
<g transform="translate(0.000000,492.000000) scale(0.100000,-0.100000)"
fill="currentColor" stroke="none">
<path d="M2155 4895 c-521 -84 -766 -179 -1135 -438 -186 -130 -313 -238 -402
-342 -52 -61 -59 -74 -54 -102 3 -23 -1 -36 -16 -50 -41 -35 -178 -229 -212
-298 -53 -106 -171 -400 -210 -522 -93 -287 -118 -393 -120 -503 0 -58 4 -136
11 -175 30 -177 53 -342 68 -475 16 -148 46 -273 91 -386 49 -124 280 -553
350 -651 59 -82 440 -467 528 -533 37 -28 100 -67 139 -87 39 -19 103 -55 142
-78 86 -53 143 -70 178 -54 21 10 31 6 73 -24 47 -33 189 -92 283 -117 70 -19
259 -49 341 -55 137 -11 827 12 905 30 93 21 242 72 455 157 275 110 310 129
408 221 48 45 122 110 164 144 79 64 124 116 205 238 26 39 69 98 95 132 57
72 160 238 232 373 28 52 70 122 94 155 57 80 148 288 179 405 35 135 51 460
33 685 -6 88 -16 205 -20 260 -4 55 -13 113 -19 128 -6 16 -11 48 -11 71 0 58
-16 101 -45 120 -18 12 -32 40 -51 104 -14 48 -37 116 -50 152 -29 79 -138
280 -192 352 -21 29 -76 112 -121 185 -63 103 -98 147 -152 195 -48 43 -79 81
-97 118 -25 51 -30 55 -67 61 -54 7 -89 27 -161 91 -34 29 -90 74 -125 100
-35 25 -113 83 -174 128 -136 101 -148 108 -339 174 -192 67 -259 82 -416 95
-69 6 -186 17 -260 26 -189 21 -356 18 -525 -10z m361 -92 l-1 -58 51 -3 c47
-3 52 -6 57 -29 3 -14 2 -43 0 -64 -5 -31 -11 -40 -37 -50 -42 -17 -66 -38
-66 -61 0 -13 -7 -18 -29 -18 -26 0 -29 4 -50 75 -13 41 -25 109 -28 151 -5
56 -11 82 -25 96 -17 17 -16 18 56 18 l73 0 -1 -57z m-171 28 c29 -6 30 -8 42
-101 7 -52 20 -115 28 -139 8 -25 15 -52 14 -60 -2 -39 -40 102 -52 189 l-13
95 -58 8 c-32 5 -60 6 -63 3 -5 -5 -1 -19 36 -113 16 -40 17 -51 6 -47 -7 3
-21 16 -29 29 -8 13 -29 26 -46 30 -42 9 -61 31 -54 61 5 18 2 24 -10 24 -9 0
-16 4 -16 9 0 11 38 2 46 -11 3 -5 0 -16 -7 -24 -9 -11 -9 -18 -1 -26 12 -12
84 -39 90 -34 1 2 -5 22 -14 45 -9 22 -14 48 -10 56 6 16 54 18 111 6z m305
-2 c0 -5 -22 -9 -49 -9 -42 0 -49 -3 -54 -22 -4 -12 -9 -20 -12 -16 -3 3 -1
16 4 29 7 21 16 24 60 26 28 0 51 -3 51 -8z m60 1 c0 -5 -11 -10 -25 -10 -14
0 -25 5 -25 10 0 6 11 10 25 10 14 0 25 -4 25 -10z m88 -28 c3 -17 -3 -21 -30
-24 -25 -2 -34 -9 -39 -28 l-7 -25 -1 26 c-1 27 14 39 50 39 22 0 24 10 7 29
-11 11 -10 13 2 9 8 -3 16 -14 18 -26z m278 -8 c105 -18 416 -126 474 -165 48
-31 125 -96 100 -83 -8 4 -34 22 -57 41 -23 18 -53 33 -67 33 -13 0 -28 4 -31
10 -3 5 -32 17 -63 26 -31 9 -92 32 -135 52 -64 29 -83 34 -105 26 -36 -13
-40 -41 -8 -54 22 -8 26 -16 26 -47 -1 -62 -53 -143 -77 -119 -4 4 0 12 10 17
19 11 24 73 7 84 -6 4 -8 21 -4 39 7 43 -17 71 -47 55 -12 -6 -42 -8 -75 -3
-64 8 -104 -11 -104 -50 0 -13 -7 -30 -16 -37 -12 -10 -15 -24 -11 -52 6 -44
13 -55 42 -60 35 -7 105 -40 105 -49 0 -12 -14 -10 -72 13 -45 18 -87 26 -145
28 -6 1 -14 15 -18 32 -4 18 -16 35 -31 41 -26 12 -28 21 -18 117 6 54 9 61
28 61 29 0 46 18 46 48 0 23 1 23 83 17 45 -4 119 -13 163 -21z m-1076 -2 c0
-5 -6 -30 -14 -56 l-14 -47 30 -6 30 -6 -7 -61 c-3 -33 -9 -63 -11 -66 -12
-12 -61 30 -82 70 -13 25 -32 54 -43 65 -14 16 -17 30 -13 56 6 33 10 37 53
46 62 14 71 14 71 5z m119 -2 c8 0 12 -3 8 -6 -3 -3 -1 -18 4 -33 10 -27 44
-51 73 -51 8 0 26 -16 41 -36 19 -24 33 -34 48 -32 32 4 33 48 3 113 l-25 55
30 0 c35 0 43 -17 52 -106 4 -34 14 -83 23 -109 29 -88 -20 -83 -127 11 -37
33 -69 54 -84 54 -59 0 -69 -25 -35 -95 25 -53 25 -57 -7 -53 l-28 3 -3 123
c-2 116 -4 122 -23 122 -15 0 -19 5 -15 16 3 9 6 20 6 26 0 6 10 8 23 4 12 -3
28 -6 36 -6z m580 -102 c1 -69 7 -118 14 -127 10 -12 9 -14 -6 -8 -10 4 -22 7
-26 7 -5 0 -8 49 -8 108 0 60 -3 114 -7 120 -4 8 0 12 12 12 17 0 19 -9 21
-112z m-96 85 c-7 -2 -21 -2 -30 0 -10 3 -4 5 12 5 17 0 24 -2 18 -5z m-758
-42 c-4 -21 0 -35 18 -57 13 -16 32 -45 42 -64 22 -44 54 -80 72 -80 7 0 13
-5 13 -10 0 -17 -34 5 -64 41 -14 17 -26 34 -26 39 0 5 -16 30 -36 55 -27 36
-34 53 -29 72 6 24 4 25 -22 19 -21 -5 -24 -4 -13 4 8 5 23 10 33 10 15 0 17
-5 12 -29z m-33 -45 c5 -23 5 -23 -35 -8 -33 13 -36 17 -21 23 35 14 52 9 56
-15z m1161 -13 c-17 -6 -16 -28 2 -43 19 -16 10 -30 -21 -30 -19 0 -24 -5 -24
-24 0 -28 17 -43 32 -28 6 6 18 1 34 -15 18 -18 33 -23 57 -21 28 3 32 7 30
29 -1 23 2 25 25 20 18 -3 21 -6 10 -9 -9 -2 -18 -13 -20 -25 -4 -30 -68 -36
-106 -10 -15 9 -31 16 -36 15 -15 -5 -36 20 -36 44 0 17 8 28 26 34 22 9 24
13 14 25 -14 17 -6 45 12 44 10 0 10 -2 1 -6z m-1447 -27 c-3 -13 1 -43 9 -66
21 -59 19 -66 -9 -33 -22 25 -31 28 -83 28 -64 -1 -136 -29 -235 -93 -90 -58
-89 -91 2 -100 50 -5 52 -6 77 -56 14 -28 43 -71 64 -95 l37 -45 -41 -26 -42
-26 -15 71 c-20 91 -46 127 -117 160 -64 31 -111 29 -153 -5 -14 -11 -49 -36
-77 -56 -29 -19 -53 -38 -53 -43 0 -14 -170 -181 -185 -181 -40 0 -39 -69 2
-91 22 -12 29 -11 63 9 l38 21 17 -42 c35 -85 46 -132 39 -174 -3 -24 -11 -43
-18 -43 -13 1 -153 121 -173 150 -8 11 -23 20 -34 20 -24 0 -24 6 2 38 11 15
19 37 17 52 -3 36 43 93 161 194 177 153 488 364 620 422 91 40 95 41 87 10z
m1872 -47 c23 -7 42 -15 42 -18 -1 -3 -15 -34 -33 -68 -25 -50 -35 -60 -47
-53 -8 5 -36 10 -62 10 -36 0 -50 -4 -57 -19 -6 -10 -7 -21 -4 -25 10 -10 -19
-5 -57 9 -19 7 -27 14 -18 14 33 2 67 45 81 100 8 30 16 48 19 40 3 -7 8 -11
12 -8 3 3 0 24 -8 46 l-14 40 51 -28 c29 -15 71 -33 95 -40z m-2 41 c85 -29
87 -30 82 -35 -4 -5 -137 41 -146 50 -9 8 3 6 64 -15z m-1794 -20 c-5 -36 -8
-37 -23 -9 -9 17 -8 23 2 30 22 14 26 11 21 -21z m108 21 c0 -10 -24 -21 -43
-21 -7 0 -3 7 7 15 22 17 36 19 36 6z m137 -13 c11 -13 30 -42 41 -64 15 -28
34 -48 61 -61 l41 -20 -47 -7 c-76 -10 -83 -9 -83 18 0 32 -36 94 -60 101 -15
5 -16 9 -6 30 14 31 27 31 53 3z m1210 -33 c-11 -56 -24 -68 -47 -40 -11 13
-11 20 0 39 7 13 10 29 6 34 -6 9 10 18 40 21 7 1 8 -15 1 -54z m-826 -20 c34
-30 66 -55 72 -55 6 0 8 -3 5 -6 -4 -3 -16 0 -28 6 -29 16 -133 110 -120 110
5 0 37 -25 71 -55z m-55 -30 c8 -19 12 -35 10 -35 -6 0 -46 89 -46 99 1 9 19
-24 36 -64z m-517 15 c19 0 21 -6 23 -85 0 -47 1 -91 2 -97 1 -7 -12 -14 -27
-16 -25 -3 -27 -1 -22 21 4 13 0 48 -8 78 -9 30 -18 69 -21 87 -5 30 -4 32 14
22 10 -5 28 -10 39 -10z m126 14 c21 -9 56 -79 49 -98 -3 -9 -12 -16 -19 -16
-16 0 -45 -27 -45 -41 0 -15 27 -10 67 11 39 21 103 29 73 10 -8 -5 -25 -10
-37 -10 -12 0 -34 -8 -51 -17 -32 -18 -62 -12 -62 12 0 9 16 25 35 36 19 12
35 23 35 25 0 2 -8 19 -17 39 -14 30 -22 35 -50 35 -39 0 -54 -22 -48 -71 2
-19 6 -54 8 -79 5 -45 5 -45 -9 -15 -7 17 -13 55 -14 86 0 56 12 78 50 92 8 3
16 6 17 6 1 1 9 -2 18 -5z m1781 -42 c-27 -3 -41 -29 -30 -55 3 -9 27 -30 52
-46 26 -17 53 -40 61 -53 11 -18 5 -15 -23 10 -32 28 -45 33 -78 30 -76 -6
-78 -65 -4 -110 24 -15 50 -36 56 -47 20 -39 -45 -26 -137 25 l-82 47 30 38
c16 21 37 58 45 82 8 24 28 60 45 80 l31 37 30 -17 30 -18 -26 -3z m-1969
-163 c-14 -25 -14 -28 7 -37 19 -10 18 -11 -11 -11 l-33 -1 22 41 c18 34 19
46 10 77 -6 20 -13 57 -16 82 -3 25 4 8 16 -40 19 -77 19 -87 5 -111z m-99
164 c26 -22 44 -87 32 -117 -4 -12 -24 -34 -44 -50 -20 -15 -36 -36 -36 -47 0
-10 1 -19 3 -19 18 -1 77 -29 70 -33 -16 -10 -78 29 -81 51 -2 14 10 30 37 53
35 28 41 38 41 70 0 104 -67 126 -192 63 -26 -13 -51 -24 -55 -23 -4 0 23 16
62 35 78 38 132 43 163 17z m292 -32 c0 -3 -12 -14 -25 -24 l-25 -18 0 35 c0
38 18 52 38 28 6 -9 12 -18 12 -21z m817 33 c-3 -3 -12 -4 -19 -1 -8 3 -5 6 6
6 11 1 17 -2 13 -5z m580 -39 c-17 -15 -40 -25 -59 -25 -17 0 -41 -8 -52 -17
-21 -18 -21 -18 -2 5 13 14 30 22 51 22 18 0 43 9 56 20 35 28 39 24 6 -5z
m398 -5 c-3 -5 -10 -10 -16 -10 -5 0 -9 5 -9 10 0 6 7 10 16 10 8 0 12 -4 9
-10z m-2152 -7 c-7 -2 -21 -2 -30 0 -10 3 -4 5 12 5 17 0 24 -2 18 -5z m2282
-44 c6 -6 -7 -3 -29 6 -46 19 -57 13 -29 -18 22 -24 43 -60 43 -75 0 -5 -12
-18 -27 -27 l-27 -18 -32 38 c-24 29 -39 38 -62 38 -17 0 -29 4 -26 9 12 19
50 5 85 -32 34 -36 41 -39 59 -28 11 7 20 17 20 22 0 21 -44 78 -71 91 -29 15
-35 26 -23 38 7 7 104 -29 119 -44z m43 26 c-3 -3 -9 2 -12 12 -6 14 -5 15 5
6 7 -7 10 -15 7 -18z m-2290 -26 c-3 -20 -5 -19 -9 9 -3 20 -2 29 4 23 5 -5 7
-19 5 -32z m-156 6 c-5 -27 -6 -28 -41 -18 -23 6 -23 6 10 24 19 10 35 18 35
19 1 0 -1 -11 -4 -25z m115 7 c13 -8 8 -19 -20 -41 -15 -12 -19 -12 -32 5 -12
17 -11 20 8 31 26 15 29 15 44 5z m1937 -32 c11 -11 15 -20 9 -20 -6 0 -16 7
-23 15 -7 8 -28 15 -46 15 -27 0 -32 -3 -28 -17 5 -17 5 -17 -6 0 -6 9 -8 22
-4 28 10 17 74 3 98 -21z m-1808 -49 c-9 -16 -16 -37 -16 -46 0 -9 -9 -15 -24
-15 -40 0 -38 15 4 49 23 19 40 41 41 54 1 16 3 17 6 5 2 -9 -3 -30 -11 -47z
m2190 0 c-14 -13 -16 -12 -24 10 -7 18 -6 25 4 27 8 2 14 9 15 15 0 7 5 1 10
-12 7 -19 6 -28 -5 -40z m-2371 -51 c4 0 14 4 23 9 14 7 17 4 19 -17 0 -15 11
-34 22 -43 18 -15 19 -18 4 -23 -11 -5 -26 5 -47 31 -41 48 -76 111 -75 132 0
9 11 -8 25 -36 13 -29 26 -53 29 -53z m2476 48 c72 -69 89 -96 89 -140 0 -33
-4 -39 -42 -60 -41 -23 -43 -26 -42 -71 0 -26 -3 -47 -6 -47 -21 0 -50 44 -50
75 0 47 -46 101 -79 90 -13 -4 -24 -17 -28 -35 -5 -28 -6 -28 -28 -14 l-24 15
40 36 c22 20 58 67 80 105 33 56 38 72 29 84 -29 34 11 10 61 -38z m-1198 32
c32 -5 104 -14 160 -20 172 -19 231 -38 341 -112 32 -22 129 -68 215 -103 208
-83 268 -120 382 -228 53 -51 132 -121 175 -157 99 -82 173 -180 220 -290 135
-313 140 -330 153 -487 9 -115 12 -127 53 -205 l43 -83 3 -204 c3 -191 2 -210
-23 -315 -14 -61 -42 -158 -60 -216 -19 -58 -42 -132 -52 -165 l-17 -60 -8 63
c-18 134 -75 232 -136 232 -25 0 -30 5 -40 39 -22 70 -73 110 -232 178 -130
55 -255 91 -268 78 -3 -3 17 -14 44 -26 164 -72 355 -172 378 -200 27 -32 49
-96 48 -141 -2 -68 -70 -148 -216 -252 -216 -154 -266 -191 -257 -194 5 -2 23
4 39 12 l29 15 -25 -61 c-22 -57 -23 -66 -13 -117 7 -31 30 -92 53 -137 32
-64 39 -87 34 -110 -7 -28 -8 -28 -99 68 -51 53 -115 121 -144 152 -59 65 -93
72 -140 32 -27 -23 -28 -28 -26 -110 1 -47 0 -86 -2 -86 -1 0 -31 41 -64 90
-34 50 -67 90 -74 90 -6 0 -1 7 12 16 28 20 51 72 51 116 0 32 0 32 16 10 23
-33 107 -72 153 -72 55 0 121 60 121 110 0 31 1 32 18 17 15 -14 21 -15 36 -4
26 19 38 85 21 116 -8 15 -26 66 -41 116 -25 85 -30 93 -95 157 -47 46 -77 68
-93 68 -13 0 -26 6 -28 13 -3 8 -34 13 -94 16 -160 6 -178 5 -221 -16 -24 -12
-52 -18 -68 -15 -21 4 -36 -4 -73 -40 -45 -44 -50 -46 -120 -51 -80 -6 -141
-34 -184 -84 -13 -16 -36 -35 -52 -43 -32 -16 -86 -89 -87 -117 0 -12 -4 -8
-11 11 -10 26 -13 28 -54 23 -47 -5 -67 9 -91 61 l-11 27 -1 -36 c-1 -23 7
-46 20 -63 18 -23 28 -27 60 -25 31 3 42 -1 55 -19 16 -23 43 -29 60 -12 7 7
9 1 6 -19 -3 -22 1 -32 17 -41 12 -6 26 -8 31 -5 6 3 10 -1 10 -9 0 -8 10 -22
22 -30 49 -35 115 -5 94 41 -13 28 -26 30 -26 4 0 -30 -17 -34 -40 -11 -12 12
-20 33 -20 55 0 23 -5 35 -14 35 -7 0 -16 9 -19 21 -4 16 -11 19 -26 14 -12
-3 -21 -2 -21 3 0 16 60 93 69 88 5 -3 17 4 27 15 40 45 105 68 198 70 47 1
89 -1 93 -5 14 -14 36 -3 89 45 31 28 77 60 102 71 40 18 51 19 99 9 29 -7 61
-10 70 -8 69 19 73 18 73 -8 0 -14 7 -28 16 -32 13 -5 15 -16 10 -63 -7 -61 7
-89 39 -76 11 4 15 -2 15 -24 0 -20 5 -30 15 -30 10 0 15 -11 15 -35 0 -30 3
-35 24 -35 19 0 25 -7 30 -32 3 -18 15 -40 26 -48 18 -13 19 -20 10 -47 -12
-33 -74 -83 -104 -83 -41 0 -124 32 -145 56 -12 13 -26 47 -32 74 -16 75 -26
68 -26 -18 1 -109 -15 -149 -67 -173 -78 -35 -182 -19 -290 46 -32 19 -61 35
-64 35 -21 0 83 -87 130 -110 l58 -28 -31 -6 c-64 -13 -472 -6 -544 8 -166 34
-244 55 -310 83 -38 16 -126 47 -193 67 -97 29 -164 60 -309 138 -174 93 -218
121 -301 190 -18 16 -41 28 -51 28 -46 0 -232 184 -273 270 -32 67 -36 174
-10 226 11 22 27 45 34 51 7 6 71 36 142 67 70 30 154 74 185 98 60 46 135 77
191 79 l35 1 -30 9 c-60 18 -164 -7 -227 -54 -18 -14 -94 -51 -168 -82 -146
-62 -182 -88 -211 -150 -20 -44 -25 -148 -10 -202 9 -32 9 -32 -20 -26 -26 5
-35 0 -69 -37 -21 -23 -54 -71 -72 -106 -18 -35 -36 -64 -40 -64 -14 0 -52
177 -51 235 4 174 38 431 67 512 23 65 56 228 56 279 0 25 7 73 16 106 8 33
13 65 11 71 -5 12 99 218 134 268 10 14 34 61 54 104 23 51 54 98 89 135 29
30 56 65 60 76 4 12 29 40 56 63 28 23 57 55 65 70 9 18 30 34 61 46 25 9 75
39 109 65 35 26 81 54 102 60 66 22 196 87 273 137 142 93 201 120 270 128 36
4 106 20 155 35 81 25 198 53 265 63 50 8 166 7 223 -3z m694 -36 c-10 -10
-37 16 -37 34 0 13 4 12 22 -5 12 -13 19 -25 15 -29z m534 19 c13 -16 12 -17
-3 -4 -17 13 -22 21 -14 21 2 0 10 -8 17 -17z m80 -88 c29 -63 25 -108 -12
-139 -17 -14 -38 -26 -46 -26 -16 0 -16 -10 3 -114 5 -29 4 -37 -5 -32 -6 4
-9 11 -7 15 3 4 -1 30 -8 57 -16 61 -13 71 29 88 18 8 39 24 45 37 18 33 5 97
-31 148 -24 35 -26 41 -9 26 13 -11 31 -38 41 -60z m-2792 -3 c20 -16 41 -44
48 -63 14 -40 17 -106 5 -113 -8 -5 -72 76 -72 91 0 4 -7 15 -17 25 -29 32
-83 18 -83 -22 0 -9 -9 -25 -20 -35 -18 -16 -23 -17 -46 -4 -28 14 -50 57 -37
70 85 78 107 91 146 86 22 -3 55 -18 76 -35z m73 -26 c11 -22 22 -65 25 -95 5
-49 2 -58 -17 -76 l-23 -20 18 28 c14 22 16 38 11 79 -8 59 -18 82 -55 122
-25 27 -25 28 -3 15 13 -8 33 -32 44 -53z m2867 -36 c16 -1 -29 -46 -83 -83
-15 -10 -41 -48 -60 -84 l-33 -66 -7 54 c-6 40 -4 55 6 58 7 2 28 19 47 38 32
32 33 37 28 83 l-6 49 46 -25 c25 -13 53 -24 62 -24z m-3029 -50 c-7 -17 -21
-35 -31 -40 -22 -12 -76 -13 -83 -1 -3 4 6 6 19 3 45 -8 73 6 85 44 7 19 14
33 17 30 3 -3 0 -19 -7 -36z m64 -19 c20 -32 36 -65 36 -72 0 -7 -8 2 -18 21
-10 19 -29 52 -41 73 -13 20 -21 37 -18 37 2 0 21 -27 41 -59z m2608 12 c19
-22 35 -89 19 -79 -6 4 -11 17 -11 29 0 49 -39 62 -41 14 0 -12 -3 -16 -6 -9
-6 17 5 62 16 62 4 0 15 -8 23 -17z m-2721 -199 c8 -7 23 -14 34 -17 19 -4 19
-5 -1 -6 -14 -1 -35 13 -55 36 -37 43 -109 152 -109 166 0 5 26 -31 58 -79 32
-49 65 -94 73 -100z m-125 110 c22 -37 56 -86 77 -110 l38 -44 -37 -32 c-21
-18 -41 -33 -46 -33 -5 0 -24 45 -42 99 -19 54 -44 111 -55 127 l-20 27 22 16
c12 8 23 15 23 15 1 1 19 -29 40 -65z m3147 39 c-16 -16 -42 -58 -58 -95 -17
-37 -33 -68 -37 -68 -4 0 1 17 10 38 39 82 63 121 84 136 33 24 34 19 1 -11z
m106 3 l22 -23 -51 -38 c-58 -42 -69 -60 -79 -120 l-6 -43 -30 23 -29 24 34
72 c25 51 46 79 75 99 22 16 40 29 41 29 0 1 11 -10 23 -23z m-3099 -30 c0
-29 42 -86 63 -86 20 0 20 -1 2 -20 -13 -14 -22 -17 -29 -10 -5 5 -18 10 -27
10 -15 0 -89 86 -89 103 0 3 15 8 33 10 17 2 35 5 40 5 4 1 7 -4 7 -12z m64 5
c4 -5 1 -11 -5 -13 -15 -5 0 -38 17 -38 8 0 31 7 52 16 20 8 33 11 27 5 -17
-16 -82 -39 -91 -32 -16 11 -35 52 -29 61 8 13 22 13 29 1z m3157 -48 c28 -26
60 -60 71 -75 l19 -28 -21 0 c-13 0 -24 9 -30 24 -17 45 -43 49 -91 14 -24
-17 -59 -44 -77 -61 -39 -37 -58 -27 -48 25 6 30 101 148 120 148 4 0 30 -21
57 -47z m-3441 -17 c0 -5 -6 -1 -14 9 -14 19 -15 19 -38 0 -22 -19 -22 -18 2
8 23 26 25 27 37 11 7 -10 13 -22 13 -28z m20 -51 c0 -5 -5 -3 -10 5 -5 8 -10
20 -10 25 0 6 5 3 10 -5 5 -8 10 -19 10 -25z m3435 -25 c8 -16 15 -35 15 -42
-1 -7 -7 2 -15 20 -8 17 -18 32 -23 32 -4 0 -32 -20 -61 -45 -62 -53 -88 -68
-104 -61 -7 2 -5 5 5 5 9 1 49 28 90 61 40 33 74 60 75 60 1 0 9 -13 18 -30z
m-218 -52 c-3 -7 -5 -2 -5 12 0 14 2 19 5 13 2 -7 2 -19 0 -25z m196 8 c4 -9
-14 -29 -48 -55 -84 -62 -96 -67 -112 -45 -13 17 -11 20 15 25 32 7 76 35 106
68 22 25 32 26 39 7z m-3386 -18 c-3 -8 -6 -5 -6 6 -1 11 2 17 5 13 3 -3 4
-12 1 -19z m-239 -19 c-3 -8 -7 -3 -11 10 -4 17 -3 21 5 13 5 -5 8 -16 6 -23z
m347 -21 c-26 -24 -61 -51 -76 -61 l-29 -19 2 54 c1 50 2 50 5 11 2 -24 7 -43
11 -43 4 0 33 23 65 50 71 61 89 67 22 8z m3313 23 c-4 -13 -138 -111 -152
-111 -6 0 3 9 19 19 17 11 53 37 80 59 55 44 58 46 53 33z m74 -8 c13 -15 78
-136 78 -145 0 -2 -19 -2 -42 0 -37 2 -53 -4 -108 -42 l-65 -44 -17 26 c-10
15 -18 30 -18 33 0 8 22 29 92 87 26 22 45 42 42 45 -7 7 7 57 16 57 4 0 14
-8 22 -17z m-3549 -135 c21 -6 21 -6 -3 -7 -18 0 -47 20 -100 70 l-75 70 78
-63 c42 -35 87 -66 100 -70z m-282 96 c-12 -15 -21 -35 -21 -45 0 -21 20 -25
36 -9 7 7 17 3 30 -12 14 -17 15 -19 2 -10 -27 21 -60 6 -56 -26 4 -33 32 -40
60 -15 21 18 21 18 10 -3 -21 -39 -80 -32 -83 9 0 7 -2 28 -5 48 -3 26 1 43
17 62 11 15 23 27 25 27 3 0 -4 -12 -15 -26z m127 -27 c103 -94 122 -107 155
-107 l32 0 -38 -37 -38 -38 -22 28 c-31 37 -78 37 -106 1 -28 -36 -26 -51 9
-84 35 -33 36 -37 10 -68 l-20 -24 -30 26 c-17 14 -65 42 -106 63 -65 32 -78
35 -96 24 -36 -22 -32 -3 11 53 57 73 71 85 71 58 0 -45 77 -56 115 -17 35 35
32 67 -11 105 -34 30 -35 32 -18 45 27 20 30 19 82 -28z m3809 -47 c10 -19 17
-45 15 -58 -3 -22 -7 -23 -56 -17 -49 6 -57 4 -110 -30 -32 -20 -60 -34 -63
-32 -3 3 10 13 29 23 18 9 47 28 65 41 28 22 36 23 70 14 21 -6 41 -11 46 -11
15 0 6 50 -15 87 -12 21 -17 34 -11 28 5 -5 19 -26 30 -45z m-3544 -5 c-16
-33 -18 -34 -32 -19 -11 11 -12 18 -5 21 6 2 20 10 30 18 10 8 20 15 21 15 2
0 -5 -16 -14 -35z m-453 -8 c0 -2 -10 -12 -22 -23 l-23 -19 19 23 c18 21 26
27 26 19z m3946 -87 c26 -9 30 -16 31 -50 2 -37 -1 -42 -41 -65 -23 -14 -56
-27 -72 -31 -26 -5 -32 -1 -51 34 l-22 39 62 41 c34 22 62 41 63 41 1 1 14 -4
30 -9z m-3683 -36 l33 -36 35 27 34 27 -34 -32 -33 -32 -37 36 c-28 28 -40 33
-53 25 -26 -15 -22 -37 11 -53 42 -22 46 -43 14 -89 -15 -22 -34 -50 -41 -63
-7 -13 -23 -29 -35 -34 -22 -10 -22 -10 1 6 12 9 22 21 22 26 0 6 17 33 37 61
l37 50 -37 31 c-20 17 -37 36 -37 43 0 9 36 43 47 43 1 0 17 -16 36 -36z
m3859 -56 c37 -65 48 -94 54 -147 6 -56 4 -71 -13 -101 -12 -19 -36 -44 -54
-54 -32 -18 -31 -17 8 18 50 44 59 78 44 161 -14 76 -84 195 -115 195 -16 0
-18 2 -7 9 23 15 34 4 83 -81z m-18 -49 c18 -31 30 -72 33 -108 5 -51 3 -60
-21 -88 -30 -35 -82 -63 -120 -63 -37 0 -32 12 16 35 64 31 83 64 83 143 0 66
-1 67 -28 70 -16 2 -39 -5 -56 -18 -45 -31 -110 -52 -130 -40 -14 8 -14 9 0
10 9 0 44 18 78 40 34 22 65 40 70 40 5 0 14 7 21 15 19 23 25 19 54 -36z
m-4197 11 c9 0 24 7 34 16 17 15 22 13 82 -29 73 -52 91 -72 84 -89 -2 -7 -1
-23 4 -35 10 -28 53 -31 82 -5 16 13 14 6 -8 -33 -52 -91 -48 -88 -78 -49 -16
19 -35 34 -43 34 -17 0 -37 47 -29 68 3 8 0 32 -5 53 -12 45 -54 65 -75 35 -7
-9 -23 -16 -36 -16 -41 0 -49 -13 -47 -71 1 -30 5 -62 10 -71 11 -23 8 -23
-45 5 l-44 24 31 79 c18 43 36 88 40 99 7 19 8 19 17 3 6 -10 17 -18 26 -18z
m393 10 c-6 -11 -13 -20 -15 -20 -3 0 -5 9 -5 20 0 11 7 20 15 20 13 0 14 -4
5 -20z m3775 -71 c9 -29 -13 -104 -37 -126 -20 -18 -20 -18 0 17 26 46 38 110
20 110 -7 0 -22 -7 -32 -15 -11 -8 -24 -15 -29 -15 -10 0 53 48 65 49 4 1 10
-8 13 -20z m-4145 -16 c-8 -3 -22 -11 -30 -17 -13 -10 -13 -9 -1 7 7 9 21 17
30 16 13 0 14 -1 1 -6z m41 -20 c13 -16 12 -17 -3 -4 -10 7 -18 15 -18 17 0 8
8 3 21 -13z m259 -3 c-6 -11 -13 -20 -16 -20 -2 0 0 9 6 20 6 11 13 20 16 20
2 0 0 -9 -6 -20z m3798 -30 c-5 -17 -22 -39 -38 -50 l-27 -19 -12 26 c-6 14
-10 27 -9 29 3 2 83 39 95 43 1 1 -3 -13 -9 -29z m-4102 -26 c-4 -13 -1 -24 7
-27 7 -3 5 -6 -5 -6 -23 -1 -32 17 -18 34 10 12 10 19 -1 33 -13 15 -12 16 4
3 12 -10 16 -22 13 -37z m3924 1 c0 -5 -5 -3 -10 5 -5 8 -10 20 -10 25 0 6 5
3 10 -5 5 -8 10 -19 10 -25z m421 -140 c32 -103 46 -135 70 -156 24 -21 29
-33 29 -71 0 -24 7 -67 15 -94 8 -27 15 -68 15 -91 0 -39 -2 -43 -25 -43 -28
0 -65 -32 -65 -55 0 -12 -13 -15 -59 -15 -72 0 -111 13 -118 40 -3 12 -17 27
-32 35 -25 14 -25 14 24 15 28 0 60 7 72 15 26 18 37 59 22 86 -9 18 -18 21
-55 16 -52 -5 -55 4 -11 36 59 44 89 42 130 -10 24 -30 45 -29 53 1 13 54 -25
115 -93 150 -65 33 -188 12 -215 -37 -9 -18 -13 -15 -35 33 -13 29 -27 66 -30
81 -5 28 -4 29 36 29 22 0 41 -4 41 -9 0 -5 -10 -7 -22 -3 -14 3 -19 2 -14 -6
4 -7 12 -12 18 -12 6 0 16 -7 22 -15 12 -16 134 -31 152 -18 6 4 14 30 18 56
7 46 6 49 -21 59 l-29 11 23 45 c13 25 23 55 23 66 0 38 18 -3 61 -139z
m-4433 62 c10 -8 9 -14 -5 -29 -16 -18 -17 -18 -28 9 -19 44 -7 51 33 20z
m239 1 c24 -27 39 -68 24 -68 -5 0 -11 12 -13 28 -2 19 -13 32 -38 44 -26 14
-30 18 -14 18 11 0 30 -10 41 -22z m-92 -36 c-34 -18 -51 -34 -53 -49 -4 -30
-26 -29 -40 2 -6 14 -18 25 -27 25 -16 0 -19 9 -7 27 8 12 48 19 127 21 l50 2
-50 -28z m79 -8 c6 -15 4 -15 -11 -3 -10 7 -20 15 -22 16 -2 2 3 3 11 3 9 0
19 -7 22 -16z m4002 -13 c-9 -13 -65 -22 -94 -13 -22 6 -16 8 33 13 33 3 61 6
63 7 2 1 1 -2 -2 -7z m118 -20 c8 -13 -24 -23 -38 -12 -6 5 -20 11 -31 14 -11
2 -1 5 22 6 23 0 44 -3 47 -8z m-4163 -17 c10 -13 10 -17 -2 -25 -30 -19 -57
-3 -45 26 7 20 30 19 47 -1z m-237 -93 c26 -29 65 -35 87 -15 11 9 19 23 19
29 0 7 7 18 16 26 13 11 19 8 41 -19 13 -18 31 -32 39 -32 8 0 14 -4 14 -10 0
-17 -47 11 -61 36 -16 31 -24 30 -39 -6 -24 -59 -67 -65 -116 -16 -26 26 -34
42 -33 68 l1 33 8 -37 c4 -21 15 -47 24 -57z m61 79 c3 -5 1 -10 -4 -10 -6 0
-11 5 -11 10 0 6 2 10 4 10 3 0 8 -4 11 -10z m-64 -123 c37 -27 98 -25 121 3
15 19 20 20 34 9 9 -7 35 -16 59 -19 l42 -5 -14 -48 c-11 -40 -17 -46 -31 -39
-9 5 -46 15 -82 22 -35 6 -80 20 -100 30 -48 24 -110 32 -129 17 -12 -10 -14
-9 -9 3 3 8 14 41 24 73 l18 58 20 -43 c12 -23 33 -50 47 -61z m65 45 c-7 -7
-43 17 -50 33 -4 11 3 9 24 -7 16 -12 28 -23 26 -26z m204 -22 c0 -5 -8 -10
-17 -10 -15 0 -16 2 -3 10 19 12 20 12 20 0z m4133 -7 c-7 -2 -21 -2 -30 0
-10 3 -4 5 12 5 17 0 24 -2 18 -5z m-78 -17 c-38 -16 -56 -38 -65 -79 -8 -32
-8 -32 -9 -3 -1 33 55 96 86 96 12 -1 8 -5 -12 -14z m100 -16 c17 -7 16 -9
-10 -9 -34 -1 -92 -33 -117 -64 l-17 -22 6 25 c8 35 31 59 67 69 39 12 46 12
71 1z m18 -37 c-7 -2 -19 -2 -25 0 -7 3 -2 5 12 5 14 0 19 -2 13 -5z m-75 -28
c-44 -30 -62 -58 -53 -85 7 -23 21 -25 61 -10 32 13 49 1 40 -27 -10 -31 -86
-59 -86 -32 0 6 7 8 16 5 18 -7 64 18 64 35 0 7 -17 9 -49 4 -45 -6 -50 -5
-56 15 -10 31 12 76 49 100 45 29 57 25 14 -5z m-4337 -28 c13 -6 30 -16 38
-21 8 -5 29 -10 46 -12 88 -8 146 -64 67 -64 -21 0 -83 -15 -138 -34 -54 -19
-117 -37 -139 -40 -40 -5 -39 -5 10 12 73 25 94 40 101 67 8 32 -9 53 -51 61
-26 5 -32 10 -28 25 6 23 57 26 94 6z m76 7 c-3 -3 -12 -4 -19 -1 -8 3 -5 6 6
6 11 1 17 -2 13 -5z m75 -14 c21 -6 40 -15 43 -20 5 -8 -20 -2 -95 23 -30 11
13 7 52 -3z m-265 -22 c-3 -8 -6 -5 -6 6 -1 11 2 17 5 13 3 -3 4 -12 1 -19z
m-60 -40 c-3 -8 -6 -5 -6 6 -1 11 2 17 5 13 3 -3 4 -12 1 -19z m130 -4 c8 -21
-18 -41 -70 -55 -28 -7 -42 -7 -52 1 -10 9 -15 6 -20 -9 -3 -12 -3 -30 0 -41
9 -29 81 -26 170 5 143 51 167 57 189 47 18 -9 15 -11 -20 -11 -23 -1 -84 -16
-135 -35 -122 -43 -181 -52 -203 -31 -20 20 -21 55 -2 80 11 15 17 17 28 7 23
-18 108 12 108 39 0 4 -12 10 -27 12 l-28 4 28 2 c17 0 30 -5 34 -15z m217
-90 c21 -8 20 -24 -1 -24 -9 0 -31 -5 -48 -11 -19 -7 -44 -9 -61 -4 -29 7 -29
8 21 25 57 21 67 22 89 14z m-298 -71 c38 3 76 8 85 12 12 4 18 -1 22 -22 4
-15 19 -41 33 -58 24 -26 33 -29 91 -31 35 -1 65 -3 67 -5 1 -2 -1 -67 -4
-144 -7 -150 -14 -163 -15 -26 0 92 -18 122 -30 52 -7 -41 -18 -51 -31 -30 -3
6 -24 9 -45 7 -22 -2 -39 1 -39 6 0 5 -8 2 -17 -6 -10 -8 -26 -18 -36 -21 -13
-5 -16 -13 -11 -34 17 -70 20 -73 74 -73 41 0 56 -5 77 -26 14 -14 24 -26 22
-28 -2 -1 -64 0 -137 2 l-133 4 41 20 40 20 -1 77 c0 42 -3 71 -5 65 -3 -6
-15 -9 -27 -7 -14 3 -38 -7 -65 -26 -46 -34 -55 -28 -18 12 28 30 37 32 159
45 65 7 96 16 122 33 55 38 42 67 -15 34 -17 -10 -58 -14 -128 -15 -68 0 -115
-5 -139 -15 -19 -8 -37 -15 -39 -15 -6 0 -4 173 2 198 6 20 8 21 19 6 10 -14
23 -16 81 -11z m4714 -7 c0 -19 5 -38 10 -41 6 -3 10 -16 10 -28 -1 -18 -4
-15 -15 12 -8 18 -15 44 -15 57 0 31 -27 32 -40 2 -5 -13 -9 -18 -9 -11 -2 26
12 43 35 43 21 0 24 -5 24 -34z m-4493 -18 c-21 -7 -32 -7 -40 1 -8 8 0 11 29
10 39 -1 39 -1 11 -11z m60 6 c-3 -3 -12 -4 -19 -1 -8 3 -5 6 6 6 11 1 17 -2
13 -5z m-16 -41 c13 -16 12 -17 -3 -5 -9 8 -23 10 -29 6 -8 -4 -9 -3 -5 4 10
17 21 15 37 -5z m4146 -20 c-3 -10 -5 -4 -5 12 0 17 2 24 5 18 2 -7 2 -21 0
-30z m153 16 c37 -8 59 -8 83 0 27 10 34 9 44 -6 26 -35 16 -40 -49 -27 -90
19 -97 18 -113 -18 -8 -18 -14 -25 -15 -16 0 21 -35 42 -60 35 -14 -3 -17 1
-16 19 1 21 6 24 38 24 20 0 60 -5 88 -11z m-4353 -5 c-3 -3 -12 -4 -19 -1 -8
3 -5 6 6 6 11 1 17 -2 13 -5z m4273 -67 c0 -7 -14 -28 -31 -47 l-31 -35 26 37
c33 47 33 51 -6 44 -25 -5 -28 -4 -13 3 29 14 55 13 55 -2z m228 -105 c-32
-62 -64 -72 -128 -42 -56 26 -83 18 -105 -33 -8 -18 -14 -24 -15 -15 0 20 47
78 65 78 7 0 33 -9 58 -20 35 -16 51 -18 72 -10 30 11 64 77 66 130 l2 35 4
-39 c3 -27 -3 -52 -19 -84z m-111 97 l28 -11 -25 -13 c-14 -8 -28 -14 -31 -15
-10 0 -20 30 -13 41 7 11 7 11 41 -2z m73 -8 c-11 -22 -49 -51 -65 -51 -5 1 2
7 17 16 15 8 32 23 38 34 6 11 13 20 16 20 2 0 0 -9 -6 -19z m-148 -59 c8 -9
3 -15 -19 -22 -17 -6 -38 -26 -50 -47 -19 -33 -21 -34 -27 -15 -5 15 5 37 36
79 35 49 44 56 46 39 2 -12 9 -27 14 -34z m153 -12 c-20 -38 -33 -44 -71 -30
l-29 12 39 13 c21 8 46 21 54 29 23 23 26 12 7 -24z m-4657 23 c-10 -2 -28 -2
-40 0 -13 2 -5 4 17 4 22 1 32 -1 23 -4z m-83 -15 c-11 -6 -23 -16 -27 -22 -5
-8 -8 -7 -8 1 0 12 28 32 45 32 6 0 1 -5 -10 -11z m4809 -190 l-6 -47 -30 35
c-39 44 -75 63 -145 74 -65 11 -72 15 -52 36 14 13 19 13 52 -1 56 -23 113
-20 142 10 14 13 26 30 26 37 1 7 5 -12 10 -42 5 -30 6 -76 3 -102z m-4534
113 c5 -11 10 -26 9 -33 0 -7 -5 0 -11 15 -9 25 -14 28 -44 25 -19 -2 -34 0
-34 4 0 4 16 8 35 8 24 0 37 -6 45 -19z m-243 -16 c-15 -14 -33 -25 -40 -25
-6 0 4 11 23 25 45 31 53 31 17 0z m206 -12 c-7 -2 -21 -2 -30 0 -10 3 -4 5
12 5 17 0 24 -2 18 -5z m-193 -28 c-7 -8 -18 -15 -24 -15 -6 0 -2 7 8 15 25
19 32 19 16 0z m4605 -26 c20 -5 9 -6 -30 -2 -33 3 -62 7 -64 9 -8 7 63 2 94
-7z m-4305 -94 c0 -22 -5 -47 -10 -55 -9 -13 -11 -13 -20 0 -5 8 -7 22 -4 32
5 18 -14 22 -186 34 -52 4 -88 9 -79 11 9 2 72 0 140 -5 68 -5 130 -7 137 -4
9 3 11 14 7 31 -4 19 -3 22 5 11 5 -8 10 -33 10 -55z m4200 60 c0 -2 -10 -9
-22 -15 -22 -11 -22 -10 -4 4 21 17 26 19 26 11z m144 -56 c34 -26 34 -62 0
-88 -32 -26 -62 -26 -109 -4 -33 16 -36 21 -31 48 12 62 87 86 140 44z m-4519
-24 c39 -2 80 -4 91 -4 16 -1 23 -9 26 -31 7 -48 -8 -50 -83 -12 l-70 36 -59
-15 c-62 -16 -70 -13 -70 28 0 13 8 14 48 8 26 -4 79 -9 117 -10z m4392 -90
c20 -10 55 -18 77 -18 35 0 37 -1 17 -8 -45 -17 -137 23 -142 61 -1 8 0 26 2
40 1 15 4 9 6 -17 4 -36 9 -43 40 -58z m-4340 1 c67 -41 70 -42 75 -18 3 16 4
16 11 -1 13 -34 -20 -29 -98 13 -62 35 -83 41 -111 37 -49 -8 -67 -25 -60 -56
5 -22 5 -23 -4 -8 -26 42 21 80 92 73 20 -2 63 -20 95 -40z m4266 -36 c11 -13
10 -13 -5 -1 -10 7 -17 25 -17 40 l2 26 4 -25 c3 -14 10 -32 16 -40z m-4288 3
c36 -23 72 -37 92 -37 27 0 34 -5 43 -29 5 -17 10 -31 10 -32 0 -1 -13 0 -30
3 -23 3 -50 -8 -115 -47 -84 -50 -126 -63 -124 -38 0 6 21 26 47 42 39 25 47
35 47 60 0 24 -7 33 -40 51 -51 29 -67 43 -60 55 13 20 71 8 130 -28z m155 -9
c17 -52 7 -51 -11 1 -9 25 -13 42 -8 40 4 -3 13 -21 19 -41z m4445 -31 c-4
-38 -11 -93 -17 -123 -15 -81 -84 -277 -113 -322 -22 -33 -28 -36 -44 -26 -18
11 -17 15 16 84 30 63 34 78 25 103 -9 26 -8 29 15 29 27 0 43 16 43 45 0 10
9 36 21 59 14 27 20 56 18 87 -1 28 5 62 17 88 10 24 20 43 22 43 1 0 0 -30
-3 -67z m-4085 37 c28 -15 48 -95 61 -243 6 -73 15 -140 20 -149 15 -28 61
-22 108 15 24 17 56 42 73 55 31 22 73 29 94 14 17 -11 34 -94 34 -166 0 -47
5 -69 17 -81 15 -16 19 -13 63 34 50 54 61 59 79 37 13 -16 30 -137 31 -218 0
-71 13 -108 39 -108 14 0 21 10 26 37 14 76 56 191 71 197 37 14 64 6 75 -21
22 -57 70 -261 82 -348 11 -81 14 -90 34 -93 27 -4 61 46 88 128 23 72 50 109
92 127 30 12 38 12 56 0 26 -17 73 -140 81 -212 4 -27 18 -99 32 -158 41 -169
67 -176 99 -27 24 115 70 256 98 305 l23 40 64 -1 c49 -1 66 -5 77 -19 28 -39
52 -126 67 -243 26 -196 92 -376 143 -388 32 -8 60 18 68 65 3 20 9 141 14
269 6 196 10 235 24 249 15 15 18 15 36 -1 19 -17 71 -133 71 -159 0 -6 7 -25
15 -41 8 -16 31 -72 51 -125 45 -120 58 -141 89 -141 18 0 26 7 31 26 8 31 -2
267 -17 403 -11 101 -8 131 17 155 30 31 50 19 97 -61 78 -133 134 -203 162
-203 35 0 41 23 21 86 -20 65 -26 188 -9 205 16 16 51 -7 100 -68 73 -93 211
-223 236 -223 34 0 58 22 66 60 l7 34 32 -57 c18 -31 32 -63 32 -71 0 -8 -37
-37 -82 -64 l-83 -49 -55 38 c-68 45 -82 61 -112 124 -30 64 -57 68 -76 10
-12 -34 -11 -57 2 -155 22 -155 22 -155 -15 -170 -28 -12 -33 -11 -57 13 -15
15 -58 88 -97 164 -77 151 -97 170 -131 118 -15 -23 -17 -49 -16 -168 1 -196
-6 -248 -38 -264 -31 -15 -28 -21 -89 155 -58 167 -88 226 -119 230 -29 4 -34
-11 -61 -176 -22 -130 -50 -232 -72 -258 -17 -20 -66 -17 -89 6 -45 45 -83
152 -130 363 -33 150 -41 171 -70 187 -37 20 -63 11 -111 -39 -38 -40 -49 -59
-57 -103 -6 -29 -17 -91 -26 -138 -16 -87 -40 -132 -71 -138 -22 -5 -68 39
-102 98 -26 43 -27 52 -30 214 -3 187 -11 219 -56 224 -33 4 -39 -7 -92 -188
-54 -184 -65 -212 -102 -248 -38 -39 -50 -38 -81 8 -42 62 -54 125 -62 325 -9
231 -25 280 -75 225 -11 -13 -22 -52 -30 -117 -23 -174 -63 -293 -98 -293 -8
0 -22 9 -33 21 -17 19 -20 42 -24 208 -6 218 -14 246 -70 246 l-34 0 -37 -100
c-34 -95 -86 -191 -97 -180 -3 2 -9 28 -13 57 -7 40 -3 85 13 181 l21 128 -20
27 c-11 15 -28 29 -37 30 -10 2 -53 -20 -97 -49 -44 -28 -82 -50 -84 -47 -3 2
-23 32 -45 66 -46 72 -48 90 -20 212 47 205 5 298 -83 180 -38 -51 -72 -77
-81 -62 -14 23 36 140 86 205 32 40 39 43 68 27z m3932 -18 c57 6 61 2 13 -11
-39 -10 -89 -1 -120 24 -17 12 -14 12 20 -1 25 -10 57 -14 87 -12z m93 -12
c-3 -5 -12 -10 -18 -10 -7 0 -6 4 3 10 19 12 23 12 15 0z m-4661 -34 c36 -16
37 -18 20 -30 -11 -7 -29 -16 -40 -20 -20 -6 -22 -2 -26 34 -2 22 -1 39 2 37
3 -2 22 -11 44 -21z m4601 4 c-3 -5 -25 -9 -48 -8 l-42 1 45 7 c25 4 46 8 48
8 2 1 0 -2 -3 -8z m-186 -24 c71 -45 164 -79 182 -68 16 10 16 8 1 -28 -14
-32 -22 -40 -44 -40 -20 0 -27 6 -30 23 -2 16 -23 32 -83 62 -46 24 -81 48
-83 58 -5 23 12 21 57 -7z m-3609 -86 c19 -20 49 -46 65 -59 21 -16 26 -24 16
-28 -7 -3 -38 -25 -68 -50 -30 -25 -57 -42 -60 -39 -3 3 -9 56 -13 118 -5 62
-11 122 -15 133 -4 13 1 10 16 -10 13 -16 39 -46 59 -65z m3855 70 c4 -11 -2
-38 -13 -63 -11 -23 -23 -55 -28 -71 -9 -28 -12 -30 -66 -30 -31 -1 -54 3 -51
8 3 4 28 6 54 4 37 -4 49 -2 49 9 0 7 11 41 25 74 20 48 23 64 14 75 -7 9 -8
14 -1 14 6 0 14 -9 17 -20z m-61 -11 c-20 -19 -23 -19 -55 -5 -19 8 -28 15
-21 15 7 1 23 -4 34 -10 16 -9 24 -7 36 5 9 9 19 16 21 16 3 0 -4 -9 -15 -21z
m-4347 -19 c34 -27 52 -26 47 3 -4 20 -4 20 5 2 14 -32 -5 -43 -40 -22 -41 23
-45 22 -112 -18 -32 -19 -61 -35 -65 -35 -7 1 129 90 136 90 2 0 15 -9 29 -20z
m4098 -21 c-10 -15 -25 -10 -19 6 4 8 10 12 15 9 5 -3 7 -10 4 -15z m-1117
-87 c15 -20 39 -62 51 -92 13 -30 34 -75 47 -99 13 -24 18 -38 10 -32 -8 7
-25 9 -39 5 -25 -6 -26 -4 -29 48 -3 46 -6 53 -25 56 -17 2 -23 10 -23 27 0
13 -7 30 -15 39 -8 8 -15 26 -15 41 0 33 -25 43 -50 20 -20 -18 -20 -17 -20
34 l0 53 40 -32 c21 -17 52 -48 68 -68z m722 38 c27 -53 53 -193 48 -260 -3
-41 -15 -81 -42 -135 l-38 -77 -19 31 c-23 38 -51 40 -78 5 -25 -32 -29 -119
-7 -149 12 -17 8 -26 -38 -87 -28 -37 -54 -68 -59 -68 -5 0 -36 14 -68 31 -50
27 -63 40 -82 80 -14 31 -28 49 -39 49 -16 0 -22 -12 -30 -65 -6 -35 -47 66
-54 131 -7 63 6 105 41 134 15 13 21 10 50 -22 24 -26 36 -52 44 -94 20 -103
31 -132 58 -153 33 -27 39 -26 69 4 29 29 29 33 3 257 -16 142 -10 169 41 179
45 10 96 -14 116 -52 21 -42 57 -63 83 -49 42 22 37 99 -21 269 -15 47 -28 89
-28 94 0 17 31 -16 50 -53z m540 -1 c0 -7 -11 -8 -32 -2 -18 4 -59 8 -91 7
-40 0 -53 3 -42 9 9 5 39 9 66 9 31 -1 47 3 43 9 -3 6 8 3 25 -5 17 -9 31 -21
31 -27z m-4285 2 c-33 -10 -73 -24 -90 -30 -19 -8 -26 -8 -19 -2 15 16 115 50
144 50 14 0 -1 -8 -35 -18z m125 0 c0 -4 -11 -6 -25 -3 -14 2 -25 6 -25 8 0 2
11 4 25 4 14 0 25 -4 25 -9z m259 -129 l-23 -107 -26 57 c-14 32 -33 63 -43
71 -17 12 -16 14 15 29 19 9 47 31 64 50 18 21 30 29 32 21 2 -8 -7 -62 -19
-121z m3864 -9 c-19 -7 -109 37 -137 66 -17 17 -24 34 -20 44 5 13 21 5 87
-45 44 -34 76 -63 70 -65z m18 88 c-11 -21 3 -55 30 -75 22 -15 22 -16 5 -53
l-17 -39 -65 32 c-36 17 -83 34 -105 37 -50 7 -52 8 -43 41 l6 27 22 -20 c27
-25 125 -71 153 -71 26 0 40 34 23 56 -7 8 -35 30 -61 50 -27 20 -47 39 -44
43 2 4 27 3 54 -2 40 -9 48 -14 42 -26z m-4176 19 c3 -5 -5 -26 -19 -47 -55
-85 -70 -182 -31 -197 9 -3 33 6 55 20 21 14 44 23 49 19 11 -6 16 -55 6 -55
-31 0 -168 -47 -193 -67 -18 -14 -34 -23 -36 -22 -11 16 -46 78 -46 83 0 3 7
6 15 6 9 0 21 12 27 28 7 15 20 38 30 51 21 27 23 62 6 79 -17 17 -63 15 -78
-3 -7 -8 -20 -15 -30 -15 -14 0 -23 11 -48 63 -2 4 7 7 21 7 24 0 78 15 152
44 45 17 111 21 120 6z m11 -74 c-33 -55 -53 -112 -43 -122 3 -3 22 6 42 21
21 14 44 25 52 25 16 0 43 -58 43 -93 0 -25 -35 -65 -47 -54 -3 4 -1 7 5 7 6
0 16 10 23 21 13 26 -6 109 -26 109 -7 0 -32 -13 -56 -30 l-44 -29 -4 27 c-3
28 81 210 87 187 1 -6 -13 -37 -32 -69z m3558 12 c6 -25 4 -26 -44 -30 l-49
-3 36 37 c39 40 47 39 57 -4z m-3486 -13 c18 -38 15 -54 -7 -48 -10 3 -29 0
-41 -7 -12 -6 -23 -10 -25 -8 -6 6 45 88 54 88 4 0 13 -11 19 -25z m4174 -21
c10 -22 7 -34 -21 -89 l-32 -64 -43 33 c-43 33 -150 70 -186 64 -10 -2 -20 1
-22 7 -9 32 173 -24 219 -67 27 -25 24 -27 57 36 33 61 32 69 -1 102 -25 23
-25 25 -5 14 13 -6 28 -23 34 -36z m-3430 -76 c15 -12 13 -15 -18 -35 l-34
-22 0 45 c0 47 5 49 52 12z m-1011 -23 c-16 -34 -18 -34 -58 -18 -9 4 -12 -4
-8 -28 l5 -34 -12 33 c-13 39 -6 49 25 35 20 -9 25 -7 40 18 22 40 28 36 8 -6z
m4252 -3 c55 -21 87 -45 87 -66 0 -40 -45 -23 -120 43 -50 45 -41 51 33 23z
m-724 -102 c-3 -58 -6 -97 -7 -86 -3 28 -66 85 -102 93 l-32 6 74 47 c40 27
73 47 73 47 0 -1 -2 -49 -6 -107z m-3189 40 c29 -75 107 -208 156 -266 28 -33
67 -83 87 -110 l35 -49 -64 -1 -65 -1 7 42 c5 39 3 45 -20 60 -18 12 -37 16
-61 12 -32 -5 -35 -4 -35 18 0 13 -8 29 -17 34 -16 9 -16 10 -2 11 34 0 41 25
29 87 -10 44 -21 66 -49 95 -29 28 -35 41 -28 53 5 9 7 28 4 42 -6 32 6 18 23
-27z m3996 -80 c21 0 22 -2 12 -30 -12 -36 -26 -46 -41 -31 -16 16 -69 14 -93
-4 -12 -8 -27 -28 -34 -45 -16 -40 -3 -56 55 -65 44 -6 58 -20 31 -31 -8 -3
-38 2 -67 11 -30 9 -87 20 -128 25 -41 6 -77 12 -80 15 -3 3 3 21 13 40 l18
33 42 -14 c45 -17 97 -12 116 11 6 8 14 32 17 55 5 37 2 43 -31 75 -21 19 -44
35 -52 35 -15 0 -17 9 -8 33 4 12 27 2 107 -49 55 -35 111 -64 123 -64z
m-3132 25 c-12 -12 -28 -42 -35 -66 l-13 -44 -8 60 c-4 33 -12 76 -16 96 l-8
36 51 -30 52 -29 -23 -23z m2939 3 c37 -27 39 -83 2 -100 -34 -15 -109 6 -101
28 3 9 6 29 6 46 0 25 3 28 14 19 11 -9 15 -6 20 14 7 27 9 27 59 -7z m-3978
-7 c-33 -10 -78 -29 -99 -44 -49 -34 -70 -34 -84 1 -12 27 -12 27 4 5 21 -29
30 -29 75 3 45 31 104 53 139 53 14 0 -2 -8 -35 -18z m153 -24 c38 -41 65
-128 43 -141 -4 -3 -22 0 -39 6 -25 10 -34 9 -56 -5 -36 -24 -44 -21 -12 4 26
21 47 21 90 4 17 -8 18 -5 12 31 -9 50 -51 114 -74 114 -10 0 -24 -6 -32 -12
-12 -11 -12 -10 -1 5 18 23 43 21 69 -6z m4085 1 c-6 -7 -16 -30 -22 -50 -7
-21 -22 -45 -34 -53 -18 -13 -24 -12 -53 6 -26 16 -37 18 -54 9 -11 -6 -20
-16 -20 -23 0 -14 54 -37 88 -37 12 0 22 -4 22 -9 0 -5 -16 -5 -37 0 -21 5
-50 12 -65 15 -32 7 -32 8 -18 34 18 33 48 44 75 26 43 -28 59 -21 89 45 15
33 30 58 33 55 3 -3 1 -11 -4 -18z m-4250 -31 c-44 -36 -120 -74 -130 -64 -3
4 -4 8 -2 10 2 1 29 19 59 39 48 32 72 43 103 47 5 0 -9 -14 -30 -32z m149 -9
c28 -44 28 -55 2 -50 -40 7 -139 -66 -180 -134 -10 -16 -14 -13 -37 27 -33 56
-33 67 -4 78 35 14 88 40 142 71 62 35 60 35 77 8z m463 -73 c-7 -44 -16 -101
-20 -127 -3 -27 -10 -48 -15 -48 -16 0 -60 66 -76 114 -9 25 -20 49 -26 52 -5
4 23 28 63 55 41 27 77 45 81 41 4 -4 1 -43 -7 -87z m842 15 c7 0 13 -4 13
-10 0 -5 -8 -10 -19 -10 -32 0 -72 -41 -102 -104 -16 -34 -29 -68 -29 -76 -1
-8 -7 -26 -14 -39 -13 -23 -14 -20 -25 50 -7 41 -23 112 -37 159 -14 47 -27
90 -29 95 -1 6 50 -7 114 -27 64 -21 122 -38 128 -38z m1930 -2 c-3 -7 -5 -2
-5 12 0 14 2 19 5 13 2 -7 2 -19 0 -25z m-1781 -58 c6 -6 53 -19 104 -30 51
-10 95 -21 98 -24 3 -4 -4 -16 -15 -29 -48 -51 -103 -199 -103 -274 0 -18 -4
-33 -8 -33 -11 0 -29 93 -42 210 -7 61 -19 112 -34 143 -22 45 -22 59 0 37z
m-1449 -6 c-3 -3 -12 -4 -19 -1 -8 3 -5 6 6 6 11 1 17 -2 13 -5z m3724 -24
c20 0 82 -12 138 -26 81 -20 105 -23 117 -13 12 10 13 9 8 -5 -8 -21 -29 -20
-113 3 -38 11 -99 22 -135 26 -43 5 -75 14 -89 26 -22 19 -22 19 8 4 17 -8 46
-15 66 -15z m-3821 17 c0 -2 -10 -12 -22 -23 l-23 -19 19 23 c18 21 26 27 26
19z m787 -212 c-1 -135 1 -154 18 -185 41 -71 125 -86 167 -29 32 42 59 158
65 274 10 193 22 147 20 -75 -2 -214 -2 -215 26 -285 46 -116 94 -148 167
-110 43 22 68 60 95 144 13 42 40 121 60 176 l35 100 -6 -105 c-10 -169 16
-265 92 -350 61 -67 120 -73 173 -17 23 25 51 122 66 232 4 28 13 61 20 75 20
38 74 85 84 74 6 -5 19 -54 31 -109 36 -164 69 -276 103 -346 l32 -66 -85 -9
c-101 -12 -195 -3 -360 33 -63 14 -154 29 -202 34 -47 4 -131 22 -187 39 -85
26 -114 41 -186 95 -47 36 -98 71 -113 79 -33 18 -194 175 -239 232 l-32 42
20 18 c30 27 63 88 95 179 28 79 28 79 36 45 4 -19 7 -103 5 -185z m1702 173
c-9 -16 -10 -82 -6 -246 3 -124 4 -223 2 -220 -12 11 -69 160 -91 235 -31 109
-47 139 -84 158 -41 21 -75 19 -106 -8 l-26 -23 -9 -245 c-4 -134 -12 -255
-17 -269 l-9 -25 -15 30 c-30 58 -68 197 -78 284 -10 93 -40 201 -71 262 l-18
37 26 7 c14 3 78 3 142 -1 115 -6 233 9 280 36 9 5 33 10 54 10 36 0 37 -1 26
-22z m1278 -8 c26 -8 26 -8 -12 -9 -23 -1 -46 -6 -53 -13 -15 -15 -15 -6 0 26
8 20 14 23 24 15 7 -6 25 -14 41 -19z m-3657 -31 c0 -19 -42 -40 -59 -29 -9 5
-4 9 13 14 l27 7 -28 23 -28 24 38 -11 c22 -7 37 -18 37 -28z m-113 -11 c-7
-10 -15 -18 -19 -18 -12 0 -9 35 4 48 17 17 29 -6 15 -30z m3981 2 c75 -20 82
-24 68 -39 -8 -9 -32 -45 -53 -81 l-38 -65 -50 27 c-35 19 -44 28 -29 28 34 0
49 25 35 56 -9 19 -9 30 0 40 16 20 2 34 -37 34 -19 0 -34 4 -34 9 0 5 -8 12
-17 15 -54 16 85 -5 155 -24z m-3775 -5 c-3 -9 -8 -14 -10 -11 -3 3 -2 9 2 15
9 16 15 13 8 -4z m51 -36 c-1 -19 -5 -49 -9 -68 -7 -31 -7 -34 11 -26 83 35
172 30 200 -13 l18 -27 -33 28 c-38 32 -86 35 -157 11 -25 -8 -48 -13 -51 -10
-3 3 0 33 7 67 11 52 11 62 -1 71 -12 8 -12 9 1 5 10 -2 15 -16 14 -38z m-84
-23 c0 -9 -7 -12 -21 -9 -16 4 -17 8 -7 14 19 13 28 11 28 -5z m-213 -38 c-3
-7 -5 -2 -5 12 0 14 2 19 5 13 2 -7 2 -19 0 -25z m3738 -1 c13 -21 49 -47 110
-79 49 -26 91 -51 93 -56 1 -4 -6 -16 -17 -26 -18 -16 -20 -16 -54 13 -47 41
-81 41 -107 -1 -31 -52 -27 -85 15 -105 25 -12 35 -23 35 -40 0 -13 -5 -23
-11 -23 -11 0 -149 129 -149 139 1 3 21 19 45 34 61 39 60 69 -4 102 -19 9
-29 20 -24 24 6 3 15 16 22 29 15 29 22 28 46 -11z m155 6 c37 -14 38 -14 -51
4 -16 3 -29 10 -29 15 0 10 19 5 80 -19z m-3685 -17 c16 -2 30 -7 32 -12 2 -5
-36 -8 -84 -7 -76 2 -89 5 -110 26 l-24 23 78 -14 c43 -7 91 -15 108 -16z
m3186 -78 c-14 -25 -17 -26 -26 -12 -5 9 -20 32 -32 51 -13 18 -23 35 -23 37
0 2 22 -8 48 -22 l49 -26 -16 -28z m-3309 20 c7 7 42 12 86 12 l74 0 -14 -22
c-8 -13 -38 -38 -66 -57 -58 -38 -60 -32 20 -120 65 -72 78 -66 78 38 0 100 1
101 149 101 96 0 110 2 114 18 4 15 5 15 6 0 2 -27 -19 -33 -114 -30 -49 1
-102 0 -117 -3 -27 -6 -27 -8 -30 -93 -3 -79 -5 -87 -24 -90 -15 -2 -37 17
-82 68 -34 39 -62 75 -62 79 0 4 19 18 43 31 48 26 77 49 77 62 0 4 -27 8 -60
8 l-60 0 11 -26 c22 -60 -16 -42 -68 31 -33 47 -33 48 -4 15 24 -27 34 -31 43
-22z m3809 10 c42 -19 79 -40 83 -46 6 -10 -160 71 -173 84 -7 8 -5 7 90 -38z
m-3421 -13 l24 -25 -85 6 c-95 7 -152 -5 -169 -36 -6 -10 -10 -45 -10 -76 l0
-58 -41 39 -40 40 22 15 c12 8 39 31 59 50 74 69 196 92 240 45z m3204 4 c20
-12 36 -24 36 -27 0 -9 -63 -52 -75 -52 -12 0 -45 31 -45 43 0 6 11 0 24 -12
23 -22 25 -22 50 -6 34 22 33 29 -6 54 -43 27 -30 27 16 0z m-115 -98 c-35
-30 -43 -25 -18 10 15 21 25 27 32 20 7 -7 3 -16 -14 -30z m-3140 -12 c-12
-12 -27 -18 -38 -14 -24 7 -50 -19 -58 -56 -10 -50 -23 -32 -23 31 l0 60 70 0
70 0 -21 -21z m62 -1 l-34 -22 29 -21 c15 -11 42 -33 59 -49 l30 -29 -28 -10
c-25 -8 -32 -6 -55 22 -15 17 -46 37 -69 45 -40 14 -42 14 -48 -5 -4 -10 -4
-23 0 -29 3 -5 0 -7 -9 -4 -11 4 -12 12 -4 35 12 34 10 34 72 10 44 -16 70
-37 78 -63 4 -10 38 0 38 11 0 4 -22 24 -50 44 -27 21 -50 41 -50 45 0 9 51
41 65 42 6 0 -5 -10 -24 -22z m114 -29 c55 -51 132 -155 122 -165 -3 -3 -17 2
-32 12 -25 17 -27 16 -57 -12 -17 -16 -48 -51 -70 -78 -31 -39 -36 -51 -25
-57 15 -9 12 -55 -3 -64 -5 -3 -6 4 -3 16 4 12 0 25 -8 30 -12 7 -11 14 4 41
19 36 126 153 146 159 18 6 -39 81 -100 129 -28 22 -46 40 -41 40 6 0 36 -23
67 -51z m3284 -9 c12 0 15 -13 5 -22 -3 -3 -25 5 -49 19 -30 16 -42 29 -38 39
4 12 12 10 39 -11 18 -14 37 -25 43 -25z m-1088 -216 l22 -23 -74 -36 c-40
-19 -78 -35 -84 -35 -6 0 -9 52 -8 148 2 231 -3 223 63 88 33 -65 69 -129 81
-142z m273 166 l49 -33 -24 -19 c-23 -18 -93 -58 -102 -58 -2 0 -7 30 -11 68
-4 37 -9 83 -12 102 l-5 35 28 -31 c15 -17 50 -46 77 -64z m608 19 c40 -38 63
-65 51 -59 -13 6 -27 19 -32 29 -6 10 -31 35 -56 56 l-47 38 -23 -29 c-20 -26
-25 -27 -49 -16 -15 6 -26 19 -25 29 1 17 2 17 6 1 6 -25 55 -23 71 2 7 11 16
20 21 20 5 0 42 -32 83 -71z m-3074 -13 c17 -17 32 -35 32 -42 0 -7 -17 -30
-37 -51 -40 -41 -110 -129 -116 -146 -1 -5 -22 3 -46 19 l-44 28 34 10 34 9
-44 7 c-31 5 -52 15 -68 35 -37 42 -15 53 41 20 55 -32 99 -31 104 2 3 18 12
24 43 29 71 12 73 57 4 110 -19 14 -32 31 -29 36 6 9 20 -1 92 -66z m2886 19
c26 -19 75 -19 96 0 16 15 21 12 64 -30 76 -76 54 -82 -117 -28 -118 37 -118
37 -95 55 28 21 28 21 52 3z m364 -36 c-3 -8 -7 -3 -11 10 -4 17 -3 21 5 13 5
-5 8 -16 6 -23z m-1429 -130 c70 -194 68 -177 29 -183 -18 -3 -62 -7 -98 -8
l-66 -4 22 76 c12 42 28 120 35 173 7 53 17 93 21 89 5 -5 30 -69 57 -143z
m-1960 101 c15 -22 15 -23 -4 -12 -11 5 -29 20 -40 31 -19 22 -19 22 5 13 13
-5 31 -19 39 -32z m2941 6 c0 -2 -8 -10 -17 -17 -16 -13 -17 -12 -4 4 13 16
21 21 21 13z m102 -46 c35 -7 80 -17 100 -22 20 -6 59 -8 87 -4 28 4 51 5 51
2 0 -3 -20 -21 -45 -42 -40 -33 -47 -35 -58 -21 -21 27 -94 58 -164 70 -37 6
-70 12 -72 13 -9 7 13 25 25 20 7 -3 41 -10 76 -16z m-3054 -4 c7 -4 12 -11
12 -16 0 -11 -26 -3 -54 16 -18 12 -17 13 5 10 14 -1 30 -6 37 -10z m263 -110
c-39 -39 -79 -83 -91 -98 -22 -28 -26 -81 -10 -123 l10 -27 -37 30 c-21 17
-49 42 -62 56 l-24 26 26 0 c33 0 50 30 45 78 -4 31 1 41 43 85 45 47 50 50
73 39 29 -13 52 -7 60 15 5 12 9 13 22 3 13 -11 5 -23 -55 -84z m2629 33 c0
-15 -4 -30 -9 -33 -5 -4 -7 3 -4 14 3 11 2 32 -1 46 l-7 27 -32 -29 c-17 -16
-25 -20 -17 -9 28 40 44 47 57 28 7 -9 13 -29 13 -44z m213 15 c41 -21 77 -54
77 -71 0 -19 10 -16 44 15 l31 27 -29 -32 c-33 -37 -56 -42 -56 -14 0 38 -105
91 -181 91 -15 0 -30 4 -33 8 -8 14 112 -6 147 -24z m-383 -14 c0 -6 -18 -17
-40 -26 -44 -18 -51 -38 -24 -79 9 -14 13 -25 9 -25 -17 0 -115 34 -115 39 0
7 14 16 99 68 58 35 71 39 71 23z m385 -31 c24 -15 35 -28 35 -44 0 -13 8 -29
18 -34 15 -9 1 -26 -103 -126 -104 -100 -133 -122 -220 -165 -108 -54 -127
-60 -102 -32 23 25 21 68 -3 102 l-20 28 72 -5 c63 -5 76 -3 97 14 24 19 24
21 11 79 -20 93 -19 107 12 122 33 15 68 58 68 82 0 15 6 16 50 8 28 -5 66
-18 85 -29z m-2771 10 c-10 -11 -28 -25 -39 -30 -11 -6 -4 4 15 21 40 35 52
39 24 9z m126 -93 l32 -13 -43 -32 c-36 -26 -44 -29 -52 -16 -4 8 -20 15 -34
15 -33 0 -93 -45 -93 -70 0 -41 -43 -35 -58 8 -12 36 5 64 81 129 l61 52 37
-30 c20 -16 51 -35 69 -43z m2333 -3 c14 -43 28 -91 32 -107 6 -27 5 -28 -22
-22 -15 3 -59 9 -97 13 -55 5 -71 3 -80 -9 -9 -13 -17 -8 -45 30 -32 43 -33
45 -10 38 13 -3 49 -11 79 -17 30 -6 68 -17 83 -26 66 -35 76 20 17 95 l-41
51 23 15 c12 9 26 16 29 16 4 0 19 -35 32 -77z m-2523 44 c0 -2 -12 -14 -27
-28 l-28 -24 24 28 c23 25 31 32 31 24z m2490 -111 c0 -4 -8 -5 -17 -1 -10 4
-40 10 -68 15 -27 5 -70 16 -94 24 -53 20 -48 20 -61 -3 -8 -16 -1 -31 44 -88
29 -37 68 -92 85 -120 34 -56 38 -58 60 -44 15 10 6 32 -36 87 -38 51 -32 61
35 53 31 -4 78 -8 105 -8 56 -1 57 4 28 99 -23 72 -11 69 13 -3 33 -100 10
-128 -88 -106 -28 6 -63 9 -78 7 l-27 -3 36 -58 c33 -53 35 -59 21 -74 -23
-22 -44 -11 -76 43 -15 25 -49 74 -75 108 -27 33 -53 69 -58 78 -20 37 21 69
61 48 23 -12 160 -40 160 -33 0 3 -10 19 -21 36 -17 25 -14 24 15 -8 19 -22
35 -44 36 -49z m-2729 27 c13 -16 12 -17 -3 -4 -10 7 -18 15 -18 17 0 8 8 3
21 -13z m534 7 c-3 -5 -16 -10 -29 -10 -26 0 -96 -47 -120 -82 -9 -12 -16 -41
-16 -63 -1 -22 -7 -53 -15 -70 -16 -35 -20 -19 -4 21 12 33 4 75 -14 69 -6 -2
-39 -6 -73 -9 -46 -4 -66 -2 -80 10 -18 14 -18 14 4 4 17 -8 32 -8 57 0 29 10
33 14 25 29 -9 19 4 38 40 55 8 4 4 -1 -9 -11 l-23 -20 25 -27 26 -28 6 39
c10 57 13 62 14 18 l1 -39 49 48 c26 26 66 54 87 61 47 17 57 18 49 5z m1909
-5 c-4 -8 -1 -22 6 -30 7 -9 10 -19 6 -23 -4 -4 -16 4 -26 18 -18 23 -18 26
-3 38 22 16 24 15 17 -3z m-1779 -85 c0 -8 -16 -22 -35 -33 -33 -18 -24 -7 17
20 16 11 16 14 3 22 -8 5 -24 17 -35 26 -15 13 -12 12 15 -2 19 -11 35 -25 35
-33z m1741 32 c1 -7 0 -8 -3 -2 -7 15 -21 12 -79 -16 -29 -14 -63 -24 -76 -21
-18 3 -13 6 18 11 23 5 55 17 70 27 32 21 66 21 70 1z m-1825 -19 c13 -16 12
-17 -3 -4 -17 13 -22 21 -14 21 2 0 10 -8 17 -17z m175 -54 c-20 -24 -26 -41
-26 -80 0 -48 1 -49 30 -49 36 0 55 29 45 74 -12 62 -10 78 13 93 12 9 22 11
22 5 0 -5 -9 -12 -20 -15 -23 -6 -25 -24 -6 -61 17 -34 9 -72 -21 -96 -17 -13
-31 -17 -46 -11 -35 13 -36 92 -3 140 14 20 27 44 27 52 1 9 3 8 6 -4 2 -9 -7
-31 -21 -48z m-217 42 c17 -11 -1 -46 -28 -54 -15 -3 -21 2 -26 21 -9 35 21
53 54 33z m191 -3 c0 -6 -8 -20 -17 -30 -9 -10 -18 -42 -21 -73 l-4 -55 -45 0
c-25 0 -60 -7 -79 -16 -81 -39 -38 39 57 102 40 26 74 56 77 66 5 20 32 25 32
6z m1643 -8 c-3 -11 -7 -20 -9 -20 -2 0 -4 9 -4 20 0 11 4 20 9 20 5 0 7 -9 4
-20z m-1940 -47 c-6 -25 32 -82 40 -61 2 7 7 11 10 8 3 -3 0 -30 -6 -62 l-12
-56 -43 25 c-42 25 -43 27 -36 62 4 20 7 49 6 64 -1 16 6 40 15 54 16 23 17
24 24 7 4 -11 5 -29 2 -41z m468 6 l29 -21 -20 -28 c-11 -15 -20 -33 -20 -39
0 -6 -18 -22 -40 -36 -51 -32 -54 -68 -9 -120 34 -39 26 -47 -14 -15 -15 12
-31 37 -36 57 -9 33 -8 37 24 68 28 26 35 40 35 71 0 22 -4 46 -9 54 -22 34
17 40 60 9z m1235 -1 c-29 -41 -20 -71 29 -95 25 -13 52 -23 60 -23 12 0 8 -9
-14 -37 -59 -76 -50 -114 31 -134 29 -7 48 -14 41 -16 -24 -8 -93 18 -109 42
-13 20 -14 31 -5 57 6 17 19 40 28 50 19 21 17 24 -45 58 -40 22 -47 30 -45
54 1 16 10 37 19 47 23 26 29 24 10 -3z m321 0 c-3 -8 -6 -5 -6 6 -1 11 2 17
5 13 3 -3 4 -12 1 -19z m-1517 -73 c-19 -35 -45 -69 -57 -74 -36 -17 -38 -37
-6 -78 16 -21 33 -44 37 -51 10 -16 -11 -42 -33 -42 -12 1 -11 3 5 13 26 15
21 31 -22 80 -19 20 -34 41 -34 47 0 5 18 21 40 35 22 14 40 30 40 35 0 6 12
28 26 50 17 25 24 46 20 57 -6 15 -5 16 6 5 10 -10 6 -24 -22 -77z m1144 63
c-9 -32 -8 -31 -44 -9 -32 19 -32 19 -9 24 54 10 61 8 53 -15z m273 -102 c-1
-13 -12 -20 -35 -22 -72 -8 -90 -39 -51 -88 22 -28 66 -35 87 -14 9 9 12 7 12
-10 0 -29 -37 -38 -98 -22 -47 12 -72 26 -72 40 0 5 16 30 36 55 19 26 33 53
30 60 -3 9 4 15 17 17 18 2 23 10 25 48 5 67 24 70 39 7 7 -28 12 -61 10 -71z
m-1317 70 c0 -18 4 -36 9 -41 6 -6 -3 -11 -25 -12 -20 -1 -42 -7 -50 -14 -24
-20 -27 -2 -5 29 12 17 21 41 21 55 0 20 4 23 25 19 20 -3 25 -10 25 -36z
m1178 -1 c28 -40 29 -45 12 -45 -10 0 -35 9 -54 21 -34 20 -35 21 -20 45 9 13
19 24 23 24 4 0 21 -20 39 -45z m-1908 18 c-14 -9 -28 -22 -32 -27 -5 -8 -8
-7 -8 0 0 12 38 43 55 43 5 1 -2 -7 -15 -16z m1575 -2 c-22 -10 -46 -16 -53
-13 -18 6 -9 13 30 22 56 13 65 10 23 -9z m537 -4 c-9 -10 -8 -18 2 -32 18
-25 45 -13 52 25 7 33 18 39 28 14 8 -21 -37 -67 -61 -62 -9 2 -24 16 -33 31
-13 24 -13 29 0 37 19 12 26 4 12 -13z m157 -42 c26 -43 51 -70 71 -78 29 -13
29 -13 -93 -64 l-124 -50 -11 44 c-7 24 -12 59 -12 78 0 33 2 35 25 29 16 -4
36 1 60 16 29 18 35 27 35 56 0 19 2 34 4 34 2 0 22 -29 45 -65z m-1789 14 c0
-11 -30 -32 -36 -26 -3 3 -3 20 1 38 7 31 8 32 21 14 8 -10 14 -22 14 -26z
m297 30 c-24 -14 -5 -39 29 -39 32 0 33 -5 10 -132 -8 -48 -23 -99 -32 -113
-21 -32 -12 -40 49 -50 38 -7 67 6 67 29 0 26 26 49 48 42 18 -6 22 -15 22
-46 0 -21 -3 -41 -7 -43 -5 -3 -8 13 -8 36 0 31 -4 42 -17 45 -11 2 -18 -6
-23 -27 -9 -44 -28 -55 -82 -47 -64 8 -82 26 -60 59 14 22 47 174 47 220 0 11
-8 17 -24 17 -13 0 -29 6 -35 14 -15 17 -4 46 18 46 14 -1 14 -2 -2 -11z m168
-21 c6 -6 -4 -7 -30 -2 -64 11 -86 25 -30 18 28 -4 55 -11 60 -16z m787 -3
c35 -24 85 -91 75 -101 -3 -3 -8 3 -11 14 -11 33 -93 102 -121 102 -13 0 -48
-9 -77 -20 -28 -10 -47 -15 -42 -10 14 14 85 38 114 39 14 1 42 -10 62 -24z
m-354 -10 c-59 -7 -123 -18 -143 -25 -31 -10 -36 -16 -33 -38 3 -24 7 -27 50
-30 26 -2 57 2 69 8 26 15 33 8 25 -25 -6 -23 -11 -25 -57 -25 -47 0 -50 -2
-47 -22 3 -20 9 -23 48 -23 42 0 45 -2 48 -29 4 -35 -10 -46 -61 -46 -31 0
-38 -3 -35 -17 3 -15 17 -18 88 -21 47 -2 99 0 117 3 29 5 32 9 36 48 3 40 4
40 5 -10 l2 -51 -84 -7 c-95 -8 -154 2 -170 28 -15 24 15 47 61 47 29 0 33 3
33 25 0 24 -2 25 -38 19 -29 -4 -43 -2 -55 11 -21 20 -21 29 -2 45 22 18 18
27 -15 34 -25 5 -30 10 -30 35 0 24 7 34 31 46 34 18 126 32 209 33 39 0 24
-4 -52 -13z m-344 -10 c-5 -12 -10 -13 -20 -4 -19 15 -18 19 6 19 13 0 18 -5
14 -15z m108 3 c15 -12 15 -22 -3 -123 -10 -60 -19 -114 -19 -119 0 -5 -2 -7
-5 -4 -3 3 2 56 12 117 18 121 16 130 -32 131 -17 0 -23 -10 -33 -58 -18 -86
-47 -109 -57 -44 -11 62 -16 72 -35 72 -11 0 -31 -16 -46 -35 -14 -19 -30 -35
-35 -35 -17 0 -9 60 11 80 22 22 40 26 40 10 0 -5 -9 -10 -20 -10 -15 0 -20
-7 -20 -27 l0 -27 28 27 c48 46 69 34 87 -48 6 -27 8 -28 20 -12 7 9 15 36 19
59 4 22 9 45 12 50 8 12 58 10 76 -4z m584 -30 c71 -62 80 -149 23 -204 -23
-22 -38 -27 -74 -27 -62 0 -109 44 -126 117 -15 70 -2 101 53 126 60 27 82 25
124 -12z m-291 -11 c-4 -12 -1 -35 4 -51 6 -15 14 -58 17 -95 l7 -68 -39 -6
c-61 -10 -78 -9 -67 5 6 7 11 57 11 110 1 110 -3 114 -67 92 -28 -9 -48 -11
-59 -5 -25 14 62 36 161 40 34 1 37 -1 32 -22z m-647 -16 c2 -13 -1 -28 -6
-33 -6 -6 -11 3 -14 26 -4 40 15 46 20 7z m314 -63 c-19 -125 -17 -121 -50
-113 -24 6 -25 5 -12 -8 8 -8 31 -24 51 -34 19 -10 34 -23 32 -28 -2 -6 -31
-9 -67 -7 l-63 4 5 43 c4 38 1 45 -21 60 -39 25 -69 16 -90 -27 -13 -27 -25
-38 -41 -38 -32 0 -35 6 -20 48 7 20 13 52 14 69 0 31 1 32 32 26 28 -5 35 -2
64 32 l32 38 7 -34 c11 -58 15 -67 32 -73 27 -11 61 21 73 66 16 61 18 68 28
68 4 0 1 -42 -6 -92z m-369 65 c-7 -2 -19 -2 -25 0 -7 3 -2 5 12 5 14 0 19 -2
13 -5z m-315 -30 c13 -10 32 -40 42 -66 11 -27 27 -56 37 -64 16 -14 15 -14
-7 -1 -15 9 -32 35 -44 66 -23 64 -67 87 -141 73 -26 -5 -43 -5 -38 -1 26 25
114 21 151 -7z m1119 -118 c28 -50 73 -80 131 -86 l57 -6 -51 -2 c-104 -3
-179 96 -164 219 2 14 6 -4 10 -40 3 -36 11 -74 17 -85z m316 119 c-7 -19 -10
-18 -16 5 -3 13 -1 18 9 14 7 -2 10 -11 7 -19z m224 -6 c-3 -7 -5 -2 -5 12 0
14 2 19 5 13 2 -7 2 -19 0 -25z m-1340 7 c0 -8 -4 -12 -9 -9 -5 3 -6 10 -3 15
9 13 12 11 12 -6z m-118 -70 c0 -17 -3 -16 -24 9 -22 27 -22 31 -7 42 14 11
18 9 24 -9 3 -12 6 -31 7 -42z m81 46 c0 -19 -23 -35 -34 -24 -7 8 12 43 24
43 6 0 10 -9 10 -19z m-316 -3 c17 -7 29 -24 36 -47 5 -19 8 -36 6 -38 -1 -2
-33 16 -69 40 -37 24 -64 47 -60 51 10 10 60 7 87 -6z m1433 -35 c-3 -10 -5
-2 -5 17 0 19 2 27 5 18 2 -10 2 -26 0 -35z m-1070 5 c-3 -7 -5 -2 -5 12 0 14
2 19 5 13 2 -7 2 -19 0 -25z m454 -12 c3 -20 11 -42 17 -48 8 -8 6 -18 -6 -36
-15 -23 -15 -27 1 -53 16 -29 16 -29 -8 -29 -22 0 -24 3 -19 29 5 22 1 32 -16
44 -19 13 -21 21 -15 59 10 64 16 79 28 75 7 -2 15 -20 18 -41z m-445 -65 c-9
-16 -16 -40 -16 -51 0 -19 -4 -21 -30 -16 -16 3 -44 9 -61 12 -22 4 -29 10
-25 21 3 8 6 23 6 32 0 15 8 17 53 13 40 -3 56 0 66 12 21 25 24 12 7 -23z
m1144 -34 l35 -14 -55 -12 c-30 -6 -65 -14 -78 -18 l-23 -5 25 37 c15 21 26
42 26 48 0 6 8 3 18 -6 9 -8 33 -22 52 -30z m-315 -59 c5 -5 -8 -8 -28 -8 -35
0 -37 2 -37 32 l0 31 28 -24 c15 -13 31 -27 37 -31z"/>
<path d="M3792 4320 c-43 -31 -50 -44 -32 -55 6 -4 17 -22 25 -41 11 -26 20
-34 40 -34 82 0 105 79 41 143 -23 23 -26 22 -74 -13z m48 -60 c0 -11 -4 -20
-9 -20 -11 0 -22 26 -14 34 12 12 23 5 23 -14z"/>
<path d="M2685 4191 c-4 -15 -17 -21 -48 -23 -34 -2 -43 -7 -45 -25 -2 -14 -8
-20 -17 -17 -19 7 -55 -13 -55 -31 0 -8 5 -15 10 -15 6 0 10 5 10 10 0 15 26
12 40 -6 8 -8 25 -14 39 -12 21 2 26 8 24 30 -2 28 -1 28 27 13 25 -13 28 -19
23 -48 -4 -28 -1 -37 22 -55 15 -12 38 -22 51 -22 24 0 54 33 54 61 0 10 11
19 31 23 53 10 61 8 49 -13 -14 -28 -3 -48 31 -55 37 -7 37 -17 0 -44 -27 -20
-34 -20 -93 -10 -34 6 -76 17 -92 25 -36 19 -76 10 -76 -17 0 -20 -1 -20 -31
-5 -16 9 -44 36 -62 61 -43 61 -98 86 -192 87 -41 0 -80 -4 -87 -10 -8 -6 -21
-7 -33 -2 -38 15 -98 9 -150 -16 -85 -40 -205 -59 -220 -35 -3 6 -15 10 -26
10 -24 0 -25 -26 -1 -65 l19 -30 -86 -20 c-72 -17 -86 -23 -86 -40 0 -14 11
-24 35 -33 32 -11 26 -12 -55 -8 -49 3 -105 8 -122 11 -28 6 -33 4 -33 -12 0
-11 14 -32 30 -48 17 -16 30 -32 30 -36 0 -10 -130 -39 -173 -39 -41 0 -58
-27 -31 -47 10 -7 22 -13 26 -13 5 0 5 -12 2 -26 -5 -19 0 -32 22 -56 19 -20
25 -32 17 -35 -7 -3 -13 -12 -14 -21 0 -9 -21 -30 -47 -47 -95 -61 -146 -225
-123 -395 28 -209 121 -341 240 -339 l46 0 -40 15 c-80 29 -126 104 -166 270
-28 116 -23 218 16 301 45 100 90 133 178 133 41 0 69 -7 108 -28 52 -27 54
-30 51 -66 -2 -23 4 -51 17 -76 l21 -40 -22 -36 c-19 -32 -19 -39 -8 -73 7
-21 9 -49 6 -62 l-7 -24 21 25 c17 18 20 32 15 57 -4 25 -1 43 14 67 27 43 26
65 -4 106 -14 19 -25 39 -25 44 0 6 14 37 31 69 17 32 29 61 26 63 -3 4 -36
-35 -62 -74 -1 -1 -17 11 -35 28 -42 39 -80 59 -133 69 l-42 8 33 13 c43 16
40 44 -6 48 -43 4 -40 13 9 34 56 24 51 51 -11 58 l-45 5 65 18 c93 26 150 55
150 77 0 10 -6 21 -12 23 -7 3 5 6 27 6 44 1 273 45 282 55 4 3 -23 7 -58 7
-58 1 -131 13 -119 19 3 1 39 8 80 14 58 9 76 15 78 29 3 12 -6 21 -30 29
l-33 12 65 13 c36 7 96 29 133 48 37 19 79 35 93 35 32 0 94 -26 94 -39 0 -6
4 -11 9 -11 4 0 6 11 3 25 -4 24 -2 25 40 25 60 0 125 -35 163 -88 48 -69 221
-162 301 -162 61 0 73 37 22 63 -52 25 -3 21 51 -5 80 -37 98 -55 116 -111 10
-28 32 -82 51 -119 19 -38 31 -68 27 -68 -5 0 -13 10 -18 22 -13 28 -29 33
-47 14 -13 -12 -16 -8 -27 35 -7 27 -16 51 -20 53 -4 3 -5 -37 -3 -88 l4 -93
-48 -6 c-27 -3 -153 -3 -279 0 -127 3 -248 3 -268 -1 -43 -8 -101 -55 -124
-100 -12 -24 -15 -50 -10 -124 5 -77 2 -106 -14 -159 -11 -35 -18 -72 -16 -81
3 -15 5 -14 11 3 4 11 19 46 32 77 21 49 24 71 23 150 -2 104 3 120 57 168
l37 32 226 -5 c273 -6 691 15 691 34 0 4 -13 6 -30 3 -16 -4 -45 -3 -65 0 -28
6 -35 11 -35 30 0 13 -13 49 -29 79 -27 52 -28 55 -10 60 10 3 19 1 19 -4 0
-13 48 -11 52 2 3 9 10 8 25 -1 28 -18 52 -6 59 29 4 17 14 31 25 34 24 6 27
68 4 87 -13 10 -12 15 8 31 l22 19 -22 6 c-17 5 -23 15 -25 43 -3 32 -6 36
-30 36 -15 1 -35 9 -46 18 -24 22 -53 22 -59 -1 -4 -16 -13 -18 -74 -14 -62 3
-72 1 -94 -20 -14 -13 -25 -29 -25 -36 0 -9 -8 -9 -31 4 -25 12 -29 18 -18 25
8 5 22 9 31 9 10 0 22 10 29 21 9 17 7 26 -8 48 -15 21 -17 32 -9 53 15 42 -7
61 -62 55 -31 -3 -41 -2 -33 6 14 14 14 54 0 63 -6 3 -28 1 -49 -6 -33 -11
-41 -10 -61 4 -33 23 -76 21 -84 -3z m126 -39 c26 4 28 3 14 -12 -8 -9 -15
-22 -15 -29 0 -8 -6 -11 -16 -7 -9 3 -26 9 -37 12 -23 5 -51 50 -41 66 3 4 19
-1 35 -13 20 -14 40 -20 60 -17z m264 -288 c9 -4 21 -2 28 5 6 6 32 11 58 11
26 0 50 4 53 9 3 5 19 11 34 13 26 4 28 2 24 -21 -4 -21 -2 -23 17 -18 16 4
20 2 13 -6 -6 -7 -8 -27 -6 -44 2 -22 -1 -33 -9 -33 -7 0 -12 14 -12 37 0 38
0 38 -46 41 -41 3 -47 0 -57 -23 -17 -37 -15 -51 10 -75 19 -17 19 -20 5 -20
-10 0 -29 -7 -43 -16 -13 -9 -28 -13 -32 -9 -4 4 3 14 16 22 32 22 27 36 -7
18 l-29 -15 -18 53 c-9 28 -31 65 -47 80 -29 26 -29 28 -11 41 17 13 20 11 31
-15 7 -16 19 -32 28 -35z m-321 37 c4 -5 -3 -7 -14 -4 -23 6 -26 13 -6 13 8 0
17 -4 20 -9z m484 -90 c-5 -24 -48 -27 -48 -3 0 25 7 31 31 25 12 -3 19 -12
17 -22z m12 -61 c0 -5 -2 -10 -4 -10 -3 0 -8 5 -11 10 -3 6 -1 10 4 10 6 0 11
-4 11 -10z m-195 -220 c3 -5 -1 -10 -10 -10 -9 0 -13 5 -10 10 3 6 8 10 10 10
2 0 7 -4 10 -10z"/>
<path d="M2311 3918 c-23 -15 -47 -21 -75 -19 -30 1 -38 -1 -30 -9 23 -23 82
-23 133 -1 27 11 62 21 78 21 37 -1 97 -29 156 -73 26 -20 47 -34 47 -31 0 19
-29 51 -82 89 -57 43 -64 45 -127 45 -50 0 -74 -5 -100 -22z"/>
<path d="M2702 3799 c10 -5 42 -39 73 -75 57 -68 68 -70 36 -6 -27 54 -69 92
-100 92 -22 -1 -23 -2 -9 -11z"/>
<path d="M2141 3760 c-114 -44 -134 -46 -171 -25 -29 17 -86 20 -95 5 -4 -6 5
-10 20 -10 14 0 43 -12 65 -26 50 -33 93 -30 205 16 158 64 212 63 282 -6 51
-52 58 -35 9 22 -65 77 -158 83 -315 24z"/>
<path d="M2425 3790 c3 -5 14 -10 24 -10 10 0 34 -12 54 -27 112 -87 167 -137
191 -174 37 -55 44 -43 14 23 -26 56 -121 149 -185 182 -35 18 -108 22 -98 6z"/>
<path d="M2926 3723 c7 -21 13 -60 14 -88 0 -36 3 -46 10 -35 15 24 12 113 -6
138 -24 34 -33 26 -18 -15z"/>
<path d="M2122 3656 c-18 -9 -58 -36 -89 -62 -55 -45 -59 -46 -107 -39 -27 3
-65 13 -83 20 -54 23 -36 -5 22 -35 34 -17 66 -25 101 -25 45 0 57 5 98 40 74
62 98 75 142 75 36 0 50 -7 93 -46 28 -25 51 -42 51 -36 0 12 -56 82 -79 98
-29 21 -112 26 -149 10z"/>
<path d="M2126 3499 c-97 -14 -161 -75 -186 -178 -10 -43 -9 -53 20 -122 l31
-74 -6 60 c-8 97 -7 112 16 165 30 69 83 115 153 131 31 7 56 16 56 21 0 9 -2
9 -84 -3z"/>
<path d="M3340 3505 c0 -4 18 -27 40 -52 42 -48 60 -94 60 -155 0 -43 -65
-350 -80 -378 -19 -35 -83 -55 -92 -28 -3 8 -11 7 -28 -5 -36 -25 -50 -21 -50
13 0 21 6 32 18 36 41 12 67 31 85 62 20 35 16 57 -6 29 -6 -9 -34 -25 -61
-37 -50 -21 -62 -19 -92 19 -7 9 -13 10 -18 3 -3 -6 4 -23 17 -39 19 -22 23
-36 19 -66 -2 -21 1 -44 8 -52 18 -21 64 -19 85 5 14 15 21 17 32 9 7 -7 28
-9 49 -6 30 5 34 4 24 -8 -6 -8 -27 -19 -46 -25 -41 -14 -46 -33 -6 -24 27 7
27 7 8 -15 -22 -25 -14 -40 11 -20 15 12 16 12 10 -4 -4 -10 -7 -30 -7 -43 0
-18 -5 -24 -21 -24 -19 0 -21 -4 -15 -32 4 -18 16 -42 27 -53 l21 -20 -6 28
c-6 25 -5 27 19 21 29 -7 33 9 13 63 -10 28 -9 45 6 101 9 37 28 90 41 117 39
85 78 274 73 363 -4 95 -26 141 -91 189 -26 19 -47 32 -47 28z"/>
<path d="M2588 3386 c-25 -7 -57 -20 -70 -29 -13 -10 -37 -27 -55 -40 -18 -12
-41 -41 -51 -65 -12 -28 -30 -49 -53 -61 -40 -22 -57 -59 -43 -98 8 -24 16
-29 59 -33 28 -3 56 -9 63 -13 6 -5 12 -4 12 1 0 15 -22 29 -58 37 -27 6 -52
29 -52 49 0 3 18 17 41 31 23 15 46 40 55 60 24 59 91 100 197 120 98 19 201
1 232 -40 55 -73 72 -85 118 -85 38 0 49 5 71 31 14 17 26 37 26 45 0 30 47
46 121 42 67 -4 73 -6 104 -39 l32 -35 -2 -122 c-1 -102 -4 -124 -20 -142 -26
-29 1 -25 30 5 19 18 25 35 25 69 0 25 5 77 12 116 11 65 10 74 -7 107 -11 20
-37 48 -59 62 -35 23 -50 26 -125 26 -105 0 -141 -15 -157 -65 -10 -30 -16
-35 -47 -38 -33 -3 -38 0 -54 34 -17 34 -25 39 -97 61 -89 26 -174 29 -248 9z"/>
<path d="M2120 3367 c0 -4 5 -16 12 -27 18 -28 1 -63 -52 -102 -71 -54 -80
-119 -20 -155 37 -22 37 -33 0 -85 -48 -65 -36 -79 20 -23 62 61 68 101 20
137 -41 30 -38 56 15 108 51 50 59 91 25 131 -10 13 -19 21 -20 16z"/>
<path d="M2554 3201 c-35 -21 -65 -67 -84 -124 -17 -54 -6 -57 20 -6 23 45 31
42 44 -13 5 -23 4 -25 -17 -20 -45 11 1 -25 48 -38 69 -19 152 -8 184 26 22
23 23 26 6 19 -11 -4 -30 -10 -42 -12 -21 -5 -21 -5 -5 30 l17 34 24 -18 c13
-11 40 -19 60 -19 l36 0 -35 18 c-20 9 -48 38 -65 64 -16 26 -42 54 -57 62
-35 22 -96 20 -134 -3z"/>
<path d="M3035 3186 c9 -13 16 -42 17 -64 0 -44 4 -51 33 -70 42 -26 70 -33
124 -30 54 3 56 4 79 45 l23 42 -25 40 c-33 52 -58 64 -119 58 -37 -3 -54 -10
-68 -28 l-18 -24 -21 28 c-27 33 -46 36 -25 3z"/>
<path d="M2875 3180 c-3 -11 -15 -25 -26 -30 -21 -12 -25 -36 -7 -42 8 -3 12
-19 9 -44 -3 -46 0 -44 34 21 19 35 23 50 14 55 -7 5 -9 18 -5 34 7 30 -10 36
-19 6z"/>
<path d="M2993 3044 c-3 -9 0 -41 6 -72 7 -32 15 -66 17 -77 7 -35 69 -99 89
-91 15 5 16 15 11 64 -12 121 -18 139 -59 166 -44 30 -55 32 -64 10z"/>
<path d="M2892 3028 c-7 -7 -12 -18 -12 -26 0 -8 -9 -25 -20 -39 -28 -36 -27
-103 3 -131 37 -35 76 -45 103 -27 20 13 24 24 24 68 -1 75 -15 128 -42 149
-27 21 -40 22 -56 6z"/>
<path d="M2791 3003 c-12 -15 -35 -47 -52 -70 -41 -60 -150 -115 -203 -103
-21 4 -46 16 -56 25 -26 23 -50 77 -50 112 0 22 -2 25 -10 13 -14 -20 -2 -88
21 -126 19 -32 43 -44 87 -44 23 0 23 -6 5 -72 -7 -28 3 -21 24 15 15 24 34
37 74 51 79 27 118 60 145 125 13 31 29 64 35 74 17 31 3 30 -20 0z"/>
<path d="M2470 3004 c0 -28 31 -83 62 -109 33 -28 75 -32 104 -10 18 13 16 14
-22 15 -32 0 -47 7 -73 32 -18 17 -39 44 -47 60 -16 32 -24 35 -24 12z"/>
<path d="M1666 2911 c-51 -105 -56 -130 -26 -138 11 -3 20 -8 20 -11 0 -3 -18
-36 -40 -73 -42 -71 -50 -106 -25 -115 8 -3 27 3 42 13 51 36 56 37 38 10 -9
-14 -19 -50 -22 -81 -7 -66 8 -79 63 -52 46 22 51 21 57 -13 5 -25 12 -31 44
-36 21 -4 43 -8 49 -10 6 -2 14 -31 17 -66 7 -79 30 -112 83 -119 73 -10 107
-106 84 -239 -22 -118 9 -187 86 -198 33 -4 45 -1 72 22 39 33 35 44 -6 20
-36 -22 -76 -14 -94 18 -8 14 -13 67 -13 152 0 106 -3 137 -19 167 -19 40 -78
83 -100 75 -8 -3 -22 0 -33 8 -15 11 -19 30 -22 102 -1 48 -8 94 -13 101 -6 6
-27 12 -47 12 -33 0 -38 4 -50 36 -13 36 -14 36 -61 32 l-48 -5 10 28 c5 15
18 35 29 45 38 34 17 74 -38 74 l-33 0 20 40 c26 51 26 90 0 97 -26 7 -25 14
5 103 14 41 24 79 21 85 -2 5 -24 -32 -50 -84z"/>
<path d="M2047 2848 c-46 -57 -67 -100 -67 -139 l0 -32 49 6 c57 7 61 2 61
-72 0 -50 10 -66 58 -91 36 -18 38 -4 4 25 -30 25 -31 28 -25 89 4 41 1 70 -7
85 -11 21 -17 23 -55 17 l-44 -5 11 32 c6 17 21 48 33 67 12 19 25 41 29 48
18 29 -16 8 -47 -30z"/>
<path d="M2778 2833 c-18 -30 -78 -94 -150 -159 -27 -24 -47 -52 -51 -70 -6
-31 2 -49 11 -24 6 16 30 40 109 107 41 34 113 141 113 167 0 15 -17 4 -32
-21z"/>
<path d="M3013 2764 c4 -16 12 -84 19 -152 9 -93 14 -118 22 -105 17 29 12
162 -8 220 -20 59 -43 85 -33 37z"/>
<path d="M3087 2704 c9 -58 25 -79 19 -25 -2 24 -9 48 -15 54 -7 7 -8 -2 -4
-29z"/>
<path d="M2310 2720 c0 -6 4 -9 9 -6 15 10 28 -18 33 -71 3 -29 11 -59 18 -68
16 -19 51 -19 76 0 18 15 17 16 -13 10 -35 -7 -32 -12 -60 105 -7 28 -14 36
-36 38 -15 2 -27 -2 -27 -8z"/>
<path d="M3220 2637 c0 -8 9 -22 20 -32 27 -24 28 -105 2 -128 -10 -10 -22
-14 -25 -10 -4 3 -7 -5 -7 -18 0 -35 47 -101 69 -97 10 2 25 -3 35 -11 19 -16
98 -34 140 -33 58 2 78 29 120 157 20 63 21 104 1 112 -9 3 -24 -2 -33 -11
-15 -13 -23 -14 -50 -4 -24 10 -37 10 -51 1 -11 -7 -23 -8 -32 -2 -8 5 -31 9
-51 9 -26 0 -40 6 -48 19 -9 18 -69 61 -84 61 -3 0 -6 -6 -6 -13z"/>
<path d="M1515 2621 c9 -30 -31 -122 -97 -222 -67 -103 -93 -155 -103 -211 -6
-29 -4 -39 8 -44 8 -3 17 -22 21 -42 6 -41 82 -152 120 -178 30 -19 116 -46
116 -36 -1 4 -24 21 -52 37 -42 25 -59 44 -95 108 l-45 77 25 43 c30 50 23 73
-17 63 -26 -6 -26 -6 -13 26 8 18 37 70 64 114 46 75 71 134 87 207 7 32 -2
77 -16 77 -5 0 -7 -8 -3 -19z"/>
<path d="M2763 2569 c-25 -38 -116 -119 -134 -119 -4 0 -9 -12 -11 -27 -4 -34
-33 -42 -103 -31 -41 6 -52 5 -62 -8 -11 -15 -16 -15 -63 2 -50 18 -52 18 -65
0 -12 -16 -18 -17 -49 -6 -20 6 -38 16 -41 21 -11 17 -71 10 -90 -11 -10 -11
-29 -20 -42 -20 -38 0 -30 -38 11 -55 32 -14 34 -17 30 -52 -7 -53 22 -94 98
-144 53 -34 68 -39 93 -33 17 4 52 7 78 6 26 -1 64 5 84 13 26 11 39 12 49 4
23 -19 90 9 169 71 41 33 81 60 89 60 8 0 27 16 42 35 14 19 32 35 39 35 16 0
38 34 54 82 11 33 10 39 -10 62 -14 16 -33 26 -50 26 -32 0 -49 23 -49 67 0
16 -9 36 -20 46 -19 16 -21 15 -47 -24z"/>
<path d="M1635 2443 c28 -67 28 -87 -4 -166 -51 -127 -38 -249 34 -305 33 -26
115 -52 164 -52 35 0 34 1 -24 25 -73 30 -103 52 -132 95 -30 43 -31 139 -3
228 25 80 25 95 -1 149 -20 41 -50 64 -34 26z"/>
<path d="M1830 2319 c-48 -106 -4 -210 88 -209 26 1 26 1 -10 20 -53 28 -76
92 -60 168 6 31 10 58 7 60 -3 3 -14 -15 -25 -39z"/>
<path d="M3024 2257 c-44 -18 -99 -44 -121 -57 -56 -34 -184 -144 -172 -148 5
-2 44 19 87 46 99 63 123 75 223 112 91 33 168 39 222 17 18 -8 57 -36 87 -64
47 -43 100 -75 100 -60 0 6 -58 74 -105 123 -71 75 -186 86 -321 31z"/>
<path d="M3090 2211 c-76 -24 -230 -118 -230 -141 0 -4 30 7 68 26 113 56 213
85 253 74 47 -14 62 -13 85 6 18 15 18 15 -5 10 -13 -3 -36 1 -50 8 -36 18
-91 26 -121 17z"/>
<path d="M3166 1904 c-3 -9 -6 -30 -6 -47 0 -18 -5 -39 -10 -47 -8 -13 -10
-12 -10 3 0 9 -5 17 -10 17 -11 0 -3 -49 11 -64 13 -15 38 13 45 49 5 26 10
32 25 28 23 -6 59 23 59 48 0 26 -17 32 -23 9 -7 -26 -37 -26 -37 0 0 24 -35
28 -44 4z"/>
<path d="M3082 1870 c3 -42 1 -45 -24 -48 -16 -2 -28 -7 -28 -11 0 -5 -11 -6
-24 -4 -18 4 -26 0 -31 -16 -6 -20 -8 -20 -35 -6 -16 8 -36 15 -45 15 -21 0
-19 -36 3 -68 35 -51 35 -51 -5 -45 -40 7 -123 66 -123 89 0 7 -4 16 -10 19
-26 16 -6 -49 30 -94 22 -28 40 -53 40 -55 0 -3 -17 -4 -37 -3 -34 2 -38 0
-36 -20 2 -20 -1 -22 -27 -16 -30 5 -30 5 -30 -43 l0 -49 -31 38 c-40 48 -48
41 -15 -12 30 -48 61 -54 78 -16 7 16 19 25 34 25 14 0 25 8 29 20 4 12 15 20
29 20 30 0 49 23 49 59 l0 29 43 -16 c51 -19 62 -12 47 27 -10 27 -9 29 21 36
17 4 38 8 46 9 8 0 19 11 25 23 5 12 19 23 30 25 26 4 33 66 10 105 l-15 28 2
-45z"/>
<path d="M1680 1811 c17 -33 102 -99 175 -137 39 -21 90 -51 115 -69 25 -18
63 -42 85 -53 57 -28 266 -80 356 -88 82 -7 159 2 159 17 0 6 -15 7 -35 3 -21
-4 -55 0 -87 9 -29 9 -111 30 -183 48 -158 38 -176 45 -258 102 -36 24 -96 56
-134 71 -37 16 -96 48 -131 72 -71 49 -77 52 -62 25z"/>
<path d="M4393 1554 c-33 -38 -30 -71 7 -79 48 -11 70 1 70 40 0 24 -7 37 -25
49 -30 20 -26 21 -52 -10z m47 -40 c0 -8 -9 -14 -20 -14 -23 0 -25 6 -7 24 14
16 27 11 27 -10z"/>
<path d="M2903 348 c-30 -14 -48 -70 -33 -98 6 -12 10 -23 8 -24 -2 -2 -12 -8
-23 -14 l-20 -11 20 0 c74 -1 145 44 145 90 0 23 -42 69 -62 68 -7 0 -23 -5
-35 -11z m37 -83 c-9 -11 -16 -13 -23 -6 -7 7 -6 15 3 26 9 11 16 13 23 6 7
-7 6 -15 -3 -26z"/>
</g>
</svg>
