<?xml version="1.0" standalone="no"?>
<!DOCTYPE svg PUBLIC "-//W3C//DTD SVG 20010904//EN"
 "http://www.w3.org/TR/2001/REC-SVG-20010904/DTD/svg10.dtd">
<svg version="1.0" xmlns="http://www.w3.org/2000/svg"
 width="492.000000pt" height="430.000000pt" viewBox="0 0 492.000000 430.000000"
 preserveAspectRatio="xMidYMid meet">
<metadata>
Created by potrace 1.16, written by Peter Selinger 2001-2019
</metadata>
<g transform="translate(0.000000,430.000000) scale(0.100000,-0.100000)"
fill="currentColor" stroke="none">
<path d="M2371 4287 c-19 -6 -51 -27 -71 -46 -23 -23 -208 -332 -501 -836
-489 -843 -486 -838 -444 -885 26 -28 85 -27 112 3 11 12 221 371 468 797 246
426 461 788 477 803 33 31 68 31 99 -1 9 -9 216 -361 459 -782 243 -421 451
-773 462 -782 45 -40 128 -2 128 57 0 16 -167 315 -436 778 -240 414 -451 775
-469 803 -58 89 -174 126 -284 91z"/>
<path d="M2303 2928 c-11 -13 -80 -133 -153 -268 -149 -273 -286 -509 -397
-677 -41 -62 -75 -113 -76 -114 -1 0 -58 -6 -127 -13 l-125 -12 -23 25 c-13
15 -126 146 -250 294 -208 246 -228 267 -258 267 -17 0 -37 -7 -44 -15 -8 -10
-17 -107 -26 -302 -8 -159 -15 -294 -16 -302 -2 -8 -63 49 -137 127 -111 118
-139 142 -162 142 -19 0 -34 -8 -43 -23 -14 -21 -10 -56 39 -387 30 -200 59
-368 63 -372 13 -13 3714 181 3729 196 8 7 17 130 28 379 15 348 15 370 -1
388 -20 22 -53 25 -76 7 -8 -7 -64 -77 -123 -156 -59 -78 -110 -140 -112 -138
-3 2 -24 131 -48 285 -24 155 -46 290 -50 301 -7 22 -43 35 -72 26 -10 -3
-114 -147 -231 -320 l-214 -314 -121 -4 c-67 -3 -128 -2 -135 2 -39 19 -330
403 -557 735 -86 127 -166 238 -177 248 -29 24 -80 22 -105 -5z m191 -781 l77
-128 -67 -147 c-36 -81 -71 -150 -78 -154 -6 -4 -16 -2 -22 5 -20 23 -164 266
-164 278 0 14 118 278 133 297 15 19 30 -1 121 -151z"/>
<path d="M2346 1214 c-973 -52 -1772 -96 -1775 -99 -5 -6 19 -547 25 -554 2
-2 34 -3 71 -2 191 6 3667 191 3671 196 6 6 -18 536 -25 548 -8 13 -188 5
-1967 -89z m996 -104 c20 -6 50 -26 67 -46 26 -29 31 -43 31 -86 0 -45 -4 -54
-38 -88 -49 -49 -97 -60 -149 -33 -107 56 -108 186 -3 241 51 26 45 25 92 12z
m-1674 -100 c34 -15 47 -29 64 -66 17 -40 19 -53 9 -84 -14 -48 -54 -87 -101
-101 -56 -17 -121 16 -149 75 -26 52 -26 60 -1 114 15 33 29 47 62 62 53 24
63 24 116 0z m847 -15 c50 -49 16 -135 -53 -137 -44 -1 -85 38 -85 81 0 72 87
107 138 56z"/>
<path d="M4533 820 c-26 -11 -43 -40 -43 -73 0 -14 61 -130 135 -258 85 -147
135 -244 135 -261 0 -32 -28 -65 -62 -73 -13 -3 -1029 -4 -2259 -3 -2149 3
-2238 4 -2257 21 -45 41 -41 56 88 277 124 214 135 244 104 288 -12 17 -25 22
-58 22 -24 0 -48 -6 -54 -13 -22 -26 -240 -407 -251 -438 -29 -83 -4 -185 60
-246 72 -68 -131 -63 2391 -63 2187 0 2285 1 2323 19 86 39 142 139 132 237
-5 49 -23 86 -142 292 -76 131 -145 245 -154 254 -21 22 -60 30 -88 18z"/>
</g>
</svg>
